<?xml version="1.0" encoding="utf-8"?>
<!-- Generator: Adobe Illustrator 19.0.0, SVG Export Plug-In . SVG Version: 6.00 Build 0)  -->
<!DOCTYPE svg PUBLIC "-//W3C//DTD SVG 1.1//EN" "http://www.w3.org/Graphics/SVG/1.1/DTD/svg11.dtd">
<svg version="1.1" id="Layer_1" xmlns="http://www.w3.org/2000/svg" xmlns:xlink="http://www.w3.org/1999/xlink" x="0px" y="0px"
	 viewBox="29.2 325 144 144" style="enable-background:new 29.2 325 144 144;" xml:space="preserve">
<style type="text/css">
	.st0{fill:#4F4F4F;}
	.st1{fill:#EBE8DC;}
</style>
<g>
	<path class="st0" d="M139.8,367.2L139.8,367.2c-1,0.2-2,0.8-2.7,1.5c-0.8,0.7-1.4,1.8-1.8,2.9c-1.3,3.8-2.3,7.6-3.6,11.3
		c-1.6,4.9-1,5.7,4.2,4.7c1-0.2,2-1.5,2.5-2.4c0.7-1.4,0.7-3,1.1-4.5c0.9-3.6,1.7-7.1,2.6-10.9C142.9,366.4,139.8,367.2,139.8,367.2
		z"/>
	<path class="st0" d="M59.7,418.1c5.6-1.7,13.4-2,20.6,4.5c0,0,0.2,0.1,0.3,0.3c8.5,12.1,5.8,22.1,5.8,22.1c0.1,0.7,0.7,0.4,0.7,0.4
		s9.4-5.9,15.4-25.7c3.9-10.9,6.5-22,6.5-22c7.7-35.1,17.3-46.6,19.1-48.5c1.9-1.9,4.1-3.7,6.4-5.3c2.5-1.7,5.2-2.9,8-3.6
		c-11.5-8.4-25.8-13.4-41.2-13.4c-38.7,0-70,31.4-70,70c0,15,4.7,29,12.8,40.4C46.9,422.8,58.2,418.7,59.7,418.1z"/>
	<path class="st0" d="M159,357.4c-1.4,5.2-2.9,10.5-4.4,15.7c-0.8,2.8-1.3,5.7-2,8.6c-0.5,2.2,0.3,3.3,2.6,2.9
		c1.5-0.3,3.1-0.6,4.6-0.9c2.7-0.4,3.9,0.7,4,3.4c0.2,5.9-5.6,14.7-11.7,16.9c-2.6,1-3.5,2.5-3.5,4.9c-0.2,6.2,0.7,12.1,2.8,17.7
		c0.6,1.4,2.2,4.6,4.2,6.7c0.3,0.3,0.6,0.6,0.9,0.8c0.6,0.4,1.2,0.9,1.9,1.3c0.4,0.2,0.7,0.3,1,0.4c7.4-11.1,11.7-24.5,11.7-38.8
		C171.3,382.3,166.7,368.6,159,357.4z"/>
	<path class="st0" d="M60.5,447.2c0.9,1.6,3.2,4.7,7,5.2h1.3c0,0,4.2-3.2,4.2-11.4c0.1-0.1,0-0.3,0.1-0.4v-0.1
		c0-3.6-1.2-5.8-1.2-5.8c-0.9-1.9-2.5-3.6-5.4-3.8c0,0-4.8-1.1-7.1,7.5c0,0-0.9,4.1,0.6,7.7c0,0,0.1,0.1,0.1,0.2
		C60.2,446.7,60.3,447,60.5,447.2z"/>
	<path class="st0" d="M138.3,437.6c-1.6-3.4-3.1-8-3.2-13.5l-0.6-14.1c0,0,0.2-3.3-1.8-3.4h0.1c-0.3-0.1-0.4-0.1-0.6-0.1
		c-6.6-0.5-6.9-0.4-8.4,5.8c-0.4,1.4-0.7,2.8-1.2,4.2v0.1c0,0-3.5,12.3-6.8,18.9c-2.7,5.9-6.9,13.3-13.2,20.1
		c-1.6,1.6-6.8,6.4-14.1,10.2c4.2,0.8,8.4,1.2,12.9,1.2c18.6,0,35.4-7.2,47.9-19C142.4,445,139.2,439.4,138.3,437.6z"/>
</g>
<path class="st1" d="M-119.6,1314.3"/>
</svg>
