<?xml version="1.0" encoding="utf-8"?>
<!-- Generator: Adobe Illustrator 19.0.0, SVG Export Plug-In . SVG Version: 6.00 Build 0)  -->
<!DOCTYPE svg PUBLIC "-//W3C//DTD SVG 1.1//EN" "http://www.w3.org/Graphics/SVG/1.1/DTD/svg11.dtd">
<svg version="1.1" id="Layer_1" xmlns="http://www.w3.org/2000/svg" xmlns:xlink="http://www.w3.org/1999/xlink" x="0px" y="0px"
	 viewBox="0 179 612 435" style="enable-background:new 0 179 612 435;" xml:space="preserve">
<style type="text/css">
	.st0{fill:#E75525;}
	.st1{fill:#EBE8DC;}
	.st2{fill:#414143;}
	.st3{fill:#EE5A2B;}
	.st4{fill:#FFFFFF;}
	.st5{fill:none;}
	.st6{enable-background:new    ;}
	.st7{fill:none;stroke:#414143;stroke-width:0.2;stroke-miterlimit:10;}
	.st8{fill:none;stroke:#414143;stroke-width:0.1;stroke-miterlimit:10;}
</style>
<g>
	<path class="st0" d="M1116.6,909.2"/>
	<g>
		<path class="st1" d="M343.2,421.5c10.7,3,18.3-4.6,18.4-14.8c0-3.1-1.7-4.3-4.9-4c-3.8,1.1-7.6,2.2-11.4,3.4
			c-4.8,1.5-7.6,5.8-6.2,10.4C339.7,418.5,341.4,421,343.2,421.5z"/>
		<path class="st1" d="M591.3,437.5c-0.6-1.1-1.5-2.3-2.1-3.1c-0.5-0.6-2-2.3-4-2.4c-0.3,0-0.6,0-0.9,0c-1.5,0.3-2.4,1.6-2.5,1.7
			c-0.3,0.5-0.7,1.3-1,2.1l0,0c0,0,0,0.1-0.1,0.1l0,0c-2.3,6-6.6,10.4-6.6,10.4c-4.6,3.8-7.4,2.9-8.9,1.5v0.1
			c-0.1-0.1-0.1-0.2-0.2-0.3c-0.9-1-1.3-2.1-1.3-2.1c-0.6-1.2-0.4-2.9-0.3-4.3c0.2-12.8,4.3-24.8,7.6-36.9c1.1-3.9,1.7-8.1-1.1-11
			c-3.3-3.5-7.6-6.2-11.6-9c-2.8-1.9-4.6-0.2-6.1,2.4c-0.5,1-1.7,2-2.8,2.1c-5,0.8-10.1,1-15,2.1c-11.8,2.6-20.7,9-26.1,20
			c-5,10.2-5,21.2-4.5,32.1c0.3,5.6-2,10.8-6.1,14.2c-0.2,0.1-0.5,0.3-0.7,0.4c-2.6,1-4.9,0.9-6.4-2.2c-2.2-4.7-1.5-9.6-0.2-14.2
			c2.2-8.3,5-16.4,7.6-24.6c1.7-5.6,1-10.6-4-14.3c-2.5-1.8-5.3-3.3-7.9-5c-2.5-1.7-3.6-0.4-4.6,1.9c-2.7,6.3-5.4,12.6-8.3,18.9
			c-3.4,7.7-7.8,14.9-10.9,22.8c-0.2,0.5-0.4,1.1-0.6,1.7l0,0l-8.3,21.1c0,0-0.9,0.4-1.1-0.7c0-0.1,0-0.3,0-0.4
			c1.6-7.4,3.1-14.9,4.9-22.3c0.9-3.8,2.5-7.4,3.3-11.1c2.1-9.9-2.6-17.6-11.9-20.2c-1.9-0.5-3.4-0.6-4,1.7
			c-4.5,16.6-9.1,33.2-9.9,50.6c-0.3,6-0.1,12.3-4.6,17.1c-0.2,0.2-0.5,0.5-0.8,0.8c-2.1,1.6-3.7,0.8-4.1,0.5
			c-0.8-0.8-1.5-1.8-2-2.8c-0.6-1.2-0.4-2.9-0.3-4.3c0.2-12.8,4.3-24.8,7.6-36.9c1.1-3.9,1.7-8.1-1.1-11c-3.3-3.5-7.6-6.2-11.6-9
			c-2.8-1.9-4.6-0.2-6.1,2.4c-0.5,1-1.7,2-2.8,2.1c-5,0.8-10.1,1-15,2.1c-11.8,2.6-20.7,9-26.1,20c-5,10.2-5,21.2-4.5,32.1
			c0.3,6.9-3.1,13.3-9.3,16.3c-3.2,1.5-5.1,0.8-5.9-2.7c-0.7-3-1.1-6.2-1-9.3c0.5-9.4,3.3-18.3,6.5-27.1c1.1-3.1,2.1-6.6,1.8-9.8
			c-0.8-8.1-3-11-14.2-13.9c-2.7-0.7-4,0.1-4.4,2.6c-2.1,11.5-4.3,22.9-6,34.4c-1.1,7.5-1.3,15.2-2.1,22.8c0,0.2-0.1,0.4-0.1,0.7
			l0,0v0.1c0,0.1-0.1,0.3-0.1,0.4c-1.3,3.8-4.5,4.9-5.9,5.2c-0.1,0-0.1,0-0.2,0c-0.3,0.1-0.5,0.1-0.5,0.1l0,0c-0.4,0-0.8,0-1.2-0.1
			c-1.9-0.6-3.9-3-4.4-5c-1.7-6.4-0.6-12.8,1.3-19.1c2.3-7.9,5-15.6,7.2-23.5c1.7-6.1,0.4-11.7-5.1-15.3c-3.3-2.2-7.2-3.6-11-4.9
			c-3.2-1.1-3.8-0.4-3.5,3.1c0.2,3,0.8,6.1,0.1,8.9c-1.3,4.6-7.7,6.7-13.5,4.9c0.3-0.8,0.5-1.4,0.6-2c0.1-1-0.2-1.7-0.5-2.1
			c-2.4-2.5-7.2-2.3-9.1-2.1c-3.9,0.6-7.8,1.2-11.7,2c-3.5,0.9-3.6,4-3.5,4.9c0,0,0,0,0,0.1s0,0.1,0,0.1c0.3,2.4,1.7,4.3,1.7,4.3
			c5.1,9.2,3.9,12.3,3.9,12.3c0,2-1.6,7.2-3.2,11.8l0,0v0.1c-1.1,3.1-2.1,5.8-2.6,7.1c-0.8,2.3-1.7,4.5-2.1,5.8
			c0,0-6.8,15.4-14.4,10.8l0,0v-0.1c-2.3-2.3-1.4-7.9-1.4-7.9c0-0.4,0-0.8,0-1.2c0.9-11.1,2.3-22.2,3.6-33.2
			c1.2-10.2,4.7-19.6,9.8-28.6c3.9-7,5.3-12.9,0.2-18.5c-2.2-2.4-5.4-4-8.4-5.6c-5.8-3.2-8.3-1.8-9.5,4.7c-0.1,0.5-0.1,1-0.2,1.4
			c-2.3,10.9-4.8,21.8-7,32.7c-0.8,3.8-2.8,5.5-6.8,5.5c-10.3-0.1-18.2,5.2-24.3,12.7c-9.5,11.9-14.1,25.1-11.6,39.8v0.1
			c0,0,0.2,4.1-0.6,6.7c-1.4,3.4-4.4,8.1-9.9,8.5c0,0-1.6,0.2-3.8-0.9c-0.8-0.5-1.5-1-2.2-1.5c-0.3-0.3-0.7-0.6-1-0.9
			c-2.4-2.5-4.2-6.2-4.9-7.8c-2.5-6.4-3.5-13.3-3.3-20.5c0.1-2.8,1.1-4.5,4.1-5.6c7-2.6,13.7-12.7,13.5-19.6
			c-0.1-3.2-1.5-4.4-4.6-3.9c-1.8,0.3-3.6,0.7-5.4,1c-2.7,0.4-3.6-0.9-3-3.4c0.8-3.3,1.4-6.7,2.3-9.9c2-7.5,4.2-14.9,6.2-22.4
			c1.9-7.4-2-14.9-8.3-15.8c-7.6-1.1-14.9,0.2-21.2,4.6c-2.7,1.9-5.1,3.9-7.4,6.1c-2.1,2.2-13.2,15.6-22.1,56.2
			c0,0-3.1,12.7-7.6,25.4l0,0C108.9,517.2,98,524,98,524s-0.6,0.2-0.7-0.5c0,0,3-11.5-6.7-25.5c-0.2-0.2-0.3-0.4-0.3-0.4
			c-8.4-7.6-17.4-7.2-23.9-5.2c-1.8,0.6-15.1,5.4-18.2,22.8c0,0-2.3,18.9,11.1,28l0.8,0.6c0,0,0.5,0.7,0,1.1c0,0-1.6,0.5-3.7,1.1
			c-2,0.7-3.9,1.2-5.9,1.6c-0.4,0.1-0.7,0.1-0.9,0.2l0,0c-3.9,0.7-7.9,0.8-12.1,0.5c-4.1-0.3-8.2-0.2-12.2,0.1
			c-3.7,0.3-5.3,3.6-3.2,6.7c1.8,2.7,3.8,5.4,6.3,7.5c2.7,2.3,5.8,4.8,9.1,5.4c4.2,0.8,8.8,0.1,13.2-0.4c9.8-1.2,18.5-5.4,26.3-11.2
			c1.2-0.9,2.5-1.8,3.7-2.8v0.2c18.4-2.2,32.2-15,35.3-18c7.3-7.9,12.2-16.5,15.3-23.3l0,0c3.9-7.6,7.9-21.9,7.9-21.9l0,0
			c0.5-1.6,0.9-3.2,1.3-4.8c1.8-7.2,2.1-7.2,9.7-6.7c0.2,0,0.5,0,0.7,0l0,0c2.2,0.1,2,3.9,2,3.9l0.7,16.3c0.2,6.4,1.9,11.7,3.7,15.7
			c1.4,2.8,7.2,12.8,20.9,14.4c3,0.2,5.1-0.1,5.1-0.1l0,0c2.7-0.2,4.3-0.9,4.3-0.9l0,0c1.3-0.4,2.6-0.9,4-1.7
			c1.3-0.7,2.5-1.5,3.7-2.3l0,0c0,0,6.5-5.1,13.3-4.1c0.5,0.1,1,0.2,1.5,0.3h0.1l0,0c6.5,1.3,11.3,1.4,14.4,1.1
			c5.8-0.6,11.7-4.8,11.7-4.8l0,0c3.7-2.5,7.3-3,11.8-2.6c0,0,15.2,3,24.1-11.9l0,0c1.6-2.5,3.4-5.8,5.1-10.3l8.8-22.3l0,0
			c0.5-1.2,0.9-2.5,1.4-3.7c0.4-0.9,1.4-2,2.3-2.2c2.9-0.6,5.9-0.9,8.9-1.3c0,0.8,0.1,1.4,0.1,1.9c-0.4,7.4-1,14.8-1.1,22.1
			c-0.1,12.8,11.4,23.1,23.5,20.3c0.4-0.1,0.7-0.2,1.1-0.3l0,0c0,0,1.1-0.2,2.8-0.9c0.2-0.1,0.4-0.1,0.5-0.2
			c1.8-0.7,4.1-1.8,6.4-3.4c0.2-0.1,0.5-0.3,0.7-0.4c0.8-0.3,2.2-0.9,3.8-0.9c1.5,0,3,0.5,4.5,1.3c7.2,3.5,13.9,2.3,20.2-2.4
			c2.5-1.9,5.1-3.7,7.4-5.9c1.8-1.7,3.3-1.8,5.4-0.6c9.4,5,19.1,5.7,28.5,0.3c4.4-2.5,8.2-2.6,12.7-0.6c7.3,3.2,14.2,2.3,20.3-3.2
			c2.3-2.1,4.3-2.4,7.1-0.7c4.4,2.6,9.2,2,12.2-0.9c4.2-4.2,6.5-9.4,8.1-15.2c2-7.4,4.5-14.7,6.9-22.1c0,0,0.9-1.4,1.7-0.4
			c1.4,4.3,2.5,8.5,4.1,12.4c4.3,10.6,14.8,13.7,23.9,7.2c0.8-0.5,1.6-1,2.4-1.6c2.5-1.9,5.1-3.7,7.4-5.9c1.8-1.7,3.3-1.8,5.4-0.6
			c9.4,5,19.1,5.7,28.5,0.3c4.4-2.5,8.2-2.6,12.7-0.6c1,0.4,2,0.8,3,1.1l0,0c0,0,14.6,4.6,27.4-2.9c0.7-0.4,1.3-0.8,1.8-1.1
			c0.1,0,0.1-0.1,0.2-0.1l0,0c0.2-0.2,0.5-0.4,0.7-0.5c0.1-0.1,0.1-0.1,0.2-0.2c0.4-0.3,0.7-0.6,0.9-0.9c1.6-1.7,2.4-3.9,2.8-5
			C594.7,446.4,593.1,441,591.3,437.5z M81.6,518.9c0.1,9.6-4.8,13.2-4.8,13.2h-1.6c-4.5-0.6-7.1-4.2-8.1-6.1
			c-0.2-0.3-0.3-0.6-0.5-0.9c-0.1-0.1-0.1-0.2-0.1-0.2l0,0c-1.7-4.1-0.7-8.9-0.7-8.9c2.7-10,8.2-8.6,8.2-8.6
			c3.4,0.1,5.2,2.2,6.2,4.3l0,0c0,0,1.4,2.6,1.4,6.8l0,0C81.6,518.6,81.6,518.7,81.6,518.9L81.6,518.9z M161.5,436.3
			c-1.1,4.4-2.1,8.5-3,12.6c-0.4,1.8-0.5,3.7-1.2,5.3c-0.5,1.2-1.7,2.6-2.9,2.8c-6,1.1-6.7,0.2-4.8-5.5c1.4-4.3,2.6-8.8,4.1-13.1
			c0.4-1.2,1.1-2.5,2-3.3c0.8-0.8,2.1-1.5,3.1-1.6l0,0C158.9,433.4,162.5,432.5,161.5,436.3z M231,489.7c-0.1,3.5-0.2,7-0.3,10.5
			c-0.3,5-0.8,5.6-5.8,6.8c-6.6,1.6-13.3-0.7-14.9-5.8c-1.6-5.1-1.6-10.4-0.5-15.8c0.6-3.1,1.8-5.8,3.4-8.2
			c7-9.7,15.8-12.3,18.2-12.9c0.2,0,0.6,0,0.6,0.8C231.5,473.9,231.2,481.8,231,489.7z M405.8,444.7c0,0-1.5,17.7-0.9,31
			c0,0,0.1,1.2-0.4,2.6c-3.8,7.1-15.9,7.3-15.9,7.3c-3.6-0.1-6.2-2.1-8-4.2c-3-3.8-3.7-8.4-3.8-9.2c-0.4-10.3,1.9-19.7,9-26.5
			c1.8-1.7,3.9-3.3,6.3-4.6c2.5-1.4,5.7-2,8.6-2.2c1.4-0.1,2.4,0,3,0.4l0,0c0,0,0,0,0.1,0c0,0,0,0,0.1,0
			C404.5,439.7,406.6,441.1,405.8,444.7z M546.3,413.5c0,0-1.5,17.7-0.9,31c0,0,0.1,1.2-0.4,2.6c-3.8,7.1-15.9,7.3-15.9,7.3
			c-3.6-0.1-6.2-2.1-8-4.2c-3-3.8-3.7-8.4-3.8-9.2c-0.4-10.3,1.9-19.7,9-26.5c1.8-1.7,3.9-3.3,6.3-4.6c2.5-1.4,5.7-2,8.6-2.2
			c1.4-0.1,2.4,0,3,0.4l0,0c0,0,0,0,0.1,0c0,0,0,0,0.1,0C545.1,408.4,547.1,409.9,546.3,413.5z"/>
		<path class="st1" d="M399.6,549.6c10.6,3,18.2-4.5,18.2-14.7c0-3.1-1.7-4.2-4.8-3.9c-3.8,1.1-7.6,2.2-11.3,3.4
			c-4.7,1.4-7.5,5.7-6.1,10.3C396.2,546.6,397.9,549.1,399.6,549.6z"/>
		<path class="st1" d="M553.4,526.5c10.6,3,18.2-4.5,18.2-14.7c0-3.1-1.7-4.2-4.8-3.9c-3.8,1.1-7.6,2.2-11.3,3.4
			c-4.7,1.4-7.5,5.7-6.1,10.3C550,523.5,551.7,526,553.4,526.5z"/>
		<path class="st1" d="M587.6,599.9c-1.2-6.2-4.6-11-8.7-15.2c-5.6-5-8.9,1.1-8.9,1.1l0,0c-2.3,4-5.2,7.6-9.5,9.9
			c-3.5,1.8-6.3,0.8-7.4-2.5c-0.4-2.3-0.6-4.7-0.5-7.1c0.5-9.3,3.3-18.1,6.5-26.8c1.1-3.1,2.1-6.6,1.8-9.8c-0.8-8-3-10.9-14-13.7
			c-2.7-0.7-3.9,0.1-4.4,2.6c-2,11.4-4.3,22.7-6,34.1c-1.1,7.5-1.3,15.1-2,22.6c0,0.2-0.1,0.4-0.1,0.6l0,0v0.1
			c0,0.1-0.1,0.3-0.1,0.4c-1.3,3.7-4.4,4.9-5.9,5.2c-0.1,0-0.1,0-0.2,0c-0.3,0.1-0.5,0.1-0.5,0.1l0,0c-0.4,0-0.8,0-1.2-0.1
			c-1.9-0.6-3.9-3-4.4-5c-1.7-6.4-0.6-12.7,1.3-19c2.3-7.8,4.9-15.5,7.1-23.3c1.7-6,0.4-11.6-5.1-15.2c-3.3-2.2-7.2-3.5-10.9-4.8
			c-3.2-1.1-3.8-0.4-3.5,3.1c0.2,2.9,0.8,6.1,0.1,8.8c-1.3,4.6-7.6,6.6-13.4,4.9c0.3-0.8,0.5-1.4,0.6-1.9c0.1-1-0.2-1.7-0.5-2.1
			c-2.4-2.5-7.2-2.3-9-2.1c-3.9,0.6-7.8,1.2-11.6,2c-3.5,0.9-3.5,4-3.5,4.9c0,0,0,0,0,0.1s0,0.1,0,0.1c0.3,2.4,1.7,4.3,1.7,4.3
			c5.1,9.1,3.9,12.2,3.9,12.2c0,2-1.6,7.2-3.2,11.7l0,0v0.1c-1.1,3-2.1,5.8-2.6,7.1c-0.1,0.4-0.3,0.7-0.4,1.1
			c-2.1,6.6-5,11.2-7.7,14.3l0,0c-5.1,6.7-11,6.9-11,6.9l0,0c-0.4,0.1-0.9,0.1-1.3,0.1c-7.4,0.7-12.4-3.2-15-6
			c-0.1-0.1-3.2-4.2-3.3-10.5c0-0.2,0.2-0.5,0.5-0.6c2-0.2,3.9-0.3,5.9-0.4c17.8-0.9,27.5-9.9,29.4-27.3
			c1.2-11.1-8.4-20.8-19.6-19.6c-9.2,1-16.9,5.5-22.6,12.4c-11.1,13.5-14.9,28.6-8,45.4c0.4,1,0.8,2.3,0.5,3.2c-1.6,4-4.1,7.5-8,9.5
			c-6.3,3.2-10.5,0.7-9.5-6.4c1.2-8.8,3.4-17.5,5.2-26.3c0.8-3.7,2.1-7.3,2.2-11c0.1-7-7.7-14-14.9-13.7c-1,0-2.4,1.2-2.7,2.1
			c-1,3.6-1.5,7.3-2.5,10.9c0,0-3,29.4-4.3,38.4l0,0c0,0-0.1,0.5-0.2,1.4c-0.1,0.3-0.1,0.6-0.1,0.8l0,0c-0.6,2.4-2,6.4-5.5,8.7
			c-6.2,3-8.3-1.6-8.9-3.1c-1.2-4-0.5-8.2,0.5-12.1c2.2-8.2,5-16.3,7.5-24.4c1.7-5.6,1-10.5-4-14.2c-2.5-1.8-5.3-3.3-7.8-5
			c-2.5-1.6-3.6-0.4-4.5,1.9c-2.7,6.3-5.4,12.5-8.2,18.7c-3.4,7.6-7.7,14.8-10.8,22.6c-0.2,0.5-0.4,1.1-0.6,1.6l0,0l-8.2,20.9
			c0,0-0.9,0.4-1.1-0.7c0-0.1,0-0.3,0-0.4c1.6-7.4,3.1-14.8,4.8-22.1c0.9-3.7,2.5-7.3,3.3-11c2-9.8-2.6-17.5-11.8-20.1
			c-1.9-0.5-3.3-0.6-3.9,1.7c-4.5,16.5-9,33-9.8,50.2c-0.3,5.9-0.1,12.2-4.6,17c-1,1-2.8,2.6-3.6,2.3c-1.4-0.6-2.6-2.3-3.3-3.8
			c-0.6-1.2-0.4-2.8-0.3-4.3c0.2-12.7,4.3-24.6,7.5-36.6c1-3.9,1.7-8-1.1-10.9c-3.3-3.5-7.5-6.2-11.5-8.9c-2.8-1.9-4.6-0.2-6,2.4
			c-0.5,0.9-1.7,1.9-2.7,2.1c-4.9,0.8-10,1-14.9,2.1c-11.7,2.5-20.6,8.9-25.9,19.9c-5,10.1-4.9,21-4.4,31.8
			c0.3,6.8-3.1,13.2-9.2,16.1c-2.4,1.2-4.1,1-5.1-0.6c0-0.1-0.1-0.2-0.1-0.2c-1.7-6.4-0.6-12.7,1.3-19c2.3-7.8,5-15.5,7.1-23.3
			c1.7-6,0.4-11.6-5.1-15.2c-3.3-2.2-7.2-3.5-10.9-4.8c-3.2-1.1-3.7-0.4-3.5,3.1c0.2,2.9,0.8,6.1,0.1,8.8c-1.3,4.6-7.6,6.6-13.4,4.9
			c0.3-0.8,0.5-1.4,0.6-1.9c0.1-1-0.2-1.7-0.4-2.1c-2.4-2.5-7.2-2.3-9-2.1c-3.9,0.6-7.8,1.2-11.6,2c-3.5,0.9-3.5,4-3.5,4.9
			c0,0,0,0,0,0.1s0,0.1,0,0.1c0.3,2.4,1.7,4.3,1.7,4.3c5.1,9.1,3.9,12.2,3.9,12.2c0,3.9-6.1,19.7-6.1,19.7c-1.5,3.6-2.1,3.2-2.1,3.2
			c-2.1,0.3-2.5-2.9-2.5-3c-0.6-2.6-1.3-5.3-1.3-7.9c0-3.9,0.7-7.8,1.2-11.6c0.3-2.8-0.6-4-3.5-3.2c-5.7,1.6-11.5,3-17.2,4.7
			c-5.6,1.7-6.6,2.7-6.2,8.6c0.5,6.7-0.9,13-2.9,19.3c-4.6,14.9-13.4,25.9-29.5,28.6c-12.6,2.1-21.3-1-25.4-12.5
			c-1.5-4.1-2.3-8.8-1.9-13.1c1.4-14,7-26.8,13.2-39.2c3.9-7.9,2.4-7.8,11.6-5.6c0.9,0.2,1.8,0.3,2.7,0.5
			c13.3,3.6,26.4,3.2,39.1-2.6c13.4-6.2,21.3-15.8,20.9-31.2c-0.2-7.4-5.2-16.5-13.2-18.6c-10.9-2.8-21.6-1.1-32.4,0.7
			c-9.9,1.7-18.2,6.2-24.9,13.5c-4,4.3-7.5,8.9-11.5,13.1c-1.3,1.3-3.3,2.4-5.1,2.7c-8.8,1.3-17.8,1.9-26.5,3.5
			c-10.1,1.8-20,4.7-28.6,10.8c-3.6,2.5-7.7,5.1-9.9,8.7c-5.1,8.1-5.5,17.2-2.6,26.4c0.4,1.4,1.5,2.8,2.7,3.5c0.5,0.3,2.3-1.1,3.2-2
			c4.1-4.4,7.5-9.6,12.1-13.3c8.2-6.6,17-12.5,27.3-15.5c4.5-1.3,8.9-3.7,14.3-2.6c-0.3,1.2-0.6,2.1-0.9,3.1
			c-1.2,3.8-2.7,7.5-3.7,11.4l0,0c0,0-13.9,41.8-4.1,62.4l0,0c0,0,3.8,11,18.9,15.6c0.1,0,0.2,0.1,0.3,0.1c0.2,0.1,0.4,0.1,0.6,0.2
			c2.3,0.7,4.7,1.1,7.1,1.4h0.1l0,0c3.9,0.4,7.8,0.3,11.7-0.2c16.8-2.1,29.6-11.4,39.9-24.4c2.4-3,4.5-6.1,6.8-9.2
			c0,0,0.4-0.4,1.1-0.3c0,0,0.5-0.1,0.5,1.1c0,0,0.2,2.2,0.1,4.3c0,0.1-0.2,2.2-1.3,4.1c-0.2,0.2-0.4,0.5-0.6,0.8l0,0l0,0
			c-5.7,8.2-28.4,41.5-29.4,56.7c0,2.1,0.2,4.3,0.9,6.4c1.7,5.2,4,10.3,9.3,12.5c3.5,1.5,7,2,10.5,1.7l0.2,0.1
			c1.4-0.2,2.8-0.5,4.1-0.9l0,0h0.1c3.8-1.1,7.2-2.9,10.1-5c9.9-6.6,14.4-15.5,16-19.3l0,0l0,0c0.5-1.2,0.7-1.9,0.7-1.9l0,0
			c1.5-4,2.4-8.2,2.8-11.6c2.5-14.1,1-24.4,1-24.4l0,0c-0.2-4.4-0.7-8.8-1.5-13.2c-0.4-2.4,2.2-8.9,2.2-8.9l16.3-41.5
			c1.2-3.1,4.4-3.7,4.4-3.7l0,0c2.2-0.3,4.5-0.6,6.7-0.9c0,0.8,0.1,1.3,0.1,1.9c-0.4,7.3-1,14.6-1.1,22c-0.1,8.5,5,15.9,11.9,19
			c0,0,10.2,2.3,20.9-5.9c0,0,3.3-2.9,4.7-4.5c0,0,2.7-3.4,7.1-2.1l0,0c9,4.4,18.1,4.8,27.1-0.3c4.3-2.5,8.1-2.6,12.6-0.6
			c7.3,3.2,14.1,2.3,20.1-3.2c2.2-2.1,4.3-2.3,7-0.7c4.4,2.6,9.2,2,12.1-0.9c4.2-4.2,6.5-9.4,8-15.1c2-7.4,4.5-14.6,6.8-21.9
			c0,0,0.9-1.4,1.6-0.4c1.4,4.3,2.5,8.4,4,12.3c4.2,10.5,14.7,13.5,23.7,7.1c0.8-0.5,1.6-1,2.3-1.6c1.8-1.4,3.7-2.7,5.4-4.1
			c0.7-0.4,1.3-0.9,1.9-1.4c2.1-1.6,3.7-1.9,6.1-0.4c3.9,2.4,8,4,13,3.3c6.5-0.9,11.7-3.9,15.9-8.7c2.5-2.8,4.7-3.7,7.5-2.3l0,0
			c0,0,0.1,0,0.2,0.1c0.2,0.1,0.3,0.2,0.5,0.3c1.7,0.9,6.6,3.4,11.6,4.6c25.9,5.9,35.5-18.7,35.5-18.7l0,0c0.8-1.6,1.6-3.4,2.4-5.5
			l8.7-22.1l0,0c0.5-1.2,0.9-2.4,1.4-3.7c0.4-0.9,1.4-2,2.3-2.2c2.9-0.6,5.8-0.9,8.9-1.2c0,0.8,0.1,1.3,0.1,1.9
			c-0.4,7.3-1,14.6-1.1,22c-0.1,12.7,11.3,22.9,23.3,20.1c0.4-0.1,0.7-0.2,1-0.3l0,0c0,0,1.1-0.2,2.8-0.9c0.2-0.1,0.4-0.1,0.5-0.2
			c1.8-0.7,4-1.8,6.4-3.4c0.2-0.1,0.5-0.3,0.7-0.4c0.7-0.3,2.2-0.9,3.8-0.9c1.1,0,2.2,0.3,3.4,0.8c2.1,1.4,4.3,2.2,6.5,2.6
			c0.4,0.1,5.3,0.7,11.6-0.7c0.3-0.1,0.5-0.1,0.8-0.2c0.6-0.2,4.6-1.7,6.2-3.5c0,0-4.4,19.6-25,35.3c0,0-12.6,11.7-38.3,19.7
			c0,0-29.4,7.4-56.9,4.7l-25.9-1.1c-0.4,0-0.9,0-1.3,0c-12.3-0.2-24.6-1-36.9-0.3l0,0c0,0-63,3.5-106,19.5l0,0
			c-24.1,7.9-40.5,16-51,22.3c-0.4,0.3-13.1,9.6-22.2,18.9c-2.1,2.3-4.1,4.7-6.2,7c-1,1.1-4.6,5.7-4.5,8.5c0.1,1.3,0.7,2.7,2.1,3.7
			c0.3,0.2,3.2,1.6,10.1,1.1c0.5,0,1.1-0.1,1.6-0.2c9.7-1.3,17.5-6.5,24.6-12.7c0.6-0.5,1.2-1.1,1.7-1.7l0,0l8.4-7
			c4.6-3.4,11.1-7.9,17.3-11.6c5.8-3,11.7-5.7,17.8-8c6.8-2.6,13.7-5,20.7-7.2c21.3-6,44.7-9.9,45.8-10c31.2-3.8,60.4-3.7,64.4-3.6
			c16.2,0.8,32.5,1.7,48.7,2.5c15.4,0.8,30.8,0.2,45.7-4.2c3.4-1,6.8-2.1,10.1-3.3l0,0c45.2-16.1,64.1-46,64.3-46.3
			c1.6-2.6,3.1-5.2,4.4-7.9C587.8,617.4,589.4,608.8,587.6,599.9z M435,578.4c2-6.5,4.8-11.7,11.1-14.1c0.6-0.2,1.3-0.3,1.9-0.3
			c0.8,0.1,2.1,0.5,2.3,2.2c0,0.3-0.1,1.5-0.4,2.3c-3,5.5-7.2,9.7-14.3,10.6C434.9,579.1,435,578.6,435,578.4z M130.7,586.6
			L130.7,586.6c0,0,0.1,0,0.2-0.1h0.1c2.3-0.8,18.3-6.1,24.4-1.4c0.4,0.2,0.7,0.5,1,0.9l0,0l0,0c0.3,0.4,0.5,1,0.4,1.6
			c0,0.7-0.2,1.3-0.6,2c-2.3,4-6.3,5.6-8.7,6.3c-9.3,2-18.6,1.7-28.6-0.7C122.7,591.4,126.4,588.2,130.7,586.6z M166.9,719.7
			L166.9,719.7c-0.5,1.4-1.1,2.8-1.8,4.3l0,0c-3.7,9.7-6.3,11.5-6.3,11.5l0,0c-3.7,4.5-6.6,2.5-6.7,2.5c0,0-2.2-0.7-0.8-5.7
			c0-0.1,0.1-0.3,0.1-0.4c0.1-0.2,0.1-0.4,0.2-0.5c0.1-0.3,0.2-0.5,0.3-0.8c0.1-0.2,0.2-0.4,0.2-0.6c0.1-0.3,0.2-0.5,0.3-0.8
			c0-0.1,0.1-0.2,0.1-0.3l0,0c2.8-6.4,8.5-15.8,8.5-15.8s3.8-6.6,5.9-8.7c0,0,2.5-2,2.9,1.5C169.9,705.7,169.4,713.5,166.9,719.7z
			 M287.9,608.5c0,0-1.5,17.6-0.8,30.7c0,0,0.1,1.2-0.4,2.6c-3.8,7-15.7,7.3-15.7,7.3c-3.5-0.1-6.1-2.1-8-4.2
			c-3-3.8-3.6-8.4-3.7-9.2c-0.4-10.2,1.9-19.6,8.9-26.3c1.8-1.7,3.9-3.2,6.3-4.6c2.5-1.4,5.7-2,8.5-2.1c1.4-0.1,2.3,0,3,0.4l0,0
			c0,0,0,0,0.1,0c0,0,0,0,0.1,0C286.7,603.5,288.7,604.9,287.9,608.5z"/>
	</g>
</g>
<rect x="-975.9" y="314.1" class="st1" width="468.4" height="281"/>
<g>
	<path class="st2" d="M-606.3,405.3c3.3-0.9,4.9-2.1,5-2.4l0,0c4.2-5.9,0.3-12,0-12.5c-0.7-0.7-1.4-1.4-2.1-2.1l0,0
		c-1.2-0.2-1.9,0.7-1.9,0.7c-1,2.1-2.1,4-3.8,5.4c-1.2,0.7-2.8,0.5-4,0c-1.7-0.7-2.1-2.4-2.1-4c-0.2-3.3-0.2-6.4,1-9.5
		c0.9-2.3,1.7-4.7,2.4-6.9c0.7-2.4,0.9-4.9-1-6.8c-1-1-2.4-1.6-3.5-2.3c-2.3-1.4-4.9-0.9-6.1,1.4c-5.6-1-10.9-0.2-16,2.4
		c-4,2.1-7.3,4.9-9,9.2c-1.9,4.9-1.9,9.7-1,14.7c0.5,2.6-0.5,5.2-2.8,6.1c-1.4,0.5-2.6,0.5-3.5-1.2c-1.2-2.6-0.7-5.2-0.2-7.6
		c1.2-4.5,2.6-8.8,4-13.2c0.9-2.9,0.5-5.7-2.1-7.6c-1.4-1-2.8-1.7-4.2-2.8c-1.4-0.9-1.9-0.2-2.4,1c-1.4,3.5-2.9,6.8-4.3,10.1
		c-2.4,5.6-5.7,10.6-7.3,16.5c-0.7,2.9-2.3,5.6-3.5,8.3c-0.2,0-0.2,0-0.3,0c0-0.3-0.2-0.7,0-1c0.9-4,1.7-8,2.6-12
		c0.5-2.1,1.4-4,1.7-5.9c1-5.2-1.4-9.4-6.4-10.8c-1-0.3-1.7-0.3-2.1,0.9c-2.4,8.8-4.9,17.9-5.2,27.1c-0.2,3.1,0,6.6-2.4,9.2
		c-0.5,0.5-1.6,1.4-1.9,1.2c-0.7-0.3-1.4-1.2-1.7-2.1c-0.3-0.7-0.2-1.6-0.2-2.3c0.2-6.8,2.3-13.2,4-19.8c0.5-2.1,0.9-4.3-0.7-5.9
		c-1.7-1.9-4-3.3-6.2-4.9c-1.6-1-2.4-0.2-3.3,1.2c-0.3,0.5-0.9,1-1.6,1.2c-2.6,0.5-5.4,0.5-8,1c-6.2,1.4-11.1,4.9-14.1,10.8
		c-2.6,5.6-2.6,11.3-2.4,17.2c0.2,3.6-1.7,7.1-5,8.7c-1.7,0.9-2.8,0.5-3.1-1.4c-0.3-1.6-0.5-3.3-0.5-5c0.3-5,1.7-9.7,3.5-14.6
		c0.5-1.7,1.2-3.5,1-5.2c-0.3-4.3-1.6-5.9-7.6-7.5c-1.4-0.3-2.1,0-2.4,1.4c-1,6.1-2.3,12.3-3.3,18.4c-0.5,4-0.7,8.2-1,12.1
		c-0.2,1.6-1.9,3.1-3.3,3.1c-1.4,0-2.8-1.4-2.6-3.1c0-2.3,0-4.7,0.7-6.9c1-3.8,2.8-7.6,4-11.4c0.7-2.1,1-4.3,1.2-6.4
		c0.2-3.5-2.8-6.9-6.1-7.6c-2.1-0.3-2.6,0-2.4,2.1c0.2,3.1-1.2,5.2-4,6.1c-1.7,0.5-3.6,0.5-5.6,0.9c-1.6,0.2-2.3-0.3-1.6-2.1
		c0.7-1.4,0-2.3-1.4-2.1c-2.4,0.2-4.9,0.3-7.3,0.9c-2.3,0.3-3.3,1.9-2.8,4.2c0.3,1.7,1,3.5,1.6,5.2c0.5,1.4,1.4,2.9,1.4,4.3
		c0,3.3-0.3,6.4-0.9,9.7c-0.7,4.2-2.8,7.6-5.6,10.8c-1.4,1.4-2.4,1.2-2.9-0.7c-0.5-1.7-1-3.6-0.9-5.4c0.5-5.9,1.2-11.8,1.9-17.9
		c0.7-5.6,2.6-10.6,5.2-15.3c2.1-3.8,2.8-6.9,0-9.9c-1.2-1.2-2.9-2.1-4.5-2.9c-3.1-1.7-4.5-1-5,2.4c0,0.2,0,0.5-0.2,0.7
		c-1.2,5.9-2.6,11.6-3.8,17.5c-0.3,2.1-1.6,2.9-3.6,2.9c-5.6,0-9.7,2.8-13,6.8c-5.9,7.3-8.3,15.6-5.4,25c0.3,1-0.2,2.6-0.9,3.5
		c-2.3,2.9-7.6,2.8-9.7-0.5c-3.1-4.7-4.2-9.9-4-15.4c0-1.6,0.5-2.4,2.3-2.9c3.8-1.4,7.3-6.8,7.3-10.6c0-1.7-0.7-2.4-2.4-2.1
		c-1,0.2-1.9,0.3-2.9,0.5c-1.4,0.2-1.9-0.5-1.6-1.9c0.3-1.7,0.7-3.6,1.2-5.4c1-4,2.3-8,3.3-12s-1-8-4.5-8.5c-4-0.5-8,0.2-11.3,2.4
		c-6.4,4.5-10.2,10.8-12.5,18c-1.7,5.7-2.8,11.8-4.3,17.5c-1.7,6.2-3.6,12.3-5.9,18.2c-1,2.6-2.8,5.4-5,7.1
		c-4.9,4-10.4,4.9-16.8,3.8c-6.1-1-10.9-3.6-15.6-7.5c-2.3-1.9-4.9-3.6-7.3-5c-2.3-1.4-4.7-0.2-4.7,2.6c0,2.4,0,4.9,0.5,7.1
		c0.7,2.4,1.4,5.4,3.1,7.1c2.3,2.3,5.2,3.8,8,5.4c6.4,3.5,13.4,4.7,20.5,4.5c2.4,0,5,0,7.3-0.9c5.7-2.1,10.6-5.4,14.2-10.8
		c5.2-7.8,9.9-15.8,12.1-25.2c0.9-3.8,1-3.8,5.2-3.6c0.2,0,0.3,0,0.5,0c1.2,0,1.6,0.5,1.6,1.7c0,2.4,0.2,4.9,0.3,7.5
		c0.3,5.9,1.7,11.4,7.3,14.9c4,2.4,8,4.2,12.3,1.6c1.7-0.9,3.3-2.1,4.7-3.5c1-1,1.9-1,3.3-0.7c3.1,0.7,6.2,1.4,9.4,1.6
		c2.1,0,4.5-0.7,5.9-1.9c2.3-1.9,4.3-2.3,7.1-1.9c3.5,0.3,6.6-0.7,8.8-3.8c4.2-5.7,6.2-12.3,7.8-18.9c1.7-7.1,0.7-5.7,7.5-6.4
		c0.2,0,0.2,0,0.5,0.2c0,0.5,0,1.2-0.2,1.7c-1,4.2-0.7,8.5,0.5,12.5c0.9,2.9,1.7,6.1,4.9,7.3c3.6,1.6,7.6,1.7,11.1-0.3
		c1.9-1,3.3-0.9,5,0c3.8,1.9,7.5,1.2,10.8-1.2c1.4-1,2.8-1.9,4-3.1c1-0.9,1.7-1,2.9-0.3c5,2.6,10.2,3.1,15.3,0.2
		c2.3-1.4,4.3-1.4,6.8-0.3c4,1.7,7.6,1.2,10.9-1.7c1.2-1,2.3-1.2,3.8-0.3c2.4,1.4,5,1,6.6-0.5c2.3-2.3,3.5-5,4.3-8.2
		c1-4,2.4-7.8,3.6-11.8c0-0.2,0.3-0.3,0.7-0.7c0.9,2.6,1.4,4.9,2.3,7.1c2.4,5.9,8.3,7.5,13.2,3.6c1.4-1.2,2.8-2.4,4-3.6
		c1.9,1.4,3.5,2.9,5.4,3.6c5.2,1.9,10.2,1.7,15.1-1.2c0.7-0.5,1.9-0.9,2.6-0.5c0.2,0.2,0.3,0.2,0.5,0.3
		C-621.5,404-612.9,406.6-606.3,405.3z M-828.3,395.6c-0.2,0.9-0.3,1.9-0.7,2.8c-0.3,0.7-0.9,1.4-1.6,1.6c-3.1,0.7-3.6,0.2-2.6-2.9
		c0.7-2.3,1.4-4.7,2.3-6.9c0.2-0.7,0.5-1.4,1-1.7c0.5-0.5,1.4-0.9,1.9-0.9c0.3,0,0.7,1,1.2,1.6
		C-827.3,391.1-827.8,393.4-828.3,395.6z M-789.5,417.5c0,1.9,0,3.8-0.2,5.6c-0.2,2.8-0.3,2.9-3.1,3.6c-3.5,0.9-7.1-0.3-8-3.1
		s-0.9-5.6-0.3-8.5c0.9-4.5,4-7.3,7.3-9.9c1.2-0.9,2.8-1,4.5-1.7C-789.3,408.5-789.5,413-789.5,417.5z M-700.1,391.3
		c-0.2,1.9-0.7,4-0.7,5.9c0,3.6,0,7.5,0.2,11.1c0.2,1.7-0.2,3.1-1.7,3.8c-2.4,1-4.9,2.1-7.3,2.3c-2.9,0.2-4.3-1.4-5-4.3
		c-0.2-0.7-0.2-1.2-0.3-1.9c-0.5-6.1,0.5-11.8,4.7-15.8c1-0.9,2.1-1.7,3.5-2.4c1.4-0.7,3.1-1,4.7-1.2
		C-700.3,388.7-699.9,389.2-700.1,391.3z M-625.9,378.8c0,5.6,0.2,10.9,0.3,16.5c0,1.6-0.3,2.6-1.6,3.3c-6.1,4-11.4,0.3-11.6-3.5
		c-0.7-6.8,0.7-11.4,3.8-15.8c1.7-2.3,4.9-3.1,7.5-2.4C-626.2,377.2-625.9,377.6-625.9,378.8z"/>
	<path class="st2" d="M-734.5,380.2c5.7,1.6,9.7-2.4,9.9-8c0-1.7-0.9-2.3-2.6-2.1c-2.1,0.5-4.2,1.2-6.1,1.7c-2.6,0.7-4,3.1-3.3,5.6
		C-736.4,378.5-735.5,379.8-734.5,380.2z"/>
</g>
<g>
	<g>
		<path class="st2" d="M-698.9,450.1c5.7,1.6,9.7-2.4,9.9-8c0-1.7-0.9-2.3-2.6-2.1c-2.1,0.5-4.2,1.2-6.1,1.7c-2.6,0.7-4,3.1-3.3,5.6
			C-700.8,448.5-699.8,449.9-698.9,450.1z"/>
		<path class="st2" d="M-619.6,434.8c5.7,1.6,9.7-2.4,9.9-8c0-1.7-0.9-2.3-2.6-2.1c-2.1,0.5-4.2,1.2-6.1,1.7c-2.6,0.7-4,3.1-3.3,5.6
			C-621.5,433.3-620.5,434.7-619.6,434.8z"/>
		<path class="st2" d="M-595.9,470.9c-0.9-4.3-3.6-7.3-6.8-10.2l0,0c-1.2-0.2-1.9,0.7-1.9,0.7c-1.4,2.9-3.1,5.6-6.1,7.1
			c-2.3,1.2-4,0.2-4.2-2.3c-0.2-1.6-0.3-3.3,0-5c0.7-4.2,1.6-8.3,2.4-12.3c1.2-5.6,0.2-6.6-3.6-9.2c-1.2-0.9-2.6-1.2-3.8-1.7
			c-1.7-0.7-2.1-0.5-2.3,1.4c-0.5,2.9-1,5.9-1.4,8.8c-0.5,4.3-1,8.8-1.6,13.2c0,0.5-0.2,1.2,0,1.9c0.9,2.9-0.2,5.4-1.7,7.6
			c-0.9,1.2-2.4,1.2-3.1-0.2c-0.7-1.6-1.4-3.5-1.4-5.2c0-5.2,2.1-10.1,3.6-14.7c1.2-3.5,2.9-6.9,0-10.2c-1.7-2.1-4-3.6-6.1-5.4
			c-0.3-0.3-1.2-0.2-1.6-0.2c-0.7,2.8-1.4,5.2-2.1,7.6c-0.2,0.5-0.9,1.2-1.6,1.4c-2.4,0.7-4.9,1-7.6,1.6c0.3-1.4,0.7-2.3,1-3.5
			c-0.3-0.2-0.9-0.3-1.4-0.5c-3.5-0.3-6.6,0.3-9.7,1.9c-1.9,0.9-2.4,2.1-1.6,3.8c1.2,2.3,2.8,4.5,4.2,6.8c0.3,0.5,0.5,1,0.9,1.6
			c-1.7,13.2-10.2,23.2-10.2,23.2c-5.2,4.2-10.6,0.9-13.5-1.9c-0.3-0.3-1.4-1.7-1.2-5.4l0,0c1.2-0.2,2.3-0.2,3.5-0.2
			c9.5-0.5,14.9-5.4,15.8-14.7c0.7-6.1-4.5-11.3-10.6-10.6c-5,0.5-9.2,2.9-12.1,6.8c-6.1,7.3-8,15.4-4.3,24.5
			c0.2,0.5,0.5,1.2,0.2,1.7c-0.9,2.3-2.3,4-4.3,5.2c-3.5,1.7-5.7,0.3-5.2-3.5c0.7-4.7,1.9-9.5,2.8-14.2c0.3-1.9,1.2-4,1.2-5.9
			c0-3.8-4.2-7.6-8-7.5c-0.5,0-1.4,0.7-1.4,1c-0.5,1.9-0.9,4-1.4,5.9s-1.6,3.6-1.7,5.6c-0.3,4.9-0.3,9.7-0.5,14.6
			c0,1.6-0.5,3.3-1,4.9s-1.7,2.6-3.1,2.3c-1-0.2-2.1-1.4-2.6-2.3c-1.7-3.3-0.7-6.8,0.3-9.9c1-3.6,2.8-7.1,4-10.8
			c2.3-6.6,1.7-9-3.1-12.1c-0.3-0.3-0.9-0.5-1.2-0.7c-1.6-0.9-2.1-0.9-2.8,0.9c-0.5,1-0.7,2.3-1.2,3.3c-1.4,2.4-3.5,4.7-4.5,7.3
			c-2.4,5.9-4.3,12-6.6,17.9c-0.7,1.9-1.6,3.6-2.3,5.6c-0.2,0-0.3-0.2-0.5-0.2c0-0.2,0-0.5,0-0.7c1.4-5,2.6-10.2,4-15.3
			c0.7-2.3,1-4.2,0.2-6.4c-1.4-3.6-4.7-4.7-7.6-6.2c-1-0.5-1.4,0.3-1.4,1c0.2,3.5-1.2,6.8-2.3,10.1c-2.3,6.9-2.8,14.1-2.8,21.2
			c0,2.3-0.9,4.3-1.7,6.4c-0.3,0.7-1.9,1.7-2.4,1.6c-0.9-0.3-1.6-1.6-1.7-2.6c-1-6.2,0.3-12,2.8-17.7c2.9-6.8,0.2-11.8-6.2-14.7
			c-0.7-0.3-1.7-0.7-2.1,0.7c-0.2,0.3-0.9,0.7-1.4,0.7c-2.4,0.2-4.9,0-7.1,0.3c-6.9,1.4-12,5-14.4,12c-0.5,1.2-0.5,2.6-0.9,4
			c-1.4,4-1.2,8-1,12.1c0,1.7-0.3,3.6-0.9,5.4c-0.3,1.2-1.6,2.6-2.9,2.3c-1-0.3-2.1-1.6-2.4-2.8c-0.9-3.5-0.3-6.9,0.7-10.2
			c1.2-4.2,2.6-8.3,3.8-12.7c0.9-3.3,0.2-6.2-2.8-8.2c-1.7-1.2-3.8-1.9-5.9-2.6c-1.7-0.5-2.1-0.2-1.9,1.7c0.2,1.6,0.5,3.3,0,4.7
			c-0.7,2.4-4.2,3.6-7.3,2.6c0.7-1.9,0.5-2.4-1.4-3.1c-0.7-0.2-1.4-0.5-1.9-0.3c-2.9,0.3-5.9,0.9-8.8,1.6c-1.9,2.3,0.2,4.9,0.2,4.9
			c2.8,4.9,2.1,6.6,2.1,6.6c0,2.1-3.3,10.6-3.3,10.6c-0.9,1.9-1,1.7-1,1.7c-1.2,0.2-1.4-1.6-1.4-1.6c-0.3-1.4-0.7-2.8-0.7-4.3
			c0-2.1,0.3-4.2,0.7-6.2c0.2-1.6-0.3-2.1-1.9-1.7c-3.1,0.9-6.2,1.6-9.4,2.6c-2.9,0.9-3.6,1.4-3.3,4.7c0.3,3.6-0.5,6.9-1.6,10.4
			c-2.4,8-7.3,14.1-16,15.4c-6.8,1.2-11.4-0.5-13.7-6.8c-0.9-2.3-1.2-4.7-1-7.1c0.7-7.6,3.8-14.4,7.1-21.2c2.1-4.3,1.2-4.2,6.2-2.9
			c0.5,0.2,1,0.2,1.4,0.3c7.3,1.9,14.2,1.7,21.2-1.4c7.3-3.3,11.4-8.5,11.3-16.8c-0.2-4-2.8-8.8-7.1-10.1
			c-5.9-1.6-11.6-0.7-17.5,0.3c-5.4,0.9-9.9,3.3-13.5,7.3c-2.1,2.3-4,4.9-6.2,7.1c-0.7,0.7-1.7,1.4-2.8,1.4c-4.7,0.7-9.5,1-14.4,1.9
			c-5.6,1-10.8,2.6-15.4,5.9c-1.9,1.4-4.2,2.8-5.4,4.7c-2.8,4.3-2.9,9.4-1.4,14.2c0.2,0.7,0.9,1.6,1.4,1.9c0.3,0.2,1.2-0.5,1.7-1
			c2.3-2.4,4-5.2,6.6-7.1c4.5-3.6,9.2-6.8,14.7-8.3c2.4-0.7,4.9-2.1,7.6-1.4c-0.2,0.7-0.3,1.2-0.5,1.7c-0.9,2.6-1.9,5.2-2.4,7.8
			c-1.7,7.8-3.5,15.4-3.3,23.6c0,6.2,2.1,11.3,7.3,14.9c4.5,2.9,9.7,3.5,14.9,2.9c9-1,16-6.2,21.5-13.2c1.2-1.6,2.4-3.3,3.6-5
			c0.2,0,0.3,0.2,0.7,0.2c-0.2,1.4,0.2,3.1-0.5,4.3c-1.2,2.3-2.6,4.5-4.2,6.6c-4.2,5.7-8.2,11.6-10.6,18.4
			c-1.2,3.1-1.9,6.6-0.9,10.1c0.9,2.8,2.1,5.6,5,6.8c3.6,1.6,7.5,1.2,10.9-0.7c5-2.9,8.3-7.5,11.1-12.3c0.5-1,1-2.1,1.2-3.3
			c1.6-8,1.9-15.8,0.5-23.8c-0.2-1.2,0.2-2.8,0.7-3.8c2.8-6.2,6.2-12,7.6-18.9c0.3-1.7,1-3.5,1.7-5c0.2-0.5,0.7-1,1.2-1.2
			c1.6-0.3,3.1-0.5,4.9-0.7c0,0.3,0,0.7,0,1c-0.2,4-0.5,8-0.5,11.8c0,6.9,6.1,12.3,12.5,10.9c2.1-0.5,4-1.2,5.4-2.9
			c0.9-1,1.7-1.4,3.1-0.3c1.7,1,3.6,1.9,5.6,2.1c4,0.5,7.5-1.2,10.8-2.9c1.4-0.7,2.3-0.7,3.5,0.3c2.1,1.7,4.5,2.4,6.9,1.2
			c2.3-1,4.3-2.6,6.6-3.8c0.5-0.3,1.6-0.5,2.1-0.2c3.1,2.3,6.6,1.6,8.2-2.1c1.6-3.8,2.8-7.8,4.2-11.8c0.9-2.4,1.6-4.9,2.3-7.3
			c0.2,0,0.5,0,0.7,0.2c0.3,2.1,0.2,4.3,0.9,6.2c1.6,4.7,7.3,8.8,12.7,6.4c1.6-0.7,2.9-1.6,4.3-2.4c1.2-0.9,1.9-1,3.3-0.2
			c2.1,1.2,4.3,2.3,7.1,1.7c3.5-0.5,6.2-2.1,8.5-4.7c1.6-1.9,2.9-2.1,5-0.7c0.9,0.7,1.9,1,3.1,1.4l0,0c0,0,10.4,3.8,17.3-3.8
			c4.7-5,8.2-10.8,9.7-17.5c0.7-2.9,1.4-5.9,2.1-8.8c0.5-2.1,2.3-1.7,3.6-1.6c0.7,0,1.6,1.2,1.7,2.1c0.3,1.4,0.2,2.8,0,4.2
			c-0.3,4.7,0,9.2,2.3,13.2c1.2,2.1,2.8,3.8,5.2,4.3c2.8,0.5,5.4-0.2,7.8-1.6c1.7-1,3.1-2.4,4.7-3.6c3.8,3.8,8.5,3.1,13,3.1
			c-0.2,0.7-0.3,1.4-0.5,1.9c-2.3,5-5.2,9.2-9.5,12.8c-4.7,3.8-9.7,6.8-15.1,9.2c-4.5,2.1-9.2,2.8-14.1,3.5
			c-4.3,0.7-8.8,1.6-13.2,1.7c-8.3,0.2-16.7-0.2-25-0.3c-8.5-0.2-17-0.9-25.3,0.3c-8.7,1.2-17.5,2.1-26.2,3.5
			c-6.2,1-12.1,2.6-18.4,3.8c-9.4,1.9-18.6,4.2-27.2,8.2c-4.7,2.1-9,4.9-12.7,8.7c-1.7,1.9-3.1,4-4.9,5.9c-2.8,3.1-5.7,6.4-8.5,9.5
			c-0.5,0.5-1,1.6-0.9,1.7c0.5,0.7,1.4,1.7,2.3,1.9c2.3,0.3,4.5,0.3,6.6,0c5.2-0.7,9.4-3.5,13.4-6.9c1.7-1.6,3.3-3.6,5.2-5
			c5.9-4.2,12.5-7.6,19.3-10.2c5.2-1.9,10.4-3.6,15.6-5.4c4.2-1.4,8.5-2.8,12.8-3.3c8.2-1.2,16.3-1.9,24.3-2.9
			c2.1-0.2,4.2-0.3,6.2-0.3c12.7,0.5,25.2,1.2,37.6,1.9c8.3,0.5,16.7,0.2,24.6-2.3c7.3-2.1,14.2-4.9,20.8-8.7
			c5.6-3.1,11.1-6.1,14.7-11.4c2.4-3.5,5-7.1,6.9-10.9C-595.9,480.5-595,475.8-595.9,470.9z M-672,456.3c0.7-0.3,1.6,0,2.4-0.2
			c0,0.7,0.2,1.6-0.2,2.3c-1.7,3.3-4.2,5.6-8.3,5.9C-677.1,460.7-675.5,457.7-672,456.3z M-834.6,461.2c3.3-0.7,6.6-0.9,9.9-0.9
			c1.2,0,2.9,0.3,2.9,1.9c0,1.2-1,2.3-1.7,3.3c-0.2,0.3-0.7,0.3-1,0.5c-5.7,1.7-11.4,1.7-17.7,0.2
			C-839.8,463.8-837.5,461.9-834.6,461.2z M-817.9,535.6c-0.5,1.9-1.2,3.6-2.1,5.4c-0.3,0.7-1.2,1-1.9,1.4c-0.2-0.7-0.9-1.4-0.7-2.1
			c0.9-3.6,2.1-7.3,3.1-10.9c0.2-0.5,0.9-1,1.4-0.9c0.3,0,0.9,0.7,1.2,1C-817.2,531.6-817.4,533.7-817.9,535.6z M-754.2,477
			c-0.3,4.3-0.7,8.7-1.2,13c0,0.7,0,1.6,0,2.3c-0.3,3.3-2.4,5.2-5.9,5.7c-2.6,0.3-4.3-0.7-5.2-3.1c-2.6-6.9-0.5-15.1,5.7-18.6
			c1.6-0.9,3.6-1,5.6-1.2C-755.1,475.1-754.2,476.3-754.2,477z"/>
	</g>
	<path class="st1" d="M-702.2,460.2c0,0-2.1,19.6-2.6,21.9s-2.8-1-2.8-1l1.7-15.3L-702.2,460.2z"/>
</g>
<rect x="-1548.6" y="324.5" class="st2" width="468.4" height="281"/>
<g>
	<g>
		<path class="st1" d="M-1281.2,457.9c5.7,1.6,9.7-2.4,9.9-8c0-1.7-0.9-2.3-2.6-2.1c-2.1,0.5-4.2,1.2-6.1,1.7
			c-2.6,0.7-4,3.1-3.3,5.6C-1283.2,456.2-1282.1,457.6-1281.2,457.9z"/>
		<path class="st1" d="M-1202,442.6c5.7,1.6,9.7-2.4,9.9-8c0-1.7-0.9-2.3-2.6-2.1c-2.1,0.5-4.2,1.2-6.1,1.7c-2.6,0.7-4,3.1-3.3,5.6
			C-1203.7,440.9-1202.8,442.3-1202,442.6z"/>
		<path class="st1" d="M-1178.2,478.7c-0.9-4.3-3.6-7.3-6.8-10.2l0,0c-1.2-0.2-1.9,0.7-1.9,0.7c-1.4,2.9-3.1,5.6-6.1,7.1
			c-2.3,1.2-4,0.2-4.2-2.3c-0.2-1.6-0.3-3.3,0-5c0.7-4.2,1.6-8.3,2.4-12.3c1.2-5.6,0.2-6.6-3.6-9.2c-1.2-0.9-2.6-1.2-3.8-1.7
			c-1.7-0.7-2.1-0.5-2.3,1.4c-0.5,2.9-1,5.9-1.4,8.8c-0.5,4.3-1,8.8-1.6,13.2c0,0.5-0.2,1.2,0,1.9c0.9,2.9-0.2,5.4-1.7,7.6
			c-0.9,1.2-2.4,1.2-3.1-0.2c-0.7-1.6-1.4-3.5-1.4-5.2c0-5.2,2.1-10.1,3.6-14.7c1.2-3.5,2.9-6.9,0-10.2c-1.7-2.1-4-3.6-6.1-5.4
			c-0.3-0.3-1.2-0.2-1.6-0.2c-0.7,2.8-1.4,5.2-2.1,7.6c-0.2,0.5-0.9,1.2-1.6,1.4c-2.4,0.7-4.9,1-7.6,1.6c0.3-1.4,0.7-2.3,1-3.5
			c-0.3-0.2-0.9-0.3-1.4-0.5c-3.5-0.3-6.6,0.3-9.7,1.9c-1.9,0.9-2.4,2.1-1.6,3.8c1.2,2.3,2.8,4.5,4.2,6.8c0.3,0.5,0.5,1,0.9,1.6
			c-1.7,13.2-10.2,23.2-10.2,23.2c-5.2,4.2-10.6,0.9-13.5-1.9c-0.3-0.3-1.4-1.7-1.2-5.4l0,0c1.2-0.2,2.3-0.2,3.5-0.2
			c9.5-0.5,14.9-5.4,15.8-14.7c0.7-6.1-4.5-11.3-10.6-10.6c-5,0.5-9.2,2.9-12.1,6.8c-6.1,7.3-8,15.4-4.3,24.5
			c0.2,0.5,0.5,1.2,0.2,1.7c-0.9,2.3-2.3,4-4.3,5.2c-3.5,1.7-5.7,0.3-5.2-3.5c0.7-4.7,1.9-9.5,2.8-14.2c0.3-1.9,1.2-4,1.2-5.9
			c0-3.8-4.2-7.6-8-7.5c-0.5,0-1.4,0.7-1.4,1c-0.5,1.9-0.9,4-1.4,5.9s-1.6,3.6-1.7,5.6c-0.3,4.9-0.3,9.7-0.5,14.6
			c0,1.6-0.5,3.3-1,4.9s-1.7,2.6-3.1,2.3c-1-0.2-2.1-1.4-2.6-2.3c-1.7-3.3-0.7-6.8,0.3-9.9c1-3.6,2.8-7.1,4-10.8
			c2.3-6.6,1.7-9-3.1-12.1c-0.3-0.3-0.9-0.5-1.2-0.7c-1.6-0.9-2.1-0.9-2.8,0.9c-0.5,1-0.7,2.3-1.2,3.3c-1.4,2.4-3.5,4.7-4.5,7.3
			c-2.4,5.9-4.3,12-6.6,17.9c-0.7,1.9-1.6,3.6-2.3,5.6c-0.2,0-0.3-0.2-0.5-0.2c0-0.2,0-0.5,0-0.7c1.4-5,2.6-10.2,4-15.3
			c0.7-2.3,1-4.2,0.2-6.4c-1.4-3.6-4.7-4.7-7.6-6.2c-1-0.5-1.4,0.3-1.4,1c0.2,3.5-1.2,6.8-2.3,10.1c-2.3,6.9-2.8,14.1-2.8,21.2
			c0,2.3-0.9,4.3-1.7,6.4c-0.3,0.7-1.9,1.7-2.4,1.6c-0.9-0.3-1.6-1.6-1.7-2.6c-1-6.2,0.3-12,2.8-17.7c2.9-6.8,0.2-11.8-6.2-14.7
			c-0.7-0.3-1.7-0.7-2.1,0.7c-0.2,0.3-0.9,0.7-1.4,0.7c-2.4,0.2-4.9,0-7.1,0.3c-6.9,1.4-12,5-14.4,12c-0.5,1.2-0.5,2.6-0.9,4
			c-1.4,4-1.2,8-1,12.1c0,1.7-0.3,3.6-0.9,5.4c-0.3,1.2-1.6,2.6-2.9,2.3c-1-0.3-2.1-1.6-2.4-2.8c-0.9-3.5-0.3-6.9,0.7-10.2
			c1.2-4.2,2.6-8.3,3.8-12.7c0.9-3.3,0.2-6.2-2.8-8.2c-1.7-1.2-3.8-1.9-5.9-2.6c-1.7-0.5-2.1-0.2-1.9,1.7c0.2,1.6,0.5,3.3,0,4.7
			c-0.7,2.4-4.2,3.6-7.3,2.6c0.7-1.9,0.5-2.4-1.4-3.1c-0.7-0.2-1.4-0.5-1.9-0.3c-2.9,0.3-5.9,0.9-8.8,1.6c-1.9,2.3,0.2,4.9,0.2,4.9
			c2.8,4.9,2.1,6.6,2.1,6.6c0,2.1-3.3,10.6-3.3,10.6c-0.9,1.9-1,1.7-1,1.7c-1.2,0.2-1.4-1.6-1.4-1.6c-0.3-1.4-0.7-2.8-0.7-4.3
			c0-2.1,0.3-4.2,0.7-6.2c0.2-1.6-0.3-2.1-1.9-1.7c-3.1,0.9-6.2,1.6-9.4,2.6c-2.9,0.9-3.6,1.4-3.3,4.7c0.3,3.6-0.5,6.9-1.6,10.4
			c-2.4,8-7.3,14.1-16,15.4c-6.8,1.2-11.4-0.5-13.7-6.8c-0.9-2.3-1.2-4.7-1-7.1c0.7-7.6,3.8-14.4,7.1-21.2c2.1-4.3,1.2-4.2,6.2-2.9
			c0.5,0.2,1,0.2,1.4,0.3c7.3,1.9,14.2,1.7,21.2-1.4c7.3-3.3,11.4-8.5,11.3-16.8c-0.2-4-2.8-8.8-7.1-10.1
			c-5.9-1.6-11.6-0.7-17.5,0.3c-5.4,0.9-9.9,3.3-13.5,7.3c-2.1,2.3-4,4.9-6.2,7.1c-0.7,0.7-1.7,1.4-2.8,1.4c-4.7,0.7-9.5,1-14.4,1.9
			c-5.6,1-10.8,2.6-15.4,5.9c-1.9,1.4-4.2,2.8-5.4,4.7c-2.8,4.3-2.9,9.4-1.4,14.2c0.2,0.7,0.9,1.6,1.4,1.9c0.3,0.2,1.2-0.5,1.7-1
			c2.3-2.4,4-5.2,6.6-7.1c4.5-3.6,9.2-6.8,14.7-8.3c2.4-0.7,4.9-2.1,7.6-1.4c-0.2,0.7-0.3,1.2-0.5,1.7c-0.9,2.6-1.9,5.2-2.4,7.8
			c-1.7,7.8-3.5,15.4-3.3,23.6c0,6.2,2.1,11.3,7.3,14.9c4.5,2.9,9.7,3.5,14.9,2.9c9-1,16-6.2,21.5-13.2c1.2-1.6,2.4-3.3,3.6-5
			c0.2,0,0.3,0.2,0.7,0.2c-0.2,1.4,0.2,3.1-0.5,4.3c-1.2,2.3-2.6,4.5-4.2,6.6c-4.2,5.7-8.2,11.6-10.6,18.4
			c-1.2,3.1-1.9,6.6-0.9,10.1c0.9,2.8,2.1,5.6,5,6.8c3.6,1.6,7.5,1.2,10.9-0.7c5-2.9,8.3-7.5,11.1-12.3c0.5-1,1-2.1,1.2-3.3
			c1.6-8,1.9-15.8,0.5-23.8c-0.2-1.2,0.2-2.8,0.7-3.8c2.8-6.2,6.2-12,7.6-18.9c0.3-1.7,1-3.5,1.7-5c0.2-0.5,0.7-1,1.2-1.2
			c1.6-0.3,3.1-0.5,4.9-0.7c0,0.3,0,0.7,0,1c-0.2,4-0.5,8-0.5,11.8c0,6.9,6.1,12.3,12.5,10.9c2.1-0.5,4-1.2,5.4-2.9
			c0.9-1,1.7-1.4,3.1-0.3c1.7,1,3.6,1.9,5.6,2.1c4,0.5,7.5-1.2,10.8-2.9c1.4-0.7,2.3-0.7,3.5,0.3c2.1,1.7,4.5,2.4,6.9,1.2
			c2.3-1,4.3-2.6,6.6-3.8c0.5-0.3,1.6-0.5,2.1-0.2c3.1,2.3,6.6,1.6,8.2-2.1c1.6-3.8,2.8-7.8,4.2-11.8c0.9-2.4,1.6-4.9,2.3-7.3
			c0.2,0,0.5,0,0.7,0.2c0.3,2.1,0.2,4.3,0.9,6.2c1.6,4.7,7.3,8.8,12.7,6.4c1.6-0.7,2.9-1.6,4.3-2.4c1.2-0.9,1.9-1,3.3-0.2
			c2.1,1.2,4.3,2.3,7.1,1.7c3.5-0.5,6.2-2.1,8.5-4.7c1.6-1.9,2.9-2.1,5-0.7c0.9,0.7,1.9,1,3.1,1.4l0,0c0,0,10.4,3.8,17.3-3.8
			c4.7-5,8.2-10.8,9.7-17.5c0.7-2.9,1.4-5.9,2.1-8.8c0.5-2.1,2.3-1.7,3.6-1.6c0.7,0,1.6,1.2,1.7,2.1c0.3,1.4,0.2,2.8,0,4.2
			c-0.3,4.7,0,9.2,2.3,13.2c1.2,2.1,2.8,3.8,5.2,4.3c2.8,0.5,5.4-0.2,7.8-1.6c1.7-1,3.1-2.4,4.7-3.6c3.8,3.8,8.5,3.1,13,3.1
			c-0.2,0.7-0.3,1.4-0.5,1.9c-2.3,5-5.2,9.2-9.5,12.8c-4.7,3.8-9.7,6.8-15.1,9.2c-4.5,2.1-9.2,2.8-14.1,3.5
			c-4.3,0.7-8.8,1.6-13.2,1.7c-8.3,0.2-16.7-0.2-25-0.3c-8.5-0.2-17-0.9-25.3,0.3c-8.7,1.2-17.5,2.1-26.2,3.5
			c-6.2,1-12.1,2.6-18.4,3.8c-9.4,1.9-18.6,4.2-27.2,8.2c-4.7,2.1-9,4.9-12.7,8.7c-1.7,1.9-3.1,4-4.9,5.9c-2.8,3.1-5.7,6.4-8.5,9.5
			c-0.5,0.5-1,1.6-0.9,1.7c0.5,0.7,1.4,1.7,2.3,1.9c2.3,0.3,4.5,0.3,6.6,0c5.2-0.7,9.4-3.5,13.4-6.9c1.7-1.6,3.3-3.6,5.2-5
			c5.9-4.2,12.5-7.6,19.3-10.2c5.2-1.9,10.4-3.6,15.6-5.4c4.2-1.4,8.5-2.8,12.8-3.3c8.2-1.2,16.3-1.9,24.3-2.9
			c2.1-0.2,4.2-0.3,6.2-0.3c12.7,0.5,25.2,1.2,37.6,1.9c8.3,0.5,16.7,0.2,24.6-2.3c7.3-2.1,14.2-4.9,20.8-8.7
			c5.6-3.1,11.1-6.1,14.7-11.4c2.4-3.5,5-7.1,6.9-10.9C-1178.2,488.1-1177.3,483.4-1178.2,478.7z M-1254.4,464.2
			c0.7-0.3,1.6,0,2.4-0.2c0,0.7,0.2,1.6-0.2,2.3c-1.7,3.3-4.2,5.6-8.3,5.9C-1259.4,468.5-1257.8,465.4-1254.4,464.2z M-1416.9,468.8
			c3.3-0.7,6.6-0.9,9.9-0.9c1.2,0,2.9,0.3,2.9,1.9c0,1.2-1,2.3-1.7,3.3c-0.2,0.3-0.7,0.3-1,0.5c-5.7,1.7-11.4,1.7-17.7,0.2
			C-1422.1,471.4-1419.8,469.5-1416.9,468.8z M-1400.2,543.3c-0.5,1.9-1.2,3.6-2.1,5.4c-0.3,0.7-1.2,1-1.9,1.4
			c-0.2-0.7-0.9-1.4-0.7-2.1c0.9-3.6,2.1-7.3,3.1-10.9c0.2-0.5,0.9-1,1.4-0.9c0.3,0,0.9,0.7,1.2,1
			C-1399.6,539.4-1399.7,541.3-1400.2,543.3z M-1336.6,484.6c-0.3,4.3-0.7,8.7-1.2,13c0,0.7,0,1.6,0,2.3c-0.3,3.3-2.4,5.2-5.9,5.7
			c-2.6,0.3-4.3-0.7-5.2-3.1c-2.6-6.9-0.5-15.1,5.7-18.6c1.6-0.9,3.6-1,5.6-1.2C-1337.4,482.9-1336.6,484.1-1336.6,484.6z"/>
	</g>
	<path class="st2" d="M-1284.5,467.8c0,0-2.1,19.6-2.6,21.9s-2.8-1-2.8-1l1.7-15.3L-1284.5,467.8z"/>
</g>
<rect x="-960.3" y="692.3" class="st2" width="468.4" height="281"/>
<rect x="-2091.5" y="314.1" class="st3" width="468.4" height="281"/>
<g>
	<path class="st4" d="M-1731.6,402.6c3.3-0.9,4.9-2.1,5-2.4l0,0c4.2-5.9,0.3-12,0-12.5c-0.7-0.7-1.4-1.4-2.1-2.1l0,0
		c-1.2-0.2-1.9,0.7-1.9,0.7c-1,2.1-2.1,4-3.8,5.4c-1.2,0.7-2.8,0.5-4,0c-1.7-0.7-2.1-2.4-2.1-4c-0.2-3.3-0.2-6.4,1-9.5
		c0.9-2.3,1.7-4.7,2.4-6.9c0.7-2.4,0.9-4.9-1-6.8c-1-1-2.4-1.6-3.5-2.3c-2.3-1.4-4.9-0.9-6.1,1.4c-5.6-1-10.9-0.2-16,2.4
		c-4,2.1-7.3,4.9-9,9.2c-1.9,4.9-1.9,9.7-1,14.7c0.5,2.6-0.5,5.2-2.8,6.1c-1.4,0.5-2.6,0.5-3.5-1.2c-1.2-2.6-0.7-5.2-0.2-7.6
		c1.2-4.5,2.6-8.8,4-13.2c0.9-2.9,0.5-5.7-2.1-7.6c-1.4-1-2.8-1.7-4.2-2.8c-1.4-0.9-1.9-0.2-2.4,1c-1.4,3.5-2.9,6.8-4.3,10.1
		c-2.4,5.6-5.7,10.6-7.3,16.5c-0.7,2.9-2.3,5.6-3.5,8.3c-0.2,0-0.2,0-0.3,0c0-0.3-0.2-0.7,0-1c0.9-4,1.7-8,2.6-12
		c0.5-2.1,1.4-4,1.7-5.9c1-5.2-1.4-9.4-6.4-10.8c-1-0.3-1.7-0.3-2.1,0.9c-2.4,8.8-4.9,17.9-5.2,27.1c-0.2,3.1,0,6.6-2.4,9.2
		c-0.5,0.5-1.6,1.4-1.9,1.2c-0.7-0.3-1.4-1.2-1.7-2.1c-0.3-0.7-0.2-1.6-0.2-2.3c0.2-6.8,2.3-13.2,4-19.8c0.5-2.1,0.9-4.3-0.7-5.9
		c-1.7-1.9-4-3.3-6.2-4.9c-1.6-1-2.4-0.2-3.3,1.2c-0.3,0.5-0.9,1-1.6,1.2c-2.6,0.5-5.4,0.5-8,1c-6.2,1.4-11.1,4.9-14.1,10.8
		c-2.6,5.6-2.6,11.3-2.4,17.2c0.2,3.6-1.7,7.1-5,8.7c-1.7,0.9-2.8,0.5-3.1-1.4c-0.3-1.6-0.5-3.3-0.5-5c0.3-5,1.7-9.7,3.5-14.6
		c0.5-1.7,1.2-3.5,1-5.2c-0.3-4.3-1.6-5.9-7.6-7.5c-1.4-0.3-2.1,0-2.4,1.4c-1,6.1-2.3,12.3-3.3,18.4c-0.5,4-0.7,8.2-1,12.1
		c-0.2,1.6-1.9,3.1-3.3,3.1s-2.8-1.4-2.6-3.1c0-2.3,0-4.7,0.7-6.9c1-3.8,2.8-7.6,4-11.4c0.7-2.1,1-4.3,1.2-6.4
		c0.2-3.5-2.8-6.9-6.1-7.6c-2.1-0.3-2.6,0-2.4,2.1c0.2,3.1-1.2,5.2-4,6.1c-1.7,0.5-3.6,0.5-5.6,0.9c-1.6,0.2-2.3-0.3-1.6-2.1
		c0.7-1.4,0-2.3-1.4-2.1c-2.4,0.2-4.9,0.3-7.3,0.9c-2.3,0.3-3.3,1.9-2.8,4.2c0.3,1.7,1,3.5,1.6,5.2c0.5,1.4,1.4,2.9,1.4,4.3
		c0,3.3-0.3,6.4-0.9,9.7c-0.7,4.2-2.8,7.6-5.6,10.8c-1.4,1.4-2.4,1.2-2.9-0.7c-0.5-1.7-1-3.6-0.9-5.4c0.5-5.9,1.2-11.8,1.9-17.9
		c0.7-5.6,2.6-10.6,5.2-15.3c2.1-3.8,2.8-6.9,0-9.9c-1.2-1.2-2.9-2.1-4.5-2.9c-3.1-1.7-4.5-1-5,2.4c0,0.2,0,0.5-0.2,0.7
		c-1.2,5.9-2.6,11.6-3.8,17.5c-0.3,2.1-1.6,2.9-3.6,2.9c-5.6,0-9.7,2.8-13,6.8c-5.9,7.3-8.3,15.6-5.4,25c0.3,1-0.2,2.6-0.9,3.5
		c-2.3,2.9-7.6,2.8-9.7-0.5c-3.1-4.7-4.2-9.9-4-15.4c0-1.6,0.5-2.4,2.3-2.9c3.8-1.4,7.3-6.8,7.3-10.6c0-1.7-0.7-2.4-2.4-2.1
		c-1,0.2-1.9,0.3-2.9,0.5c-1.4,0.2-1.9-0.5-1.6-1.9c0.3-1.7,0.7-3.6,1.2-5.4c1-4,2.3-8,3.3-12s-1-8-4.5-8.5c-4-0.5-8,0.2-11.3,2.4
		c-6.4,4.5-10.2,10.8-12.5,18c-1.7,5.7-2.8,11.8-4.3,17.5c-1.7,6.2-3.6,12.3-5.9,18.2c-1,2.6-2.8,5.4-5,7.1
		c-4.9,4-10.4,4.9-16.8,3.8c-6.1-1-10.9-3.6-15.6-7.5c-2.3-1.9-4.9-3.6-7.3-5c-2.3-1.4-4.7-0.2-4.7,2.6c0,2.4,0,4.9,0.5,7.1
		c0.7,2.4,1.4,5.4,3.1,7.1c2.3,2.3,5.2,3.8,8,5.4c6.4,3.5,13.4,4.7,20.5,4.5c2.4,0,5,0,7.3-0.9c5.7-2.1,10.6-5.4,14.2-10.8
		c5.2-7.8,9.9-15.8,12.1-25.2c0.9-3.8,1-3.8,5.2-3.6c0.2,0,0.3,0,0.5,0c1.2,0,1.6,0.5,1.6,1.7c0,2.4,0.2,4.9,0.3,7.5
		c0.3,5.9,1.7,11.4,7.3,14.9c4,2.4,8,4.2,12.3,1.6c1.7-0.9,3.3-2.1,4.7-3.5c1-1,1.9-1,3.3-0.7c3.1,0.7,6.2,1.4,9.4,1.6
		c2.1,0,4.5-0.7,5.9-1.9c2.3-1.9,4.3-2.3,7.1-1.9c3.5,0.3,6.6-0.7,8.8-3.8c4.2-5.7,6.2-12.3,7.8-18.9c1.7-7.1,0.7-5.7,7.5-6.4
		c0.2,0,0.2,0,0.5,0.2c0,0.5,0,1.2-0.2,1.7c-1,4.2-0.7,8.5,0.5,12.5c0.9,2.9,1.7,6.1,4.9,7.3c3.6,1.6,7.6,1.7,11.1-0.3
		c1.9-1,3.3-0.9,5,0c3.8,1.9,7.5,1.2,10.8-1.2c1.4-1,2.8-1.9,4-3.1c1-0.9,1.7-1,2.9-0.3c5,2.6,10.2,3.1,15.3,0.2
		c2.3-1.4,4.3-1.4,6.8-0.3c4,1.7,7.6,1.2,10.9-1.7c1.2-1,2.3-1.2,3.8-0.3c2.4,1.4,5,1,6.6-0.5c2.3-2.3,3.5-5,4.3-8.2
		c1-4,2.4-7.8,3.6-11.8c0-0.2,0.3-0.3,0.7-0.7c0.9,2.6,1.4,4.9,2.3,7.1c2.4,5.9,8.3,7.5,13.2,3.6c1.4-1.2,2.8-2.4,4-3.6
		c1.9,1.4,3.5,2.9,5.4,3.6c5.2,1.9,10.2,1.7,15.1-1.2c0.7-0.5,1.9-0.9,2.6-0.5c0.2,0.2,0.3,0.2,0.5,0.3
		C-1746.8,401.2-1738.2,403.8-1731.6,402.6z M-1953.6,392.9c-0.2,0.9-0.3,1.9-0.7,2.8c-0.3,0.7-0.9,1.4-1.6,1.6
		c-3.1,0.7-3.6,0.2-2.6-2.9c0.7-2.3,1.4-4.7,2.3-6.9c0.2-0.7,0.5-1.4,1-1.7c0.5-0.5,1.4-0.9,1.9-0.9c0.3,0,0.7,1,1.2,1.6
		C-1952.6,388.3-1953.1,390.6-1953.6,392.9z M-1914.8,414.7c0,1.9,0,3.8-0.2,5.6c-0.2,2.8-0.3,2.9-3.1,3.6c-3.5,0.9-7.1-0.3-8-3.1
		c-0.9-2.8-0.9-5.6-0.3-8.5c0.9-4.5,4-7.3,7.3-9.9c1.2-0.9,2.8-1,4.5-1.7C-1914.6,405.7-1914.8,410.2-1914.8,414.7z M-1825.4,388.5
		c-0.2,1.9-0.7,4-0.7,5.9c0,3.6,0,7.5,0.2,11.1c0.2,1.7-0.2,3.1-1.7,3.8c-2.4,1-4.9,2.1-7.3,2.3c-2.9,0.2-4.3-1.4-5-4.3
		c-0.2-0.7-0.2-1.2-0.3-1.9c-0.5-6.1,0.5-11.8,4.7-15.8c1-0.9,2.1-1.7,3.5-2.4s3.1-1,4.7-1.2
		C-1825.6,385.9-1825.2,386.4-1825.4,388.5z M-1751.2,376c0,5.6,0.2,10.9,0.3,16.5c0,1.6-0.3,2.6-1.6,3.3c-6.1,4-11.4,0.3-11.6-3.5
		c-0.7-6.8,0.7-11.4,3.8-15.8c1.7-2.3,4.9-3.1,7.5-2.4C-1751.5,374.5-1751.2,374.8-1751.2,376z"/>
	<path class="st4" d="M-1859.8,377.4c5.7,1.6,9.7-2.4,9.9-8c0-1.7-0.9-2.3-2.6-2.1c-2.1,0.5-4.2,1.2-6.1,1.7c-2.6,0.7-4,3.1-3.3,5.6
		C-1861.7,375.7-1860.8,377.1-1859.8,377.4z"/>
</g>
<g>
	<g>
		<path class="st4" d="M-1824.2,447.3c5.7,1.6,9.7-2.4,9.9-8c0-1.7-0.9-2.3-2.6-2.1c-2.1,0.5-4.2,1.2-6.1,1.7
			c-2.6,0.7-4,3.1-3.3,5.6C-1826.1,445.8-1825.1,447.2-1824.2,447.3z"/>
		<path class="st4" d="M-1744.9,432.1c5.7,1.6,9.7-2.4,9.9-8c0-1.7-0.9-2.3-2.6-2.1c-2.1,0.5-4.2,1.2-6.1,1.7
			c-2.6,0.7-4,3.1-3.3,5.6C-1746.7,430.5-1745.8,431.9-1744.9,432.1z"/>
		<path class="st4" d="M-1721.2,468.1c-0.9-4.3-3.6-7.3-6.8-10.2l0,0c-1.2-0.2-1.9,0.7-1.9,0.7c-1.4,2.9-3.1,5.6-6.1,7.1
			c-2.3,1.2-4,0.2-4.2-2.3c-0.2-1.6-0.3-3.3,0-5c0.7-4.2,1.6-8.3,2.4-12.3c1.2-5.6,0.2-6.6-3.6-9.2c-1.2-0.9-2.6-1.2-3.8-1.7
			c-1.7-0.7-2.1-0.5-2.3,1.4c-0.5,2.9-1,5.9-1.4,8.8c-0.5,4.3-1,8.8-1.6,13.2c0,0.5-0.2,1.2,0,1.9c0.9,2.9-0.2,5.4-1.7,7.6
			c-0.9,1.2-2.4,1.2-3.1-0.2c-0.7-1.6-1.4-3.5-1.4-5.2c0-5.2,2.1-10.1,3.6-14.7c1.2-3.5,2.9-6.9,0-10.2c-1.7-2.1-4-3.6-6.1-5.4
			c-0.3-0.3-1.2-0.2-1.6-0.2c-0.7,2.8-1.4,5.2-2.1,7.6c-0.2,0.5-0.9,1.2-1.6,1.4c-2.4,0.7-4.9,1-7.6,1.6c0.3-1.4,0.7-2.3,1-3.5
			c-0.3-0.2-0.9-0.3-1.4-0.5c-3.5-0.3-6.6,0.3-9.7,1.9c-1.9,0.9-2.4,2.1-1.6,3.8c1.2,2.3,2.8,4.5,4.2,6.8c0.3,0.5,0.5,1,0.9,1.6
			c-1.7,13.2-10.2,23.2-10.2,23.2c-5.2,4.2-10.6,0.9-13.5-1.9c-0.3-0.3-1.4-1.7-1.2-5.4l0,0c1.2-0.2,2.3-0.2,3.5-0.2
			c9.5-0.5,14.9-5.4,15.8-14.7c0.7-6.1-4.5-11.3-10.6-10.6c-5,0.5-9.2,2.9-12.1,6.8c-6.1,7.3-8,15.4-4.3,24.5
			c0.2,0.5,0.5,1.2,0.2,1.7c-0.9,2.3-2.3,4-4.3,5.2c-3.5,1.7-5.7,0.3-5.2-3.5c0.7-4.7,1.9-9.5,2.8-14.2c0.3-1.9,1.2-4,1.2-5.9
			c0-3.8-4.2-7.6-8-7.5c-0.5,0-1.4,0.7-1.4,1c-0.5,1.9-0.9,4-1.4,5.9s-1.6,3.6-1.7,5.6c-0.3,4.9-0.3,9.7-0.5,14.6
			c0,1.6-0.5,3.3-1,4.9s-1.7,2.6-3.1,2.3c-1-0.2-2.1-1.4-2.6-2.3c-1.7-3.3-0.7-6.8,0.3-9.9c1-3.6,2.8-7.1,4-10.8
			c2.3-6.6,1.7-9-3.1-12.1c-0.3-0.3-0.9-0.5-1.2-0.7c-1.6-0.9-2.1-0.9-2.8,0.9c-0.5,1-0.7,2.3-1.2,3.3c-1.4,2.4-3.5,4.7-4.5,7.3
			c-2.4,5.9-4.3,12-6.6,17.9c-0.7,1.9-1.6,3.6-2.3,5.6c-0.2,0-0.3-0.2-0.5-0.2c0-0.2,0-0.5,0-0.7c1.4-5,2.6-10.2,4-15.3
			c0.7-2.3,1-4.2,0.2-6.4c-1.4-3.6-4.7-4.7-7.6-6.2c-1-0.5-1.4,0.3-1.4,1c0.2,3.5-1.2,6.8-2.3,10.1c-2.3,6.9-2.8,14.1-2.8,21.2
			c0,2.3-0.9,4.3-1.7,6.4c-0.3,0.7-1.9,1.7-2.4,1.6c-0.9-0.3-1.6-1.6-1.7-2.6c-1-6.2,0.3-12,2.8-17.7c2.9-6.8,0.2-11.8-6.2-14.7
			c-0.7-0.3-1.7-0.7-2.1,0.7c-0.2,0.3-0.9,0.7-1.4,0.7c-2.4,0.2-4.9,0-7.1,0.3c-6.9,1.4-12,5-14.4,12c-0.5,1.2-0.5,2.6-0.9,4
			c-1.4,4-1.2,8-1,12.1c0,1.7-0.3,3.6-0.9,5.4c-0.3,1.2-1.6,2.6-2.9,2.3c-1-0.3-2.1-1.6-2.4-2.8c-0.9-3.5-0.3-6.9,0.7-10.2
			c1.2-4.2,2.6-8.3,3.8-12.7c0.9-3.3,0.2-6.2-2.8-8.2c-1.7-1.2-3.8-1.9-5.9-2.6c-1.7-0.5-2.1-0.2-1.9,1.7c0.2,1.6,0.5,3.3,0,4.7
			c-0.7,2.4-4.2,3.6-7.3,2.6c0.7-1.9,0.5-2.4-1.4-3.1c-0.7-0.2-1.4-0.5-1.9-0.3c-2.9,0.3-5.9,0.9-8.8,1.6c-1.9,2.3,0.2,4.9,0.2,4.9
			c2.8,4.9,2.1,6.6,2.1,6.6c0,2.1-3.3,10.6-3.3,10.6c-0.9,1.9-1,1.7-1,1.7c-1.2,0.2-1.4-1.6-1.4-1.6c-0.3-1.4-0.7-2.8-0.7-4.3
			c0-2.1,0.3-4.2,0.7-6.2c0.2-1.6-0.3-2.1-1.9-1.7c-3.1,0.9-6.2,1.6-9.4,2.6c-2.9,0.9-3.6,1.4-3.3,4.7c0.3,3.6-0.5,6.9-1.6,10.4
			c-2.4,8-7.3,14.1-16,15.4c-6.8,1.2-11.4-0.5-13.7-6.8c-0.9-2.3-1.2-4.7-1-7.1c0.7-7.6,3.8-14.4,7.1-21.2c2.1-4.3,1.2-4.2,6.2-2.9
			c0.5,0.2,1,0.2,1.4,0.3c7.3,1.9,14.2,1.7,21.2-1.4c7.3-3.3,11.4-8.5,11.3-16.8c-0.2-4-2.8-8.8-7.1-10.1
			c-5.9-1.6-11.6-0.7-17.5,0.3c-5.4,0.9-9.9,3.3-13.5,7.3c-2.1,2.3-4,4.9-6.2,7.1c-0.7,0.7-1.7,1.4-2.8,1.4c-4.7,0.7-9.5,1-14.4,1.9
			c-5.6,1-10.8,2.6-15.4,5.9c-1.9,1.4-4.2,2.8-5.4,4.7c-2.8,4.3-2.9,9.4-1.4,14.2c0.2,0.7,0.9,1.6,1.4,1.9c0.3,0.2,1.2-0.5,1.7-1
			c2.3-2.4,4-5.2,6.6-7.1c4.5-3.6,9.2-6.8,14.7-8.3c2.4-0.7,4.9-2.1,7.6-1.4c-0.2,0.7-0.3,1.2-0.5,1.7c-0.9,2.6-1.9,5.2-2.4,7.8
			c-1.7,7.8-3.5,15.4-3.3,23.6c0,6.2,2.1,11.3,7.3,14.9c4.5,2.9,9.7,3.5,14.9,2.9c9-1,16-6.2,21.5-13.2c1.2-1.6,2.4-3.3,3.6-5
			c0.2,0,0.3,0.2,0.7,0.2c-0.2,1.4,0.2,3.1-0.5,4.3c-1.2,2.3-2.6,4.5-4.2,6.6c-4.2,5.7-8.2,11.6-10.6,18.4
			c-1.2,3.1-1.9,6.6-0.9,10.1c0.9,2.8,2.1,5.6,5,6.8c3.6,1.6,7.5,1.2,10.9-0.7c5-2.9,8.3-7.5,11.1-12.3c0.5-1,1-2.1,1.2-3.3
			c1.6-8,1.9-15.8,0.5-23.8c-0.2-1.2,0.2-2.8,0.7-3.8c2.8-6.2,6.2-12,7.6-18.9c0.3-1.7,1-3.5,1.7-5c0.2-0.5,0.7-1,1.2-1.2
			c1.6-0.3,3.1-0.5,4.9-0.7c0,0.3,0,0.7,0,1c-0.2,4-0.5,8-0.5,11.8c0,6.9,6.1,12.3,12.5,10.9c2.1-0.5,4-1.2,5.4-2.9
			c0.9-1,1.7-1.4,3.1-0.3c1.7,1,3.6,1.9,5.6,2.1c4,0.5,7.5-1.2,10.8-2.9c1.4-0.7,2.3-0.7,3.5,0.3c2.1,1.7,4.5,2.4,6.9,1.2
			c2.3-1,4.3-2.6,6.6-3.8c0.5-0.3,1.6-0.5,2.1-0.2c3.1,2.3,6.6,1.6,8.2-2.1c1.6-3.8,2.8-7.8,4.2-11.8c0.9-2.4,1.6-4.9,2.3-7.3
			c0.2,0,0.5,0,0.7,0.2c0.3,2.1,0.2,4.3,0.9,6.2c1.6,4.7,7.3,8.8,12.7,6.4c1.6-0.7,2.9-1.6,4.3-2.4c1.2-0.9,1.9-1,3.3-0.2
			c2.1,1.2,4.3,2.3,7.1,1.7c3.5-0.5,6.2-2.1,8.5-4.7c1.6-1.9,2.9-2.1,5-0.7c0.9,0.7,1.9,1,3.1,1.4l0,0c0,0,10.4,3.8,17.3-3.8
			c4.7-5,8.2-10.8,9.7-17.5c0.7-2.9,1.4-5.9,2.1-8.8c0.5-2.1,2.3-1.7,3.6-1.6c0.7,0,1.6,1.2,1.7,2.1c0.3,1.4,0.2,2.8,0,4.2
			c-0.3,4.7,0,9.2,2.3,13.2c1.2,2.1,2.8,3.8,5.2,4.3c2.8,0.5,5.4-0.2,7.8-1.6c1.7-1,3.1-2.4,4.7-3.6c3.8,3.8,8.5,3.1,13,3.1
			c-0.2,0.7-0.3,1.4-0.5,1.9c-2.3,5-5.2,9.2-9.5,12.8c-4.7,3.8-9.7,6.8-15.1,9.2c-4.5,2.1-9.2,2.8-14.1,3.5
			c-4.3,0.7-8.8,1.6-13.2,1.7c-8.3,0.2-16.7-0.2-25-0.3c-8.5-0.2-17-0.9-25.3,0.3c-8.7,1.2-17.5,2.1-26.2,3.5
			c-6.2,1-12.1,2.6-18.4,3.8c-9.4,1.9-18.6,4.2-27.2,8.2c-4.7,2.1-9,4.9-12.7,8.7c-1.7,1.9-3.1,4-4.9,5.9c-2.8,3.1-5.7,6.4-8.5,9.5
			c-0.5,0.5-1,1.6-0.9,1.7c0.5,0.7,1.4,1.7,2.3,1.9c2.3,0.3,4.5,0.3,6.6,0c5.2-0.7,9.4-3.5,13.4-6.9c1.7-1.6,3.3-3.6,5.2-5
			c5.9-4.2,12.5-7.6,19.3-10.2c5.2-1.9,10.4-3.6,15.6-5.4c4.2-1.4,8.5-2.8,12.8-3.3c8.2-1.2,16.3-1.9,24.3-2.9
			c2.1-0.2,4.2-0.3,6.2-0.3c12.7,0.5,25.2,1.2,37.6,1.9c8.3,0.5,16.7,0.2,24.6-2.3c7.3-2.1,14.2-4.9,20.8-8.7
			c5.6-3.1,11.1-6.1,14.7-11.4c2.4-3.5,5-7.1,6.9-10.9C-1721.2,477.7-1720.3,473-1721.2,468.1z M-1797.3,453.6
			c0.7-0.3,1.6,0,2.4-0.2c0,0.7,0.2,1.6-0.2,2.3c-1.7,3.3-4.2,5.6-8.3,5.9C-1802.3,458.1-1800.8,455-1797.3,453.6z M-1959.9,458.4
			c3.3-0.7,6.6-0.9,9.9-0.9c1.2,0,2.9,0.3,2.9,1.9c0,1.2-1,2.3-1.7,3.3c-0.2,0.3-0.7,0.3-1,0.5c-5.7,1.7-11.4,1.7-17.7,0.2
			C-1965.1,461-1962.8,459.1-1959.9,458.4z M-1943.2,532.8c-0.5,1.9-1.2,3.6-2.1,5.4c-0.3,0.7-1.2,1-1.9,1.4
			c-0.2-0.7-0.9-1.4-0.7-2.1c0.9-3.6,2.1-7.3,3.1-10.9c0.2-0.5,0.9-1,1.4-0.9c0.3,0,0.9,0.7,1.2,1
			C-1942.5,528.9-1942.7,530.9-1943.2,532.8z M-1879.5,474.2c-0.3,4.3-0.7,8.7-1.2,13c0,0.7,0,1.6,0,2.3c-0.3,3.3-2.4,5.2-5.9,5.7
			c-2.6,0.3-4.3-0.7-5.2-3.1c-2.6-6.9-0.5-15.1,5.7-18.6c1.6-0.9,3.6-1,5.6-1.2C-1880.4,472.3-1879.5,473.5-1879.5,474.2z"/>
	</g>
	<path class="st3" d="M-1827.5,457.4c0,0-2.1,19.6-2.6,21.9s-2.8-1-2.8-1l1.7-15.3L-1827.5,457.4z"/>
</g>
<rect x="-2679.4" y="314.1" class="st3" width="468.4" height="281"/>
<g>
	<path class="st1" d="M-2319.5,402.6c3.3-0.9,4.9-2.1,5-2.4l0,0c4.2-5.9,0.3-12,0-12.5c-0.7-0.7-1.4-1.4-2.1-2.1l0,0
		c-1.2-0.2-1.9,0.7-1.9,0.7c-1,2.1-2.1,4-3.8,5.4c-1.2,0.7-2.8,0.5-4,0c-1.7-0.7-2.1-2.4-2.1-4c-0.2-3.3-0.2-6.4,1-9.5
		c0.9-2.3,1.7-4.7,2.4-6.9c0.7-2.4,0.9-4.9-1-6.8c-1-1-2.4-1.6-3.5-2.3c-2.3-1.4-4.9-0.9-6.1,1.4c-5.6-1-10.9-0.2-16,2.4
		c-4,2.1-7.3,4.9-9,9.2c-1.9,4.9-1.9,9.7-1,14.7c0.5,2.6-0.5,5.2-2.8,6.1c-1.4,0.5-2.6,0.5-3.5-1.2c-1.2-2.6-0.7-5.2-0.2-7.6
		c1.2-4.5,2.6-8.8,4-13.2c0.9-2.9,0.5-5.7-2.1-7.6c-1.4-1-2.8-1.7-4.2-2.8c-1.4-0.9-1.9-0.2-2.4,1c-1.4,3.5-2.9,6.8-4.3,10.1
		c-2.4,5.6-5.7,10.6-7.3,16.5c-0.7,2.9-2.3,5.6-3.5,8.3c-0.2,0-0.2,0-0.3,0c0-0.3-0.2-0.7,0-1c0.9-4,1.7-8,2.6-12
		c0.5-2.1,1.4-4,1.7-5.9c1-5.2-1.4-9.4-6.4-10.8c-1-0.3-1.7-0.3-2.1,0.9c-2.4,8.8-4.9,17.9-5.2,27.1c-0.2,3.1,0,6.6-2.4,9.2
		c-0.5,0.5-1.6,1.4-1.9,1.2c-0.7-0.3-1.4-1.2-1.7-2.1c-0.3-0.7-0.2-1.6-0.2-2.3c0.2-6.8,2.3-13.2,4-19.8c0.5-2.1,0.9-4.3-0.7-5.9
		c-1.7-1.9-4-3.3-6.2-4.9c-1.6-1-2.4-0.2-3.3,1.2c-0.3,0.5-0.9,1-1.6,1.2c-2.6,0.5-5.4,0.5-8,1c-6.2,1.4-11.1,4.9-14.1,10.8
		c-2.6,5.6-2.6,11.3-2.4,17.2c0.2,3.6-1.7,7.1-5,8.7c-1.7,0.9-2.8,0.5-3.1-1.4c-0.3-1.6-0.5-3.3-0.5-5c0.3-5,1.7-9.7,3.5-14.6
		c0.5-1.7,1.2-3.5,1-5.2c-0.3-4.3-1.6-5.9-7.6-7.5c-1.4-0.3-2.1,0-2.4,1.4c-1,6.1-2.3,12.3-3.3,18.4c-0.5,4-0.7,8.2-1,12.1
		c-0.2,1.6-1.9,3.1-3.3,3.1c-1.4,0-2.8-1.4-2.6-3.1c0-2.3,0-4.7,0.7-6.9c1-3.8,2.8-7.6,4-11.4c0.7-2.1,1-4.3,1.2-6.4
		c0.2-3.5-2.8-6.9-6.1-7.6c-2.1-0.3-2.6,0-2.4,2.1c0.2,3.1-1.2,5.2-4,6.1c-1.7,0.5-3.6,0.5-5.6,0.9c-1.6,0.2-2.3-0.3-1.6-2.1
		c0.7-1.4,0-2.3-1.4-2.1c-2.4,0.2-4.9,0.3-7.3,0.9c-2.3,0.3-3.3,1.9-2.8,4.2c0.3,1.7,1,3.5,1.6,5.2c0.5,1.4,1.4,2.9,1.4,4.3
		c0,3.3-0.3,6.4-0.9,9.7c-0.7,4.2-2.8,7.6-5.6,10.8c-1.4,1.4-2.4,1.2-2.9-0.7c-0.5-1.7-1-3.6-0.9-5.4c0.5-5.9,1.2-11.8,1.9-17.9
		c0.7-5.6,2.6-10.6,5.2-15.3c2.1-3.8,2.8-6.9,0-9.9c-1.2-1.2-2.9-2.1-4.5-2.9c-3.1-1.7-4.5-1-5,2.4c0,0.2,0,0.5-0.2,0.7
		c-1.2,5.9-2.6,11.6-3.8,17.5c-0.3,2.1-1.6,2.9-3.6,2.9c-5.6,0-9.7,2.8-13,6.8c-5.9,7.3-8.3,15.6-5.4,25c0.3,1-0.2,2.6-0.9,3.5
		c-2.3,2.9-7.6,2.8-9.7-0.5c-3.1-4.7-4.2-9.9-4-15.4c0-1.6,0.5-2.4,2.3-2.9c3.8-1.4,7.3-6.8,7.3-10.6c0-1.7-0.7-2.4-2.4-2.1
		c-1,0.2-1.9,0.3-2.9,0.5c-1.4,0.2-1.9-0.5-1.6-1.9c0.3-1.7,0.7-3.6,1.2-5.4c1-4,2.3-8,3.3-12s-1-8-4.5-8.5c-4-0.5-8,0.2-11.3,2.4
		c-6.4,4.5-10.2,10.8-12.5,18c-1.7,5.7-2.8,11.8-4.3,17.5c-1.7,6.2-3.6,12.3-5.9,18.2c-1,2.6-2.8,5.4-5,7.1
		c-4.9,4-10.4,4.9-16.8,3.8c-6.1-1-10.9-3.6-15.6-7.5c-2.3-1.9-4.9-3.6-7.3-5c-2.3-1.4-4.7-0.2-4.7,2.6c0,2.4,0,4.9,0.5,7.1
		c0.7,2.4,1.4,5.4,3.1,7.1c2.3,2.3,5.2,3.8,8,5.4c6.4,3.5,13.4,4.7,20.5,4.5c2.4,0,5,0,7.3-0.9c5.7-2.1,10.6-5.4,14.2-10.8
		c5.2-7.8,9.9-15.8,12.1-25.2c0.9-3.8,1-3.8,5.2-3.6c0.2,0,0.3,0,0.5,0c1.2,0,1.6,0.5,1.6,1.7c0,2.4,0.2,4.9,0.3,7.5
		c0.3,5.9,1.7,11.4,7.3,14.9c4,2.4,8,4.2,12.3,1.6c1.7-0.9,3.3-2.1,4.7-3.5c1-1,1.9-1,3.3-0.7c3.1,0.7,6.2,1.4,9.4,1.6
		c2.1,0,4.5-0.7,5.9-1.9c2.3-1.9,4.3-2.3,7.1-1.9c3.5,0.3,6.6-0.7,8.8-3.8c4.2-5.7,6.2-12.3,7.8-18.9c1.7-7.1,0.7-5.7,7.5-6.4
		c0.2,0,0.2,0,0.5,0.2c0,0.5,0,1.2-0.2,1.7c-1,4.2-0.7,8.5,0.5,12.5c0.9,2.9,1.7,6.1,4.9,7.3c3.6,1.6,7.6,1.7,11.1-0.3
		c1.9-1,3.3-0.9,5,0c3.8,1.9,7.5,1.2,10.8-1.2c1.4-1,2.8-1.9,4-3.1c1-0.9,1.7-1,2.9-0.3c5,2.6,10.2,3.1,15.3,0.2
		c2.3-1.4,4.3-1.4,6.8-0.3c4,1.7,7.6,1.2,10.9-1.7c1.2-1,2.3-1.2,3.8-0.3c2.4,1.4,5,1,6.6-0.5c2.3-2.3,3.5-5,4.3-8.2
		c1-4,2.4-7.8,3.6-11.8c0-0.2,0.3-0.3,0.7-0.7c0.9,2.6,1.4,4.9,2.3,7.1c2.4,5.9,8.3,7.5,13.2,3.6c1.4-1.2,2.8-2.4,4-3.6
		c1.9,1.4,3.5,2.9,5.4,3.6c5.2,1.9,10.2,1.7,15.1-1.2c0.7-0.5,1.9-0.9,2.6-0.5c0.2,0.2,0.3,0.2,0.5,0.3
		C-2334.9,401.2-2326.1,403.8-2319.5,402.6z M-2541.7,392.9c-0.2,0.9-0.3,1.9-0.7,2.8c-0.3,0.7-0.9,1.4-1.6,1.6
		c-3.1,0.7-3.6,0.2-2.6-2.9c0.7-2.3,1.4-4.7,2.3-6.9c0.2-0.7,0.5-1.4,1-1.7c0.5-0.5,1.4-0.9,1.9-0.9c0.3,0,0.7,1,1.2,1.6
		C-2540.6,388.3-2541.2,390.6-2541.7,392.9z M-2502.8,414.7c0,1.9,0,3.8-0.2,5.6c-0.2,2.8-0.3,2.9-3.1,3.6c-3.5,0.9-7.1-0.3-8-3.1
		c-0.9-2.8-0.9-5.6-0.3-8.5c0.9-4.5,4-7.3,7.3-9.9c1.2-0.9,2.8-1,4.5-1.7C-2502.6,405.7-2502.6,410.2-2502.8,414.7z M-2413.5,388.5
		c-0.2,1.9-0.7,4-0.7,5.9c0,3.6,0,7.5,0.2,11.1c0.2,1.7-0.2,3.1-1.7,3.8c-2.4,1-4.9,2.1-7.3,2.3c-2.9,0.2-4.3-1.4-5-4.3
		c-0.2-0.7-0.2-1.2-0.3-1.9c-0.5-6.1,0.5-11.8,4.7-15.8c1-0.9,2.1-1.7,3.5-2.4s3.1-1,4.7-1.2
		C-2413.7,385.9-2413.1,386.4-2413.5,388.5z M-2339.2,376c0,5.6,0.2,10.9,0.3,16.5c0,1.6-0.3,2.6-1.6,3.3c-6.1,4-11.4,0.3-11.6-3.5
		c-0.7-6.8,0.7-11.4,3.8-15.8c1.7-2.3,4.9-3.1,7.5-2.4C-2339.6,374.5-2339.2,374.8-2339.2,376z"/>
	<path class="st1" d="M-2447.8,377.4c5.7,1.6,9.7-2.4,9.9-8c0-1.7-0.9-2.3-2.6-2.1c-2.1,0.5-4.2,1.2-6.1,1.7c-2.6,0.7-4,3.1-3.3,5.6
		C-2449.7,375.7-2448.7,377.1-2447.8,377.4z"/>
</g>
<g>
	<g>
		<path class="st1" d="M-2412.3,447.3c5.7,1.6,9.7-2.4,9.9-8c0-1.7-0.9-2.3-2.6-2.1c-2.1,0.5-4.2,1.2-6.1,1.7
			c-2.6,0.7-4,3.1-3.3,5.6C-2414,445.8-2413.1,447.2-2412.3,447.3z"/>
		<path class="st1" d="M-2333,432.1c5.7,1.6,9.7-2.4,9.9-8c0-1.7-0.9-2.3-2.6-2.1c-2.1,0.5-4.2,1.2-6.1,1.7c-2.6,0.7-4,3.1-3.3,5.6
			C-2334.7,430.5-2333.9,431.9-2333,432.1z"/>
		<path class="st1" d="M-2309.2,468.1c-0.9-4.3-3.6-7.3-6.8-10.2l0,0c-1.2-0.2-1.9,0.7-1.9,0.7c-1.4,2.9-3.1,5.6-6.1,7.1
			c-2.3,1.2-4,0.2-4.2-2.3c-0.2-1.6-0.3-3.3,0-5c0.7-4.2,1.6-8.3,2.4-12.3c1.2-5.6,0.2-6.6-3.6-9.2c-1.2-0.9-2.6-1.2-3.8-1.7
			c-1.7-0.7-2.1-0.5-2.3,1.4c-0.5,2.9-1,5.9-1.4,8.8c-0.5,4.3-1,8.8-1.6,13.2c0,0.5-0.2,1.2,0,1.9c0.9,2.9-0.2,5.4-1.7,7.6
			c-0.9,1.2-2.4,1.2-3.1-0.2c-0.7-1.6-1.4-3.5-1.4-5.2c0-5.2,2.1-10.1,3.6-14.7c1.2-3.5,2.9-6.9,0-10.2c-1.7-2.1-4-3.6-6.1-5.4
			c-0.3-0.3-1.2-0.2-1.6-0.2c-0.7,2.8-1.4,5.2-2.1,7.6c-0.2,0.5-0.9,1.2-1.6,1.4c-2.4,0.7-4.9,1-7.6,1.6c0.3-1.4,0.7-2.3,1-3.5
			c-0.3-0.2-0.9-0.3-1.4-0.5c-3.5-0.3-6.6,0.3-9.7,1.9c-1.9,0.9-2.4,2.1-1.6,3.8c1.2,2.3,2.8,4.5,4.2,6.8c0.3,0.5,0.5,1,0.9,1.6
			c-1.7,13.2-10.2,23.2-10.2,23.2c-5.2,4.2-10.6,0.9-13.5-1.9c-0.3-0.3-1.4-1.7-1.2-5.4l0,0c1.2-0.2,2.3-0.2,3.5-0.2
			c9.5-0.5,14.9-5.4,15.8-14.7c0.7-6.1-4.5-11.3-10.6-10.6c-5,0.5-9.2,2.9-12.1,6.8c-6.1,7.3-8,15.4-4.3,24.5
			c0.2,0.5,0.5,1.2,0.2,1.7c-0.9,2.3-2.3,4-4.3,5.2c-3.5,1.7-5.7,0.3-5.2-3.5c0.7-4.7,1.9-9.5,2.8-14.2c0.3-1.9,1.2-4,1.2-5.9
			c0-3.8-4.2-7.6-8-7.5c-0.5,0-1.4,0.7-1.4,1c-0.5,1.9-0.9,4-1.4,5.9s-1.6,3.6-1.7,5.6c-0.3,4.9-0.3,9.7-0.5,14.6
			c0,1.6-0.5,3.3-1,4.9s-1.7,2.6-3.1,2.3c-1-0.2-2.1-1.4-2.6-2.3c-1.7-3.3-0.7-6.8,0.3-9.9c1-3.6,2.8-7.1,4-10.8
			c2.3-6.6,1.7-9-3.1-12.1c-0.3-0.3-0.9-0.5-1.2-0.7c-1.6-0.9-2.1-0.9-2.8,0.9c-0.5,1-0.7,2.3-1.2,3.3c-1.4,2.4-3.5,4.7-4.5,7.3
			c-2.4,5.9-4.3,12-6.6,17.9c-0.7,1.9-1.6,3.6-2.3,5.6c-0.2,0-0.3-0.2-0.5-0.2c0-0.2,0-0.5,0-0.7c1.4-5,2.6-10.2,4-15.3
			c0.7-2.3,1-4.2,0.2-6.4c-1.4-3.6-4.7-4.7-7.6-6.2c-1-0.5-1.4,0.3-1.4,1c0.2,3.5-1.2,6.8-2.3,10.1c-2.3,6.9-2.8,14.1-2.8,21.2
			c0,2.3-0.9,4.3-1.7,6.4c-0.3,0.7-1.9,1.7-2.4,1.6c-0.9-0.3-1.6-1.6-1.7-2.6c-1-6.2,0.3-12,2.8-17.7c2.9-6.8,0.2-11.8-6.2-14.7
			c-0.7-0.3-1.7-0.7-2.1,0.7c-0.2,0.3-0.9,0.7-1.4,0.7c-2.4,0.2-4.9,0-7.1,0.3c-6.9,1.4-12,5-14.4,12c-0.5,1.2-0.5,2.6-0.9,4
			c-1.4,4-1.2,8-1,12.1c0,1.7-0.3,3.6-0.9,5.4c-0.3,1.2-1.6,2.6-2.9,2.3c-1-0.3-2.1-1.6-2.4-2.8c-0.9-3.5-0.3-6.9,0.7-10.2
			c1.2-4.2,2.6-8.3,3.8-12.7c0.9-3.3,0.2-6.2-2.8-8.2c-1.7-1.2-3.8-1.9-5.9-2.6c-1.7-0.5-2.1-0.2-1.9,1.7c0.2,1.6,0.5,3.3,0,4.7
			c-0.7,2.4-4.2,3.6-7.3,2.6c0.7-1.9,0.5-2.4-1.4-3.1c-0.7-0.2-1.4-0.5-1.9-0.3c-2.9,0.3-5.9,0.9-8.8,1.6c-1.9,2.3,0.2,4.9,0.2,4.9
			c2.8,4.9,2.1,6.6,2.1,6.6c0,2.1-3.3,10.6-3.3,10.6c-0.9,1.9-1,1.7-1,1.7c-1.2,0.2-1.4-1.6-1.4-1.6c-0.3-1.4-0.7-2.8-0.7-4.3
			c0-2.1,0.3-4.2,0.7-6.2c0.2-1.6-0.3-2.1-1.9-1.7c-3.1,0.9-6.2,1.6-9.4,2.6c-2.9,0.9-3.6,1.4-3.3,4.7c0.3,3.6-0.5,6.9-1.6,10.4
			c-2.4,8-7.3,14.1-16,15.4c-6.8,1.2-11.4-0.5-13.7-6.8c-0.9-2.3-1.2-4.7-1-7.1c0.7-7.6,3.8-14.4,7.1-21.2c2.1-4.3,1.2-4.2,6.2-2.9
			c0.5,0.2,1,0.2,1.4,0.3c7.3,1.9,14.2,1.7,21.2-1.4c7.3-3.3,11.4-8.5,11.3-16.8c-0.2-4-2.8-8.8-7.1-10.1
			c-5.9-1.6-11.6-0.7-17.5,0.3c-5.4,0.9-9.9,3.3-13.5,7.3c-2.1,2.3-4,4.9-6.2,7.1c-0.7,0.7-1.7,1.4-2.8,1.4c-4.7,0.7-9.5,1-14.4,1.9
			c-5.6,1-10.8,2.6-15.4,5.9c-1.9,1.4-4.2,2.8-5.4,4.7c-2.8,4.3-2.9,9.4-1.4,14.2c0.2,0.7,0.9,1.6,1.4,1.9c0.3,0.2,1.2-0.5,1.7-1
			c2.3-2.4,4-5.2,6.6-7.1c4.5-3.6,9.2-6.8,14.7-8.3c2.4-0.7,4.9-2.1,7.6-1.4c-0.2,0.7-0.3,1.2-0.5,1.7c-0.9,2.6-1.9,5.2-2.4,7.8
			c-1.7,7.8-3.5,15.4-3.3,23.6c0,6.2,2.1,11.3,7.3,14.9c4.5,2.9,9.7,3.5,14.9,2.9c9-1,16-6.2,21.5-13.2c1.2-1.6,2.4-3.3,3.6-5
			c0.2,0,0.3,0.2,0.7,0.2c-0.2,1.4,0.2,3.1-0.5,4.3c-1.2,2.3-2.6,4.5-4.2,6.6c-4.2,5.7-8.2,11.6-10.6,18.4
			c-1.2,3.1-1.9,6.6-0.9,10.1c0.9,2.8,2.1,5.6,5,6.8c3.6,1.6,7.5,1.2,10.9-0.7c5-2.9,8.3-7.5,11.1-12.3c0.5-1,1-2.1,1.2-3.3
			c1.6-8,1.9-15.8,0.5-23.8c-0.2-1.2,0.2-2.8,0.7-3.8c2.8-6.2,6.2-12,7.6-18.9c0.3-1.7,1-3.5,1.7-5c0.2-0.5,0.7-1,1.2-1.2
			c1.6-0.3,3.1-0.5,4.9-0.7c0,0.3,0,0.7,0,1c-0.2,4-0.5,8-0.5,11.8c0,6.9,6.1,12.3,12.5,10.9c2.1-0.5,4-1.2,5.4-2.9
			c0.9-1,1.7-1.4,3.1-0.3c1.7,1,3.6,1.9,5.6,2.1c4,0.5,7.5-1.2,10.8-2.9c1.4-0.7,2.3-0.7,3.5,0.3c2.1,1.7,4.5,2.4,6.9,1.2
			c2.3-1,4.3-2.6,6.6-3.8c0.5-0.3,1.6-0.5,2.1-0.2c3.1,2.3,6.6,1.6,8.2-2.1c1.6-3.8,2.8-7.8,4.2-11.8c0.9-2.4,1.6-4.9,2.3-7.3
			c0.2,0,0.5,0,0.7,0.2c0.3,2.1,0.2,4.3,0.9,6.2c1.6,4.7,7.3,8.8,12.7,6.4c1.6-0.7,2.9-1.6,4.3-2.4c1.2-0.9,1.9-1,3.3-0.2
			c2.1,1.2,4.3,2.3,7.1,1.7c3.5-0.5,6.2-2.1,8.5-4.7c1.6-1.9,2.9-2.1,5-0.7c0.9,0.7,1.9,1,3.1,1.4l0,0c0,0,10.4,3.8,17.3-3.8
			c4.7-5,8.2-10.8,9.7-17.5c0.7-2.9,1.4-5.9,2.1-8.8c0.5-2.1,2.3-1.7,3.6-1.6c0.7,0,1.6,1.2,1.7,2.1c0.3,1.4,0.2,2.8,0,4.2
			c-0.3,4.7,0,9.2,2.3,13.2c1.2,2.1,2.8,3.8,5.2,4.3c2.8,0.5,5.4-0.2,7.8-1.6c1.7-1,3.1-2.4,4.7-3.6c3.8,3.8,8.5,3.1,13,3.1
			c-0.2,0.7-0.3,1.4-0.5,1.9c-2.3,5-5.2,9.2-9.5,12.8c-4.7,3.8-9.7,6.8-15.1,9.2c-4.5,2.1-9.2,2.8-14.1,3.5
			c-4.3,0.7-8.8,1.6-13.2,1.7c-8.3,0.2-16.7-0.2-25-0.3c-8.5-0.2-17-0.9-25.3,0.3c-8.7,1.2-17.5,2.1-26.2,3.5
			c-6.2,1-12.1,2.6-18.4,3.8c-9.4,1.9-18.6,4.2-27.2,8.2c-4.7,2.1-9,4.9-12.7,8.7c-1.7,1.9-3.1,4-4.9,5.9c-2.8,3.1-5.7,6.4-8.5,9.5
			c-0.5,0.5-1,1.6-0.9,1.7c0.5,0.7,1.4,1.7,2.3,1.9c2.3,0.3,4.5,0.3,6.6,0c5.2-0.7,9.4-3.5,13.4-6.9c1.7-1.6,3.3-3.6,5.2-5
			c5.9-4.2,12.5-7.6,19.3-10.2c5.2-1.9,10.4-3.6,15.6-5.4c4.2-1.4,8.5-2.8,12.8-3.3c8.2-1.2,16.3-1.9,24.3-2.9
			c2.1-0.2,4.2-0.3,6.2-0.3c12.7,0.5,25.2,1.2,37.6,1.9c8.3,0.5,16.7,0.2,24.6-2.3c7.3-2.1,14.2-4.9,20.8-8.7
			c5.6-3.1,11.1-6.1,14.7-11.4c2.4-3.5,5-7.1,6.9-10.9C-2309.2,477.7-2308.4,473-2309.2,468.1z M-2385.2,453.6
			c0.7-0.3,1.6,0,2.4-0.2c0,0.7,0.2,1.6-0.2,2.3c-1.7,3.3-4.2,5.6-8.3,5.9C-2390.4,458.1-2388.8,455-2385.2,453.6z M-2547.9,458.4
			c3.3-0.7,6.6-0.9,9.9-0.9c1.2,0,2.9,0.3,2.9,1.9c0,1.2-1,2.3-1.7,3.3c-0.2,0.3-0.7,0.3-1,0.5c-5.7,1.7-11.4,1.7-17.7,0.2
			C-2553.1,461-2550.9,459.1-2547.9,458.4z M-2531.3,532.8c-0.5,1.9-1.2,3.6-2.1,5.4c-0.3,0.7-1.2,1-1.9,1.4
			c-0.2-0.7-0.9-1.4-0.7-2.1c0.9-3.6,2.1-7.3,3.1-10.9c0.2-0.5,0.9-1,1.4-0.9c0.3,0,0.9,0.7,1.2,1
			C-2530.6,528.9-2530.7,530.9-2531.3,532.8z M-2467.6,474.2c-0.3,4.3-0.7,8.7-1.2,13c0,0.7,0,1.6,0,2.3c-0.3,3.3-2.4,5.2-5.9,5.7
			c-2.6,0.3-4.3-0.7-5.2-3.1c-2.6-6.9-0.5-15.1,5.7-18.6c1.6-0.9,3.6-1,5.6-1.2C-2468.3,472.3-2467.6,473.5-2467.6,474.2z"/>
	</g>
	<path class="st1" d="M-2415.6,457.4c0,0-2.1,19.6-2.6,21.9s-2.8-1-2.8-1l1.7-15.3L-2415.6,457.4z"/>
</g>
<rect x="-1772.3" y="69.7" class="st3" width="133.7" height="128.4"/>
<rect x="-1548.6" y="1037.5" class="st1" width="468.4" height="281"/>
<rect x="-1312.5" y="1113.3" class="st5" width="295.1" height="38.7"/>
<text transform="matrix(1 0 0 1 -1312.4636 1133.8846)" class="st3" style="font-family:'Oswald'; font-size:23.5471px;">ADRIANA GRANIERI    </text>
<circle class="st2" cx="-1427" cy="1176.4" r="63.7"/>
<text transform="matrix(1 0 0 1 -1312.4636 1156.1365)" class="st2" style="font-family:'Oswald-Light'; font-size:14.4904px;">GRAPHIC DESIGNER</text>
<text transform="matrix(1 0 0 1 -1312.4636 1156.1365)" class="st7" style="font-family:'Oswald-Light'; font-size:14.4904px;">GRAPHIC DESIGNER</text>
<g>
	<text transform="matrix(1 0 0 1 -1312.4636 1197.8749)" class="st2" style="font-family:'Oswald-Light'; font-size:14.4904px;">a.granie</text>
	<text transform="matrix(1 0 0 1 -1312.4636 1197.8749)" class="st8" style="font-family:'Oswald-Light'; font-size:14.4904px;">a.granie</text>
	<text transform="matrix(1 0 0 1 -1272.2188 1197.8749)" class="st2" style="font-family:'Oswald-Light'; font-size:14.4904px;">ri@</text>
	<text transform="matrix(1 0 0 1 -1272.2188 1197.8749)" class="st8" style="font-family:'Oswald-Light'; font-size:14.4904px;">ri@</text>
	<text transform="matrix(1 0 0 1 -1254.6982 1197.8749)" class="st2" style="font-family:'Oswald-Light'; font-size:14.4904px;">h</text>
	<text transform="matrix(1 0 0 1 -1254.6982 1197.8749)" class="st8" style="font-family:'Oswald-Light'; font-size:14.4904px;">h</text>
	<text transform="matrix(1 0 0 1 -1248.4537 1197.8749)" class="st2" style="font-family:'Oswald-Light'; font-size:14.4904px;">otmail.com</text>
	<text transform="matrix(1 0 0 1 -1248.4537 1197.8749)" class="st8" style="font-family:'Oswald-Light'; font-size:14.4904px;">otmail.com</text>
</g>
<g>
	<text transform="matrix(1 0 0 1 -1312.4636 1218.7041)" class="st2" style="font-family:'Oswald-Light'; font-size:14.4904px;">cell: 613.513.3722</text>
	<text transform="matrix(1 0 0 1 -1312.4636 1218.7041)" class="st8" style="font-family:'Oswald-Light'; font-size:14.4904px;">cell: 613.513.3722</text>
</g>
<g>
	<text transform="matrix(1 0 0 1 -1312.4636 1238.3262)" class="st2" style="font-family:'Oswald-Light'; font-size:14.4904px;">behance.ne</text>
	<text transform="matrix(1 0 0 1 -1312.4636 1238.3262)" class="st8" style="font-family:'Oswald-Light'; font-size:14.4904px;">behance.ne</text>
	<text transform="matrix(1 0 0 1 -1255.2189 1238.3262)" class="st2" style="font-family:'Oswald-Light'; font-size:14.4904px;">t</text>
	<text transform="matrix(1 0 0 1 -1255.2189 1238.3262)" class="st8" style="font-family:'Oswald-Light'; font-size:14.4904px;">t</text>
	<text transform="matrix(1 0 0 1 -1250.7087 1238.3262)" class="st2" style="font-family:'Oswald-Light'; font-size:14.4904px;">/</text>
	<text transform="matrix(1 0 0 1 -1250.7087 1238.3262)" class="st8" style="font-family:'Oswald-Light'; font-size:14.4904px;">/</text>
	<text transform="matrix(1 0 0 1 -1246.1981 1238.3262)" class="st2" style="font-family:'Oswald-Light'; font-size:14.4904px;">agranieri</text>
	<text transform="matrix(1 0 0 1 -1246.1981 1238.3262)" class="st8" style="font-family:'Oswald-Light'; font-size:14.4904px;">agranieri</text>
</g>
<g>
	<path class="st5" d="M-1394.2,1149.5c-0.9-0.2-2.1,0.3-2.9,0.9c-0.9,0.5-1.4,1.4-1.9,2.4c-1.6,3.1-2.9,6.4-4.5,9.5
		c-1.9,4.2-1.6,4.9,3.1,4.7c0.9,0,1.9-1,2.4-1.9c0.7-1.2,1-2.6,1.4-4c1.2-2.9,2.3-6.1,3.6-9.4
		C-1393.3,1151.1-1393.5,1149.7-1394.2,1149.5z"/>
	<path class="st1" d="M-1371.4,1216.1l-3.1-3.8c0,0-5.9,6.1-13-0.7c-0.3-0.5-0.7-1-1-1.6c-3.5-7.3-4.2-14.9-2.9-22.7
		c0.3-2.1,1.2-3.3,3.6-3.8c5.6-1.2,11.8-8.3,12.3-13.7c0.2-2.4-0.7-3.5-3.1-3.5c-1.4,0-2.8,0.2-4.2,0.2c-2.1,0-2.6-1-1.9-2.9
		c0.9-2.4,1.7-4.9,2.8-7.3c2.3-5.6,4.7-10.9,6.9-16.5c2.3-5.4,0-11.6-4.7-12.8c-5.7-1.6-11.4-1.4-16.7,1.4
		c-9.9,5.2-16.7,13.5-21.2,23.4c-3.6,7.8-6.1,16.3-9.5,24.3c-3.6,8.5-7.5,16.8-12,25c-1.9,3.6-5,7.1-8.5,9.2c-7.6,4.9-16,5-24.6,2.4
		c-8.5-2.6-14.9-7.3-20.8-13.5c-2.9-3.1-6.1-5.9-9.5-8.7c-3.1-2.4-6.8-1-7.3,2.9c-0.5,3.5-0.9,6.9-0.5,10.2c0.5,3.6,1,7.8,3.1,10.8
		c2.6,3.6,6.8,6.4,10.4,9c8.5,6.1,18,9,28.3,10.1c3.5,0.3,7.3,0.9,10.6,0.2c2.9-0.7,5.7-1.6,8.5-2.8l0,0c0,0,16.8-4,33.1-37.6l0,0
		c0.9-1.9,1.7-3.8,2.6-5.7c2.1-5.4,2.3-5.4,8.2-4.2c0.3,0,0.5,0.2,0.9,0.2c1.7,0.2,2.1,1,1.9,2.6c-0.3,3.5-0.7,7.1-0.9,10.6
		c-0.7,8.7,0.3,16.5,7.6,22.6c5.2,4.2,10.6,7.3,17.3,4.5c2.1-0.9,4-1.9,5.9-3.1l-1-3.1L-1371.4,1216.1z M-1396.4,1161.3
		c-0.5,1.4-0.7,2.8-1.4,4c-0.5,0.9-1.6,1.9-2.4,1.9c-4.7,0.3-5-0.5-3.1-4.7c1.6-3.1,2.9-6.4,4.5-9.5c0.3-0.9,1-1.7,1.9-2.4
		c0.9-0.5,2.1-1,2.9-0.9c0.5,0.2,0.9,1.6,1.4,2.4C-1394,1155.3-1395.2,1158.2-1396.4,1161.3z"/>
</g>
<path class="st1" d="M-1386.5,1212.5c0,0-2.3-2.1-4-7.5l-1.9-0.3c0,0,0.2,5.4,0.3,5.6c0,0.2,2.1,4.7,2.4,5c0.3,0.2,2.9-0.3,2.9-0.3
	L-1386.5,1212.5z"/>
<g>
	<path class="st5" d="M-1284.7,396.5c-1.6,0-3.3,0.3-4.7,1.2c-1.4,0.7-2.4,1.6-3.5,2.4c-4.2,4-5.2,9.7-4.7,15.8
		c0.2,0.7,0.2,1.2,0.3,1.9c0.7,2.9,2.1,4.5,5,4.3c2.4-0.2,4.9-1.4,7.3-2.3c1.6-0.7,1.7-2.1,1.7-3.8c-0.2-3.6-0.3-7.3-0.2-11.1
		c0-1.9,0.5-4,0.7-5.9C-1282.3,397-1282.6,396.3-1284.7,396.5z"/>
	<path class="st5" d="M-1383.4,422.9c-0.5,2.9-0.5,5.7,0.3,8.5s4.5,4,8,3.1c2.6-0.7,2.9-0.9,3.1-3.6c0.2-1.9,0.2-3.8,0.2-5.6
		c0.2-4.5,0.3-8.8,0.3-13.9c-1.7,0.7-3.5,0.9-4.5,1.7C-1379.4,415.6-1382.4,418.4-1383.4,422.9z"/>
	<path class="st5" d="M-1410.1,394.9c-0.7,0-1.4,0.3-1.9,0.9c-0.5,0.5-0.9,1.2-1,1.7c-0.7,2.3-1.4,4.7-2.3,6.9
		c-1,2.9-0.7,3.5,2.6,2.9c0.5-0.2,1.2-0.9,1.6-1.6c0.3-0.9,0.5-1.9,0.7-2.8c0.5-2.3,1-4.3,1.6-6.8
		C-1409.4,396-1409.8,394.9-1410.1,394.9z"/>
	<path class="st5" d="M-1209.6,384.5c-2.6-0.7-5.9,0.2-7.5,2.4c-3.1,4.2-4.5,9-3.8,15.8c0.2,3.8,5.6,7.5,11.6,3.5
		c1.2-0.7,1.6-1.7,1.6-3.3c-0.2-5.6-0.3-10.9-0.3-16.5C-1208.2,385.2-1208.6,384.9-1209.6,384.5z"/>
	<path class="st1" d="M-1183.4,398.2c-0.7-0.7-1.4-1.4-2.1-2.1c-1.2-0.2-1.9,0.7-1.9,0.7c-1,2.1-2.1,4-3.8,5.4c-1.2,0.7-2.8,0.5-4,0
		c-1.7-0.7-2.1-2.4-2.1-4c-0.2-3.3-0.2-6.4,1-9.5c0.9-2.3,1.7-4.7,2.4-6.9c0.7-2.4,0.9-4.9-1-6.8c-1-1-2.4-1.6-3.5-2.3
		c-2.3-1.4-4.9-0.9-6.1,1.4c-5.6-1-10.9-0.2-16,2.4c-4,2.1-7.3,4.9-9,9.2c-1.9,4.9-1.9,9.7-1,14.7c0.5,2.6-0.5,5.2-2.8,6.1
		c-1.4,0.5-2.6,0.5-3.5-1.2c-1.2-2.6-0.7-5.2-0.2-7.6c1.2-4.5,2.6-8.8,4-13.2c0.9-2.9,0.5-5.7-2.1-7.6c-1.4-1-2.8-1.7-4.2-2.8
		c-1.4-0.9-1.9-0.2-2.4,1c-1.4,3.5-2.9,6.8-4.3,10.1c-2.4,5.6-5.7,10.6-7.3,16.5c-0.7,2.9-2.3,5.6-3.5,8.3c-0.2,0-0.2,0-0.3,0
		c0-0.3-0.2-0.7,0-1c0.9-4,1.7-8,2.6-12c0.5-2.1,1.4-4,1.7-5.9c1-5.2-1.4-9.4-6.4-10.8c-1-0.3-1.7-0.3-2.1,0.9
		c-2.4,8.8-4.9,17.9-5.2,27.1c-0.2,3.1,0,6.6-2.4,9.2c-0.5,0.5-1.6,1.4-1.9,1.2c-0.7-0.3-1.4-1.2-1.7-2.1c-0.3-0.7-0.2-1.6-0.2-2.3
		c0.2-6.8,2.3-13.2,4-19.8c0.5-2.1,0.9-4.3-0.7-5.9c-1.7-1.9-4-3.3-6.2-4.9c-1.6-1-2.4-0.2-3.3,1.2c-0.3,0.5-0.9,1-1.6,1.2
		c-2.6,0.5-5.4,0.5-8,1c-6.2,1.4-11.1,4.9-14.1,10.8c-2.6,5.6-2.6,11.3-2.4,17.2c0.2,3.6-1.7,7.1-5,8.7c-1.7,0.9-2.8,0.5-3.1-1.4
		c-0.3-1.6-0.5-3.3-0.5-5c0.3-5,1.7-9.7,3.5-14.6c0.5-1.7,1.2-3.5,1-5.2c-0.3-4.3-1.6-5.9-7.6-7.5c-1.4-0.3-2.1,0-2.4,1.4
		c-1,6.1-2.3,12.3-3.3,18.4c-0.5,4-0.7,8.2-1,12.1c-0.2,1.6-1.9,3.1-3.3,3.1s-2.8-1.4-2.6-3.1c0-2.3,0-4.7,0.7-6.9
		c1-3.8,2.8-7.6,4-11.4c0.7-2.1,1-4.3,1.2-6.4c0.2-3.5-2.8-6.9-6.1-7.6c-2.1-0.3-2.6,0-2.4,2.1c0.2,3.1-1.2,5.2-4,6.1
		c-1.7,0.5-3.6,0.5-5.6,0.9c-1.6,0.2-2.3-0.3-1.6-2.1c0.7-1.4,0-2.3-1.4-2.1c-2.4,0.2-4.9,0.3-7.3,0.9c-2.3,0.3-3.3,1.9-2.8,4.2
		c0.3,1.7,1,3.5,1.6,5.2c0.5,1.4,1.4,2.9,1.4,4.3c0,3.3-0.3,6.4-0.9,9.7c-0.7,4.2-2.8,7.6-5.6,10.8c-1.4,1.4-2.4,1.2-2.9-0.7
		c-0.5-1.7-1-3.6-0.9-5.4c0.5-5.9,1.2-11.8,1.9-17.9c0.7-5.6,2.6-10.6,5.2-15.3c2.1-3.8,2.8-6.9,0-9.9c-1.2-1.2-2.9-2.1-4.5-2.9
		c-3.1-1.7-4.5-1-5,2.4c0,0.2,0,0.5-0.2,0.7c-1.2,5.9-2.6,11.6-3.8,17.5c-0.3,2.1-1.6,2.9-3.6,2.9c-5.6,0-9.7,2.8-13,6.8
		c-5.9,7.3-8.3,15.6-5.4,25c0.3,1-0.2,2.6-0.9,3.5c-2.3,2.9-7.6,2.8-9.7-0.5c-3.1-4.7-4.2-9.9-4-15.4c0-1.6,0.5-2.4,2.3-2.9
		c3.8-1.4,7.3-6.8,7.3-10.6c0-1.7-0.7-2.4-2.4-2.1c-1,0.2-1.9,0.3-2.9,0.5c-1.4,0.2-1.9-0.5-1.6-1.9c0.3-1.7,0.7-3.6,1.2-5.4
		c1-4,2.3-8,3.3-12s-1-8-4.5-8.5c-4-0.5-8,0.2-11.3,2.4c-6.4,4.5-10.2,10.8-12.5,18c-1.7,5.7-2.8,11.8-4.3,17.5
		c-1.6,5.2-3.1,10.4-5,15.6c-1,2.8-3.3,7.5-6.6,10.2c-4.7,3.6-10.2,4.5-16.3,3.5c-6.1-1-10.9-3.6-15.6-7.5c-2.3-1.9-4.9-3.6-7.3-5
		c-2.3-1.4-4.7-0.2-4.7,2.6c0,2.4,0,4.9,0.5,7.1c0.7,2.4,1.4,5.4,3.1,7.1c2.3,2.3,5.2,3.8,8,5.4c4.3,2.4,9,3.6,13.9,4.2l0,0l2.8,0.3
		c3.3,0.3,6.2,0.2,8.8-0.3c0.3,0,0.9-0.2,1.2-0.2c0.2,0,0.5-0.2,0.7-0.2s0.2,0,0.3-0.2l0,0c3.3-1,5.6-2.4,6.9-3.3l0,0
		c0,0,4.7-3.1,7.3-7.3l0,0c5.6-7.5,9.2-16.7,9.2-16.7l0,0c1.2-2.8,2.1-5.6,2.9-8.5c0.9-3.8,1-3.8,5.2-3.6c0.2,0,0.3,0,0.5,0
		c1.2,0,1.6,0.5,1.6,1.7c0,2.4,0.2,4.9,0.3,7.5c0.3,5.9,1.7,11.4,7.3,14.9c4,2.4,8,4.2,12.3,1.6c1.7-0.9,3.3-2.1,4.7-3.5
		c1-1,1.9-1,3.3-0.7c3.1,0.7,6.2,1.4,9.4,1.6c2.1,0,4.5-0.7,5.9-1.9c2.3-1.9,4.3-2.3,7.1-1.9c3.5,0.3,6.6-0.7,8.8-3.8
		c4.2-5.7,6.2-12.3,7.8-18.9c1.7-7.1,0.7-5.7,7.5-6.4c0.2,0,0.2,0,0.5,0.2c0,0.5,0,1.2-0.2,1.7c-1,4.2-0.7,8.5,0.5,12.5
		c0.9,2.9,1.7,6.1,4.9,7.3c3.6,1.6,7.6,1.7,11.1-0.3c1.9-1,3.3-0.9,5,0c3.8,1.9,7.5,1.2,10.8-1.2c1.4-1,2.8-1.9,4-3.1
		c1-0.9,1.7-1,2.9-0.3c5,2.6,10.2,3.1,15.3,0.2c2.3-1.4,4.3-1.4,6.8-0.3c4,1.7,7.6,1.2,10.9-1.7c1.2-1,2.3-1.2,3.8-0.3
		c2.4,1.4,5,1,6.6-0.5c2.3-2.3,3.5-5,4.3-8.2c1-4,2.4-7.8,3.6-11.8c0-0.2,0.3-0.3,0.7-0.7c0.9,2.6,1.4,4.9,2.3,7.1
		c2.4,5.9,8.3,7.5,13.2,3.6c1.4-1.2,2.8-2.4,4-3.6c1.9,1.4,3.5,2.9,5.4,3.6c5.2,1.9,10.2,1.7,15.1-1.2c0.7-0.5,1.9-0.9,2.6-0.5
		c0.2,0.2,0.3,0.2,0.5,0.3c0,0,8.7,2.8,15.3,1.6c3.3-0.9,4.9-2.1,5-2.4l0,0C-1179.1,404.7-1183.1,398.6-1183.4,398.2z
		 M-1410.7,403.3c-0.2,0.9-0.3,1.9-0.7,2.8c-0.3,0.7-0.9,1.4-1.6,1.6c-3.1,0.7-3.6,0.2-2.6-2.9c0.7-2.3,1.4-4.7,2.3-6.9
		c0.2-0.7,0.5-1.4,1-1.7c0.5-0.5,1.4-0.9,1.9-0.9c0.3,0,0.7,1,1.2,1.6C-1409.6,398.9-1410.1,401-1410.7,403.3z M-1371.8,425.1
		c0,1.9,0,3.8-0.2,5.6c-0.2,2.8-0.3,2.9-3.1,3.6c-3.5,0.9-7.1-0.3-8-3.1s-0.9-5.6-0.3-8.5c0.9-4.5,4-7.3,7.3-9.9
		c1.2-0.9,2.8-1,4.5-1.7C-1371.6,416.3-1371.8,420.6-1371.8,425.1z M-1282.5,399.1c-0.2,1.9-0.7,4-0.7,5.9c0,3.6,0,7.5,0.2,11.1
		c0.2,1.7-0.2,3.1-1.7,3.8c-2.4,1-4.9,2.1-7.3,2.3c-2.9,0.2-4.3-1.4-5-4.3c-0.2-0.7-0.2-1.2-0.3-1.9c-0.5-6.1,0.5-11.8,4.7-15.8
		c1-0.9,2.1-1.7,3.5-2.4s3.1-1,4.7-1.2C-1282.6,396.3-1282.3,397-1282.5,399.1z M-1209.4,406.2c-6.1,4-11.4,0.3-11.6-3.5
		c-0.7-6.8,0.7-11.4,3.8-15.8c1.7-2.3,4.9-3.1,7.5-2.4c1,0.3,1.4,0.5,1.4,1.9c0,5.6,0.2,10.9,0.3,16.5
		C-1207.7,404.5-1208.2,405.5-1209.4,406.2z"/>
	<path class="st1" d="M-1316.8,387.8c5.7,1.6,9.7-2.4,9.9-8c0-1.7-0.9-2.3-2.6-2.1c-2.1,0.5-4.2,1.2-6.1,1.7c-2.6,0.7-4,3.1-3.3,5.6
		C-1318.7,386.3-1317.8,387.5-1316.8,387.8z"/>
</g>
<rect x="-1017.4" y="1059" class="st2" width="468.4" height="42.8"/>
<rect x="-1548.6" y="699.9" class="st1" width="468.4" height="281"/>
<rect x="-1312.5" y="775.5" class="st5" width="295.1" height="38.7"/>
<text transform="matrix(1 0 0 1 -1312.4636 796.1984)" class="st3" style="font-family:'Oswald'; font-size:23.5471px;">ADRIANA GRANIERI    </text>
<circle class="st3" cx="-1427" cy="838.7" r="63.7"/>
<text transform="matrix(1 0 0 1 -1312.4636 818.4492)" class="st2" style="font-family:'Oswald-Light'; font-size:14.4904px;">GRAPHIC DESIGNER</text>
<text transform="matrix(1 0 0 1 -1312.4636 818.4492)" class="st7" style="font-family:'Oswald-Light'; font-size:14.4904px;">GRAPHIC DESIGNER</text>
<g>
	<text transform="matrix(1 0 0 1 -1312.4636 860.1875)" class="st2" style="font-family:'Oswald-Light'; font-size:14.4904px;">a.granie</text>
	<text transform="matrix(1 0 0 1 -1312.4636 860.1875)" class="st8" style="font-family:'Oswald-Light'; font-size:14.4904px;">a.granie</text>
	<text transform="matrix(1 0 0 1 -1272.2181 860.1875)" class="st2" style="font-family:'Oswald-Light'; font-size:14.4904px;">ri@</text>
	<text transform="matrix(1 0 0 1 -1272.2181 860.1875)" class="st8" style="font-family:'Oswald-Light'; font-size:14.4904px;">ri@</text>
	<text transform="matrix(1 0 0 1 -1254.6982 860.1875)" class="st2" style="font-family:'Oswald-Light'; font-size:14.4904px;">h</text>
	<text transform="matrix(1 0 0 1 -1254.6982 860.1875)" class="st8" style="font-family:'Oswald-Light'; font-size:14.4904px;">h</text>
	<text transform="matrix(1 0 0 1 -1248.4531 860.1875)" class="st2" style="font-family:'Oswald-Light'; font-size:14.4904px;">otmail.com</text>
	<text transform="matrix(1 0 0 1 -1248.4531 860.1875)" class="st8" style="font-family:'Oswald-Light'; font-size:14.4904px;">otmail.com</text>
</g>
<g>
	<text transform="matrix(1 0 0 1 -1312.4636 881.0173)" class="st2" style="font-family:'Oswald-Light'; font-size:14.4904px;">cell: 613.513.3722</text>
	<text transform="matrix(1 0 0 1 -1312.4636 881.0173)" class="st8" style="font-family:'Oswald-Light'; font-size:14.4904px;">cell: 613.513.3722</text>
</g>
<g>
	<text transform="matrix(1 0 0 1 -1312.4636 900.6384)" class="st2" style="font-family:'Oswald-Light'; font-size:14.4904px;">behance.ne</text>
	<text transform="matrix(1 0 0 1 -1312.4636 900.6384)" class="st8" style="font-family:'Oswald-Light'; font-size:14.4904px;">behance.ne</text>
	<text transform="matrix(1 0 0 1 -1255.2183 900.6384)" class="st2" style="font-family:'Oswald-Light'; font-size:14.4904px;">t</text>
	<text transform="matrix(1 0 0 1 -1255.2183 900.6384)" class="st8" style="font-family:'Oswald-Light'; font-size:14.4904px;">t</text>
	<text transform="matrix(1 0 0 1 -1250.7087 900.6384)" class="st2" style="font-family:'Oswald-Light'; font-size:14.4904px;">/</text>
	<text transform="matrix(1 0 0 1 -1250.7087 900.6384)" class="st8" style="font-family:'Oswald-Light'; font-size:14.4904px;">/</text>
	<text transform="matrix(1 0 0 1 -1246.1981 900.6384)" class="st2" style="font-family:'Oswald-Light'; font-size:14.4904px;">agranieri</text>
	<text transform="matrix(1 0 0 1 -1246.1981 900.6384)" class="st8" style="font-family:'Oswald-Light'; font-size:14.4904px;">agranieri</text>
</g>
<g>
	<path class="st5" d="M-1394.2,811.8c-0.9-0.2-2.1,0.3-2.9,0.9c-0.9,0.5-1.4,1.4-1.9,2.4c-1.6,3.1-2.9,6.4-4.5,9.5
		c-1.9,4.2-1.6,4.9,3.1,4.7c0.9,0,1.9-1,2.4-1.9c0.7-1.2,1-2.6,1.4-4c1.2-2.9,2.3-6.1,3.6-9.4
		C-1393.3,813.3-1393.5,812-1394.2,811.8z"/>
	<path class="st1" d="M-1371.4,878.4l-3.1-3.8c0,0-5.9,6.1-13-0.7c-0.3-0.5-0.7-1-1-1.6c-3.5-7.3-4.2-14.9-2.9-22.7
		c0.3-2.1,1.2-3.3,3.6-3.8c5.6-1.2,11.8-8.3,12.3-13.7c0.2-2.4-0.7-3.5-3.1-3.5c-1.4,0-2.8,0.2-4.2,0.2c-2.1,0-2.6-1-1.9-2.9
		c0.9-2.4,1.7-4.9,2.8-7.3c2.3-5.6,4.7-10.9,6.9-16.5c2.3-5.4,0-11.6-4.7-12.8c-5.7-1.6-11.4-1.4-16.7,1.4
		c-9.9,5.2-16.7,13.5-21.2,23.4c-3.6,7.8-6.1,16.3-9.5,24.3c-3.6,8.5-7.5,16.8-12,25c-1.9,3.6-5,7.1-8.5,9.2c-7.6,4.9-16,5-24.6,2.4
		c-8.5-2.6-14.9-7.3-20.8-13.5c-2.9-3.1-6.1-5.9-9.5-8.7c-3.1-2.4-6.8-1-7.3,2.9c-0.5,3.5-0.9,6.9-0.5,10.2c0.5,3.6,1,7.8,3.1,10.8
		c2.6,3.6,6.8,6.4,10.4,9c8.5,6.1,18,9,28.3,10.1c3.5,0.3,7.3,0.9,10.6,0.2c2.9-0.7,5.7-1.6,8.5-2.8l0,0c0,0,16.8-4,33.1-37.6l0,0
		c0.9-1.9,1.7-3.8,2.6-5.7c2.1-5.4,2.3-5.4,8.2-4.2c0.3,0,0.5,0.2,0.9,0.2c1.7,0.2,2.1,1,1.9,2.6c-0.3,3.5-0.7,7.1-0.9,10.6
		c-0.7,8.7,0.3,16.5,7.6,22.6c5.2,4.2,10.6,7.3,17.3,4.5c2.1-0.9,4-1.9,5.9-3.1l-1-3.1L-1371.4,878.4z M-1396.4,823.6
		c-0.5,1.4-0.7,2.8-1.4,4c-0.5,0.9-1.6,1.9-2.4,1.9c-4.7,0.3-5-0.5-3.1-4.7c1.6-3.1,2.9-6.4,4.5-9.5c0.3-0.9,1-1.7,1.9-2.4
		c0.9-0.5,2.1-1,2.9-0.9c0.5,0.2,0.9,1.6,1.4,2.4C-1394,817.5-1395.2,820.5-1396.4,823.6z"/>
</g>
<path class="st1" d="M-1386.5,874.9c0,0-2.3-2.1-4-7.5l-1.9-0.3c0,0,0.2,5.4,0.3,5.6c0,0.2,2.1,4.7,2.4,5c0.3,0.2,2.9-0.3,2.9-0.3
	L-1386.5,874.9z"/>
<path class="st1" d="M737.1,421.6c10.9,3.1,18.6-4.7,18.7-15.1c0-3.1-1.7-4.3-5-4c-3.8,1.2-7.8,2.3-11.6,3.5
	c-4.9,1.6-7.6,5.9-6.2,10.6C733.5,418.5,735.4,421.1,737.1,421.6z"/>
<path class="st1" d="M776.1,402.7c10.9,3.1,18.6-4.7,18.7-15.1c0-3.1-1.7-4.3-5-4c-3.8,1.2-7.8,2.3-11.6,3.5
	c-4.9,1.6-7.6,5.9-6.2,10.6C772.6,399.6,774.3,402.2,776.1,402.7z"/>
<path class="st1" d="M1250.2,486.2c-1.6-8.3-6.9-13.9-12.8-19.3l0,0c-2.3-0.3-3.6,1.4-3.6,1.4c-2.6,5.6-5.9,10.4-11.4,13.4
	c-4.2,2.3-7.5,0.5-8-4.3c-0.3-3.1-0.5-6.4,0-9.4c1.2-7.8,2.8-15.6,4.5-23.4c2.3-10.6,0.3-12.5-6.9-17.5c-2.3-1.6-4.9-2.4-7.3-3.5
	c-3.3-1.4-3.8-0.9-4.5,2.8c-0.9,5.6-2.1,11.1-2.8,16.7c-1.2,8.3-2.1,16.7-2.9,25.2c-0.2,1.2-0.2,2.4,0.2,3.5
	c1.7,5.6-0.2,10.2-3.1,14.6c-1.6,2.3-4.7,2.3-5.9-0.2c-1.4-3.1-2.6-6.6-2.6-10.1c0-9.9,4-18.9,7.1-28.1c2.3-6.6,5.6-13.4,0-19.6
	c-3.3-3.8-7.6-6.9-11.4-10.1c-0.9-0.7-2.3-0.3-2.9-0.5c-1.4,5.2-2.4,9.9-4,14.6c-0.3,1.2-1.7,2.4-2.8,2.8c-4.5,1.2-9,1.9-14.6,3.1
	c0.9-2.6,1.4-4.3,1.9-6.4c-0.9-0.3-1.7-0.7-2.6-0.9c-6.4-0.7-12.7,0.7-18.4,3.5c-3.5,1.7-4.7,4.2-2.9,7.3c2.4,4.3,5.4,8.5,8,12.8
	c0.5,0.9,1,1.9,1.6,2.9c-3.5,25.2-19.6,44.2-19.6,44.2c-9.7,8-19.9,1.6-25.8-3.6c-0.7-0.7-2.6-3.3-2.3-10.2l0,0
	c2.3-0.2,4.3-0.3,6.6-0.5c18.2-0.9,28.3-10.2,30.2-28.1c1.2-11.4-8.7-21.3-20.1-20.1c-9.5,1-17.3,5.6-23.2,12.7
	c-11.4,13.9-15.3,29.3-8.2,46.7c0.3,1,0.9,2.4,0.5,3.3c-1.6,4.2-4.2,7.8-8.3,9.7c-6.6,3.3-10.8,0.7-9.7-6.6c1.2-9,3.5-18,5.4-26.9
	c0.7-3.8,2.3-7.5,2.3-11.3c0.2-7.3-8-14.4-15.3-14.1c-1,0-2.4,1.2-2.8,2.1c-1,3.6-1.6,7.5-2.6,11.1c0,0-3.8,37.5-4.9,41.6
	c0,0,0,0,0,0.2c-0.3,1.9-0.9,3.6-1.4,5.6c-0.9,2.9-3.1,4.9-6.1,4.3c-1.9-0.5-4-2.4-4.9-4.3c-3.3-6.2-1.2-12.8,0.5-18.9
	c1.9-6.9,5.2-13.5,7.6-20.5c4.2-12.5,3.3-17-5.9-23.2c-0.7-0.5-1.6-0.9-2.4-1.4c-2.8-1.7-4-1.6-5.4,1.7c-0.9,2.1-1.2,4.3-2.4,6.1
	c-2.8,4.7-6.4,8.8-8.5,13.7c-4.5,11.1-8.3,22.7-12.5,34c-1.4,3.6-2.8,7.1-4.3,10.6c-0.3-0.2-0.5-0.2-0.9-0.3c0-0.5,0-0.9,0-1.4
	c2.4-9.7,4.9-19.3,7.6-29c1.2-4.2,1.9-8,0.2-12.3c-2.6-6.9-8.8-8.8-14.4-11.8c-1.9-1-2.6,0.7-2.6,2.1c0.2,6.8-2.3,12.8-4.3,19.1
	c-4.3,13.2-5.4,26.5-5.2,40.4c0,4.2-1.6,8.3-3.1,12.3c-0.5,1.4-3.5,3.3-4.5,2.9c-1.6-0.7-3.1-2.9-3.5-4.9
	c-2.1-11.8,0.5-22.9,5.2-33.5c5.7-12.7,0.3-22.6-11.8-27.9c-1.4-0.7-3.1-1.4-4,1.2c-0.2,0.7-1.7,1.2-2.8,1.4
	c-4.5,0.3-9.2-0.2-13.7,0.7c-13,2.6-22.7,9.7-27.2,22.7c-0.9,2.4-1,5-1.7,7.5c-2.6,7.5-2.4,15.3-2.1,22.9c0.2,3.3-0.5,6.9-1.6,10.1
	c-0.7,2.4-2.9,5-5.7,4.2c-1.9-0.7-4-3.1-4.5-5.2c-1.7-6.6-0.5-13,1.2-19.4c2.4-8,5-16,7.3-23.9c1.7-6.2,0.3-12-5.2-15.6
	c-3.3-2.3-7.3-3.6-11.3-5c-3.3-1.2-3.8-0.3-3.6,3.1c0.2,2.9,0.9,6.2,0,9c-1.4,4.7-7.8,6.8-13.7,5c1.4-3.6,1-4.5-2.6-5.9
	c-1.2-0.5-2.6-0.9-3.8-0.7c-5.6,0.9-11.1,1.7-16.7,2.9c-3.5,4.2,0.3,9.2,0.3,9.2c5.2,9.4,4,12.5,4,12.5c0,4-6.2,20.3-6.2,20.3
	c-1.6,3.8-2.1,3.3-2.1,3.3c-2.1,0.3-2.6-2.9-2.6-3.1c-0.7-2.6-1.4-5.4-1.4-8.2c0-4,0.7-8,1.2-12c0.3-2.8-0.7-4-3.6-3.3
	c-5.9,1.6-11.8,3.1-17.7,4.9c-5.7,1.7-6.8,2.8-6.2,8.8c0.5,6.9-0.9,13.4-2.9,19.8c-4.7,15.3-13.7,26.5-30.4,29.3
	c-12.8,2.3-21.9-1-26-12.8c-1.6-4.2-2.4-9-1.9-13.4c1.4-14.4,7.1-27.4,13.5-40.2c4-8.2,2.4-8,12-5.7c0.9,0.2,1.9,0.3,2.8,0.5
	c13.7,3.6,27.1,3.3,40.2-2.8c13.7-6.2,21.9-16.3,21.3-32.1c-0.2-7.6-5.4-16.8-13.5-19.1c-11.1-2.9-22.2-1.2-33.1,0.7
	c-10.1,1.7-18.6,6.4-25.5,13.9c-4,4.3-7.6,9.2-11.8,13.5c-1.2,1.4-3.3,2.4-5.2,2.8c-9,1.4-18.2,1.9-27.2,3.5
	c-10.4,1.9-20.6,4.9-29.3,11.1c-3.6,2.6-7.8,5.2-10.1,8.8c-5.2,8.3-5.6,17.7-2.8,27.1c0.5,1.4,1.6,2.9,2.8,3.6
	c0.5,0.3,2.4-1.2,3.3-2.1c4.2-4.5,7.6-9.9,12.5-13.7c8.5-6.8,17.5-12.8,28.1-16c4.7-1.4,9.2-3.8,14.6-2.6c-0.3,1.2-0.7,2.3-0.9,3.1
	c-1.6,4.9-3.5,9.7-4.7,14.7c-3.1,14.7-6.4,29.3-6.2,44.8c0.2,12,4,21.5,13.9,28.3c8.7,5.7,18.6,6.8,28.4,5.4
	c17.3-2.1,30.4-11.6,40.9-25c2.4-3.1,4.7-6.2,6.9-9.5c0.3,0.2,0.9,0.2,1.2,0.3c-0.3,2.8,0.2,5.9-0.9,8.2c-2.1,4.3-5,8.5-8,12.5
	c-8,10.9-15.4,22.2-20.1,35c-2.3,6.1-3.8,12.5-1.6,19.1c1.7,5.4,4,10.6,9.5,12.8c6.9,2.9,14.2,2.3,20.8-1.4
	c9.5-5.4,15.8-14.2,21.2-23.6c1-1.9,1.9-4.2,2.3-6.2c3.1-15.1,3.5-30.2,0.9-45.3c-0.3-2.3,0.3-5.2,1.4-7.3
	c5.2-11.8,12-22.9,14.4-35.9c0.7-3.3,1.9-6.6,3.3-9.7c0.3-0.9,1.4-2.1,2.3-2.3c2.9-0.7,6.1-0.9,9-1.2c0,0.9,0.2,1.4,0,1.9
	c-0.3,7.5-1,15.1-1,22.6c-0.2,13,11.6,23.6,23.9,20.6c4-1,7.6-2.3,10.2-5.6c1.7-2.1,3.3-2.4,5.9-0.7c3.1,2.1,6.9,3.5,10.8,4
	c7.5,1,14.1-2.3,20.5-5.4c2.8-1.4,4.3-1.2,6.4,0.7c3.8,3.3,8.5,4.5,13.2,2.3c4.3-2.1,8.2-4.9,12.3-7.1c1-0.5,2.9-1,3.8-0.3
	c6.1,4.2,12.7,2.9,15.4-3.8c2.9-7.3,5.2-14.9,7.8-22.4c1.6-4.5,2.8-9.2,4.2-13.7c0.5,0,0.9,0.2,1.4,0.2c0.5,4,0.5,8.2,1.7,12
	c2.8,9,13.9,16.7,24.1,12.3c2.9-1.2,5.7-2.8,8.2-4.7c2.3-1.7,3.8-1.9,6.2-0.5c4,2.4,8.3,4.2,13.4,3.5c6.8-0.9,12-4,16.3-9
	c3.1-3.5,5.7-4.2,9.5-1.2c1.7,1.2,3.8,2.1,5.9,2.6c0,0,19.8,7.3,32.8-7.3c9-9.4,15.3-20.3,18.4-33.1c1.4-5.6,2.6-11.3,4-16.8
	c0.9-3.8,4.3-3.3,6.9-3.1c1.2,0,2.9,2.4,3.3,4c0.5,2.6,0.3,5.4,0,8c-0.9,8.8,0.2,17.3,4.5,25.2c2.3,4,5.2,7.3,10.1,8.2
	c5.4,0.9,10.4-0.3,14.7-3.1c3.1-2.1,5.9-4.5,9-6.9c7.1,7.3,16,5.9,24.8,6.1c-0.3,1.4-0.5,2.6-1,3.6c-4.3,9.4-9.9,17.5-18.2,24.3
	c-8.8,7.1-18.4,12.8-28.6,17.5c-8.5,4-17.5,5.2-26.5,6.8c-8.3,1.4-16.8,3.1-25.2,3.3c-15.8,0.3-31.7-0.3-47.5-0.7
	c-16.1-0.3-32.1-1.6-48.2,0.7c-16.5,2.3-33.1,4-49.6,6.6c-11.6,1.9-23.2,5-34.9,7.3c-17.7,3.5-35.4,7.8-51.9,15.4
	c-8.8,4.2-17.2,9.2-23.9,16.5c-3.3,3.5-6.1,7.5-9.2,11.1c-5.4,6.1-10.8,12-16.1,18.2c-0.9,0.9-2.1,2.8-1.7,3.3
	c1.2,1.6,2.8,3.3,4.3,3.5c4.2,0.5,8.5,0.7,12.7,0.2c9.9-1.2,18-6.6,25.3-13c3.5-2.9,6.1-6.9,9.7-9.7c11.3-8,23.6-14.4,36.6-19.4
	c9.7-3.8,19.8-6.9,29.7-10.1c8.2-2.4,16.1-5.2,24.5-6.4c15.4-2.3,30.9-3.8,46.3-5.4c4-0.5,8-0.9,12-0.7c23.9,1.2,47.9,2.4,71.6,3.6
	c15.8,0.9,31.6,0.2,46.8-4.3c13.7-4.2,27.1-9.4,39.6-16.3c10.4-5.9,21-11.6,28.1-21.7c4.7-6.8,9.5-13.5,13-20.8
	C1250.4,504.3,1252.2,495.4,1250.2,486.2z M1105.9,458.7c1.4-0.5,3.1-0.2,4.5-0.2c-0.2,1.4,0.2,3.1-0.5,4.3
	c-3.3,6.1-7.8,10.8-15.8,11.3C1096.2,466.8,1099.2,461.3,1105.9,458.7z M796.8,467.7c6.1-1.4,12.5-1.6,18.9-1.7
	c2.4-0.2,5.7,0.5,5.7,3.5c0,2.1-2.1,4.3-3.3,6.4c-0.3,0.5-1.2,0.9-1.9,1c-10.9,3.1-21.9,3.1-33.7,0.3
	C786.9,472.7,791.2,468.9,796.8,467.7z M828.4,609.1c-0.9,3.5-2.4,6.9-4,10.2c-0.5,1.2-2.3,1.9-3.5,2.8c-0.5-1.2-1.6-2.8-1.2-3.8
	c1.7-6.9,3.8-14.1,5.9-21c0.2-0.9,1.7-1.9,2.6-1.7c0.9,0,1.6,1.4,2.1,2.1C829.8,601.6,829.4,605.4,828.4,609.1z M947.2,522.5
	c-0.2,1.4,0.2,2.9,0,4.5c-0.7,6.2-4.7,10.1-11.1,10.8c-4.9,0.5-8.2-1.4-9.9-5.9c-5-13-0.9-28.6,10.8-35.2c2.9-1.7,6.9-1.9,10.4-2.3
	c0.5,0,2.3,2.3,2.1,3.3C948.9,505.8,948.1,514.2,947.2,522.5z"/>
<g>
	<path class="st5" d="M1059.7,217.2c-2.9,0.2-6.2,0.7-8.8,2.3c-2.4,1.4-4.7,2.9-6.4,4.7c-8,7.6-10.1,18.4-9,30.2
		c0.2,1.2,0.3,2.4,0.7,3.6c1.4,5.6,4,8.7,9.7,8.2c4.7-0.3,9.4-2.4,13.7-4.3c2.9-1.2,3.5-4,3.3-7.1c-0.3-6.9-0.5-14.1-0.3-21
		c0-3.8,1-7.6,1.4-11.3C1064.6,218.2,1063.7,217,1059.7,217.2z"/>
	<path class="st5" d="M872.4,267.5c-1,5.6-1,10.9,0.5,16c1.6,5.2,8.5,7.5,15.1,5.9c5-1.2,5.6-1.7,5.9-6.9c0.2-3.6,0.2-7.1,0.3-10.8
		c0.2-8.5,0.5-16.8,0.9-26.2c-3.3,1.2-6.4,1.6-8.7,3.3C879.9,253.6,874.1,259,872.4,267.5z"/>
	<path class="st5" d="M821.4,214.4c-1.2-0.2-2.6,0.9-3.6,1.7c-0.9,0.9-1.7,2.1-2.1,3.5c-1.4,4.3-2.8,8.8-4.2,13.4
		c-1.9,5.7-1.2,6.8,4.9,5.6c1.2-0.2,2.4-1.7,2.9-2.9c0.7-1.6,0.9-3.6,1.2-5.4c1-4.2,1.9-8.3,3.1-12.8
		C822.8,216.3,822.1,214.6,821.4,214.4z"/>
	<path class="st5" d="M1202.7,194.8c-5-1.4-11.1,0.3-14.4,4.5c-6.1,8-8.5,17-7.3,29.8c0.2,7.3,10.4,14.1,22,6.6
		c2.3-1.4,3.1-3.5,2.9-6.2c-0.5-10.4-0.9-20.8-0.7-31.2C1205.3,196,1204.4,195.3,1202.7,194.8z"/>
	<path class="st1" d="M1252.5,220.7c-1.2-1.4-2.6-2.6-4-4c-2.3-0.3-3.6,1.4-3.6,1.4c-1.9,3.8-4,7.5-7.1,10.2c-2.4,1.4-5.2,0.9-7.6,0
		c-3.3-1.2-4-4.7-4.2-7.8c-0.3-6.2-0.3-12.3,2.1-18.2c1.7-4.3,3.1-8.8,4.5-13.2c1.4-4.5,1.6-9.2-2.1-12.8c-1.9-1.9-4.5-2.9-6.8-4.3
		c-4.3-2.8-9.4-1.6-11.6,2.8c-10.6-1.9-20.6-0.2-30.2,4.7c-7.6,3.8-13.9,9.2-17.2,17.5c-3.6,9.2-3.6,18.6-1.9,28.1
		c0.9,4.9-1,9.9-5.2,11.4c-2.6,1-5,0.9-6.4-2.3c-2.3-4.9-1.6-9.7-0.2-14.4c2.3-8.5,5-16.7,7.6-25.2c1.7-5.7,1-10.8-4.2-14.6
		c-2.6-1.9-5.4-3.5-8-5.2c-2.6-1.7-3.6-0.3-4.7,1.9c-2.8,6.4-5.6,12.8-8.3,19.3c-4.7,10.4-10.9,20.1-13.7,31.4
		c-1.4,5.6-4.3,10.6-6.8,15.8c-0.2,0-0.5-0.2-0.7-0.2c0-0.7-0.2-1.2,0-1.7c1.6-7.6,3.1-15.1,5-22.7c0.9-3.8,2.6-7.5,3.3-11.3
		c2.1-10.1-2.8-17.9-12.1-20.6c-1.9-0.5-3.5-0.5-4,1.7c-4.7,17-9.2,33.8-10.1,51.5c-0.3,6.1,0,12.5-4.7,17.5c-1,1-2.9,2.6-3.6,2.3
		c-1.4-0.7-2.6-2.3-3.3-3.8c-0.5-1.2-0.3-2.9-0.3-4.3c0.2-13,4.3-25.2,7.6-37.5c1-4,1.7-8.2-1.2-11.3c-3.5-3.6-7.6-6.2-11.8-9.2
		c-2.9-1.9-4.7-0.2-6.2,2.4c-0.5,1-1.7,2.1-2.8,2.3c-5,0.9-10.2,1-15.3,2.1c-12,2.6-21.2,9.2-26.5,20.5c-5,10.4-5,21.5-4.5,32.6
		c0.3,6.9-3.1,13.5-9.5,16.5c-3.3,1.6-5.2,0.9-5.9-2.8c-0.7-3.1-1.2-6.4-1-9.5c0.5-9.5,3.3-18.6,6.6-27.6c1.2-3.1,2.1-6.8,1.9-10.1
		c-0.9-8.2-3.1-11.3-14.4-14.1c-2.8-0.7-4,0.2-4.5,2.6c-2.1,11.6-4.3,23.2-6.1,35c-1.2,7.6-1.4,15.4-2.1,23.2
		c-0.3,2.9-3.5,5.9-6.2,5.9c-2.6-0.2-5.2-2.6-5-6.1c0-4.3,0-9,1.2-13.2c2.1-7.3,5.2-14.4,7.5-21.7c1.2-4,2.1-8.2,2.4-12.3
		c0.3-6.4-5.4-13.2-11.4-14.6c-4-0.9-4.9,0-4.7,4c0.3,5.7-2.3,9.9-7.6,11.6c-3.3,1-6.9,1.2-10.6,1.6c-2.8,0.3-4.3-0.5-2.9-3.8
		c1.2-2.6,0.2-4.2-2.8-4c-4.7,0.3-9.4,0.7-13.9,1.6c-4.2,0.7-6.1,3.6-5.4,7.8c0.5,3.3,1.9,6.6,2.9,9.9c0.9,2.8,2.6,5.6,2.6,8.3
		c0,6.1-0.7,12.3-1.7,18.4c-1.4,7.8-5.4,14.6-10.6,20.5c-2.4,2.8-4.5,2.4-5.4-1.2c-0.9-3.3-1.9-6.9-1.6-10.4
		c0.9-11.3,2.3-22.6,3.6-33.8c1.2-10.4,4.9-19.9,9.9-29.1c4-7.1,5.4-13.2,0.2-18.9c-2.3-2.4-5.6-4.2-8.5-5.7
		c-5.9-3.3-8.5-1.9-9.7,4.9c-0.2,0.5-0.2,1-0.2,1.4c-2.4,11.1-4.9,22.2-7.1,33.3c-0.9,3.8-2.9,5.6-6.9,5.6c-10.4,0-18.6,5.4-24.6,13
		c-11.3,13.9-15.8,29.7-10.2,47.5c0.5,1.9-0.2,5-1.6,6.8c-4.5,5.7-14.6,5.2-18.6-1c-5.7-8.8-8-18.7-7.6-29.3c0-2.8,1-4.7,4.2-5.7
		c7.1-2.6,13.9-13,13.7-19.9c0-3.3-1.6-4.5-4.7-4c-1.9,0.3-3.6,0.7-5.4,1c-2.8,0.3-3.6-0.9-3.1-3.5c0.7-3.3,1.4-6.8,2.4-10.1
		c2.1-7.6,4.3-15.3,6.2-22.9c1.9-7.5-2.1-15.1-8.5-16.1c-7.8-1.2-15.1,0.2-21.5,4.7c-12.1,8.5-19.6,20.5-23.8,34.3
		c-3.3,10.9-5.2,22.4-8.3,33.3c-2.8,9.9-5.9,19.8-9.5,29.5c-2.1,5.2-6.2,14.1-12.5,19.4c-8.8,6.9-19.4,8.5-30.9,6.6
		c-11.4-1.9-20.8-7.1-29.7-14.2c-4.3-3.5-9-6.8-13.9-9.7c-4.5-2.8-9-0.2-9,5c0,4.5,0,9.2,1,13.5c1.2,4.7,2.8,10.1,5.9,13.5
		c4.2,4.3,9.9,7.3,15.3,10.1c8.3,4.5,17.3,6.9,26.5,8l0,0l5.4,0.5c6.4,0.7,12,0.3,16.7-0.5c0.7-0.2,1.6-0.3,2.3-0.5
		c0.5-0.2,0.9-0.2,1.4-0.3c0.2,0,0.3-0.2,0.7-0.2c0,0,0,0,0.2,0c6.2-1.9,10.8-4.5,13.2-6.4l0,0c0,0,9-5.9,13.9-13.7l0,0
		c10.8-14.1,17.3-31.7,17.3-31.7l0,0c2.3-5.2,4.2-10.6,5.6-16.1c1.7-7.3,2.1-7.5,9.9-6.8c0.3,0,0.7,0,1,0c2.3,0,2.9,1,2.9,3.1
		c0.2,4.7,0.3,9.4,0.7,14.1c0.7,11.3,3.3,21.7,13.9,28.3c7.5,4.7,15.1,7.8,23.6,3.1c3.1-1.7,6.2-4,8.8-6.6c2.1-2.1,3.6-1.9,6.1-1.4
		c5.9,1.4,11.8,2.8,17.7,2.8c3.8,0,8.5-1.2,11.3-3.6c4.3-3.6,8.3-4.3,13.5-3.8c6.6,0.5,12.5-1.4,16.8-7.3
		c8-10.8,11.8-23.2,14.9-35.9c3.3-13.4,1.4-10.8,14.2-12.3c0.2,0,0.5,0.2,0.9,0.2c0,1,0,2.3-0.2,3.3c-1.9,8-1.2,16,0.9,23.8
		c1.6,5.7,3.5,11.6,9.4,14.1c6.9,2.8,14.4,3.5,21.2-0.5c3.6-2.1,6.2-1.7,9.5-0.2c7.3,3.6,14.2,2.3,20.5-2.4c2.6-1.9,5.2-3.8,7.6-5.9
		c1.9-1.7,3.3-1.7,5.6-0.7c9.5,5,19.4,5.7,29,0.3c4.5-2.6,8.3-2.6,12.8-0.7c7.5,3.3,14.6,2.4,20.6-3.3c2.3-2.1,4.3-2.4,7.3-0.7
		c4.5,2.6,9.4,2.1,12.3-0.9c4.3-4.3,6.6-9.5,8.2-15.4c2.1-7.6,4.7-14.9,6.9-22.6c0.2-0.5,0.7-0.9,1.4-1.4c1.6,4.9,2.8,9.4,4.5,13.7
		c4.5,11.1,15.6,14.1,25.2,6.8c2.8-2.1,5.2-4.7,7.5-6.9c3.6,2.6,6.6,5.7,10.2,7.1c9.7,3.8,19.6,3.5,28.8-2.3
		c1.4-0.9,3.6-1.7,4.9-1.2c0.3,0.2,0.7,0.3,1,0.5c0,0,16.7,5.2,29.1,2.8c6.1-1.6,9.2-4,9.7-4.5l0.2-0.2
		C1260.4,233,1253,221.3,1252.5,220.7z M820.4,230.2c-0.3,1.7-0.5,3.6-1.2,5.4c-0.5,1.2-1.7,2.6-2.9,2.9c-6.1,1.2-6.8,0.2-4.9-5.6
		c1.4-4.5,2.6-8.8,4.2-13.4c0.3-1.2,1-2.6,2.1-3.5c1.1-0.9,2.4-1.7,3.6-1.7c0.9,0,1.4,1.9,2.3,2.9
		C822.4,221.9,821.4,226,820.4,230.2z M894.3,271.8c-0.2,3.6-0.2,7.1-0.3,10.8c-0.2,5.2-0.9,5.7-5.9,6.9c-6.8,1.6-13.5-0.7-15.1-5.9
		s-1.6-10.6-0.5-16c1.7-8.5,7.6-13.9,14.1-18.7c2.3-1.7,5.4-2.1,8.7-3.3C894.8,254.8,894.4,263.3,894.3,271.8z M1064.1,222.2
		c-0.3,3.8-1.4,7.6-1.4,11.3c-0.2,6.9,0,14.1,0.3,21c0.2,3.1-0.3,5.9-3.3,7.1c-4.5,1.9-9,4-13.7,4.3c-5.6,0.3-8.3-2.6-9.7-8.2
		c-0.3-1.2-0.5-2.4-0.7-3.6c-1-11.6,1-22.6,9-30.2c1.9-1.7,4-3.3,6.4-4.7c2.6-1.4,5.7-2.1,8.8-2.3
		C1063.7,217,1064.6,218.2,1064.1,222.2z M1203,235.9c-11.6,7.5-21.7,0.7-22-6.6c-1.2-12.8,1.2-21.9,7.3-29.8
		c3.1-4.2,9.4-5.9,14.4-4.5c1.9,0.5,2.6,1.2,2.6,3.5c0,10.4,0.3,20.8,0.7,31.2C1206.2,232.4,1205.3,234.4,1203,235.9z"/>
	<path class="st1" d="M998.7,200.9c10.9,3.1,18.6-4.7,18.7-15.1c0-3.1-1.7-4.3-5-4c-3.8,1.2-7.8,2.3-11.6,3.5
		c-4.9,1.6-7.6,5.9-6.2,10.6C995.2,197.8,996.9,200.4,998.7,200.9z"/>
</g>
</svg>
