<?xml version="1.0" encoding="utf-8"?>
<!-- Generator: Adobe Illustrator 18.0.0, SVG Export Plug-In . SVG Version: 6.00 Build 0)  -->
<!DOCTYPE svg PUBLIC "-//W3C//DTD SVG 1.1//EN" "http://www.w3.org/Graphics/SVG/1.1/DTD/svg11.dtd">
<svg version="1.1" id="Layer_1" xmlns="http://www.w3.org/2000/svg" xmlns:xlink="http://www.w3.org/1999/xlink" x="0px" y="0px"
	 viewBox="137.1 57.6 814.5 823.5" enable-background="new 137.1 57.6 814.5 823.5" xml:space="preserve">
<path fill="#EBE8DC" d="M290.2,522.2h-13.7c-5,0-9.1-4.1-9.1-9.1v-95.3c0-5,4.1-9.1,9.1-9.1h13.7c5,0,9.1,4.1,9.1,9.1v95.3
	C299.3,518.1,295.2,522.2,290.2,522.2z"/>
<path fill="#EBE8DC" d="M675.3,651.4h-13.7c-5,0-9.1-4.1-9.1-9.1v-331c0-5,4.1-9.1,9.1-9.1h13.7c5,0,9.1,4.1,9.1,9.1v331
	C684.4,647.3,680.3,651.4,675.3,651.4z"/>
<g>
	<polygon fill="#EBE8DC" points="322.2,506.7 630.9,617.5 630.9,430 322.2,465.5 	"/>
	<polygon fill="#EBE8DC" points="322.2,432.8 322.2,454.4 630.9,375.9 630.9,330.9 	"/>
</g>
<path fill="#EBE8DC" d="M778,357.8L688.3,393c-4.6,1.8-10-0.5-11.9-5.2l0,0c-1.8-4.6,0.5-10,5.2-11.9l89.7-35.2
	c4.6-1.8,10,0.5,11.9,5.2l0,0C785,350.6,782.7,356,778,357.8z"/>
<path fill="#EBE8DC" d="M682,553.2l84.2,43.1c4.5,2.3,10,0.5,12.3-4l0,0c2.3-4.5,0.5-10-4-12.3l-84.3-43.1c-4.5-2.3-10-0.5-12.3,4
	l0,0C675.7,545.3,677.5,550.9,682,553.2z"/>
<path fill="#EBE8DC" d="M784,480.3l-95.4-0.3c-5,0-9.1-4.1-9.1-9.1l0,0c0-5,4.1-9.1,9.1-9.1l95.5,0.3c5,0,9.1,4.1,9.1,9.1l0,0
	C793.3,476.3,789.1,480.3,784,480.3z"/>
<path fill="#EBE8DC" d="M447.7,569.3c0,0-3.9-2.6-10.1,3.5l-6.2,10.7c0,0-5.5,7.5-16.5,5.6l-18.1-7.9l0,0l-0.9-0.3l-1.3-0.5v0.1
	l-18.4-7.2c-9.1-6.3-7.8-15.6-7.8-15.6l3.1-12c-0.1-8.8-4.7-9.7-4.7-9.7c-8.2-2.6-10.4,4-10.4,4c-2.4,5.3-3.6,13-3.7,14.3
	c0-0.3,0.1-0.8,0.2-1.4l-0.1,0.4c-0.1,0.7-0.2,1.4-0.3,2.3c-3.2,24.8,13.7,30.6,13.7,30.6l24.1,9.7l22.9,9.6c0,0,16,7.8,31.2-12
	l2.1-2.9c0.1-0.1,0.1-0.2,0.2-0.2c0.1-0.2,0.2-0.4,0.5-0.7c1.8-2.6,4.2-6.5,5.5-10.1C452.3,579.5,455.3,573.2,447.7,569.3z"/>
<circle fill="none" stroke="#EBE8DC" stroke-width="21" stroke-miterlimit="10" cx="544.2" cy="471.5" r="363"/>
</svg>
