<?xml version="1.0" encoding="utf-8"?>
<!-- Generator: Adobe Illustrator 18.0.0, SVG Export Plug-In . SVG Version: 6.00 Build 0)  -->
<!DOCTYPE svg PUBLIC "-//W3C//DTD SVG 1.1//EN" "http://www.w3.org/Graphics/SVG/1.1/DTD/svg11.dtd">
<svg version="1.1" id="Layer_1" xmlns="http://www.w3.org/2000/svg" xmlns:xlink="http://www.w3.org/1999/xlink" x="0px" y="0px"
	 viewBox="72 280 830 822" enable-background="new 72 280 830 822" xml:space="preserve">
<path fill="none" stroke="#EBE8DC" stroke-width="27" stroke-miterlimit="10" d="M694.3,801H273.7c-5.4,0-10-4.5-10-10V551
	c0-5.4,4.5-10,10-10h420.6c5.4,0,10,4.5,10,10v240.1C704.3,796.5,699.8,801,694.3,801z"/>
<rect x="452.6" y="801" fill="#EBE8DC" width="66.2" height="50.5"/>
<path fill="#EBE8DC" d="M584.5,886.5h-201c-5.4,0-10-4.5-10-10v-23.8c0-5.4,4.5-10,10-10h201.1c5.4,0,10,4.5,10,10v23.8
	C594.4,882,590.1,886.5,584.5,886.5z"/>
<circle fill="none" stroke="#EBE8DC" stroke-width="21" stroke-miterlimit="10" cx="486.6" cy="689" r="363"/>
</svg>
