<?xml version="1.0" encoding="utf-8"?>
<!-- Generator: Adobe Illustrator 18.1.1, SVG Export Plug-In . SVG Version: 6.00 Build 0)  -->
<!DOCTYPE svg PUBLIC "-//W3C//DTD SVG 1.1//EN" "http://www.w3.org/Graphics/SVG/1.1/DTD/svg11.dtd">
<svg version="1.1" id="Layer_1" xmlns="http://www.w3.org/2000/svg" xmlns:xlink="http://www.w3.org/1999/xlink" x="0px" y="0px"
	 viewBox="204 172 568 540" enable-background="new 204 172 568 540" xml:space="preserve">
<rect x="260.1" y="285.2" fill="none" stroke="#404143" stroke-width="15" stroke-miterlimit="10" width="310.5" height="310.5"/>
<path fill="none" stroke="#404143" stroke-width="15" stroke-miterlimit="10" d="M597.6,302.5c-9.3,0-18.3,0.9-27.1,2.6v272.7
	c8.8,1.7,17.8,2.6,27.1,2.6c76.8,0,139-62.2,139-139S674.4,302.5,597.6,302.5z"/>
<path fill="none" stroke="#404143" stroke-width="15" stroke-miterlimit="10" d="M592,403.7c-7.9,0-15.3,2.3-21.4,6.4v66
	c6.2,4,13.5,6.4,21.4,6.4c21.7,0,39.3-17.6,39.3-39.3S613.7,403.7,592,403.7z"/>
<path fill="none" stroke="#404143" stroke-width="6" stroke-miterlimit="10" d="M593.1,388.7c-8.4,0-16.4,1.9-23.6,5.3v99
	c7.1,3.4,15.1,5.3,23.6,5.3c30.3,0,54.8-24.5,54.8-54.8S623.4,388.7,593.1,388.7z"/>
</svg>
