<?xml version="1.0" encoding="utf-8"?>
<!-- Generator: Adobe Illustrator 19.0.0, SVG Export Plug-In . SVG Version: 6.00 Build 0)  -->
<!DOCTYPE svg PUBLIC "-//W3C//DTD SVG 1.1//EN" "http://www.w3.org/Graphics/SVG/1.1/DTD/svg11.dtd">
<svg version="1.1" id="Layer_1" xmlns="http://www.w3.org/2000/svg" xmlns:xlink="http://www.w3.org/1999/xlink" x="0px" y="0px"
	 viewBox="56 179 442 288" style="enable-background:new 56 179 442 288;" xml:space="preserve">
<style type="text/css">
	.st0{fill:#E75525;}
	.st1{fill:#4F4F4F;}
</style>
<g>
	<path class="st0" d="M973.9,751.6"/>
	<g>
		<path class="st1" d="M304.3,222.3c7.5,2.1,12.7-3.2,12.8-10.3c0-2.2-1.2-3-3.4-2.8c-2.6,0.8-5.3,1.5-7.9,2.4c-3.3,1-5.3,4-4.3,7.2
			C301.9,220.2,303.1,222,304.3,222.3z"/>
		<path class="st1" d="M477.1,233.5c-0.4-0.8-1-1.6-1.5-2.2c-0.3-0.4-1.4-1.6-2.8-1.7c-0.2,0-0.4,0-0.6,0c-1,0.2-1.7,1.1-1.7,1.2
			c-0.2,0.3-0.5,0.9-0.7,1.5l0,0c0,0,0,0.1-0.1,0.1l0,0c-1.6,4.2-4.6,7.2-4.6,7.2c-3.2,2.6-5.2,2-6.2,1v0.1
			c-0.1-0.1-0.1-0.1-0.1-0.2c-0.6-0.7-0.9-1.5-0.9-1.5c-0.4-0.8-0.3-2-0.2-3c0.1-8.9,3-17.3,5.3-25.7c0.8-2.7,1.2-5.6-0.8-7.7
			c-2.3-2.4-5.3-4.3-8.1-6.3c-2-1.3-3.2-0.1-4.2,1.7c-0.3,0.7-1.2,1.4-2,1.5c-3.5,0.6-7,0.7-10.4,1.5c-8.2,1.8-14.4,6.3-18.2,13.9
			c-3.5,7.1-3.5,14.8-3.1,22.4c0.2,3.9-1.4,7.5-4.2,9.9c-0.1,0.1-0.3,0.2-0.5,0.3c-1.8,0.7-3.4,0.6-4.5-1.5c-1.5-3.3-1-6.7-0.1-9.9
			c1.5-5.8,3.5-11.4,5.3-17.1c1.2-3.9,0.7-7.4-2.8-10c-1.7-1.3-3.7-2.3-5.5-3.5c-1.7-1.2-2.5-0.3-3.2,1.3c-1.9,4.4-3.8,8.8-5.8,13.2
			c-2.4,5.4-5.4,10.4-7.6,15.9c-0.1,0.3-0.3,0.8-0.4,1.2l0,0l-5.8,14.7c0,0-0.6,0.3-0.8-0.5c0-0.1,0-0.2,0-0.3
			c1.1-5.2,2.2-10.4,3.4-15.5c0.6-2.6,1.7-5.2,2.3-7.7c1.5-6.9-1.8-12.3-8.3-14.1c-1.3-0.3-2.4-0.4-2.8,1.2
			c-3.1,11.6-6.3,23.1-6.9,35.2c-0.2,4.2-0.1,8.6-3.2,11.9c-0.1,0.1-0.3,0.3-0.6,0.6c-1.5,1.1-2.6,0.6-2.9,0.3c-0.6-0.6-1-1.3-1.4-2
			c-0.4-0.8-0.3-2-0.2-3c0.1-8.9,3-17.3,5.3-25.7c0.8-2.7,1.2-5.6-0.8-7.7c-2.3-2.4-5.3-4.3-8.1-6.3c-2-1.3-3.2-0.1-4.2,1.7
			c-0.3,0.7-1.2,1.4-2,1.5c-3.5,0.6-7,0.7-10.4,1.5c-8.2,1.8-14.4,6.3-18.2,13.9c-3.5,7.1-3.5,14.8-3.1,22.4
			c0.2,4.8-2.2,9.3-6.5,11.4c-2.2,1-3.6,0.6-4.1-1.9c-0.5-2.1-0.8-4.3-0.7-6.5c0.3-6.5,2.3-12.7,4.5-18.9c0.8-2.2,1.5-4.6,1.3-6.8
			c-0.6-5.6-2.1-7.7-9.9-9.7c-1.9-0.5-2.8,0.1-3.1,1.8c-1.5,8-3,15.9-4.2,24c-0.8,5.2-0.9,10.6-1.5,15.9c0,0.1-0.1,0.3-0.1,0.5l0,0
			v0.1c0,0.1-0.1,0.2-0.1,0.3c-0.9,2.6-3.1,3.4-4.1,3.6c-0.1,0-0.1,0-0.1,0c-0.2,0.1-0.3,0.1-0.3,0.1l0,0c-0.3,0-0.6,0-0.8-0.1
			c-1.3-0.4-2.7-2.1-3.1-3.5c-1.2-4.5-0.4-8.9,0.9-13.3c1.6-5.5,3.5-10.9,5-16.4c1.2-4.2,0.3-8.1-3.6-10.7c-2.3-1.5-5-2.5-7.7-3.4
			c-2.2-0.8-2.6-0.3-2.4,2.2c0.1,2.1,0.6,4.2,0.1,6.2c-0.9,3.2-5.4,4.7-9.4,3.4c0.2-0.6,0.3-1,0.4-1.4c0.1-0.7-0.1-1.2-0.3-1.5
			c-1.7-1.7-5-1.6-6.3-1.5c-2.7,0.4-5.4,0.8-8.1,1.4c-2.4,0.6-2.5,2.8-2.4,3.4c0,0,0,0,0,0.1c0,0.1,0,0.1,0,0.1c0.2,1.7,1.2,3,1.2,3
			c3.6,6.4,2.7,8.6,2.7,8.6c0,1.4-1.1,5-2.2,8.2l0,0v0.1c-0.8,2.2-1.5,4-1.8,4.9c-0.6,1.6-1.2,3.1-1.5,4c0,0-4.7,10.7-10,7.5l0,0
			v-0.1c-1.6-1.6-1-5.5-1-5.5c0-0.3,0-0.6,0-0.8c0.6-7.7,1.6-15.5,2.5-23.1c0.8-7.1,3.3-13.7,6.8-19.9c2.7-4.9,3.7-9,0.1-12.9
			c-1.5-1.7-3.8-2.8-5.9-3.9c-4-2.2-5.8-1.3-6.6,3.3c-0.1,0.3-0.1,0.7-0.1,1c-1.6,7.6-3.3,15.2-4.9,22.8c-0.6,2.6-2,3.8-4.7,3.8
			c-7.2-0.1-12.7,3.6-16.9,8.8c-6.6,8.3-9.8,17.5-8.1,27.7v0.1c0,0,0.1,2.9-0.4,4.7c-1,2.4-3.1,5.6-6.9,5.9c0,0-1.1,0.1-2.6-0.6
			c-0.6-0.3-1-0.7-1.5-1c-0.2-0.2-0.5-0.4-0.7-0.6c-1.7-1.7-2.9-4.3-3.4-5.4c-1.7-4.5-2.4-9.3-2.3-14.3c0.1-2,0.8-3.1,2.9-3.9
			c4.9-1.8,9.5-8.8,9.4-13.7c-0.1-2.2-1-3.1-3.2-2.7c-1.3,0.2-2.5,0.5-3.8,0.7c-1.9,0.3-2.5-0.6-2.1-2.4c0.6-2.3,1-4.7,1.6-6.9
			c1.4-5.2,2.9-10.4,4.3-15.6c1.3-5.2-1.4-10.4-5.8-11c-5.3-0.8-10.4,0.1-14.8,3.2c-1.9,1.3-3.6,2.7-5.2,4.2
			c-1.5,1.5-9.2,10.9-15.4,39.1c0,0-2.2,8.8-5.3,17.7l0,0c-5,15.9-12.6,20.6-12.6,20.6s-0.4,0.1-0.5-0.3c0,0,2.1-8-4.7-17.8
			c-0.1-0.1-0.2-0.3-0.2-0.3c-5.9-5.3-12.1-5-16.6-3.6c-1.3,0.4-10.5,3.8-12.7,15.9c0,0-1.6,13.2,7.7,19.5l0.6,0.4
			c0,0,0.3,0.5,0,0.8c0,0-1.1,0.3-2.6,0.8c-1.4,0.5-2.7,0.8-4.1,1.1c-0.3,0.1-0.5,0.1-0.6,0.1l0,0c-2.7,0.5-5.5,0.6-8.4,0.3
			c-2.9-0.2-5.7-0.1-8.5,0.1c-2.6,0.2-3.7,2.5-2.2,4.7c1.3,1.9,2.6,3.8,4.4,5.2c1.9,1.6,4,3.3,6.3,3.8c2.9,0.6,6.1,0.1,9.2-0.3
			c6.8-0.8,12.9-3.8,18.3-7.8c0.8-0.6,1.7-1.3,2.6-2v0.1c12.8-1.5,22.4-10.4,24.6-12.5c5.1-5.5,8.5-11.5,10.7-16.2l0,0
			c2.7-5.3,5.5-15.3,5.5-15.3l0,0c0.3-1.1,0.6-2.2,0.9-3.3c1.3-5,1.5-5,6.8-4.7c0.1,0,0.3,0,0.5,0l0,0c1.5,0.1,1.4,2.7,1.4,2.7
			l0.5,11.4c0.1,4.5,1.3,8.1,2.6,10.9c1,2,5,8.9,14.6,10c2.1,0.1,3.6-0.1,3.6-0.1l0,0c1.9-0.1,3-0.6,3-0.6l0,0
			c0.9-0.3,1.8-0.6,2.8-1.2c0.9-0.5,1.7-1,2.6-1.6l0,0c0,0,4.5-3.6,9.3-2.9c0.3,0.1,0.7,0.1,1,0.2h0.1l0,0c4.5,0.9,7.9,1,10,0.8
			c4-0.4,8.1-3.3,8.1-3.3l0,0c2.6-1.7,5.1-2.1,8.2-1.8c0,0,10.6,2.1,16.8-8.3l0,0c1.1-1.7,2.4-4,3.6-7.2l6.1-15.5l0,0
			c0.3-0.8,0.6-1.7,1-2.6c0.3-0.6,1-1.4,1.6-1.5c2-0.4,4.1-0.6,6.2-0.9c0,0.6,0.1,1,0.1,1.3c-0.3,5.2-0.7,10.3-0.8,15.4
			c-0.1,8.9,7.9,16.1,16.4,14.1c0.3-0.1,0.5-0.1,0.8-0.2l0,0c0,0,0.8-0.1,2-0.6c0.1-0.1,0.3-0.1,0.3-0.1c1.3-0.5,2.9-1.3,4.5-2.4
			c0.1-0.1,0.3-0.2,0.5-0.3c0.6-0.2,1.5-0.6,2.6-0.6c1,0,2.1,0.3,3.1,0.9c5,2.4,9.7,1.6,14.1-1.7c1.7-1.3,3.6-2.6,5.2-4.1
			c1.3-1.2,2.3-1.3,3.8-0.4c6.5,3.5,13.3,4,19.8,0.2c3.1-1.7,5.7-1.8,8.8-0.4c5.1,2.2,9.9,1.6,14.1-2.2c1.6-1.5,3-1.7,4.9-0.5
			c3.1,1.8,6.4,1.4,8.5-0.6c2.9-2.9,4.5-6.5,5.6-10.6c1.4-5.2,3.1-10.2,4.8-15.4c0,0,0.6-1,1.2-0.3c1,3,1.7,5.9,2.9,8.6
			c3,7.4,10.3,9.5,16.6,5c0.6-0.3,1.1-0.7,1.7-1.1c1.7-1.3,3.6-2.6,5.2-4.1c1.3-1.2,2.3-1.3,3.8-0.4c6.5,3.5,13.3,4,19.8,0.2
			c3.1-1.7,5.7-1.8,8.8-0.4c0.7,0.3,1.4,0.6,2.1,0.8l0,0c0,0,10.2,3.2,19.1-2c0.5-0.3,0.9-0.6,1.3-0.8c0.1,0,0.1-0.1,0.1-0.1l0,0
			c0.1-0.1,0.3-0.3,0.5-0.3c0.1-0.1,0.1-0.1,0.1-0.1c0.3-0.2,0.5-0.4,0.6-0.6c1.1-1.2,1.7-2.7,2-3.5
			C479.5,239.7,478.4,235.9,477.1,233.5z M122.1,290.2c0.1,6.7-3.3,9.2-3.3,9.2h-1.1c-3.1-0.4-4.9-2.9-5.6-4.2
			c-0.1-0.2-0.2-0.4-0.3-0.6c-0.1-0.1-0.1-0.1-0.1-0.1l0,0c-1.2-2.9-0.5-6.2-0.5-6.2c1.9-7,5.7-6,5.7-6c2.4,0.1,3.6,1.5,4.3,3l0,0
			c0,0,1,1.8,1,4.7l0,0C122.1,289.9,122.1,290,122.1,290.2L122.1,290.2z M177.8,232.6c-0.8,3.1-1.5,5.9-2.1,8.8
			c-0.3,1.3-0.3,2.6-0.8,3.7c-0.3,0.8-1.2,1.8-2,2c-4.2,0.8-4.7,0.1-3.3-3.8c1-3,1.8-6.1,2.9-9.1c0.3-0.8,0.8-1.7,1.4-2.3
			c0.6-0.6,1.5-1,2.2-1.1l0,0C176,230.6,178.5,230,177.8,232.6z M226.2,269.8c-0.1,2.4-0.1,4.9-0.2,7.3c-0.2,3.5-0.6,3.9-4,4.7
			c-4.6,1.1-9.3-0.5-10.4-4c-1.1-3.6-1.1-7.2-0.3-11c0.4-2.2,1.3-4,2.4-5.7c4.9-6.8,11-8.6,12.7-9c0.1,0,0.4,0,0.4,0.6
			C226.5,258.8,226.3,264.3,226.2,269.8z M347.9,238.5c0,0-1,12.3-0.6,21.6c0,0,0.1,0.8-0.3,1.8c-2.6,4.9-11.1,5.1-11.1,5.1
			c-2.5-0.1-4.3-1.5-5.6-2.9c-2.1-2.6-2.6-5.9-2.6-6.4c-0.3-7.2,1.3-13.7,6.3-18.5c1.3-1.2,2.7-2.3,4.4-3.2c1.7-1,4-1.4,6-1.5
			c1-0.1,1.7,0,2.1,0.3l0,0c0,0,0,0,0.1,0c0,0,0,0,0.1,0C347,235,348.5,236,347.9,238.5z M445.8,216.7c0,0-1,12.3-0.6,21.6
			c0,0,0.1,0.8-0.3,1.8c-2.6,4.9-11.1,5.1-11.1,5.1c-2.5-0.1-4.3-1.5-5.6-2.9c-2.1-2.6-2.6-5.9-2.6-6.4c-0.3-7.2,1.3-13.7,6.3-18.5
			c1.3-1.2,2.7-2.3,4.4-3.2c1.7-1,4-1.4,6-1.5c1-0.1,1.7,0,2.1,0.3l0,0c0,0,0,0,0.1,0c0,0,0,0,0.1,0
			C444.9,213.2,446.3,214.2,445.8,216.7z"/>
		<path class="st1" d="M343.6,311.5c7.4,2.1,12.7-3.1,12.7-10.2c0-2.2-1.2-2.9-3.3-2.7c-2.6,0.8-5.3,1.5-7.9,2.4
			c-3.3,1-5.2,4-4.2,7.2C341.2,309.4,342.4,311.2,343.6,311.5z"/>
		<path class="st1" d="M450.7,295.4c7.4,2.1,12.7-3.1,12.7-10.2c0-2.2-1.2-2.9-3.3-2.7c-2.6,0.8-5.3,1.5-7.9,2.4
			c-3.3,1-5.2,4-4.2,7.2C448.3,293.4,449.5,295.1,450.7,295.4z"/>
		<path class="st1" d="M474.5,346.6c-0.8-4.3-3.2-7.7-6.1-10.6c-3.9-3.5-6.2,0.8-6.2,0.8l0,0c-1.6,2.8-3.6,5.3-6.6,6.9
			c-2.4,1.3-4.4,0.6-5.2-1.7c-0.3-1.6-0.4-3.3-0.3-4.9c0.3-6.5,2.3-12.6,4.5-18.7c0.8-2.2,1.5-4.6,1.3-6.8c-0.6-5.6-2.1-7.6-9.8-9.5
			c-1.9-0.5-2.7,0.1-3.1,1.8c-1.4,7.9-3,15.8-4.2,23.7c-0.8,5.2-0.9,10.5-1.4,15.7c0,0.1-0.1,0.3-0.1,0.4l0,0v0.1
			c0,0.1-0.1,0.2-0.1,0.3c-0.9,2.6-3.1,3.4-4.1,3.6c-0.1,0-0.1,0-0.1,0c-0.2,0.1-0.3,0.1-0.3,0.1l0,0c-0.3,0-0.6,0-0.8-0.1
			c-1.3-0.4-2.7-2.1-3.1-3.5c-1.2-4.5-0.4-8.8,0.9-13.2c1.6-5.4,3.4-10.8,4.9-16.2c1.2-4.2,0.3-8.1-3.6-10.6c-2.3-1.5-5-2.4-7.6-3.3
			c-2.2-0.8-2.6-0.3-2.4,2.2c0.1,2,0.6,4.2,0.1,6.1c-0.9,3.2-5.3,4.6-9.3,3.4c0.2-0.6,0.3-1,0.4-1.3c0.1-0.7-0.1-1.2-0.3-1.5
			c-1.7-1.7-5-1.6-6.3-1.5c-2.7,0.4-5.4,0.8-8.1,1.4c-2.4,0.6-2.4,2.8-2.4,3.4c0,0,0,0,0,0.1s0,0.1,0,0.1c0.2,1.7,1.2,3,1.2,3
			c3.6,6.3,2.7,8.5,2.7,8.5c0,1.4-1.1,5-2.2,8.1l0,0v0.1c-0.8,2.1-1.5,4-1.8,4.9c-0.1,0.3-0.2,0.5-0.3,0.8c-1.5,4.6-3.5,7.8-5.4,10
			l0,0c-3.6,4.7-7.7,4.8-7.7,4.8l0,0c-0.3,0.1-0.6,0.1-0.9,0.1c-5.2,0.5-8.6-2.2-10.4-4.2c-0.1-0.1-2.2-2.9-2.3-7.3
			c0-0.1,0.1-0.3,0.3-0.4c1.4-0.1,2.7-0.2,4.1-0.3c12.4-0.6,19.2-6.9,20.5-19c0.8-7.7-5.9-14.5-13.7-13.7
			c-6.4,0.7-11.8,3.8-15.7,8.6c-7.7,9.4-10.4,19.9-5.6,31.6c0.3,0.7,0.6,1.6,0.3,2.2c-1.1,2.8-2.9,5.2-5.6,6.6
			c-4.4,2.2-7.3,0.5-6.6-4.5c0.8-6.1,2.4-12.2,3.6-18.3c0.6-2.6,1.5-5.1,1.5-7.7c0.1-4.9-5.4-9.8-10.4-9.5c-0.7,0-1.7,0.8-1.9,1.5
			c-0.7,2.5-1,5.1-1.7,7.6c0,0-2.1,20.5-3,26.7l0,0c0,0-0.1,0.3-0.1,1c-0.1,0.2-0.1,0.4-0.1,0.6l0,0c-0.4,1.7-1.4,4.5-3.8,6.1
			c-4.3,2.1-5.8-1.1-6.2-2.2c-0.8-2.8-0.3-5.7,0.3-8.4c1.5-5.7,3.5-11.4,5.2-17c1.2-3.9,0.7-7.3-2.8-9.9c-1.7-1.3-3.7-2.3-5.4-3.5
			c-1.7-1.1-2.5-0.3-3.1,1.3c-1.9,4.4-3.8,8.7-5.7,13c-2.4,5.3-5.4,10.3-7.5,15.7c-0.1,0.3-0.3,0.8-0.4,1.1l0,0l-5.7,14.6
			c0,0-0.6,0.3-0.8-0.5c0-0.1,0-0.2,0-0.3c1.1-5.2,2.2-10.3,3.3-15.4c0.6-2.6,1.7-5.1,2.3-7.7c1.4-6.8-1.8-12.2-8.2-14
			c-1.3-0.3-2.3-0.4-2.7,1.2c-3.1,11.5-6.3,23-6.8,35c-0.2,4.1-0.1,8.5-3.2,11.8c-0.7,0.7-2,1.8-2.5,1.6c-1-0.4-1.8-1.6-2.3-2.6
			c-0.4-0.8-0.3-2-0.2-3c0.1-8.8,3-17.1,5.2-25.5c0.7-2.7,1.2-5.6-0.8-7.6c-2.3-2.4-5.2-4.3-8-6.2c-2-1.3-3.2-0.1-4.2,1.7
			c-0.3,0.6-1.2,1.3-1.9,1.5c-3.4,0.6-7,0.7-10.4,1.5c-8.1,1.7-14.3,6.2-18,13.9c-3.5,7-3.4,14.6-3.1,22.1c0.2,4.7-2.2,9.2-6.4,11.2
			c-1.7,0.8-2.9,0.7-3.6-0.4c0-0.1-0.1-0.1-0.1-0.1c-1.2-4.5-0.4-8.8,0.9-13.2c1.6-5.4,3.5-10.8,4.9-16.2c1.2-4.2,0.3-8.1-3.6-10.6
			c-2.3-1.5-5-2.4-7.6-3.3c-2.2-0.8-2.6-0.3-2.4,2.2c0.1,2,0.6,4.2,0.1,6.1c-0.9,3.2-5.3,4.6-9.3,3.4c0.2-0.6,0.3-1,0.4-1.3
			c0.1-0.7-0.1-1.2-0.3-1.5c-1.7-1.7-5-1.6-6.3-1.5c-2.7,0.4-5.4,0.8-8.1,1.4c-2.4,0.6-2.4,2.8-2.4,3.4c0,0,0,0,0,0.1
			c0,0.1,0,0.1,0,0.1c0.2,1.7,1.2,3,1.2,3c3.6,6.3,2.7,8.5,2.7,8.5c0,2.7-4.2,13.7-4.2,13.7c-1,2.5-1.5,2.2-1.5,2.2
			c-1.5,0.2-1.7-2-1.7-2.1c-0.4-1.8-0.9-3.7-0.9-5.5c0-2.7,0.5-5.4,0.8-8.1c0.2-2-0.4-2.8-2.4-2.2c-4,1.1-8,2.1-12,3.3
			c-3.9,1.2-4.6,1.9-4.3,6c0.3,4.7-0.6,9.1-2,13.4c-3.2,10.4-9.3,18-20.5,19.9c-8.8,1.5-14.8-0.7-17.7-8.7c-1-2.9-1.6-6.1-1.3-9.1
			c1-9.8,4.9-18.7,9.2-27.3c2.7-5.5,1.7-5.4,8.1-3.9c0.6,0.1,1.3,0.2,1.9,0.3c9.3,2.5,18.4,2.2,27.2-1.8c9.3-4.3,14.8-11,14.6-21.7
			c-0.1-5.2-3.6-11.5-9.2-13c-7.6-2-15-0.8-22.6,0.5c-6.9,1.2-12.7,4.3-17.3,9.4c-2.8,3-5.2,6.2-8,9.1c-0.9,0.9-2.3,1.7-3.6,1.9
			c-6.1,0.9-12.4,1.3-18.5,2.4c-7,1.3-13.9,3.3-19.9,7.5c-2.5,1.7-5.4,3.6-6.9,6.1c-3.6,5.6-3.8,12-1.8,18.4c0.3,1,1,2,1.9,2.4
			c0.3,0.2,1.6-0.8,2.2-1.4c2.9-3.1,5.2-6.7,8.4-9.3c5.7-4.6,11.8-8.7,19-10.8c3.1-0.9,6.2-2.6,10-1.8c-0.2,0.8-0.4,1.5-0.6,2.2
			c-0.8,2.6-1.9,5.2-2.6,7.9l0,0c0,0-9.7,29.1-2.9,43.5l0,0c0,0,2.6,7.7,13.2,10.9c0.1,0,0.1,0.1,0.2,0.1c0.1,0.1,0.3,0.1,0.4,0.1
			c1.6,0.5,3.3,0.8,4.9,1h0.1l0,0c2.7,0.3,5.4,0.2,8.1-0.1c11.7-1.5,20.6-7.9,27.8-17c1.7-2.1,3.1-4.2,4.7-6.4c0,0,0.3-0.3,0.8-0.2
			c0,0,0.3-0.1,0.3,0.8c0,0,0.1,1.5,0.1,3c0,0.1-0.1,1.5-0.9,2.9c-0.1,0.1-0.3,0.3-0.4,0.6l0,0l0,0c-4,5.7-19.8,28.9-20.5,39.5
			c0,1.5,0.1,3,0.6,4.5c1.2,3.6,2.8,7.2,6.5,8.7c2.4,1,4.9,1.4,7.3,1.2l0.1,0.1c1-0.1,2-0.3,2.9-0.6l0,0h0.1c2.6-0.8,5-2,7-3.5
			c6.9-4.6,10-10.8,11.1-13.4l0,0l0,0c0.3-0.8,0.5-1.3,0.5-1.3l0,0c1-2.8,1.7-5.7,2-8.1c1.7-9.8,0.7-17,0.7-17l0,0
			c-0.1-3.1-0.5-6.1-1-9.2c-0.3-1.7,1.5-6.2,1.5-6.2l11.4-28.9c0.8-2.2,3.1-2.6,3.1-2.6l0,0c1.5-0.2,3.1-0.4,4.7-0.6
			c0,0.6,0.1,0.9,0.1,1.3c-0.3,5.1-0.7,10.2-0.8,15.3c-0.1,5.9,3.5,11.1,8.3,13.2c0,0,7.1,1.6,14.6-4.1c0,0,2.3-2,3.3-3.1
			c0,0,1.9-2.4,4.9-1.5l0,0c6.3,3.1,12.6,3.3,18.9-0.2c3-1.7,5.6-1.8,8.8-0.4c5.1,2.2,9.8,1.6,14-2.2c1.5-1.5,3-1.6,4.9-0.5
			c3.1,1.8,6.4,1.4,8.4-0.6c2.9-2.9,4.5-6.5,5.6-10.5c1.4-5.2,3.1-10.2,4.7-15.3c0,0,0.6-1,1.1-0.3c1,3,1.7,5.9,2.8,8.6
			c2.9,7.3,10.2,9.4,16.5,4.9c0.6-0.3,1.1-0.7,1.6-1.1c1.3-1,2.6-1.9,3.8-2.9c0.5-0.3,0.9-0.6,1.3-1c1.5-1.1,2.6-1.3,4.2-0.3
			c2.7,1.7,5.6,2.8,9.1,2.3c4.5-0.6,8.1-2.7,11.1-6.1c1.7-2,3.3-2.6,5.2-1.6l0,0c0,0,0.1,0,0.1,0.1c0.1,0.1,0.2,0.1,0.3,0.2
			c1.2,0.6,4.6,2.4,8.1,3.2c18,4.1,24.7-13,24.7-13l0,0c0.6-1.1,1.1-2.4,1.7-3.8l6.1-15.4l0,0c0.3-0.8,0.6-1.7,1-2.6
			c0.3-0.6,1-1.4,1.6-1.5c2-0.4,4-0.6,6.2-0.8c0,0.6,0.1,0.9,0.1,1.3c-0.3,5.1-0.7,10.2-0.8,15.3c-0.1,8.8,7.9,15.9,16.2,14
			c0.3-0.1,0.5-0.1,0.7-0.2l0,0c0,0,0.8-0.1,2-0.6c0.1-0.1,0.3-0.1,0.3-0.1c1.3-0.5,2.8-1.3,4.5-2.4c0.1-0.1,0.3-0.2,0.5-0.3
			c0.5-0.2,1.5-0.6,2.6-0.6c0.8,0,1.5,0.2,2.4,0.6c1.5,1,3,1.5,4.5,1.8c0.3,0.1,3.7,0.5,8.1-0.5c0.2-0.1,0.3-0.1,0.6-0.1
			c0.4-0.1,3.2-1.2,4.3-2.4c0,0-3.1,13.7-17.4,24.6c0,0-8.8,8.1-26.7,13.7c0,0-20.5,5.2-39.6,3.3l-18-0.8c-0.3,0-0.6,0-0.9,0
			c-8.6-0.1-17.1-0.7-25.7-0.2l0,0c0,0-43.9,2.4-73.8,13.6l0,0c-16.8,5.5-28.2,11.1-35.5,15.5c-0.3,0.2-9.1,6.7-15.5,13.2
			c-1.5,1.6-2.9,3.3-4.3,4.9c-0.7,0.8-3.2,4-3.1,5.9c0.1,0.9,0.5,1.9,1.5,2.6c0.2,0.1,2.2,1.1,7,0.8c0.3,0,0.8-0.1,1.1-0.1
			c6.8-0.9,12.2-4.5,17.1-8.8c0.4-0.3,0.8-0.8,1.2-1.2l0,0l5.9-4.9c3.2-2.4,7.7-5.5,12-8.1c4-2.1,8.1-4,12.4-5.6
			c4.7-1.8,9.5-3.5,14.4-5c14.8-4.2,31.1-6.9,31.9-7c21.7-2.6,42.1-2.6,44.9-2.5c11.3,0.6,22.6,1.2,33.9,1.7
			c10.7,0.6,21.5,0.1,31.8-2.9c2.4-0.7,4.7-1.5,7-2.3l0,0c31.5-11.2,44.6-32,44.8-32.2c1.1-1.8,2.2-3.6,3.1-5.5
			C474.7,358.8,475.8,352.8,474.5,346.6z M368.2,331.6c1.4-4.5,3.3-8.1,7.7-9.8c0.4-0.1,0.9-0.2,1.3-0.2c0.6,0.1,1.5,0.3,1.6,1.5
			c0,0.2-0.1,1-0.3,1.6c-2.1,3.8-5,6.8-10,7.4C368.2,332.1,368.2,331.7,368.2,331.6z M156.3,337.3L156.3,337.3c0,0,0.1,0,0.1-0.1
			h0.1c1.6-0.6,12.7-4.2,17-1c0.3,0.1,0.5,0.3,0.7,0.6l0,0l0,0c0.2,0.3,0.3,0.7,0.3,1.1c0,0.5-0.1,0.9-0.4,1.4
			c-1.6,2.8-4.4,3.9-6.1,4.4c-6.5,1.4-13,1.2-19.9-0.5C150.7,340.6,153.3,338.4,156.3,337.3z M181.5,430L181.5,430
			c-0.3,1-0.8,2-1.3,3l0,0c-2.6,6.8-4.4,8-4.4,8l0,0c-2.6,3.1-4.6,1.7-4.7,1.7c0,0-1.5-0.5-0.6-4c0-0.1,0.1-0.2,0.1-0.3
			c0.1-0.1,0.1-0.3,0.1-0.3c0.1-0.2,0.1-0.3,0.2-0.6c0.1-0.1,0.1-0.3,0.1-0.4c0.1-0.2,0.1-0.3,0.2-0.6c0-0.1,0.1-0.1,0.1-0.2l0,0
			c2-4.5,5.9-11,5.9-11s2.6-4.6,4.1-6.1c0,0,1.7-1.4,2,1C183.6,420.2,183.3,425.7,181.5,430z M265.8,352.6c0,0-1,12.3-0.6,21.4
			c0,0,0.1,0.8-0.3,1.8c-2.6,4.9-10.9,5.1-10.9,5.1c-2.4-0.1-4.2-1.5-5.6-2.9c-2.1-2.6-2.5-5.9-2.6-6.4c-0.3-7.1,1.3-13.7,6.2-18.3
			c1.3-1.2,2.7-2.2,4.4-3.2c1.7-1,4-1.4,5.9-1.5c1-0.1,1.6,0,2.1,0.3l0,0c0,0,0,0,0.1,0c0,0,0,0,0.1,0
			C265,349.1,266.4,350,265.8,352.6z"/>
	</g>
</g>
</svg>
