<?xml version="1.0" encoding="utf-8"?>
<!-- Generator: Adobe Illustrator 19.0.0, SVG Export Plug-In . SVG Version: 6.00 Build 0)  -->
<!DOCTYPE svg PUBLIC "-//W3C//DTD SVG 1.1//EN" "http://www.w3.org/Graphics/SVG/1.1/DTD/svg11.dtd">
<svg version="1.1" id="Layer_1" xmlns="http://www.w3.org/2000/svg" xmlns:xlink="http://www.w3.org/1999/xlink" x="0px" y="0px"
	 viewBox="-102 202 406.5 390" style="enable-background:new -102 202 406.5 390;" xml:space="preserve">
<style type="text/css">
	.st0{fill:#4F4F4F;}
	.st1{fill:#EBE8DC;}
</style>
<g>
	<path class="st0" d="M185.9,338.4L185.9,338.4c-1.9,0.3-4,1.6-5.4,2.9c-1.6,1.4-2.8,3.6-3.5,5.7c-2.5,7.4-4.5,14.9-7,22.3
		c-3.2,9.6-2,11.3,8.2,9.3c2-0.4,4-2.9,4.9-4.8c1.3-2.7,1.4-5.9,2.1-8.9c1.7-7,3.3-13.9,5.1-21.4
		C191.9,336.8,185.9,338.4,185.9,338.4z"/>
	<path class="st0" d="M28.3,438.6c11-3.3,26.3-4,40.6,8.9c0,0,0.3,0.2,0.6,0.6C86.2,471.9,81,491.5,81,491.5
		c0.2,1.3,1.3,0.8,1.3,0.8s18.4-11.6,30.2-50.5c7.7-21.5,12.8-43.2,12.8-43.2c15.2-69,34.1-91.7,37.6-95.5c3.8-3.8,8-7.3,12.5-10.4
		c4.9-3.4,10.2-5.7,15.7-7c-22.7-16.6-50.8-26.4-81.1-26.4C33.9,259.3-27.7,321-27.7,397c0,29.6,9.3,57,25.2,79.4
		C3.1,447.7,25.3,439.6,28.3,438.6z"/>
	<path class="st0" d="M223.6,319.1c-2.8,10.3-5.8,20.6-8.6,30.9c-1.5,5.6-2.6,11.3-3.9,16.9c-1,4.3,0.6,6.5,5.1,5.8
		c3-0.5,6-1.2,9.1-1.7c5.4-0.8,7.7,1.3,7.9,6.7c0.3,11.7-11.1,29-23,33.3c-5.1,1.9-6.8,5-6.9,9.6c-0.4,12.2,1.4,23.8,5.6,34.8
		c1.2,2.7,4.3,9,8.3,13.2c0.6,0.6,1.2,1.1,1.7,1.6c1.1,0.8,2.4,1.7,3.8,2.5c0.7,0.3,1.3,0.6,1.9,0.8c14.6-21.9,23.1-48.1,23.1-76.4
		C247.8,368.1,238.8,341.2,223.6,319.1z"/>
	<path class="st0" d="M29.8,495.8c1.8,3.2,6.2,9.2,13.8,10.3h2.6c0,0,8.3-6.2,8.2-22.4c0.1-0.2,0-0.5,0.1-0.7v-0.1
		c0-7.1-2.3-11.5-2.3-11.5c-1.7-3.7-4.9-7.1-10.6-7.4c0,0-9.5-2.2-14,14.7c0,0-1.7,8.1,1.2,15.1c0,0,0.1,0.2,0.2,0.4
		C29.2,494.8,29.5,495.3,29.8,495.8z"/>
	<path class="st0" d="M182.9,476.8c-3.1-6.7-6-15.7-6.3-26.6l-1.2-27.7c0,0,0.3-6.4-3.5-6.6h0.1c-0.5-0.1-0.8-0.1-1.2-0.1
		c-13-0.9-13.5-0.8-16.5,11.4c-0.7,2.8-1.4,5.5-2.3,8.2v0.1c0,0-6.8,24.2-13.4,37.2c-5.3,11.6-13.6,26.2-26,39.6
		c-3.2,3.1-13.3,12.5-27.8,20.1c8.2,1.5,16.6,2.3,25.3,2.3c36.5,0,69.6-14.2,94.3-37.3C190.9,491.4,184.6,480.5,182.9,476.8z"/>
</g>
<path class="st1" d="M-17.6,1112.3"/>
</svg>
