<?xml version="1.0" encoding="utf-8"?>
<!-- Generator: Adobe Illustrator 19.0.0, SVG Export Plug-In . SVG Version: 6.00 Build 0)  -->
<!DOCTYPE svg PUBLIC "-//W3C//DTD SVG 1.1//EN" "http://www.w3.org/Graphics/SVG/1.1/DTD/svg11.dtd">
<svg version="1.1" id="Layer_1" xmlns="http://www.w3.org/2000/svg" xmlns:xlink="http://www.w3.org/1999/xlink" x="0px" y="0px"
	 viewBox="-13 91 585 612" style="enable-background:new -13 91 585 612;" xml:space="preserve">
<style type="text/css">
	.st0{fill:#4F4F4F;}
</style>
<path class="st0" d="M284.4,120.4C129.3,120.9,6.4,242.2,6.3,396C6.2,550.8,128.2,673.5,282.4,673.6
	c153.6,0,275.7-122.2,277.4-274.3C561.3,245.7,434.8,119.9,284.4,120.4z M282.9,644.7c-136.7,0-247.5-110.8-247.5-247.5
	s110.8-247.5,247.5-247.5s247.5,110.8,247.5,247.5S419.6,644.7,282.9,644.7z"/>
<path class="st0" d="M422.3,334.9L279,478.2L143.3,335.6l0,0c-6.5,6.5-12.6,12.5-18.1,17.9c51.8,52.7,104.4,106.4,157.5,160.4
	c53-53.8,105.9-107.4,158.1-160.4C434.9,347.5,428.8,341.4,422.3,334.9z"/>
<polygon class="st0" points="143.3,335.6 146.7,331.9 289.1,480.9 280.7,498.2 143.3,353.2 "/>
</svg>
