<?xml version="1.0" encoding="utf-8"?>
<!-- Generator: Adobe Illustrator 22.0.1, SVG Export Plug-In . SVG Version: 6.00 Build 0)  -->
<!DOCTYPE svg PUBLIC "-//W3C//DTD SVG 1.1//EN" "http://www.w3.org/Graphics/SVG/1.1/DTD/svg11.dtd">
<svg version="1.1" id="Layer_1" xmlns="http://www.w3.org/2000/svg" xmlns:xlink="http://www.w3.org/1999/xlink" x="0px" y="0px"
	 viewBox="0 0 141.3 140.3" style="enable-background:new 0 0 141.3 140.3;" xml:space="preserve">
<style type="text/css">
	.st0{fill:none;stroke:#FFFFFF;stroke-width:4;stroke-miterlimit:10;}
	.st1{fill:#FFFFFF;}
</style>
<circle class="st0" cx="70.6" cy="70.2" r="63.8"/>
<g id="BzV5ib.tif">
	<g>
		<path class="st1" d="M29.8,95.7c0-17.7,0-35.3,0-53c8.8,0,17.5,0,26.3,0h0.1c0.9,0.1,1.8,0.1,2.7,0.2c1.8,0.2,3.5,0.7,5.2,1.4
			c3.7,1.7,6.1,4.5,7,8.5c0.6,2.3,0.6,4.7,0,7.1c-0.4,1.8-1.2,3.3-2.4,4.7c-0.9,1-2,1.7-3.2,2.4c-0.2,0.1-0.4,0.2-0.6,0.3
			c0.5,0.2,1,0.4,1.4,0.6c2.9,1.4,4.9,3.7,6,6.8c0.4,1.2,0.6,2.5,0.7,3.8c0.1,1.7,0,3.4-0.4,5c-0.4,1.8-1.1,3.5-2.1,5
			c-1.8,2.7-4.2,4.7-7.2,5.9c-1.5,0.6-3.1,0.8-4.7,1.1c-1.8,0.2-3.5,0.3-5.3,0.3C45.5,95.7,37.6,95.7,29.8,95.7z M42,72.3
			c0,4.7,0,9.4,0,14.1c0.1,0,0.1,0,0.2,0c3.9,0,7.9,0,11.8,0c1.2,0,2.5-0.2,3.6-0.5c2-0.6,3.3-1.9,4-3.8c0.5-1.4,0.6-2.9,0.4-4.3
			c-0.1-0.9-0.4-1.8-0.9-2.6c-0.8-1.2-1.9-1.9-3.2-2.3s-2.6-0.6-4-0.6c-3.9,0-7.8,0-11.7,0C42,72.3,42,72.3,42,72.3z M42,63.5
			c0.1,0,0.2,0,0.2,0c3.5,0,7,0,10.5,0c0.8,0,1.5,0,2.3-0.1c1.1-0.1,2.1-0.4,3.1-0.8c1-0.5,1.8-1.2,2.3-2.2c0.6-1.5,0.7-3.1,0.3-4.7
			s-1.4-2.7-3.1-3.1c-1.7-0.5-3.4-0.7-5.2-0.7c-3.4,0-6.9,0-10.3,0c0,0-0.1,0-0.2,0C42,55.8,42,59.7,42,63.5z"/>
		<path class="st1" d="M114.8,77.8c-9.2,0-18.4,0-27.6,0c0,0.2,0,0.4,0,0.6c0.1,1.2,0.3,2.3,0.7,3.5c0.9,2.4,2.6,4,5,4.8
			c1.5,0.5,3.1,0.6,4.6,0.5c1.2-0.1,2.4-0.4,3.5-1c1.3-0.7,2.3-1.8,3-3.1c0.1-0.2,0.2-0.3,0.5-0.3c3.2,0,6.4,0,9.6,0
			c0.1,0,0.1,0,0.2,0c0,0.3-0.1,0.6-0.2,0.9c-0.3,1.4-0.9,2.6-1.7,3.8c-1.6,2.3-3.6,4.2-6,5.5c-1.7,0.9-3.5,1.5-5.4,1.9
			c-2,0.4-3.9,0.5-5.9,0.4c-4.6-0.3-8.8-1.9-12.3-4.9c-1.7-1.4-2.9-3.3-3.8-5.3c-0.7-1.7-1.2-3.5-1.4-5.3c-0.3-1.9-0.3-3.8-0.2-5.8
			c0.1-2.4,0.4-4.7,1.2-7c1.6-4.9,4.9-8.4,9.6-10.5c1.7-0.8,3.6-1.2,5.5-1.4c2.5-0.2,4.9-0.2,7.3,0.3c2.5,0.5,4.8,1.4,6.8,2.9
			c1.8,1.3,3.2,3,4.4,4.9c1.2,2,1.9,4.1,2.4,6.4c0.2,1.2,0.3,2.5,0.4,3.7c0,1.4,0,2.8,0.1,4.2C114.8,77.7,114.8,77.7,114.8,77.8z
			 M104.5,71.3c0-0.1,0-0.1,0-0.2c-0.1-0.6-0.2-1.2-0.3-1.8c-0.6-2.6-2.2-4.4-4.7-5.4c-1.8-0.7-3.7-0.8-5.6-0.4
			c-1.7,0.3-3.1,1.1-4.2,2.4c-1,1.1-1.6,2.5-2,3.9c-0.1,0.5-0.2,1.1-0.4,1.6C93.1,71.3,98.8,71.3,104.5,71.3z"/>
		<path class="st1" d="M85.2,50.1c0-1.8,0-3.5,0-5.3c7.1,0,14.2,0,21.3,0c0,1.8,0,3.5,0,5.3C99.4,50.1,92.3,50.1,85.2,50.1z"/>
	</g>
</g>
</svg>
