<?xml version="1.0" encoding="utf-8"?>
<!-- Generator: Adobe Illustrator 18.0.0, SVG Export Plug-In . SVG Version: 6.00 Build 0)  -->
<!DOCTYPE svg PUBLIC "-//W3C//DTD SVG 1.1//EN" "http://www.w3.org/Graphics/SVG/1.1/DTD/svg11.dtd">
<svg version="1.1" id="Layer_1" xmlns="http://www.w3.org/2000/svg" xmlns:xlink="http://www.w3.org/1999/xlink" x="0px" y="0px"
	 viewBox="186 82 679 646" enable-background="new 186 82 679 646" xml:space="preserve">
<circle fill="none" stroke="#EBE8DC" stroke-width="21" stroke-miterlimit="10" cx="534.3" cy="401" r="286.2"/>
<g id="BzV5ib.tif">
	<g>
		<path fill="#EBE8DC" d="M350.6,515.2c0-79.3,0-158.5,0-237.8c39.3,0,78.5,0,117.8,0c0.2,0,0.4,0.1,0.6,0.1
			c4.1,0.4,8.2,0.6,12.3,1.1c8.1,1,15.9,3,23.3,6.4c16.7,7.6,27.3,20.2,31.5,38c2.5,10.5,2.5,21.1,0.1,31.7
			c-1.7,7.9-5.2,14.9-10.6,20.9c-4.1,4.4-9,7.8-14.2,10.7c-0.8,0.5-1.6,0.9-2.5,1.3c2.2,1,4.3,1.8,6.4,2.9
			c13.1,6.4,22,16.5,26.7,30.3c1.9,5.5,2.9,11.2,3.3,17.1c0.5,7.6,0.1,15.1-1.6,22.5c-1.8,8.1-5.1,15.5-9.6,22.5
			c-8,12.3-18.7,21.2-32.5,26.3c-6.9,2.6-14.1,3.8-21.3,4.8c-7.9,1-15.8,1.4-23.7,1.4C421.2,515.2,385.9,515.2,350.6,515.2z
			 M405.5,410.6c0,21.1,0,42.2,0,63.3c0.3,0,0.5,0,0.7,0c17.6,0,35.3,0,52.9-0.1c5.5,0,11-0.7,16.3-2.4c8.8-2.8,14.9-8.4,17.9-17.2
			c2.2-6.3,2.6-12.9,1.8-19.5c-0.5-4.1-1.8-8-4.2-11.5c-3.6-5.2-8.6-8.3-14.5-10.1c-5.8-1.8-11.8-2.5-17.8-2.5
			c-17.5-0.1-35,0-52.5-0.1C405.9,410.6,405.7,410.6,405.5,410.6z M405.5,371.2c0.4,0,0.7,0,1,0c15.8,0,31.5,0,47.3,0
			c3.4,0,6.8-0.2,10.2-0.5c4.9-0.5,9.6-1.7,14-3.8c4.6-2.2,8.2-5.3,10.2-10c2.8-6.9,3-14,1.2-21.1c-1.9-7.2-6.5-11.9-13.7-13.9
			c-7.6-2.2-15.4-3-23.3-3.1c-15.4-0.1-30.8,0-46.3,0c-0.2,0-0.5,0-0.7,0C405.5,336.3,405.5,353.7,405.5,371.2z"/>
		<path fill="#EBE8DC" d="M732.7,435.2c-41.4,0-82.6,0-124,0c0.1,0.9,0.1,1.8,0.2,2.7c0.4,5.3,1.3,10.5,3.2,15.5
			c4.1,10.8,11.8,17.9,22.6,21.7c6.7,2.3,13.7,2.8,20.7,2.3c5.4-0.4,10.6-1.7,15.5-4.3c5.9-3.2,10.2-8,13.3-13.8
			c0.5-0.9,1-1.2,2.1-1.2c14.4,0,28.7,0,43.1,0c0.3,0,0.6,0,1,0c-0.2,1.4-0.4,2.6-0.7,3.9c-1.4,6.2-4.2,11.8-7.8,17
			c-7.2,10.2-16,18.7-27.1,24.7c-7.7,4.1-15.8,6.7-24.4,8.3c-8.8,1.6-17.7,2.1-26.6,1.6c-20.8-1.2-39.3-8.5-55.2-21.9
			c-7.7-6.5-13.2-14.6-17.2-23.9c-3.2-7.7-5.2-15.7-6.3-23.9c-1.2-8.6-1.5-17.2-1.1-25.8c0.4-10.7,1.9-21.2,5.3-31.4
			c7.3-22.1,21.8-37.7,43.1-47c7.8-3.4,16.1-5.2,24.6-6.1c11-1.1,22-0.7,32.8,1.5c11.1,2.3,21.5,6.2,30.7,12.9
			c8.2,6,14.5,13.5,19.7,22.1c5.4,8.9,8.7,18.6,10.6,28.8c1,5.5,1.5,11,1.6,16.6c0.2,6.3,0.2,12.5,0.3,18.8
			C732.7,434.6,732.7,434.8,732.7,435.2z M686.5,405.8c0-0.3,0-0.6-0.1-0.9c-0.4-2.7-0.7-5.5-1.3-8.2c-2.8-11.8-10-19.9-21.3-24.3
			c-8.1-3.2-16.4-3.4-24.9-1.9c-7.5,1.4-13.8,4.8-18.8,10.6c-4.3,5.1-7.1,11-8.8,17.4c-0.6,2.4-1.1,4.8-1.6,7.2
			C635.3,405.8,660.9,405.8,686.5,405.8z"/>
		<path fill="#EBE8DC" d="M600,311c0-7.9,0-15.7,0-23.7c31.9,0,63.8,0,95.7,0c0,7.9,0,15.7,0,23.7C663.8,311,631.9,311,600,311z"/>
	</g>
</g>
</svg>
