<?xml version="1.0" encoding="utf-8"?>
<!-- Generator: Adobe Illustrator 18.0.0, SVG Export Plug-In . SVG Version: 6.00 Build 0)  -->
<!DOCTYPE svg PUBLIC "-//W3C//DTD SVG 1.1//EN" "http://www.w3.org/Graphics/SVG/1.1/DTD/svg11.dtd">
<svg version="1.1" id="Layer_1" xmlns="http://www.w3.org/2000/svg" xmlns:xlink="http://www.w3.org/1999/xlink" x="0px" y="0px"
	 viewBox="301.3 87.3 141.3 140.3" enable-background="new 301.3 87.3 141.3 140.3" xml:space="preserve">
<circle fill="none" stroke="#EBE8DC" stroke-width="4" stroke-miterlimit="10" cx="372.1" cy="156.9" r="63.8"/>
<g id="BzV5ib.tif">
	<g>
		<path fill="#EBE8DC" d="M331.2,182.4c0-17.7,0-35.3,0-53c8.8,0,17.5,0,26.3,0h0.1c0.9,0.1,1.8,0.1,2.7,0.2
			c1.8,0.2,3.5,0.7,5.2,1.4c3.7,1.7,6.1,4.5,7,8.5c0.6,2.3,0.6,4.7,0,7.1c-0.4,1.8-1.2,3.3-2.4,4.7c-0.9,1-2,1.7-3.2,2.4
			c-0.2,0.1-0.4,0.2-0.6,0.3c0.5,0.2,1,0.4,1.4,0.6c2.9,1.4,4.9,3.7,6,6.8c0.4,1.2,0.6,2.5,0.7,3.8c0.1,1.7,0,3.4-0.4,5
			c-0.4,1.8-1.1,3.5-2.1,5c-1.8,2.7-4.2,4.7-7.2,5.9c-1.5,0.6-3.1,0.8-4.7,1.1c-1.8,0.2-3.5,0.3-5.3,0.3
			C347,182.4,339.1,182.4,331.2,182.4z M343.5,159c0,4.7,0,9.4,0,14.1c0.1,0,0.1,0,0.2,0c3.9,0,7.9,0,11.8,0c1.2,0,2.5-0.2,3.6-0.5
			c2-0.6,3.3-1.9,4-3.8c0.5-1.4,0.6-2.9,0.4-4.3c-0.1-0.9-0.4-1.8-0.9-2.6c-0.8-1.2-1.9-1.9-3.2-2.3c-1.3-0.4-2.6-0.6-4-0.6
			c-3.9,0-7.8,0-11.7,0C343.5,159,343.5,159,343.5,159z M343.5,150.3c0.1,0,0.2,0,0.2,0c3.5,0,7,0,10.5,0c0.8,0,1.5,0,2.3-0.1
			c1.1-0.1,2.1-0.4,3.1-0.8c1-0.5,1.8-1.2,2.3-2.2c0.6-1.5,0.7-3.1,0.3-4.7c-0.4-1.6-1.4-2.7-3.1-3.1c-1.7-0.5-3.4-0.7-5.2-0.7
			c-3.4,0-6.9,0-10.3,0c0,0-0.1,0-0.2,0C343.5,142.5,343.5,146.4,343.5,150.3z"/>
		<path fill="#EBE8DC" d="M416.3,164.5c-9.2,0-18.4,0-27.6,0c0,0.2,0,0.4,0,0.6c0.1,1.2,0.3,2.3,0.7,3.5c0.9,2.4,2.6,4,5,4.8
			c1.5,0.5,3.1,0.6,4.6,0.5c1.2-0.1,2.4-0.4,3.5-1c1.3-0.7,2.3-1.8,3-3.1c0.1-0.2,0.2-0.3,0.5-0.3c3.2,0,6.4,0,9.6,0
			c0.1,0,0.1,0,0.2,0c0,0.3-0.1,0.6-0.2,0.9c-0.3,1.4-0.9,2.6-1.7,3.8c-1.6,2.3-3.6,4.2-6,5.5c-1.7,0.9-3.5,1.5-5.4,1.9
			c-2,0.4-3.9,0.5-5.9,0.4c-4.6-0.3-8.8-1.9-12.3-4.9c-1.7-1.4-2.9-3.3-3.8-5.3c-0.7-1.7-1.2-3.5-1.4-5.3c-0.3-1.9-0.3-3.8-0.2-5.8
			c0.1-2.4,0.4-4.7,1.2-7c1.6-4.9,4.9-8.4,9.6-10.5c1.7-0.8,3.6-1.2,5.5-1.4c2.5-0.2,4.9-0.2,7.3,0.3c2.5,0.5,4.8,1.4,6.8,2.9
			c1.8,1.3,3.2,3,4.4,4.9c1.2,2,1.9,4.1,2.4,6.4c0.2,1.2,0.3,2.5,0.4,3.7c0,1.4,0,2.8,0.1,4.2C416.3,164.4,416.3,164.4,416.3,164.5z
			 M406,158c0-0.1,0-0.1,0-0.2c-0.1-0.6-0.2-1.2-0.3-1.8c-0.6-2.6-2.2-4.4-4.7-5.4c-1.8-0.7-3.7-0.8-5.6-0.4
			c-1.7,0.3-3.1,1.1-4.2,2.4c-1,1.1-1.6,2.5-2,3.9c-0.1,0.5-0.2,1.1-0.4,1.6C394.6,158,400.3,158,406,158z"/>
		<path fill="#EBE8DC" d="M386.7,136.8c0-1.8,0-3.5,0-5.3c7.1,0,14.2,0,21.3,0c0,1.8,0,3.5,0,5.3
			C400.9,136.8,393.8,136.8,386.7,136.8z"/>
	</g>
</g>
</svg>
