<?xml version="1.0" encoding="utf-8"?>
<!-- Generator: Adobe Illustrator 18.0.0, SVG Export Plug-In . SVG Version: 6.00 Build 0)  -->
<!DOCTYPE svg PUBLIC "-//W3C//DTD SVG 1.1//EN" "http://www.w3.org/Graphics/SVG/1.1/DTD/svg11.dtd">
<svg version="1.1" id="Layer_1" xmlns="http://www.w3.org/2000/svg" xmlns:xlink="http://www.w3.org/1999/xlink" x="0px" y="0px"
	 viewBox="100 262 852 846" enable-background="new 100 262 852 846" xml:space="preserve">
<path fill="#EBE8DC" d="M603.4,555.7c-83.9-60.3-159.1-6.1-159.1-6.1c-109.6,100.6-17.9,196.8-17.9,196.8
	c35.4,33.5,36.2,78.1,35.5,92.3l0,0l0,0c0,0.5-0.1,0.9-0.1,1.3c0.1,1.3,0.9,3.4,4.4,3.6l4.5-0.4l105.3-25.6c8.6-2.3,6.3-7.4,6.3-7.4
	C581.2,777,614,747,614,747C702.6,650.2,603.4,555.7,603.4,555.7z"/>
<path fill="#EBE8DC" stroke="#EBE8DC" stroke-width="11" stroke-miterlimit="10" d="M578.8,843.7l-109.2,24.4
	c-2.8,0.6-4.5,3.4-3.9,6.2l0,0c0.6,2.8,3.4,4.5,6.2,3.9l109.2-24.5c2.8-0.6,4.5-3.4,3.9-6.2l0,0
	C584.4,844.8,581.6,843.1,578.8,843.7z"/>
<path fill="#EBE8DC" stroke="#EBE8DC" stroke-width="11" stroke-miterlimit="10" d="M580.9,881.1l-108.1,24
	c-2.8,0.6-4.5,3.4-3.9,6.2l0,0c0.6,2.8,3.4,4.5,6.2,3.9l108.1-24c2.8-0.6,4.5-3.4,3.9-6.2l0,0C586.5,882.2,583.7,880.4,580.9,881.1z
	"/>
<path fill="#EBE8DC" stroke="#EBE8DC" stroke-width="11" stroke-miterlimit="10" d="M556.9,920.8l-55.2,12.3
	c-2.8,0.6-4.5,3.4-3.9,6.2l0,0c0.6,2.8,3.4,4.5,6.2,3.9l55.2-12.3c2.8-0.6,4.5-3.4,3.9-6.2l0,0C562.4,921.9,559.6,920.2,556.9,920.8
	z"/>
<path fill="#EBE8DC" d="M510.1,442.2L510.1,442.2c-3.8,0-6.9,3.1-6.9,6.9v45.4c0,3.8,3.1,6.9,6.9,6.9l0,0c3.8,0,6.9-3.1,6.9-6.9
	v-45.4C516.9,445.3,513.8,442.2,510.1,442.2z"/>
<path fill="#EBE8DC" d="M393.8,479.1L393.8,479.1c-3.1,2.2-3.9,6.5-1.8,9.6l25.8,37.4c2.2,3.1,6.5,3.9,9.6,1.8l0,0
	c3.1-2.2,3.9-6.5,1.8-9.6l-25.8-37.4C401.2,477.7,396.9,476.9,393.8,479.1z"/>
<path fill="#EBE8DC" d="M325.6,566.3L325.6,566.3c-1.5,3.4,0,7.5,3.4,9.1l41.3,18.8c3.4,1.5,7.5,0,9.1-3.4l0,0
	c1.5-3.4,0-7.5-3.4-9.1l-41.3-18.8C331.3,561.2,327.1,562.8,325.6,566.3z"/>
<path fill="#EBE8DC" d="M359,666.6L359,666.6c0-3.8-3.1-6.9-6.9-6.9h-45.4c-3.8,0-6.9,3.1-6.9,6.9l0,0c0,3.8,3.1,6.9,6.9,6.9h45.4
	C355.9,673.4,359,670.3,359,666.6z"/>
<path fill="#EBE8DC" d="M645.3,467.7L645.3,467.7c3.1,2.2,3.9,6.5,1.8,9.6l-25.8,37.4c-2.2,3.1-6.5,3.9-9.6,1.8l0,0
	c-3.1-2.2-3.9-6.5-1.8-9.6l25.8-37.4C637.9,466.4,642.2,465.6,645.3,467.7z"/>
<path fill="#EBE8DC" d="M713.5,554.8L713.5,554.8c1.5,3.4,0,7.5-3.4,9.1l-41.3,18.8c-3.4,1.5-7.5,0-9.1-3.4l0,0
	c-1.5-3.4,0-7.5,3.4-9.1l41.3-18.8C707.8,549.9,712,551.4,713.5,554.8z"/>
<path fill="#EBE8DC" d="M680.1,655.1L680.1,655.1c0-3.8,3.1-6.9,6.9-6.9h45.4c3.8,0,6.9,3.1,6.9,6.9l0,0c0,3.8-3.1,6.9-6.9,6.9H687
	C683.2,662.1,680.1,659,680.1,655.1z"/>
<circle fill="none" stroke="#EBE8DC" stroke-width="21" stroke-miterlimit="10" cx="524.1" cy="685.4" r="363"/>
</svg>
