<?xml version="1.0" encoding="utf-8"?>
<!-- Generator: Adobe Illustrator 19.0.0, SVG Export Plug-In . SVG Version: 6.00 Build 0)  -->
<!DOCTYPE svg PUBLIC "-//W3C//DTD SVG 1.1//EN" "http://www.w3.org/Graphics/SVG/1.1/DTD/svg11.dtd">
<svg version="1.1" id="Layer_1" xmlns="http://www.w3.org/2000/svg" xmlns:xlink="http://www.w3.org/1999/xlink" x="0px" y="0px"
	 viewBox="120 -27 852 846" style="enable-background:new 120 -27 852 846;" xml:space="preserve">
<style type="text/css">
	.st0{fill:#4F4F4F;}
	.st1{fill:#4F4F4F;stroke:#4F4F4F;stroke-width:11;stroke-miterlimit:10;}
	.st2{fill:none;stroke:#4F4F4F;stroke-width:21;stroke-miterlimit:10;}
</style>
<path class="st0" d="M638.9,275.5c-83.9-60.3-159.1-6.1-159.1-6.1C370.2,370,461.9,466.2,461.9,466.2c35.4,33.5,36.2,78.1,35.5,92.3
	l0,0l0,0c0,0.5-0.1,0.9-0.1,1.3c0.1,1.3,0.9,3.4,4.4,3.6l4.5-0.4l105.3-25.6c8.6-2.3,6.3-7.4,6.3-7.4c-1.1-33.2,31.7-63.2,31.7-63.2
	C738.1,370,638.9,275.5,638.9,275.5z"/>
<path class="st1" d="M614.3,563.5l-109.2,24.4c-2.8,0.6-4.5,3.4-3.9,6.2l0,0c0.6,2.8,3.4,4.5,6.2,3.9l109.2-24.5
	c2.8-0.6,4.5-3.4,3.9-6.2l0,0C619.9,564.6,617.1,562.9,614.3,563.5z"/>
<path class="st1" d="M616.4,600.9l-108.1,24c-2.8,0.6-4.5,3.4-3.9,6.2l0,0c0.6,2.8,3.4,4.5,6.2,3.9l108.1-24
	c2.8-0.6,4.5-3.4,3.9-6.2l0,0C622,602,619.2,600.2,616.4,600.9z"/>
<path class="st1" d="M592.4,640.6l-55.2,12.3c-2.8,0.6-4.5,3.4-3.9,6.2l0,0c0.6,2.8,3.4,4.5,6.2,3.9l55.2-12.3
	c2.8-0.6,4.5-3.4,3.9-6.2l0,0C597.9,641.7,595.1,640,592.4,640.6z"/>
<path class="st0" d="M545.6,162L545.6,162c-3.8,0-6.9,3.1-6.9,6.9v45.4c0,3.8,3.1,6.9,6.9,6.9l0,0c3.8,0,6.9-3.1,6.9-6.9v-45.4
	C552.4,165.1,549.3,162,545.6,162z"/>
<path class="st0" d="M429.3,198.9L429.3,198.9c-3.1,2.2-3.9,6.5-1.8,9.6l25.8,37.4c2.2,3.1,6.5,3.9,9.6,1.8l0,0
	c3.1-2.2,3.9-6.5,1.8-9.6l-25.8-37.4C436.7,197.5,432.4,196.7,429.3,198.9z"/>
<path class="st0" d="M361.1,286.1L361.1,286.1c-1.5,3.4,0,7.5,3.4,9.1l41.3,18.8c3.4,1.5,7.5,0,9.1-3.4l0,0c1.5-3.4,0-7.5-3.4-9.1
	l-41.3-18.8C366.8,281,362.6,282.6,361.1,286.1z"/>
<path class="st0" d="M394.5,386.4L394.5,386.4c0-3.8-3.1-6.9-6.9-6.9h-45.4c-3.8,0-6.9,3.1-6.9,6.9l0,0c0,3.8,3.1,6.9,6.9,6.9h45.4
	C391.4,393.2,394.5,390.1,394.5,386.4z"/>
<path class="st0" d="M680.8,187.5L680.8,187.5c3.1,2.2,3.9,6.5,1.8,9.6l-25.8,37.4c-2.2,3.1-6.5,3.9-9.6,1.8l0,0
	c-3.1-2.2-3.9-6.5-1.8-9.6l25.8-37.4C673.4,186.2,677.7,185.4,680.8,187.5z"/>
<path class="st0" d="M749,274.6L749,274.6c1.5,3.4,0,7.5-3.4,9.1l-41.3,18.8c-3.4,1.5-7.5,0-9.1-3.4l0,0c-1.5-3.4,0-7.5,3.4-9.1
	l41.3-18.8C743.3,269.7,747.5,271.2,749,274.6z"/>
<path class="st0" d="M715.6,374.9L715.6,374.9c0-3.8,3.1-6.9,6.9-6.9h45.4c3.8,0,6.9,3.1,6.9,6.9l0,0c0,3.8-3.1,6.9-6.9,6.9h-45.4
	C718.7,381.9,715.6,378.8,715.6,374.9z"/>
<circle class="st2" cx="559.6" cy="405.2" r="363"/>
</svg>
