<?xml version="1.0" encoding="utf-8"?>
<!-- Generator: Adobe Illustrator 19.0.0, SVG Export Plug-In . SVG Version: 6.00 Build 0)  -->
<!DOCTYPE svg PUBLIC "-//W3C//DTD SVG 1.1//EN" "http://www.w3.org/Graphics/SVG/1.1/DTD/svg11.dtd">
<svg version="1.1" id="Layer_1" xmlns="http://www.w3.org/2000/svg" xmlns:xlink="http://www.w3.org/1999/xlink" x="0px" y="0px"
	 viewBox="-234 326.7 141.3 140.3" style="enable-background:new -234 326.7 141.3 140.3;" xml:space="preserve">
<style type="text/css">
	.st0{fill:none;stroke:#4F4F4F;stroke-width:4;stroke-miterlimit:10;}
	.st1{fill:#4F4F4F;}
</style>
<circle class="st0" cx="-163.4" cy="396.9" r="63.8"/>
<g id="RLFFoq.tif">
	<g>
		<path class="st1" d="M-131.5,422.1c-4.4,0-8.3,0-12.8,0c0-5.3,0-10.5,0-15.8c0-3.1,0.1-6.2-0.3-9.2c-0.5-4.5-2.8-6.7-6.5-6.6
			c-3.6,0.1-6.4,3-6.5,7.2c-0.2,6.4-0.1,12.8-0.1,19.2c0,1.6,0,3.2,0,5.1c-4.3,0-8.4,0-12.8,0c0-13.4,0-26.7,0-40.3
			c3.4,0,6.9,0,10.5,0c0.3,1.4,0.6,2.8,0.8,3.6c3.4-1.6,6.6-3.8,10-4.5c9.4-1.8,16.3,3.7,17.4,13.3c0.2,1.9,0.2,3.9,0.2,5.9
			C-131.5,407.3-131.5,414.5-131.5,422.1z"/>
		<path class="st1" d="M-190.6,381.6c4,0,7.9,0,12.1,0c0,13.4,0,26.7,0,40.3c-3.9,0-7.8,0-12.1,0
			C-190.6,408.7-190.6,395.4-190.6,381.6z"/>
		<path class="st1" d="M-184.7,376.1c-4.2-0.1-6.7-2.5-6.6-6.3c0.1-3.7,3.2-6.2,7.3-6.1c4,0.1,6.3,2.3,6.3,6.2
			C-177.7,373.8-180.2,376.2-184.7,376.1z"/>
	</g>
</g>
</svg>
