<?xml version="1.0" encoding="utf-8"?>
<!-- Generator: Adobe Illustrator 18.0.0, SVG Export Plug-In . SVG Version: 6.00 Build 0)  -->
<!DOCTYPE svg PUBLIC "-//W3C//DTD SVG 1.1//EN" "http://www.w3.org/Graphics/SVG/1.1/DTD/svg11.dtd">
<svg version="1.1" id="Layer_1" xmlns="http://www.w3.org/2000/svg" xmlns:xlink="http://www.w3.org/1999/xlink" x="0px" y="0px"
	 viewBox="186 82 679 646" enable-background="new 186 82 679 646" xml:space="preserve">
<circle fill="none" stroke="#EBE8DC" stroke-width="21" stroke-miterlimit="10" cx="534.3" cy="401" r="286.2"/>
<g id="RLFFoq.tif">
	<g>
		<path fill="#EBE8DC" d="M673.4,517.8c-19.9,0-37.4,0-57.3,0c0-23.7,0.1-47.2,0-70.7c-0.1-13.8,0.3-27.6-1.2-41.3
			c-2.2-20.2-12.6-30-29-29.5c-16,0.5-28.7,13.3-29.3,32.1c-0.9,28.6-0.4,57.3-0.5,86c0,7.1,0,14.2,0,22.7c-19.4,0-37.7,0-57.6,0
			c0-59.9,0-119.7,0-180.7c15.3,0,31,0,47.2,0c1.4,6.4,2.8,12.7,3.5,16.2c15.1-7,29.4-17.1,45-20.1c42.1-8.2,73.1,16.6,78,59.8
			c1,8.7,0.9,17.6,1,26.4C673.5,451.2,673.4,483.6,673.4,517.8z"/>
		<path fill="#EBE8DC" d="M408.6,336c18.1,0,35.6,0,54.2,0c0,60,0,119.8,0,181c-17.3,0-35.1,0-54.2,0
			C408.6,457.6,408.6,397.8,408.6,336z"/>
		<path fill="#EBE8DC" d="M434.8,311.1c-18.7-0.4-30.2-11.4-29.5-28.2c0.6-16.5,14.4-28,32.8-27.5c18.1,0.6,28.1,10.4,28.1,27.6
			C466.2,301,454.4,311.6,434.8,311.1z"/>
	</g>
</g>
</svg>
