<?xml version="1.0" encoding="utf-8"?>
<!-- Generator: Adobe Illustrator 18.0.0, SVG Export Plug-In . SVG Version: 6.00 Build 0)  -->
<!DOCTYPE svg PUBLIC "-//W3C//DTD SVG 1.1//EN" "http://www.w3.org/Graphics/SVG/1.1/DTD/svg11.dtd">
<svg version="1.1" id="Layer_1" xmlns="http://www.w3.org/2000/svg" xmlns:xlink="http://www.w3.org/1999/xlink" x="0px" y="0px"
	 viewBox="0 0 352.8 239.2" enable-background="new 0 0 352.8 239.2" xml:space="preserve">
<rect x="-562.6" y="-30.8" fill="#EBE8DC" width="270" height="162"/>
<g>
	<path fill="#414143" d="M-349.5,21.8c1.9-0.5,2.8-1.2,2.9-1.4c0,0,0,0,0,0c2.4-3.4,0.2-6.9,0-7.2c-0.4-0.4-0.8-0.8-1.2-1.2l0,0
		c-0.7-0.1-1.1,0.4-1.1,0.4c-0.6,1.2-1.2,2.3-2.2,3.1c-0.7,0.4-1.6,0.3-2.3,0c-1-0.4-1.2-1.4-1.2-2.3c-0.1-1.9-0.1-3.7,0.6-5.5
		c0.5-1.3,1-2.7,1.4-4c0.4-1.4,0.5-2.8-0.6-3.9c-0.6-0.6-1.4-0.9-2-1.3c-1.3-0.8-2.8-0.5-3.5,0.8c-3.2-0.6-6.3-0.1-9.2,1.4
		c-2.3,1.2-4.2,2.8-5.2,5.3c-1.1,2.8-1.1,5.6-0.6,8.5c0.3,1.5-0.3,3-1.6,3.5c-0.8,0.3-1.5,0.3-2-0.7c-0.7-1.5-0.4-3-0.1-4.4
		c0.7-2.6,1.5-5.1,2.3-7.6c0.5-1.7,0.3-3.3-1.2-4.4c-0.8-0.6-1.6-1-2.4-1.6c-0.8-0.5-1.1-0.1-1.4,0.6c-0.8,2-1.7,3.9-2.5,5.8
		c-1.4,3.2-3.3,6.1-4.2,9.5c-0.4,1.7-1.3,3.2-2,4.8c-0.1,0-0.1,0-0.2,0c0-0.2-0.1-0.4,0-0.6c0.5-2.3,1-4.6,1.5-6.9
		c0.3-1.2,0.8-2.3,1-3.4c0.6-3-0.8-5.4-3.7-6.2c-0.6-0.2-1-0.2-1.2,0.5c-1.4,5.1-2.8,10.3-3,15.6c-0.1,1.8,0,3.8-1.4,5.3
		c-0.3,0.3-0.9,0.8-1.1,0.7c-0.4-0.2-0.8-0.7-1-1.2c-0.2-0.4-0.1-0.9-0.1-1.3c0.1-3.9,1.3-7.6,2.3-11.4c0.3-1.2,0.5-2.5-0.4-3.4
		c-1-1.1-2.3-1.9-3.6-2.8c-0.9-0.6-1.4-0.1-1.9,0.7c-0.2,0.3-0.5,0.6-0.9,0.7c-1.5,0.3-3.1,0.3-4.6,0.6c-3.6,0.8-6.4,2.8-8.1,6.2
		c-1.5,3.2-1.5,6.5-1.4,9.9c0.1,2.1-1,4.1-2.9,5c-1,0.5-1.6,0.3-1.8-0.8c-0.2-0.9-0.3-1.9-0.3-2.9c0.2-2.9,1-5.6,2-8.4
		c0.3-1,0.7-2,0.6-3c-0.2-2.5-0.9-3.4-4.4-4.3c-0.8-0.2-1.2,0-1.4,0.8c-0.6,3.5-1.3,7.1-1.9,10.6c-0.3,2.3-0.4,4.7-0.6,7
		c-0.1,0.9-1.1,1.8-1.9,1.8c-0.8,0-1.6-0.8-1.5-1.8c0-1.3,0-2.7,0.4-4c0.6-2.2,1.6-4.4,2.3-6.6c0.4-1.2,0.6-2.5,0.7-3.7
		c0.1-2-1.6-4-3.5-4.4c-1.2-0.2-1.5,0-1.4,1.2c0.1,1.8-0.7,3-2.3,3.5c-1,0.3-2.1,0.3-3.2,0.5c-0.9,0.1-1.3-0.2-0.9-1.2
		c0.4-0.8,0-1.3-0.8-1.2c-1.4,0.1-2.8,0.2-4.2,0.5c-1.3,0.2-1.9,1.1-1.6,2.4c0.2,1,0.6,2,0.9,3c0.3,0.8,0.8,1.7,0.8,2.5
		c0,1.9-0.2,3.7-0.5,5.6c-0.4,2.4-1.6,4.4-3.2,6.2c-0.8,0.8-1.4,0.7-1.7-0.4c-0.3-1-0.6-2.1-0.5-3.1c0.3-3.4,0.7-6.8,1.1-10.3
		c0.4-3.2,1.5-6.1,3-8.8c1.2-2.2,1.6-4,0-5.7c-0.7-0.7-1.7-1.2-2.6-1.7c-1.8-1-2.6-0.6-2.9,1.4c0,0.1,0,0.3-0.1,0.4
		c-0.7,3.4-1.5,6.7-2.2,10.1c-0.2,1.2-0.9,1.7-2.1,1.7c-3.2,0-5.6,1.6-7.5,3.9c-3.4,4.2-4.8,9-3.1,14.4c0.2,0.6-0.1,1.5-0.5,2
		c-1.3,1.7-4.4,1.6-5.6-0.3c-1.8-2.7-2.4-5.7-2.3-8.9c0-0.9,0.3-1.4,1.3-1.7c2.2-0.8,4.2-3.9,4.2-6.1c0-1-0.4-1.4-1.4-1.2
		c-0.6,0.1-1.1,0.2-1.7,0.3c-0.8,0.1-1.1-0.3-0.9-1.1c0.2-1,0.4-2.1,0.7-3.1c0.6-2.3,1.3-4.6,1.9-6.9c0.6-2.3-0.6-4.6-2.6-4.9
		c-2.3-0.3-4.6,0.1-6.5,1.4c-3.7,2.6-5.9,6.2-7.2,10.4c-1,3.3-1.6,6.8-2.5,10.1c-1,3.6-2.1,7.1-3.4,10.5c-0.6,1.5-1.6,3.1-2.9,4.1
		c-2.8,2.3-6,2.8-9.7,2.2c-3.5-0.6-6.3-2.1-9-4.3c-1.3-1.1-2.8-2.1-4.2-2.9c-1.3-0.8-2.7-0.1-2.7,1.5c0,1.4,0,2.8,0.3,4.1
		c0.4,1.4,0.8,3.1,1.8,4.1c1.3,1.3,3,2.2,4.6,3.1c3.7,2,7.7,2.7,11.8,2.6c1.4,0,2.9,0,4.2-0.5c3.3-1.2,6.1-3.1,8.2-6.2
		c3-4.5,5.7-9.1,7-14.5c0.5-2.2,0.6-2.2,3-2.1c0.1,0,0.2,0,0.3,0c0.7,0,0.9,0.3,0.9,1c0,1.4,0.1,2.8,0.2,4.3c0.2,3.4,1,6.6,4.2,8.6
		c2.3,1.4,4.6,2.4,7.1,0.9c1-0.5,1.9-1.2,2.7-2c0.6-0.6,1.1-0.6,1.9-0.4c1.8,0.4,3.6,0.8,5.4,0.9c1.2,0,2.6-0.4,3.4-1.1
		c1.3-1.1,2.5-1.3,4.1-1.1c2,0.2,3.8-0.4,5.1-2.2c2.4-3.3,3.6-7.1,4.5-10.9c1-4.1,0.4-3.3,4.3-3.7c0.1,0,0.1,0,0.3,0.1
		c0,0.3,0,0.7-0.1,1c-0.6,2.4-0.4,4.9,0.3,7.2c0.5,1.7,1,3.5,2.8,4.2c2.1,0.9,4.4,1,6.4-0.2c1.1-0.6,1.9-0.5,2.9,0
		c2.2,1.1,4.3,0.7,6.2-0.7c0.8-0.6,1.6-1.1,2.3-1.8c0.6-0.5,1-0.6,1.7-0.2c2.9,1.5,5.9,1.8,8.8,0.1c1.3-0.8,2.5-0.8,3.9-0.2
		c2.3,1,4.4,0.7,6.3-1c0.7-0.6,1.3-0.7,2.2-0.2c1.4,0.8,2.9,0.6,3.8-0.3c1.3-1.3,2-2.9,2.5-4.7c0.6-2.3,1.4-4.5,2.1-6.8
		c0-0.1,0.2-0.2,0.4-0.4c0.5,1.5,0.8,2.8,1.3,4.1c1.4,3.4,4.8,4.3,7.6,2.1c0.8-0.7,1.6-1.4,2.3-2.1c1.1,0.8,2,1.7,3.1,2.1
		c3,1.1,5.9,1,8.7-0.7c0.4-0.3,1.1-0.5,1.5-0.3c0.1,0.1,0.2,0.1,0.3,0.2C-358.3,21-353.3,22.5-349.5,21.8z M-477.5,16.2
		c-0.1,0.5-0.2,1.1-0.4,1.6c-0.2,0.4-0.5,0.8-0.9,0.9c-1.8,0.4-2.1,0.1-1.5-1.7c0.4-1.3,0.8-2.7,1.3-4c0.1-0.4,0.3-0.8,0.6-1
		c0.3-0.3,0.8-0.5,1.1-0.5c0.2,0,0.4,0.6,0.7,0.9C-476.9,13.6-477.2,14.9-477.5,16.2z M-455.1,28.8c0,1.1,0,2.2-0.1,3.2
		c-0.1,1.6-0.2,1.7-1.8,2.1c-2,0.5-4.1-0.2-4.6-1.8c-0.5-1.6-0.5-3.2-0.2-4.9c0.5-2.6,2.3-4.2,4.2-5.7c0.7-0.5,1.6-0.6,2.6-1
		C-455,23.6-455.1,26.2-455.1,28.8z M-403.6,13.7c-0.1,1.1-0.4,2.3-0.4,3.4c0,2.1,0,4.3,0.1,6.4c0.1,1-0.1,1.8-1,2.2
		c-1.4,0.6-2.8,1.2-4.2,1.3c-1.7,0.1-2.5-0.8-2.9-2.5c-0.1-0.4-0.1-0.7-0.2-1.1c-0.3-3.5,0.3-6.8,2.7-9.1c0.6-0.5,1.2-1,2-1.4
		c0.8-0.4,1.8-0.6,2.7-0.7C-403.7,12.2-403.5,12.5-403.6,13.7z M-360.8,6.5c0,3.2,0.1,6.3,0.2,9.5c0,0.9-0.2,1.5-0.9,1.9
		c-3.5,2.3-6.6,0.2-6.7-2c-0.4-3.9,0.4-6.6,2.2-9.1c1-1.3,2.8-1.8,4.3-1.4C-361,5.6-360.8,5.8-360.8,6.5z"/>
	<path fill="#414143" d="M-423.4,7.3c3.3,0.9,5.6-1.4,5.7-4.6c0-1-0.5-1.3-1.5-1.2c-1.2,0.3-2.4,0.7-3.5,1c-1.5,0.4-2.3,1.8-1.9,3.2
		C-424.5,6.3-424,7.1-423.4,7.3z"/>
</g>
<g>
	<g>
		<path fill="#414143" d="M-402.9,47.6c3.3,0.9,5.6-1.4,5.7-4.6c0-1-0.5-1.3-1.5-1.2c-1.2,0.3-2.4,0.7-3.5,1
			c-1.5,0.4-2.3,1.8-1.9,3.2C-404,46.7-403.4,47.5-402.9,47.6z"/>
		<path fill="#414143" d="M-357.2,38.8c3.3,0.9,5.6-1.4,5.7-4.6c0-1-0.5-1.3-1.5-1.2c-1.2,0.3-2.4,0.7-3.5,1
			c-1.5,0.4-2.3,1.8-1.9,3.2C-358.3,37.9-357.7,38.7-357.2,38.8z"/>
		<path fill="#414143" d="M-343.5,59.6c-0.5-2.5-2.1-4.2-3.9-5.9l0,0c-0.7-0.1-1.1,0.4-1.1,0.4c-0.8,1.7-1.8,3.2-3.5,4.1
			c-1.3,0.7-2.3,0.1-2.4-1.3c-0.1-0.9-0.2-1.9,0-2.9c0.4-2.4,0.9-4.8,1.4-7.1c0.7-3.2,0.1-3.8-2.1-5.3c-0.7-0.5-1.5-0.7-2.2-1
			c-1-0.4-1.2-0.3-1.3,0.8c-0.3,1.7-0.6,3.4-0.8,5.1c-0.3,2.5-0.6,5.1-0.9,7.6c0,0.3-0.1,0.7,0,1.1c0.5,1.7-0.1,3.1-1,4.4
			c-0.5,0.7-1.4,0.7-1.8-0.1c-0.4-0.9-0.8-2-0.8-3c0-3,1.2-5.8,2.1-8.5c0.7-2,1.7-4,0-5.9c-1-1.2-2.3-2.1-3.5-3.1
			c-0.2-0.2-0.7-0.1-0.9-0.1c-0.4,1.6-0.8,3-1.2,4.4c-0.1,0.3-0.5,0.7-0.9,0.8c-1.4,0.4-2.8,0.6-4.4,0.9c0.2-0.8,0.4-1.3,0.6-2
			c-0.2-0.1-0.5-0.2-0.8-0.3c-2-0.2-3.8,0.2-5.6,1.1c-1.1,0.5-1.4,1.2-0.9,2.2c0.7,1.3,1.6,2.6,2.4,3.9c0.2,0.3,0.3,0.6,0.5,0.9
			c-1,7.6-5.9,13.4-5.9,13.4c-3,2.4-6.1,0.5-7.8-1.1c-0.2-0.2-0.8-1-0.7-3.1l0,0c0.7-0.1,1.3-0.1,2-0.1c5.5-0.3,8.6-3.1,9.1-8.5
			c0.4-3.5-2.6-6.5-6.1-6.1c-2.9,0.3-5.3,1.7-7,3.9c-3.5,4.2-4.6,8.9-2.5,14.1c0.1,0.3,0.3,0.7,0.1,1c-0.5,1.3-1.3,2.3-2.5,3
			c-2,1-3.3,0.2-3-2c0.4-2.7,1.1-5.5,1.6-8.2c0.2-1.1,0.7-2.3,0.7-3.4c0-2.2-2.4-4.4-4.6-4.3c-0.3,0-0.8,0.4-0.8,0.6
			c-0.3,1.1-0.5,2.3-0.8,3.4c-0.3,1.1-0.9,2.1-1,3.2c-0.2,2.8-0.2,5.6-0.3,8.4c0,0.9-0.3,1.9-0.6,2.8c-0.3,0.9-1,1.5-1.8,1.3
			c-0.6-0.1-1.2-0.8-1.5-1.3c-1-1.9-0.4-3.9,0.2-5.7c0.6-2.1,1.6-4.1,2.3-6.2c1.3-3.8,1-5.2-1.8-7c-0.2-0.2-0.5-0.3-0.7-0.4
			c-0.9-0.5-1.2-0.5-1.6,0.5c-0.3,0.6-0.4,1.3-0.7,1.9c-0.8,1.4-2,2.7-2.6,4.2c-1.4,3.4-2.5,6.9-3.8,10.3c-0.4,1.1-0.9,2.1-1.3,3.2
			c-0.1,0-0.2-0.1-0.3-0.1c0-0.1,0-0.3,0-0.4c0.8-2.9,1.5-5.9,2.3-8.8c0.4-1.3,0.6-2.4,0.1-3.7c-0.8-2.1-2.7-2.7-4.4-3.6
			c-0.6-0.3-0.8,0.2-0.8,0.6c0.1,2-0.7,3.9-1.3,5.8c-1.3,4-1.6,8.1-1.6,12.2c0,1.3-0.5,2.5-1,3.7c-0.2,0.4-1.1,1-1.4,0.9
			c-0.5-0.2-0.9-0.9-1-1.5c-0.6-3.6,0.2-6.9,1.6-10.2c1.7-3.9,0.1-6.8-3.6-8.5c-0.4-0.2-1-0.4-1.2,0.4c-0.1,0.2-0.5,0.4-0.8,0.4
			c-1.4,0.1-2.8,0-4.1,0.2c-4,0.8-6.9,2.9-8.3,6.9c-0.3,0.7-0.3,1.5-0.5,2.3c-0.8,2.3-0.7,4.6-0.6,7c0,1-0.2,2.1-0.5,3.1
			c-0.2,0.7-0.9,1.5-1.7,1.3c-0.6-0.2-1.2-0.9-1.4-1.6c-0.5-2-0.2-4,0.4-5.9c0.7-2.4,1.5-4.8,2.2-7.3c0.5-1.9,0.1-3.6-1.6-4.7
			c-1-0.7-2.2-1.1-3.4-1.5c-1-0.3-1.2-0.1-1.1,1c0.1,0.9,0.3,1.9,0,2.7c-0.4,1.4-2.4,2.1-4.2,1.5c0.4-1.1,0.3-1.4-0.8-1.8
			c-0.4-0.1-0.8-0.3-1.1-0.2c-1.7,0.2-3.4,0.5-5.1,0.9c-1.1,1.3,0.1,2.8,0.1,2.8c1.6,2.8,1.2,3.8,1.2,3.8c0,1.2-1.9,6.1-1.9,6.1
			c-0.5,1.1-0.6,1-0.6,1c-0.7,0.1-0.8-0.9-0.8-0.9c-0.2-0.8-0.4-1.6-0.4-2.5c0-1.2,0.2-2.4,0.4-3.6c0.1-0.9-0.2-1.2-1.1-1
			c-1.8,0.5-3.6,0.9-5.4,1.5c-1.7,0.5-2.1,0.8-1.9,2.7c0.2,2.1-0.3,4-0.9,6c-1.4,4.6-4.2,8.1-9.2,8.9c-3.9,0.7-6.6-0.3-7.9-3.9
			c-0.5-1.3-0.7-2.7-0.6-4.1c0.4-4.4,2.2-8.3,4.1-12.2c1.2-2.5,0.7-2.4,3.6-1.7c0.3,0.1,0.6,0.1,0.8,0.2c4.2,1.1,8.2,1,12.2-0.8
			c4.2-1.9,6.6-4.9,6.5-9.7c-0.1-2.3-1.6-5.1-4.1-5.8c-3.4-0.9-6.7-0.4-10.1,0.2c-3.1,0.5-5.7,1.9-7.8,4.2c-1.2,1.3-2.3,2.8-3.6,4.1
			c-0.4,0.4-1,0.8-1.6,0.8c-2.7,0.4-5.5,0.6-8.3,1.1c-3.2,0.6-6.2,1.5-8.9,3.4c-1.1,0.8-2.4,1.6-3.1,2.7c-1.6,2.5-1.7,5.4-0.8,8.2
			c0.1,0.4,0.5,0.9,0.8,1.1c0.2,0.1,0.7-0.3,1-0.6c1.3-1.4,2.3-3,3.8-4.1c2.6-2.1,5.3-3.9,8.5-4.8c1.4-0.4,2.8-1.2,4.4-0.8
			c-0.1,0.4-0.2,0.7-0.3,1c-0.5,1.5-1.1,3-1.4,4.5c-1,4.5-2,8.9-1.9,13.6c0,3.6,1.2,6.5,4.2,8.6c2.6,1.7,5.6,2,8.6,1.7
			c5.2-0.6,9.2-3.6,12.4-7.6c0.7-0.9,1.4-1.9,2.1-2.9c0.1,0,0.2,0.1,0.4,0.1c-0.1,0.8,0.1,1.8-0.3,2.5c-0.7,1.3-1.5,2.6-2.4,3.8
			c-2.4,3.3-4.7,6.7-6.1,10.6c-0.7,1.8-1.1,3.8-0.5,5.8c0.5,1.6,1.2,3.2,2.9,3.9c2.1,0.9,4.3,0.7,6.3-0.4c2.9-1.7,4.8-4.3,6.4-7.1
			c0.3-0.6,0.6-1.2,0.7-1.9c0.9-4.6,1.1-9.1,0.3-13.7c-0.1-0.7,0.1-1.6,0.4-2.2c1.6-3.6,3.6-6.9,4.4-10.9c0.2-1,0.6-2,1-2.9
			c0.1-0.3,0.4-0.6,0.7-0.7c0.9-0.2,1.8-0.3,2.8-0.4c0,0.2,0,0.4,0,0.6c-0.1,2.3-0.3,4.6-0.3,6.8c0,4,3.5,7.1,7.2,6.3
			c1.2-0.3,2.3-0.7,3.1-1.7c0.5-0.6,1-0.8,1.8-0.2c1,0.6,2.1,1.1,3.2,1.2c2.3,0.3,4.3-0.7,6.2-1.7c0.8-0.4,1.3-0.4,2,0.2
			c1.2,1,2.6,1.4,4,0.7c1.3-0.6,2.5-1.5,3.8-2.2c0.3-0.2,0.9-0.3,1.2-0.1c1.8,1.3,3.8,0.9,4.7-1.2c0.9-2.2,1.6-4.5,2.4-6.8
			c0.5-1.4,0.9-2.8,1.3-4.2c0.1,0,0.3,0,0.4,0.1c0.2,1.2,0.1,2.5,0.5,3.6c0.9,2.7,4.2,5.1,7.3,3.7c0.9-0.4,1.7-0.9,2.5-1.4
			c0.7-0.5,1.1-0.6,1.9-0.1c1.2,0.7,2.5,1.3,4.1,1c2-0.3,3.6-1.2,4.9-2.7c0.9-1.1,1.7-1.2,2.9-0.4c0.5,0.4,1.1,0.6,1.8,0.8h0
			c0,0,6,2.2,10-2.2c2.7-2.9,4.7-6.2,5.6-10.1c0.4-1.7,0.8-3.4,1.2-5.1c0.3-1.2,1.3-1,2.1-0.9c0.4,0,0.9,0.7,1,1.2
			c0.2,0.8,0.1,1.6,0,2.4c-0.2,2.7,0,5.3,1.3,7.6c0.7,1.2,1.6,2.2,3,2.5c1.6,0.3,3.1-0.1,4.5-0.9c1-0.6,1.8-1.4,2.7-2.1
			c2.2,2.2,4.9,1.8,7.5,1.8c-0.1,0.4-0.2,0.8-0.3,1.1c-1.3,2.9-3,5.3-5.5,7.4c-2.7,2.2-5.6,3.9-8.7,5.3c-2.6,1.2-5.3,1.6-8.1,2
			c-2.5,0.4-5.1,0.9-7.6,1c-4.8,0.1-9.6-0.1-14.4-0.2c-4.9-0.1-9.8-0.5-14.6,0.2c-5,0.7-10.1,1.2-15.1,2c-3.6,0.6-7,1.5-10.6,2.2
			c-5.4,1.1-10.7,2.4-15.7,4.7c-2.7,1.2-5.2,2.8-7.3,5c-1,1.1-1.8,2.3-2.8,3.4c-1.6,1.8-3.3,3.7-4.9,5.5c-0.3,0.3-0.6,0.9-0.5,1
			c0.3,0.4,0.8,1,1.3,1.1c1.3,0.2,2.6,0.2,3.8,0c3-0.4,5.4-2,7.7-4c1-0.9,1.9-2.1,3-2.9c3.4-2.4,7.2-4.4,11.1-5.9c3-1.1,6-2.1,9-3.1
			c2.4-0.8,4.9-1.6,7.4-1.9c4.7-0.7,9.4-1.1,14-1.7c1.2-0.1,2.4-0.2,3.6-0.2c7.3,0.3,14.5,0.7,21.7,1.1c4.8,0.3,9.6,0.1,14.2-1.3
			c4.2-1.2,8.2-2.8,12-5c3.2-1.8,6.4-3.5,8.5-6.6c1.4-2,2.9-4.1,4-6.3C-343.5,65.1-343,62.4-343.5,59.6z M-387.4,51.2
			c0.4-0.2,0.9,0,1.4-0.1c0,0.4,0.1,0.9-0.1,1.3c-1,1.9-2.4,3.2-4.8,3.4C-390.3,53.7-389.4,52-387.4,51.2z M-481.1,54
			c1.9-0.4,3.8-0.5,5.7-0.5c0.7,0,1.7,0.2,1.7,1.1c0,0.7-0.6,1.3-1,1.9c-0.1,0.2-0.4,0.2-0.6,0.3c-3.3,1-6.6,1-10.2,0.1
			C-484.1,55.5-482.8,54.4-481.1,54z M-471.5,96.9c-0.3,1.1-0.7,2.1-1.2,3.1c-0.2,0.4-0.7,0.6-1.1,0.8c-0.1-0.4-0.5-0.8-0.4-1.2
			c0.5-2.1,1.2-4.2,1.8-6.3c0.1-0.3,0.5-0.6,0.8-0.5c0.2,0,0.5,0.4,0.7,0.6C-471.1,94.6-471.2,95.8-471.5,96.9z M-434.8,63.1
			c-0.2,2.5-0.4,5-0.7,7.5c0,0.4,0,0.9,0,1.3c-0.2,1.9-1.4,3-3.4,3.3c-1.5,0.2-2.5-0.4-3-1.8c-1.5-4-0.3-8.7,3.3-10.7
			c0.9-0.5,2.1-0.6,3.2-0.7C-435.3,62-434.8,62.7-434.8,63.1z"/>
	</g>
	<path fill="#EBE8DC" d="M-404.8,53.4c0,0-1.2,11.3-1.5,12.6s-1.6-0.6-1.6-0.6l1-8.8L-404.8,53.4z"/>
</g>
<rect x="-892.7" y="-24.8" fill="#414143" width="270" height="162"/>
<g>
	<g>
		<path fill="#EBE8DC" d="M-738.6,52.1c3.3,0.9,5.6-1.4,5.7-4.6c0-1-0.5-1.3-1.5-1.2c-1.2,0.3-2.4,0.7-3.5,1
			c-1.5,0.4-2.3,1.8-1.9,3.2C-739.7,51.1-739.1,51.9-738.6,52.1z"/>
		<path fill="#EBE8DC" d="M-692.9,43.3c3.3,0.9,5.6-1.4,5.7-4.6c0-1-0.5-1.3-1.5-1.2c-1.2,0.3-2.4,0.7-3.5,1
			c-1.5,0.4-2.3,1.8-1.9,3.2C-693.9,42.3-693.4,43.1-692.9,43.3z"/>
		<path fill="#EBE8DC" d="M-679.2,64.1c-0.5-2.5-2.1-4.2-3.9-5.9v0c-0.7-0.1-1.1,0.4-1.1,0.4c-0.8,1.7-1.8,3.2-3.5,4.1
			c-1.3,0.7-2.3,0.1-2.4-1.3c-0.1-0.9-0.2-1.9,0-2.9c0.4-2.4,0.9-4.8,1.4-7.1c0.7-3.2,0.1-3.8-2.1-5.3c-0.7-0.5-1.5-0.7-2.2-1
			c-1-0.4-1.2-0.3-1.3,0.8c-0.3,1.7-0.6,3.4-0.8,5.1c-0.3,2.5-0.6,5.1-0.9,7.6c0,0.3-0.1,0.7,0,1.1c0.5,1.7-0.1,3.1-1,4.4
			c-0.5,0.7-1.4,0.7-1.8-0.1c-0.4-0.9-0.8-2-0.8-3c0-3,1.2-5.8,2.1-8.5c0.7-2,1.7-4,0-5.9c-1-1.2-2.3-2.1-3.5-3.1
			c-0.2-0.2-0.7-0.1-0.9-0.1c-0.4,1.6-0.8,3-1.2,4.4c-0.1,0.3-0.5,0.7-0.9,0.8c-1.4,0.4-2.8,0.6-4.4,0.9c0.2-0.8,0.4-1.3,0.6-2
			c-0.2-0.1-0.5-0.2-0.8-0.3c-2-0.2-3.8,0.2-5.6,1.1c-1.1,0.5-1.4,1.2-0.9,2.2c0.7,1.3,1.6,2.6,2.4,3.9c0.2,0.3,0.3,0.6,0.5,0.9
			c-1,7.6-5.9,13.4-5.9,13.4c-3,2.4-6.1,0.5-7.8-1.1c-0.2-0.2-0.8-1-0.7-3.1l0,0c0.7-0.1,1.3-0.1,2-0.1c5.5-0.3,8.6-3.1,9.1-8.5
			c0.4-3.5-2.6-6.5-6.1-6.1c-2.9,0.3-5.3,1.7-7,3.9c-3.5,4.2-4.6,8.9-2.5,14.1c0.1,0.3,0.3,0.7,0.1,1c-0.5,1.3-1.3,2.3-2.5,3
			c-2,1-3.3,0.2-3-2c0.4-2.7,1.1-5.5,1.6-8.2c0.2-1.1,0.7-2.3,0.7-3.4c0-2.2-2.4-4.4-4.6-4.3c-0.3,0-0.8,0.4-0.8,0.6
			c-0.3,1.1-0.5,2.3-0.8,3.4c-0.3,1.1-0.9,2.1-1,3.2c-0.2,2.8-0.2,5.6-0.3,8.4c0,0.9-0.3,1.9-0.6,2.8c-0.3,0.9-1,1.5-1.8,1.3
			c-0.6-0.1-1.2-0.8-1.5-1.3c-1-1.9-0.4-3.9,0.2-5.7c0.6-2.1,1.6-4.1,2.3-6.2c1.3-3.8,1-5.2-1.8-7c-0.2-0.2-0.5-0.3-0.7-0.4
			c-0.9-0.5-1.2-0.5-1.6,0.5c-0.3,0.6-0.4,1.3-0.7,1.9c-0.8,1.4-2,2.7-2.6,4.2c-1.4,3.4-2.5,6.9-3.8,10.3c-0.4,1.1-0.9,2.1-1.3,3.2
			c-0.1,0-0.2-0.1-0.3-0.1c0-0.1,0-0.3,0-0.4c0.8-2.9,1.5-5.9,2.3-8.8c0.4-1.3,0.6-2.4,0.1-3.7c-0.8-2.1-2.7-2.7-4.4-3.6
			c-0.6-0.3-0.8,0.2-0.8,0.6c0.1,2-0.7,3.9-1.3,5.8c-1.3,4-1.6,8.1-1.6,12.2c0,1.3-0.5,2.5-1,3.7c-0.2,0.4-1.1,1-1.4,0.9
			c-0.5-0.2-0.9-0.9-1-1.5c-0.6-3.6,0.2-6.9,1.6-10.2c1.7-3.9,0.1-6.8-3.6-8.5c-0.4-0.2-1-0.4-1.2,0.4c-0.1,0.2-0.5,0.4-0.8,0.4
			c-1.4,0.1-2.8,0-4.1,0.2c-4,0.8-6.9,2.9-8.3,6.9c-0.3,0.7-0.3,1.5-0.5,2.3c-0.8,2.3-0.7,4.6-0.6,7c0,1-0.2,2.1-0.5,3.1
			c-0.2,0.7-0.9,1.5-1.7,1.3c-0.6-0.2-1.2-0.9-1.4-1.6c-0.5-2-0.2-4,0.4-5.9c0.7-2.4,1.5-4.8,2.2-7.3c0.5-1.9,0.1-3.6-1.6-4.7
			c-1-0.7-2.2-1.1-3.4-1.5c-1-0.3-1.2-0.1-1.1,1c0.1,0.9,0.3,1.9,0,2.7c-0.4,1.4-2.4,2.1-4.2,1.5c0.4-1.1,0.3-1.4-0.8-1.8
			c-0.4-0.1-0.8-0.3-1.1-0.2c-1.7,0.2-3.4,0.5-5.1,0.9c-1.1,1.3,0.1,2.8,0.1,2.8c1.6,2.8,1.2,3.8,1.2,3.8c0,1.2-1.9,6.1-1.9,6.1
			c-0.5,1.1-0.6,1-0.6,1c-0.7,0.1-0.8-0.9-0.8-0.9c-0.2-0.8-0.4-1.6-0.4-2.5c0-1.2,0.2-2.4,0.4-3.6c0.1-0.9-0.2-1.2-1.1-1
			c-1.8,0.5-3.6,0.9-5.4,1.5c-1.7,0.5-2.1,0.8-1.9,2.7c0.2,2.1-0.3,4-0.9,6c-1.4,4.6-4.2,8.1-9.2,8.9c-3.9,0.7-6.6-0.3-7.9-3.9
			c-0.5-1.3-0.7-2.7-0.6-4.1c0.4-4.4,2.2-8.3,4.1-12.2c1.2-2.5,0.7-2.4,3.6-1.7c0.3,0.1,0.6,0.1,0.8,0.2c4.2,1.1,8.2,1,12.2-0.8
			c4.2-1.9,6.6-4.9,6.5-9.7c-0.1-2.3-1.6-5.1-4.1-5.8c-3.4-0.9-6.7-0.4-10.1,0.2c-3.1,0.5-5.7,1.9-7.8,4.2c-1.2,1.3-2.3,2.8-3.6,4.1
			c-0.4,0.4-1,0.8-1.6,0.8c-2.7,0.4-5.5,0.6-8.3,1.1c-3.2,0.6-6.2,1.5-8.9,3.4c-1.1,0.8-2.4,1.6-3.1,2.7c-1.6,2.5-1.7,5.4-0.8,8.2
			c0.1,0.4,0.5,0.9,0.8,1.1c0.2,0.1,0.7-0.3,1-0.6c1.3-1.4,2.3-3,3.8-4.1c2.6-2.1,5.3-3.9,8.5-4.8c1.4-0.4,2.8-1.2,4.4-0.8
			c-0.1,0.4-0.2,0.7-0.3,1c-0.5,1.5-1.1,3-1.4,4.5c-1,4.5-2,8.9-1.9,13.6c0,3.6,1.2,6.5,4.2,8.6c2.6,1.7,5.6,2,8.6,1.7
			c5.2-0.6,9.2-3.6,12.4-7.6c0.7-0.9,1.4-1.9,2.1-2.9c0.1,0,0.2,0.1,0.4,0.1c-0.1,0.8,0.1,1.8-0.3,2.5c-0.7,1.3-1.5,2.6-2.4,3.8
			c-2.4,3.3-4.7,6.7-6.1,10.6c-0.7,1.8-1.1,3.8-0.5,5.8c0.5,1.6,1.2,3.2,2.9,3.9c2.1,0.9,4.3,0.7,6.3-0.4c2.9-1.7,4.8-4.3,6.4-7.1
			c0.3-0.6,0.6-1.2,0.7-1.9c0.9-4.6,1.1-9.1,0.3-13.7c-0.1-0.7,0.1-1.6,0.4-2.2c1.6-3.6,3.6-6.9,4.4-10.9c0.2-1,0.6-2,1-2.9
			c0.1-0.3,0.4-0.6,0.7-0.7c0.9-0.2,1.8-0.3,2.8-0.4c0,0.2,0,0.4,0,0.6c-0.1,2.3-0.3,4.6-0.3,6.8c0,4,3.5,7.1,7.2,6.3
			c1.2-0.3,2.3-0.7,3.1-1.7c0.5-0.6,1-0.8,1.8-0.2c1,0.6,2.1,1.1,3.2,1.2c2.3,0.3,4.3-0.7,6.2-1.7c0.8-0.4,1.3-0.4,2,0.2
			c1.2,1,2.6,1.4,4,0.7c1.3-0.6,2.5-1.5,3.8-2.2c0.3-0.2,0.9-0.3,1.2-0.1c1.8,1.3,3.8,0.9,4.7-1.2c0.9-2.2,1.6-4.5,2.4-6.8
			c0.5-1.4,0.9-2.8,1.3-4.2c0.1,0,0.3,0,0.4,0.1c0.2,1.2,0.1,2.5,0.5,3.6c0.9,2.7,4.2,5.1,7.3,3.7c0.9-0.4,1.7-0.9,2.5-1.4
			c0.7-0.5,1.1-0.6,1.9-0.1c1.2,0.7,2.5,1.3,4.1,1c2-0.3,3.6-1.2,4.9-2.7c0.9-1.1,1.7-1.2,2.9-0.4c0.5,0.4,1.1,0.6,1.8,0.8v0
			c0,0,6,2.2,10-2.2c2.7-2.9,4.7-6.2,5.6-10.1c0.4-1.7,0.8-3.4,1.2-5.1c0.3-1.2,1.3-1,2.1-0.9c0.4,0,0.9,0.7,1,1.2
			c0.2,0.8,0.1,1.6,0,2.4c-0.2,2.7,0,5.3,1.3,7.6c0.7,1.2,1.6,2.2,3,2.5c1.6,0.3,3.1-0.1,4.5-0.9c1-0.6,1.8-1.4,2.7-2.1
			c2.2,2.2,4.9,1.8,7.5,1.8c-0.1,0.4-0.2,0.8-0.3,1.1c-1.3,2.9-3,5.3-5.5,7.4c-2.7,2.2-5.6,3.9-8.7,5.3c-2.6,1.2-5.3,1.6-8.1,2
			c-2.5,0.4-5.1,0.9-7.6,1c-4.8,0.1-9.6-0.1-14.4-0.2c-4.9-0.1-9.8-0.5-14.6,0.2c-5,0.7-10.1,1.2-15.1,2c-3.6,0.6-7,1.5-10.6,2.2
			c-5.4,1.1-10.7,2.4-15.7,4.7c-2.7,1.2-5.2,2.8-7.3,5c-1,1.1-1.8,2.3-2.8,3.4c-1.6,1.8-3.3,3.7-4.9,5.5c-0.3,0.3-0.6,0.9-0.5,1
			c0.3,0.4,0.8,1,1.3,1.1c1.3,0.2,2.6,0.2,3.8,0c3-0.4,5.4-2,7.7-4c1-0.9,1.9-2.1,3-2.9c3.4-2.4,7.2-4.4,11.1-5.9c3-1.1,6-2.1,9-3.1
			c2.4-0.8,4.9-1.6,7.4-1.9c4.7-0.7,9.4-1.1,14-1.7c1.2-0.1,2.4-0.2,3.6-0.2c7.3,0.3,14.5,0.7,21.7,1.1c4.8,0.3,9.6,0.1,14.2-1.3
			c4.2-1.2,8.2-2.8,12-5c3.2-1.8,6.4-3.5,8.5-6.6c1.4-2,2.9-4.1,4-6.3C-679.2,69.5-678.7,66.8-679.2,64.1z M-723.1,55.7
			c0.4-0.2,0.9,0,1.4-0.1c0,0.4,0.1,0.9-0.1,1.3c-1,1.9-2.4,3.2-4.8,3.4C-726,58.2-725.1,56.4-723.1,55.7z M-816.8,58.4
			c1.9-0.4,3.8-0.5,5.7-0.5c0.7,0,1.7,0.2,1.7,1.1c0,0.7-0.6,1.3-1,1.9c-0.1,0.2-0.4,0.2-0.6,0.3c-3.3,1-6.6,1-10.2,0.1
			C-819.8,59.9-818.5,58.8-816.8,58.4z M-807.2,101.3c-0.3,1.1-0.7,2.1-1.2,3.1c-0.2,0.4-0.7,0.6-1.1,0.8c-0.1-0.4-0.5-0.8-0.4-1.2
			c0.5-2.1,1.2-4.2,1.8-6.3c0.1-0.3,0.5-0.6,0.8-0.5c0.2,0,0.5,0.4,0.7,0.6C-806.8,99.1-806.9,100.2-807.2,101.3z M-770.5,67.5
			c-0.2,2.5-0.4,5-0.7,7.5c0,0.4,0,0.9,0,1.3c-0.2,1.9-1.4,3-3.4,3.3c-1.5,0.2-2.5-0.4-3-1.8c-1.5-4-0.3-8.7,3.3-10.7
			c0.9-0.5,2.1-0.6,3.2-0.7C-771,66.5-770.5,67.2-770.5,67.5z"/>
	</g>
	<path fill="#414143" d="M-740.5,57.8c0,0-1.2,11.3-1.5,12.6s-1.6-0.6-1.6-0.6l1-8.8L-740.5,57.8z"/>
</g>
<rect x="-553.6" y="187.2" fill="#414143" width="270" height="162"/>
<rect x="-1205.7" y="-30.8" fill="#EE5A2B" width="270" height="162"/>
<g>
	<path fill="#FFFFFF" d="M-998.2,20.2c1.9-0.5,2.8-1.2,2.9-1.4c0,0,0,0,0,0c2.4-3.4,0.2-6.9,0-7.2c-0.4-0.4-0.8-0.8-1.2-1.2l0,0
		c-0.7-0.1-1.1,0.4-1.1,0.4c-0.6,1.2-1.2,2.3-2.2,3.1c-0.7,0.4-1.6,0.3-2.3,0c-1-0.4-1.2-1.4-1.2-2.3c-0.1-1.9-0.1-3.7,0.6-5.5
		c0.5-1.3,1-2.7,1.4-4c0.4-1.4,0.5-2.8-0.6-3.9c-0.6-0.6-1.4-0.9-2-1.3c-1.3-0.8-2.8-0.5-3.5,0.8c-3.2-0.6-6.3-0.1-9.2,1.4
		c-2.3,1.2-4.2,2.8-5.2,5.3c-1.1,2.8-1.1,5.6-0.6,8.5c0.3,1.5-0.3,3-1.6,3.5c-0.8,0.3-1.5,0.3-2-0.7c-0.7-1.5-0.4-3-0.1-4.4
		c0.7-2.6,1.5-5.1,2.3-7.6c0.5-1.7,0.3-3.3-1.2-4.4c-0.8-0.6-1.6-1-2.4-1.6c-0.8-0.5-1.1-0.1-1.4,0.6c-0.8,2-1.7,3.9-2.5,5.8
		c-1.4,3.2-3.3,6.1-4.2,9.5c-0.4,1.7-1.3,3.2-2,4.8c-0.1,0-0.1,0-0.2,0c0-0.2-0.1-0.4,0-0.6c0.5-2.3,1-4.6,1.5-6.9
		c0.3-1.2,0.8-2.3,1-3.4c0.6-3-0.8-5.4-3.7-6.2c-0.6-0.2-1-0.2-1.2,0.5c-1.4,5.1-2.8,10.3-3,15.6c-0.1,1.8,0,3.8-1.4,5.3
		c-0.3,0.3-0.9,0.8-1.1,0.7c-0.4-0.2-0.8-0.7-1-1.2c-0.2-0.4-0.1-0.9-0.1-1.3c0.1-3.9,1.3-7.6,2.3-11.4c0.3-1.2,0.5-2.5-0.4-3.4
		c-1-1.1-2.3-1.9-3.6-2.8c-0.9-0.6-1.4-0.1-1.9,0.7c-0.2,0.3-0.5,0.6-0.9,0.7c-1.5,0.3-3.1,0.3-4.6,0.6c-3.6,0.8-6.4,2.8-8.1,6.2
		c-1.5,3.2-1.5,6.5-1.4,9.9c0.1,2.1-1,4.1-2.9,5c-1,0.5-1.6,0.3-1.8-0.8c-0.2-0.9-0.3-1.9-0.3-2.9c0.2-2.9,1-5.6,2-8.4
		c0.3-1,0.7-2,0.6-3c-0.2-2.5-0.9-3.4-4.4-4.3c-0.8-0.2-1.2,0-1.4,0.8c-0.6,3.5-1.3,7.1-1.9,10.6c-0.3,2.3-0.4,4.7-0.6,7
		c-0.1,0.9-1.1,1.8-1.9,1.8c-0.8,0-1.6-0.8-1.5-1.8c0-1.3,0-2.7,0.4-4c0.6-2.2,1.6-4.4,2.3-6.6c0.4-1.2,0.6-2.5,0.7-3.7
		c0.1-2-1.6-4-3.5-4.4c-1.2-0.2-1.5,0-1.4,1.2c0.1,1.8-0.7,3-2.3,3.5c-1,0.3-2.1,0.3-3.2,0.5c-0.9,0.1-1.3-0.2-0.9-1.2
		c0.4-0.8,0-1.3-0.8-1.2c-1.4,0.1-2.8,0.2-4.2,0.5c-1.3,0.2-1.9,1.1-1.6,2.4c0.2,1,0.6,2,0.9,3c0.3,0.8,0.8,1.7,0.8,2.5
		c0,1.9-0.2,3.7-0.5,5.6c-0.4,2.4-1.6,4.4-3.2,6.2c-0.8,0.8-1.4,0.7-1.7-0.4c-0.3-1-0.6-2.1-0.5-3.1c0.3-3.4,0.7-6.8,1.1-10.3
		c0.4-3.2,1.5-6.1,3-8.8c1.2-2.2,1.6-4,0-5.7c-0.7-0.7-1.7-1.2-2.6-1.7c-1.8-1-2.6-0.6-2.9,1.4c0,0.1,0,0.3-0.1,0.4
		c-0.7,3.4-1.5,6.7-2.2,10.1c-0.2,1.2-0.9,1.7-2.1,1.7c-3.2,0-5.6,1.6-7.5,3.9c-3.4,4.2-4.8,9-3.1,14.4c0.2,0.6-0.1,1.5-0.5,2
		c-1.3,1.7-4.4,1.6-5.6-0.3c-1.8-2.7-2.4-5.7-2.3-8.9c0-0.9,0.3-1.4,1.3-1.7c2.2-0.8,4.2-3.9,4.2-6.1c0-1-0.4-1.4-1.4-1.2
		c-0.6,0.1-1.1,0.2-1.7,0.3c-0.8,0.1-1.1-0.3-0.9-1.1c0.2-1,0.4-2.1,0.7-3.1c0.6-2.3,1.3-4.6,1.9-6.9c0.6-2.3-0.6-4.6-2.6-4.9
		c-2.3-0.3-4.6,0.1-6.5,1.4c-3.7,2.6-5.9,6.2-7.2,10.4c-1,3.3-1.6,6.8-2.5,10.1c-1,3.6-2.1,7.1-3.4,10.5c-0.6,1.5-1.6,3.1-2.9,4.1
		c-2.8,2.3-6,2.8-9.7,2.2c-3.5-0.6-6.3-2.1-9-4.3c-1.3-1.1-2.8-2.1-4.2-2.9c-1.3-0.8-2.7-0.1-2.7,1.5c0,1.4,0,2.8,0.3,4.1
		c0.4,1.4,0.8,3.1,1.8,4.1c1.3,1.3,3,2.2,4.6,3.1c3.7,2,7.7,2.7,11.8,2.6c1.4,0,2.9,0,4.2-0.5c3.3-1.2,6.1-3.1,8.2-6.2
		c3-4.5,5.7-9.1,7-14.5c0.5-2.2,0.6-2.2,3-2.1c0.1,0,0.2,0,0.3,0c0.7,0,0.9,0.3,0.9,1c0,1.4,0.1,2.8,0.2,4.3c0.2,3.4,1,6.6,4.2,8.6
		c2.3,1.4,4.6,2.4,7.1,0.9c1-0.5,1.9-1.2,2.7-2c0.6-0.6,1.1-0.6,1.9-0.4c1.8,0.4,3.6,0.8,5.4,0.9c1.2,0,2.6-0.4,3.4-1.1
		c1.3-1.1,2.5-1.3,4.1-1.1c2,0.2,3.8-0.4,5.1-2.2c2.4-3.3,3.6-7.1,4.5-10.9c1-4.1,0.4-3.3,4.3-3.7c0.1,0,0.1,0,0.3,0.1
		c0,0.3,0,0.7-0.1,1c-0.6,2.4-0.4,4.9,0.3,7.2c0.5,1.7,1,3.5,2.8,4.2c2.1,0.9,4.4,1,6.4-0.2c1.1-0.6,1.9-0.5,2.9,0
		c2.2,1.1,4.3,0.7,6.2-0.7c0.8-0.6,1.6-1.1,2.3-1.8c0.6-0.5,1-0.6,1.7-0.2c2.9,1.5,5.9,1.8,8.8,0.1c1.3-0.8,2.5-0.8,3.9-0.2
		c2.3,1,4.4,0.7,6.3-1c0.7-0.6,1.3-0.7,2.2-0.2c1.4,0.8,2.9,0.6,3.8-0.3c1.3-1.3,2-2.9,2.5-4.7c0.6-2.3,1.4-4.5,2.1-6.8
		c0-0.1,0.2-0.2,0.4-0.4c0.5,1.5,0.8,2.8,1.3,4.1c1.4,3.4,4.8,4.3,7.6,2.1c0.8-0.7,1.6-1.4,2.3-2.1c1.1,0.8,2,1.7,3.1,2.1
		c3,1.1,5.9,1,8.7-0.7c0.4-0.3,1.1-0.5,1.5-0.3c0.1,0.1,0.2,0.1,0.3,0.2C-1007,19.4-1002,20.9-998.2,20.2z M-1126.2,14.6
		c-0.1,0.5-0.2,1.1-0.4,1.6c-0.2,0.4-0.5,0.8-0.9,0.9c-1.8,0.4-2.1,0.1-1.5-1.7c0.4-1.3,0.8-2.7,1.3-4c0.1-0.4,0.3-0.8,0.6-1
		c0.3-0.3,0.8-0.5,1.1-0.5c0.2,0,0.4,0.6,0.7,0.9C-1125.6,12-1125.9,13.3-1126.2,14.6z M-1103.8,27.2c0,1.1,0,2.2-0.1,3.2
		c-0.1,1.6-0.2,1.7-1.8,2.1c-2,0.5-4.1-0.2-4.6-1.8c-0.5-1.6-0.5-3.2-0.2-4.9c0.5-2.6,2.3-4.2,4.2-5.7c0.7-0.5,1.6-0.6,2.6-1
		C-1103.7,22-1103.8,24.6-1103.8,27.2z M-1052.3,12.1c-0.1,1.1-0.4,2.3-0.4,3.4c0,2.1,0,4.3,0.1,6.4c0.1,1-0.1,1.8-1,2.2
		c-1.4,0.6-2.8,1.2-4.2,1.3c-1.7,0.1-2.5-0.8-2.9-2.5c-0.1-0.4-0.1-0.7-0.2-1.1c-0.3-3.5,0.3-6.8,2.7-9.1c0.6-0.5,1.2-1,2-1.4
		c0.8-0.4,1.8-0.6,2.7-0.7C-1052.4,10.6-1052.2,10.9-1052.3,12.1z M-1009.5,4.9c0,3.2,0.1,6.3,0.2,9.5c0,0.9-0.2,1.5-0.9,1.9
		c-3.5,2.3-6.6,0.2-6.7-2c-0.4-3.9,0.4-6.6,2.2-9.1c1-1.3,2.8-1.8,4.3-1.4C-1009.7,4-1009.5,4.2-1009.5,4.9z"/>
	<path fill="#FFFFFF" d="M-1072.1,5.7c3.3,0.9,5.6-1.4,5.7-4.6c0-1-0.5-1.3-1.5-1.2c-1.2,0.3-2.4,0.7-3.5,1
		c-1.5,0.4-2.3,1.8-1.9,3.2C-1073.2,4.7-1072.7,5.5-1072.1,5.7z"/>
</g>
<g>
	<g>
		<path fill="#FFFFFF" d="M-1051.6,46c3.3,0.9,5.6-1.4,5.7-4.6c0-1-0.5-1.3-1.5-1.2c-1.2,0.3-2.4,0.7-3.5,1
			c-1.5,0.4-2.3,1.8-1.9,3.2C-1052.7,45.1-1052.1,45.9-1051.6,46z"/>
		<path fill="#FFFFFF" d="M-1005.9,37.2c3.3,0.9,5.6-1.4,5.7-4.6c0-1-0.5-1.3-1.5-1.2c-1.2,0.3-2.4,0.7-3.5,1
			c-1.5,0.4-2.3,1.8-1.9,3.2C-1006.9,36.3-1006.4,37.1-1005.9,37.2z"/>
		<path fill="#FFFFFF" d="M-992.2,58c-0.5-2.5-2.1-4.2-3.9-5.9v0c-0.7-0.1-1.1,0.4-1.1,0.4c-0.8,1.7-1.8,3.2-3.5,4.1
			c-1.3,0.7-2.3,0.1-2.4-1.3c-0.1-0.9-0.2-1.9,0-2.9c0.4-2.4,0.9-4.8,1.4-7.1c0.7-3.2,0.1-3.8-2.1-5.3c-0.7-0.5-1.5-0.7-2.2-1
			c-1-0.4-1.2-0.3-1.3,0.8c-0.3,1.7-0.6,3.4-0.8,5.1c-0.3,2.5-0.6,5.1-0.9,7.6c0,0.3-0.1,0.7,0,1.1c0.5,1.7-0.1,3.1-1,4.4
			c-0.5,0.7-1.4,0.7-1.8-0.1c-0.4-0.9-0.8-2-0.8-3c0-3,1.2-5.8,2.1-8.5c0.7-2,1.7-4,0-5.9c-1-1.2-2.3-2.1-3.5-3.1
			c-0.2-0.2-0.7-0.1-0.9-0.1c-0.4,1.6-0.8,3-1.2,4.4c-0.1,0.3-0.5,0.7-0.9,0.8c-1.4,0.4-2.8,0.6-4.4,0.9c0.2-0.8,0.4-1.3,0.6-2
			c-0.2-0.1-0.5-0.2-0.8-0.3c-2-0.2-3.8,0.2-5.6,1.1c-1.1,0.5-1.4,1.2-0.9,2.2c0.7,1.3,1.6,2.6,2.4,3.9c0.2,0.3,0.3,0.6,0.5,0.9
			c-1,7.6-5.9,13.4-5.9,13.4c-3,2.4-6.1,0.5-7.8-1.1c-0.2-0.2-0.8-1-0.7-3.1l0,0c0.7-0.1,1.3-0.1,2-0.1c5.5-0.3,8.6-3.1,9.1-8.5
			c0.4-3.5-2.6-6.5-6.1-6.1c-2.9,0.3-5.3,1.7-7,3.9c-3.5,4.2-4.6,8.9-2.5,14.1c0.1,0.3,0.3,0.7,0.1,1c-0.5,1.3-1.3,2.3-2.5,3
			c-2,1-3.3,0.2-3-2c0.4-2.7,1.1-5.5,1.6-8.2c0.2-1.1,0.7-2.3,0.7-3.4c0-2.2-2.4-4.4-4.6-4.3c-0.3,0-0.8,0.4-0.8,0.6
			c-0.3,1.1-0.5,2.3-0.8,3.4c-0.3,1.1-0.9,2.1-1,3.2c-0.2,2.8-0.2,5.6-0.3,8.4c0,0.9-0.3,1.9-0.6,2.8c-0.3,0.9-1,1.5-1.8,1.3
			c-0.6-0.1-1.2-0.8-1.5-1.3c-1-1.9-0.4-3.9,0.2-5.7c0.6-2.1,1.6-4.1,2.3-6.2c1.3-3.8,1-5.2-1.8-7c-0.2-0.2-0.5-0.3-0.7-0.4
			c-0.9-0.5-1.2-0.5-1.6,0.5c-0.3,0.6-0.4,1.3-0.7,1.9c-0.8,1.4-2,2.7-2.6,4.2c-1.4,3.4-2.5,6.9-3.8,10.3c-0.4,1.1-0.9,2.1-1.3,3.2
			c-0.1,0-0.2-0.1-0.3-0.1c0-0.1,0-0.3,0-0.4c0.8-2.9,1.5-5.9,2.3-8.8c0.4-1.3,0.6-2.4,0.1-3.7c-0.8-2.1-2.7-2.7-4.4-3.6
			c-0.6-0.3-0.8,0.2-0.8,0.6c0.1,2-0.7,3.9-1.3,5.8c-1.3,4-1.6,8.1-1.6,12.2c0,1.3-0.5,2.5-1,3.7c-0.2,0.4-1.1,1-1.4,0.9
			c-0.5-0.2-0.9-0.9-1-1.5c-0.6-3.6,0.2-6.9,1.6-10.2c1.7-3.9,0.1-6.8-3.6-8.5c-0.4-0.2-1-0.4-1.2,0.4c-0.1,0.2-0.5,0.4-0.8,0.4
			c-1.4,0.1-2.8,0-4.1,0.2c-4,0.8-6.9,2.9-8.3,6.9c-0.3,0.7-0.3,1.5-0.5,2.3c-0.8,2.3-0.7,4.6-0.6,7c0,1-0.2,2.1-0.5,3.1
			c-0.2,0.7-0.9,1.5-1.7,1.3c-0.6-0.2-1.2-0.9-1.4-1.6c-0.5-2-0.2-4,0.4-5.9c0.7-2.4,1.5-4.8,2.2-7.3c0.5-1.9,0.1-3.6-1.6-4.7
			c-1-0.7-2.2-1.1-3.4-1.5c-1-0.3-1.2-0.1-1.1,1c0.1,0.9,0.3,1.9,0,2.7c-0.4,1.4-2.4,2.1-4.2,1.5c0.4-1.1,0.3-1.4-0.8-1.8
			c-0.4-0.1-0.8-0.3-1.1-0.2c-1.7,0.2-3.4,0.5-5.1,0.9c-1.1,1.3,0.1,2.8,0.1,2.8c1.6,2.8,1.2,3.8,1.2,3.8c0,1.2-1.9,6.1-1.9,6.1
			c-0.5,1.1-0.6,1-0.6,1c-0.7,0.1-0.8-0.9-0.8-0.9c-0.2-0.8-0.4-1.6-0.4-2.5c0-1.2,0.2-2.4,0.4-3.6c0.1-0.9-0.2-1.2-1.1-1
			c-1.8,0.5-3.6,0.9-5.4,1.5c-1.7,0.5-2.1,0.8-1.9,2.7c0.2,2.1-0.3,4-0.9,6c-1.4,4.6-4.2,8.1-9.2,8.9c-3.9,0.7-6.6-0.3-7.9-3.9
			c-0.5-1.3-0.7-2.7-0.6-4.1c0.4-4.4,2.2-8.3,4.1-12.2c1.2-2.5,0.7-2.4,3.6-1.7c0.3,0.1,0.6,0.1,0.8,0.2c4.2,1.1,8.2,1,12.2-0.8
			c4.2-1.9,6.6-4.9,6.5-9.7c-0.1-2.3-1.6-5.1-4.1-5.8c-3.4-0.9-6.7-0.4-10.1,0.2c-3.1,0.5-5.7,1.9-7.8,4.2c-1.2,1.3-2.3,2.8-3.6,4.1
			c-0.4,0.4-1,0.8-1.6,0.8c-2.7,0.4-5.5,0.6-8.3,1.1c-3.2,0.6-6.2,1.5-8.9,3.4c-1.1,0.8-2.4,1.6-3.1,2.7c-1.6,2.5-1.7,5.4-0.8,8.2
			c0.1,0.4,0.5,0.9,0.8,1.1c0.2,0.1,0.7-0.3,1-0.6c1.3-1.4,2.3-3,3.8-4.1c2.6-2.1,5.3-3.9,8.5-4.8c1.4-0.4,2.8-1.2,4.4-0.8
			c-0.1,0.4-0.2,0.7-0.3,1c-0.5,1.5-1.1,3-1.4,4.5c-1,4.5-2,8.9-1.9,13.6c0,3.6,1.2,6.5,4.2,8.6c2.6,1.7,5.6,2,8.6,1.7
			c5.2-0.6,9.2-3.6,12.4-7.6c0.7-0.9,1.4-1.9,2.1-2.9c0.1,0,0.2,0.1,0.4,0.1c-0.1,0.8,0.1,1.8-0.3,2.5c-0.7,1.3-1.5,2.6-2.4,3.8
			c-2.4,3.3-4.7,6.7-6.1,10.6c-0.7,1.8-1.1,3.8-0.5,5.8c0.5,1.6,1.2,3.2,2.9,3.9c2.1,0.9,4.3,0.7,6.3-0.4c2.9-1.7,4.8-4.3,6.4-7.1
			c0.3-0.6,0.6-1.2,0.7-1.9c0.9-4.6,1.1-9.1,0.3-13.7c-0.1-0.7,0.1-1.6,0.4-2.2c1.6-3.6,3.6-6.9,4.4-10.9c0.2-1,0.6-2,1-2.9
			c0.1-0.3,0.4-0.6,0.7-0.7c0.9-0.2,1.8-0.3,2.8-0.4c0,0.2,0,0.4,0,0.6c-0.1,2.3-0.3,4.6-0.3,6.8c0,4,3.5,7.1,7.2,6.3
			c1.2-0.3,2.3-0.7,3.1-1.7c0.5-0.6,1-0.8,1.8-0.2c1,0.6,2.1,1.1,3.2,1.2c2.3,0.3,4.3-0.7,6.2-1.7c0.8-0.4,1.3-0.4,2,0.2
			c1.2,1,2.6,1.4,4,0.7c1.3-0.6,2.5-1.5,3.8-2.2c0.3-0.2,0.9-0.3,1.2-0.1c1.8,1.3,3.8,0.9,4.7-1.2c0.9-2.2,1.6-4.5,2.4-6.8
			c0.5-1.4,0.9-2.8,1.3-4.2c0.1,0,0.3,0,0.4,0.1c0.2,1.2,0.1,2.5,0.5,3.6c0.9,2.7,4.2,5.1,7.3,3.7c0.9-0.4,1.7-0.9,2.5-1.4
			c0.7-0.5,1.1-0.6,1.9-0.1c1.2,0.7,2.5,1.3,4.1,1c2-0.3,3.6-1.2,4.9-2.7c0.9-1.1,1.7-1.2,2.9-0.4c0.5,0.4,1.1,0.6,1.8,0.8h0
			c0,0,6,2.2,10-2.2c2.7-2.9,4.7-6.2,5.6-10.1c0.4-1.7,0.8-3.4,1.2-5.1c0.3-1.2,1.3-1,2.1-0.9c0.4,0,0.9,0.7,1,1.2
			c0.2,0.8,0.1,1.6,0,2.4c-0.2,2.7,0,5.3,1.3,7.6c0.7,1.2,1.6,2.2,3,2.5c1.6,0.3,3.1-0.1,4.5-0.9c1-0.6,1.8-1.4,2.7-2.1
			c2.2,2.2,4.9,1.8,7.5,1.8c-0.1,0.4-0.2,0.8-0.3,1.1c-1.3,2.9-3,5.3-5.5,7.4c-2.7,2.2-5.6,3.9-8.7,5.3c-2.6,1.2-5.3,1.6-8.1,2
			c-2.5,0.4-5.1,0.9-7.6,1c-4.8,0.1-9.6-0.1-14.4-0.2c-4.9-0.1-9.8-0.5-14.6,0.2c-5,0.7-10.1,1.2-15.1,2c-3.6,0.6-7,1.5-10.6,2.2
			c-5.4,1.1-10.7,2.4-15.7,4.7c-2.7,1.2-5.2,2.8-7.3,5c-1,1.1-1.8,2.3-2.8,3.4c-1.6,1.8-3.3,3.7-4.9,5.5c-0.3,0.3-0.6,0.9-0.5,1
			c0.3,0.4,0.8,1,1.3,1.1c1.3,0.2,2.6,0.2,3.8,0c3-0.4,5.4-2,7.7-4c1-0.9,1.9-2.1,3-2.9c3.4-2.4,7.2-4.4,11.1-5.9c3-1.1,6-2.1,9-3.1
			c2.4-0.8,4.9-1.6,7.4-1.9c4.7-0.7,9.4-1.1,14-1.7c1.2-0.1,2.4-0.2,3.6-0.2c7.3,0.3,14.5,0.7,21.7,1.1c4.8,0.3,9.6,0.1,14.2-1.3
			c4.2-1.2,8.2-2.8,12-5c3.2-1.8,6.4-3.5,8.5-6.6c1.4-2,2.9-4.1,4-6.3C-992.2,63.5-991.7,60.8-992.2,58z M-1036.1,49.6
			c0.4-0.2,0.9,0,1.4-0.1c0,0.4,0.1,0.9-0.1,1.3c-1,1.9-2.4,3.2-4.8,3.4C-1039,52.2-1038.1,50.4-1036.1,49.6z M-1129.8,52.4
			c1.9-0.4,3.8-0.5,5.7-0.5c0.7,0,1.7,0.2,1.7,1.1c0,0.7-0.6,1.3-1,1.9c-0.1,0.2-0.4,0.2-0.6,0.3c-3.3,1-6.6,1-10.2,0.1
			C-1132.8,53.9-1131.5,52.8-1129.8,52.4z M-1120.2,95.3c-0.3,1.1-0.7,2.1-1.2,3.1c-0.2,0.4-0.7,0.6-1.1,0.8
			c-0.1-0.4-0.5-0.8-0.4-1.2c0.5-2.1,1.2-4.2,1.8-6.3c0.1-0.3,0.5-0.6,0.8-0.5c0.2,0,0.5,0.4,0.7,0.6
			C-1119.8,93-1119.9,94.2-1120.2,95.3z M-1083.5,61.5c-0.2,2.5-0.4,5-0.7,7.5c0,0.4,0,0.9,0,1.3c-0.2,1.9-1.4,3-3.4,3.3
			c-1.5,0.2-2.5-0.4-3-1.8c-1.5-4-0.3-8.7,3.3-10.7c0.9-0.5,2.1-0.6,3.2-0.7C-1084,60.4-1083.5,61.1-1083.5,61.5z"/>
	</g>
	<path fill="#EE5A2B" d="M-1053.5,51.8c0,0-1.2,11.3-1.5,12.6s-1.6-0.6-1.6-0.6l1-8.8L-1053.5,51.8z"/>
</g>
<rect x="-1544.6" y="-30.8" fill="#EE5A2B" width="270" height="162"/>
<g>
	<path fill="#EBE8DC" d="M-1337.1,20.2c1.9-0.5,2.8-1.2,2.9-1.4c0,0,0,0,0,0c2.4-3.4,0.2-6.9,0-7.2c-0.4-0.4-0.8-0.8-1.2-1.2l0,0
		c-0.7-0.1-1.1,0.4-1.1,0.4c-0.6,1.2-1.2,2.3-2.2,3.1c-0.7,0.4-1.6,0.3-2.3,0c-1-0.4-1.2-1.4-1.2-2.3c-0.1-1.9-0.1-3.7,0.6-5.5
		c0.5-1.3,1-2.7,1.4-4c0.4-1.4,0.5-2.8-0.6-3.9c-0.6-0.6-1.4-0.9-2-1.3c-1.3-0.8-2.8-0.5-3.5,0.8c-3.2-0.6-6.3-0.1-9.2,1.4
		c-2.3,1.2-4.2,2.8-5.2,5.3c-1.1,2.8-1.1,5.6-0.6,8.5c0.3,1.5-0.3,3-1.6,3.5c-0.8,0.3-1.5,0.3-2-0.7c-0.7-1.5-0.4-3-0.1-4.4
		c0.7-2.6,1.5-5.1,2.3-7.6c0.5-1.7,0.3-3.3-1.2-4.4c-0.8-0.6-1.6-1-2.4-1.6c-0.8-0.5-1.1-0.1-1.4,0.6c-0.8,2-1.7,3.9-2.5,5.8
		c-1.4,3.2-3.3,6.1-4.2,9.5c-0.4,1.7-1.3,3.2-2,4.8c-0.1,0-0.1,0-0.2,0c0-0.2-0.1-0.4,0-0.6c0.5-2.3,1-4.6,1.5-6.9
		c0.3-1.2,0.8-2.3,1-3.4c0.6-3-0.8-5.4-3.7-6.2c-0.6-0.2-1-0.2-1.2,0.5c-1.4,5.1-2.8,10.3-3,15.6c-0.1,1.8,0,3.8-1.4,5.3
		c-0.3,0.3-0.9,0.8-1.1,0.7c-0.4-0.2-0.8-0.7-1-1.2c-0.2-0.4-0.1-0.9-0.1-1.3c0.1-3.9,1.3-7.6,2.3-11.4c0.3-1.2,0.5-2.5-0.4-3.4
		c-1-1.1-2.3-1.9-3.6-2.8c-0.9-0.6-1.4-0.1-1.9,0.7c-0.2,0.3-0.5,0.6-0.9,0.7c-1.5,0.3-3.1,0.3-4.6,0.6c-3.6,0.8-6.4,2.8-8.1,6.2
		c-1.5,3.2-1.5,6.5-1.4,9.9c0.1,2.1-1,4.1-2.9,5c-1,0.5-1.6,0.3-1.8-0.8c-0.2-0.9-0.3-1.9-0.3-2.9c0.2-2.9,1-5.6,2-8.4
		c0.3-1,0.7-2,0.6-3c-0.2-2.5-0.9-3.4-4.4-4.3c-0.8-0.2-1.2,0-1.4,0.8c-0.6,3.5-1.3,7.1-1.9,10.6c-0.3,2.3-0.4,4.7-0.6,7
		c-0.1,0.9-1.1,1.8-1.9,1.8c-0.8,0-1.6-0.8-1.5-1.8c0-1.3,0-2.7,0.4-4c0.6-2.2,1.6-4.4,2.3-6.6c0.4-1.2,0.6-2.5,0.7-3.7
		c0.1-2-1.6-4-3.5-4.4c-1.2-0.2-1.5,0-1.4,1.2c0.1,1.8-0.7,3-2.3,3.5c-1,0.3-2.1,0.3-3.2,0.5c-0.9,0.1-1.3-0.2-0.9-1.2
		c0.4-0.8,0-1.3-0.8-1.2c-1.4,0.1-2.8,0.2-4.2,0.5c-1.3,0.2-1.9,1.1-1.6,2.4c0.2,1,0.6,2,0.9,3c0.3,0.8,0.8,1.7,0.8,2.5
		c0,1.9-0.2,3.7-0.5,5.6c-0.4,2.4-1.6,4.4-3.2,6.2c-0.8,0.8-1.4,0.7-1.7-0.4c-0.3-1-0.6-2.1-0.5-3.1c0.3-3.4,0.7-6.8,1.1-10.3
		c0.4-3.2,1.5-6.1,3-8.8c1.2-2.2,1.6-4,0-5.7c-0.7-0.7-1.7-1.2-2.6-1.7c-1.8-1-2.6-0.6-2.9,1.4c0,0.1,0,0.3-0.1,0.4
		c-0.7,3.4-1.5,6.7-2.2,10.1c-0.2,1.2-0.9,1.7-2.1,1.7c-3.2,0-5.6,1.6-7.5,3.9c-3.4,4.2-4.8,9-3.1,14.4c0.2,0.6-0.1,1.5-0.5,2
		c-1.3,1.7-4.4,1.6-5.6-0.3c-1.8-2.7-2.4-5.7-2.3-8.9c0-0.9,0.3-1.4,1.3-1.7c2.2-0.8,4.2-3.9,4.2-6.1c0-1-0.4-1.4-1.4-1.2
		c-0.6,0.1-1.1,0.2-1.7,0.3c-0.8,0.1-1.1-0.3-0.9-1.1c0.2-1,0.4-2.1,0.7-3.1c0.6-2.3,1.3-4.6,1.9-6.9c0.6-2.3-0.6-4.6-2.6-4.9
		c-2.3-0.3-4.6,0.1-6.5,1.4c-3.7,2.6-5.9,6.2-7.2,10.4c-1,3.3-1.6,6.8-2.5,10.1c-1,3.6-2.1,7.1-3.4,10.5c-0.6,1.5-1.6,3.1-2.9,4.1
		c-2.8,2.3-6,2.8-9.7,2.2c-3.5-0.6-6.3-2.1-9-4.3c-1.3-1.1-2.8-2.1-4.2-2.9c-1.3-0.8-2.7-0.1-2.7,1.5c0,1.4,0,2.8,0.3,4.1
		c0.4,1.4,0.8,3.1,1.8,4.1c1.3,1.3,3,2.2,4.6,3.1c3.7,2,7.7,2.7,11.8,2.6c1.4,0,2.9,0,4.2-0.5c3.3-1.2,6.1-3.1,8.2-6.2
		c3-4.5,5.7-9.1,7-14.5c0.5-2.2,0.6-2.2,3-2.1c0.1,0,0.2,0,0.3,0c0.7,0,0.9,0.3,0.9,1c0,1.4,0.1,2.8,0.2,4.3c0.2,3.4,1,6.6,4.2,8.6
		c2.3,1.4,4.6,2.4,7.1,0.9c1-0.5,1.9-1.2,2.7-2c0.6-0.6,1.1-0.6,1.9-0.4c1.8,0.4,3.6,0.8,5.4,0.9c1.2,0,2.6-0.4,3.4-1.1
		c1.3-1.1,2.5-1.3,4.1-1.1c2,0.2,3.8-0.4,5.1-2.2c2.4-3.3,3.6-7.1,4.5-10.9c1-4.1,0.4-3.3,4.3-3.7c0.1,0,0.1,0,0.3,0.1
		c0,0.3,0,0.7-0.1,1c-0.6,2.4-0.4,4.9,0.3,7.2c0.5,1.7,1,3.5,2.8,4.2c2.1,0.9,4.4,1,6.4-0.2c1.1-0.6,1.9-0.5,2.9,0
		c2.2,1.1,4.3,0.7,6.2-0.7c0.8-0.6,1.6-1.1,2.3-1.8c0.6-0.5,1-0.6,1.7-0.2c2.9,1.5,5.9,1.8,8.8,0.1c1.3-0.8,2.5-0.8,3.9-0.2
		c2.3,1,4.4,0.7,6.3-1c0.7-0.6,1.3-0.7,2.2-0.2c1.4,0.8,2.9,0.6,3.8-0.3c1.3-1.3,2-2.9,2.5-4.7c0.6-2.3,1.4-4.5,2.1-6.8
		c0-0.1,0.2-0.2,0.4-0.4c0.5,1.5,0.8,2.8,1.3,4.1c1.4,3.4,4.8,4.3,7.6,2.1c0.8-0.7,1.6-1.4,2.3-2.1c1.1,0.8,2,1.7,3.1,2.1
		c3,1.1,5.9,1,8.7-0.7c0.4-0.3,1.1-0.5,1.5-0.3c0.1,0.1,0.2,0.1,0.3,0.2C-1346,19.4-1340.9,20.9-1337.1,20.2z M-1465.2,14.6
		c-0.1,0.5-0.2,1.1-0.4,1.6c-0.2,0.4-0.5,0.8-0.9,0.9c-1.8,0.4-2.1,0.1-1.5-1.7c0.4-1.3,0.8-2.7,1.3-4c0.1-0.4,0.3-0.8,0.6-1
		c0.3-0.3,0.8-0.5,1.1-0.5c0.2,0,0.4,0.6,0.7,0.9C-1464.6,12-1464.9,13.3-1465.2,14.6z M-1442.8,27.2c0,1.1,0,2.2-0.1,3.2
		c-0.1,1.6-0.2,1.7-1.8,2.1c-2,0.5-4.1-0.2-4.6-1.8c-0.5-1.6-0.5-3.2-0.2-4.9c0.5-2.6,2.3-4.2,4.2-5.7c0.7-0.5,1.6-0.6,2.6-1
		C-1442.7,22-1442.7,24.6-1442.8,27.2z M-1391.3,12.1c-0.1,1.1-0.4,2.3-0.4,3.4c0,2.1,0,4.3,0.1,6.4c0.1,1-0.1,1.8-1,2.2
		c-1.4,0.6-2.8,1.2-4.2,1.3c-1.7,0.1-2.5-0.8-2.9-2.5c-0.1-0.4-0.1-0.7-0.2-1.1c-0.3-3.5,0.3-6.8,2.7-9.1c0.6-0.5,1.2-1,2-1.4
		c0.8-0.4,1.8-0.6,2.7-0.7C-1391.4,10.6-1391.1,10.9-1391.3,12.1z M-1348.5,4.9c0,3.2,0.1,6.3,0.2,9.5c0,0.9-0.2,1.5-0.9,1.9
		c-3.5,2.3-6.6,0.2-6.7-2c-0.4-3.9,0.4-6.6,2.2-9.1c1-1.3,2.8-1.8,4.3-1.4C-1348.7,4-1348.5,4.2-1348.5,4.9z"/>
	<path fill="#EBE8DC" d="M-1411.1,5.7c3.3,0.9,5.6-1.4,5.7-4.6c0-1-0.5-1.3-1.5-1.2c-1.2,0.3-2.4,0.7-3.5,1
		c-1.5,0.4-2.3,1.8-1.9,3.2C-1412.2,4.7-1411.6,5.5-1411.1,5.7z"/>
</g>
<g>
	<g>
		<path fill="#EBE8DC" d="M-1390.6,46c3.3,0.9,5.6-1.4,5.7-4.6c0-1-0.5-1.3-1.5-1.2c-1.2,0.3-2.4,0.7-3.5,1
			c-1.5,0.4-2.3,1.8-1.9,3.2C-1391.6,45.1-1391.1,45.9-1390.6,46z"/>
		<path fill="#EBE8DC" d="M-1344.9,37.2c3.3,0.9,5.6-1.4,5.7-4.6c0-1-0.5-1.3-1.5-1.2c-1.2,0.3-2.4,0.7-3.5,1
			c-1.5,0.4-2.3,1.8-1.9,3.2C-1345.9,36.3-1345.4,37.1-1344.9,37.2z"/>
		<path fill="#EBE8DC" d="M-1331.2,58c-0.5-2.5-2.1-4.2-3.9-5.9v0c-0.7-0.1-1.1,0.4-1.1,0.4c-0.8,1.7-1.8,3.2-3.5,4.1
			c-1.3,0.7-2.3,0.1-2.4-1.3c-0.1-0.9-0.2-1.9,0-2.9c0.4-2.4,0.9-4.8,1.4-7.1c0.7-3.2,0.1-3.8-2.1-5.3c-0.7-0.5-1.5-0.7-2.2-1
			c-1-0.4-1.2-0.3-1.3,0.8c-0.3,1.7-0.6,3.4-0.8,5.1c-0.3,2.5-0.6,5.1-0.9,7.6c0,0.3-0.1,0.7,0,1.1c0.5,1.7-0.1,3.1-1,4.4
			c-0.5,0.7-1.4,0.7-1.8-0.1c-0.4-0.9-0.8-2-0.8-3c0-3,1.2-5.8,2.1-8.5c0.7-2,1.7-4,0-5.9c-1-1.2-2.3-2.1-3.5-3.1
			c-0.2-0.2-0.7-0.1-0.9-0.1c-0.4,1.6-0.8,3-1.2,4.4c-0.1,0.3-0.5,0.7-0.9,0.8c-1.4,0.4-2.8,0.6-4.4,0.9c0.2-0.8,0.4-1.3,0.6-2
			c-0.2-0.1-0.5-0.2-0.8-0.3c-2-0.2-3.8,0.2-5.6,1.1c-1.1,0.5-1.4,1.2-0.9,2.2c0.7,1.3,1.6,2.6,2.4,3.9c0.2,0.3,0.3,0.6,0.5,0.9
			c-1,7.6-5.9,13.4-5.9,13.4c-3,2.4-6.1,0.5-7.8-1.1c-0.2-0.2-0.8-1-0.7-3.1l0,0c0.7-0.1,1.3-0.1,2-0.1c5.5-0.3,8.6-3.1,9.1-8.5
			c0.4-3.5-2.6-6.5-6.1-6.1c-2.9,0.3-5.3,1.7-7,3.9c-3.5,4.2-4.6,8.9-2.5,14.1c0.1,0.3,0.3,0.7,0.1,1c-0.5,1.3-1.3,2.3-2.5,3
			c-2,1-3.3,0.2-3-2c0.4-2.7,1.1-5.5,1.6-8.2c0.2-1.1,0.7-2.3,0.7-3.4c0-2.2-2.4-4.4-4.6-4.3c-0.3,0-0.8,0.4-0.8,0.6
			c-0.3,1.1-0.5,2.3-0.8,3.4c-0.3,1.1-0.9,2.1-1,3.2c-0.2,2.8-0.2,5.6-0.3,8.4c0,0.9-0.3,1.9-0.6,2.8c-0.3,0.9-1,1.5-1.8,1.3
			c-0.6-0.1-1.2-0.8-1.5-1.3c-1-1.9-0.4-3.9,0.2-5.7c0.6-2.1,1.6-4.1,2.3-6.2c1.3-3.8,1-5.2-1.8-7c-0.2-0.2-0.5-0.3-0.7-0.4
			c-0.9-0.5-1.2-0.5-1.6,0.5c-0.3,0.6-0.4,1.3-0.7,1.9c-0.8,1.4-2,2.7-2.6,4.2c-1.4,3.4-2.5,6.9-3.8,10.3c-0.4,1.1-0.9,2.1-1.3,3.2
			c-0.1,0-0.2-0.1-0.3-0.1c0-0.1,0-0.3,0-0.4c0.8-2.9,1.5-5.9,2.3-8.8c0.4-1.3,0.6-2.4,0.1-3.7c-0.8-2.1-2.7-2.7-4.4-3.6
			c-0.6-0.3-0.8,0.2-0.8,0.6c0.1,2-0.7,3.9-1.3,5.8c-1.3,4-1.6,8.1-1.6,12.2c0,1.3-0.5,2.5-1,3.7c-0.2,0.4-1.1,1-1.4,0.9
			c-0.5-0.2-0.9-0.9-1-1.5c-0.6-3.6,0.2-6.9,1.6-10.2c1.7-3.9,0.1-6.8-3.6-8.5c-0.4-0.2-1-0.4-1.2,0.4c-0.1,0.2-0.5,0.4-0.8,0.4
			c-1.4,0.1-2.8,0-4.1,0.2c-4,0.8-6.9,2.9-8.3,6.9c-0.3,0.7-0.3,1.5-0.5,2.3c-0.8,2.3-0.7,4.6-0.6,7c0,1-0.2,2.1-0.5,3.1
			c-0.2,0.7-0.9,1.5-1.7,1.3c-0.6-0.2-1.2-0.9-1.4-1.6c-0.5-2-0.2-4,0.4-5.9c0.7-2.4,1.5-4.8,2.2-7.3c0.5-1.9,0.1-3.6-1.6-4.7
			c-1-0.7-2.2-1.1-3.4-1.5c-1-0.3-1.2-0.1-1.1,1c0.1,0.9,0.3,1.9,0,2.7c-0.4,1.4-2.4,2.1-4.2,1.5c0.4-1.1,0.3-1.4-0.8-1.8
			c-0.4-0.1-0.8-0.3-1.1-0.2c-1.7,0.2-3.4,0.5-5.1,0.9c-1.1,1.3,0.1,2.8,0.1,2.8c1.6,2.8,1.2,3.8,1.2,3.8c0,1.2-1.9,6.1-1.9,6.1
			c-0.5,1.1-0.6,1-0.6,1c-0.7,0.1-0.8-0.9-0.8-0.9c-0.2-0.8-0.4-1.6-0.4-2.5c0-1.2,0.2-2.4,0.4-3.6c0.1-0.9-0.2-1.2-1.1-1
			c-1.8,0.5-3.6,0.9-5.4,1.5c-1.7,0.5-2.1,0.8-1.9,2.7c0.2,2.1-0.3,4-0.9,6c-1.4,4.6-4.2,8.1-9.2,8.9c-3.9,0.7-6.6-0.3-7.9-3.9
			c-0.5-1.3-0.7-2.7-0.6-4.1c0.4-4.4,2.2-8.3,4.1-12.2c1.2-2.5,0.7-2.4,3.6-1.7c0.3,0.1,0.6,0.1,0.8,0.2c4.2,1.1,8.2,1,12.2-0.8
			c4.2-1.9,6.6-4.9,6.5-9.7c-0.1-2.3-1.6-5.1-4.1-5.8c-3.4-0.9-6.7-0.4-10.1,0.2c-3.1,0.5-5.7,1.9-7.8,4.2c-1.2,1.3-2.3,2.8-3.6,4.1
			c-0.4,0.4-1,0.8-1.6,0.8c-2.7,0.4-5.5,0.6-8.3,1.1c-3.2,0.6-6.2,1.5-8.9,3.4c-1.1,0.8-2.4,1.6-3.1,2.7c-1.6,2.5-1.7,5.4-0.8,8.2
			c0.1,0.4,0.5,0.9,0.8,1.1c0.2,0.1,0.7-0.3,1-0.6c1.3-1.4,2.3-3,3.8-4.1c2.6-2.1,5.3-3.9,8.5-4.8c1.4-0.4,2.8-1.2,4.4-0.8
			c-0.1,0.4-0.2,0.7-0.3,1c-0.5,1.5-1.1,3-1.4,4.5c-1,4.5-2,8.9-1.9,13.6c0,3.6,1.2,6.5,4.2,8.6c2.6,1.7,5.6,2,8.6,1.7
			c5.2-0.6,9.2-3.6,12.4-7.6c0.7-0.9,1.4-1.9,2.1-2.9c0.1,0,0.2,0.1,0.4,0.1c-0.1,0.8,0.1,1.8-0.3,2.5c-0.7,1.3-1.5,2.6-2.4,3.8
			c-2.4,3.3-4.7,6.7-6.1,10.6c-0.7,1.8-1.1,3.8-0.5,5.8c0.5,1.6,1.2,3.2,2.9,3.9c2.1,0.9,4.3,0.7,6.3-0.4c2.9-1.7,4.8-4.3,6.4-7.1
			c0.3-0.6,0.6-1.2,0.7-1.9c0.9-4.6,1.1-9.1,0.3-13.7c-0.1-0.7,0.1-1.6,0.4-2.2c1.6-3.6,3.6-6.9,4.4-10.9c0.2-1,0.6-2,1-2.9
			c0.1-0.3,0.4-0.6,0.7-0.7c0.9-0.2,1.8-0.3,2.8-0.4c0,0.2,0,0.4,0,0.6c-0.1,2.3-0.3,4.6-0.3,6.8c0,4,3.5,7.1,7.2,6.3
			c1.2-0.3,2.3-0.7,3.1-1.7c0.5-0.6,1-0.8,1.8-0.2c1,0.6,2.1,1.1,3.2,1.2c2.3,0.3,4.3-0.7,6.2-1.7c0.8-0.4,1.3-0.4,2,0.2
			c1.2,1,2.6,1.4,4,0.7c1.3-0.6,2.5-1.5,3.8-2.2c0.3-0.2,0.9-0.3,1.2-0.1c1.8,1.3,3.8,0.9,4.7-1.2c0.9-2.2,1.6-4.5,2.4-6.8
			c0.5-1.4,0.9-2.8,1.3-4.2c0.1,0,0.3,0,0.4,0.1c0.2,1.2,0.1,2.5,0.5,3.6c0.9,2.7,4.2,5.1,7.3,3.7c0.9-0.4,1.7-0.9,2.5-1.4
			c0.7-0.5,1.1-0.6,1.9-0.1c1.2,0.7,2.5,1.3,4.1,1c2-0.3,3.6-1.2,4.9-2.7c0.9-1.1,1.7-1.2,2.9-0.4c0.5,0.4,1.1,0.6,1.8,0.8l0,0
			c0,0,6,2.2,10-2.2c2.7-2.9,4.7-6.2,5.6-10.1c0.4-1.7,0.8-3.4,1.2-5.1c0.3-1.2,1.3-1,2.1-0.9c0.4,0,0.9,0.7,1,1.2
			c0.2,0.8,0.1,1.6,0,2.4c-0.2,2.7,0,5.3,1.3,7.6c0.7,1.2,1.6,2.2,3,2.5c1.6,0.3,3.1-0.1,4.5-0.9c1-0.6,1.8-1.4,2.7-2.1
			c2.2,2.2,4.9,1.8,7.5,1.8c-0.1,0.4-0.2,0.8-0.3,1.1c-1.3,2.9-3,5.3-5.5,7.4c-2.7,2.2-5.6,3.9-8.7,5.3c-2.6,1.2-5.3,1.6-8.1,2
			c-2.5,0.4-5.1,0.9-7.6,1c-4.8,0.1-9.6-0.1-14.4-0.2c-4.9-0.1-9.8-0.5-14.6,0.2c-5,0.7-10.1,1.2-15.1,2c-3.6,0.6-7,1.5-10.6,2.2
			c-5.4,1.1-10.7,2.4-15.7,4.7c-2.7,1.2-5.2,2.8-7.3,5c-1,1.1-1.8,2.3-2.8,3.4c-1.6,1.8-3.3,3.7-4.9,5.5c-0.3,0.3-0.6,0.9-0.5,1
			c0.3,0.4,0.8,1,1.3,1.1c1.3,0.2,2.6,0.2,3.8,0c3-0.4,5.4-2,7.7-4c1-0.9,1.9-2.1,3-2.9c3.4-2.4,7.2-4.4,11.1-5.9c3-1.1,6-2.1,9-3.1
			c2.4-0.8,4.9-1.6,7.4-1.9c4.7-0.7,9.4-1.1,14-1.7c1.2-0.1,2.4-0.2,3.6-0.2c7.3,0.3,14.5,0.7,21.7,1.1c4.8,0.3,9.6,0.1,14.2-1.3
			c4.2-1.2,8.2-2.8,12-5c3.2-1.8,6.4-3.5,8.5-6.6c1.4-2,2.9-4.1,4-6.3C-1331.2,63.5-1330.7,60.8-1331.2,58z M-1375,49.6
			c0.4-0.2,0.9,0,1.4-0.1c0,0.4,0.1,0.9-0.1,1.3c-1,1.9-2.4,3.2-4.8,3.4C-1378,52.2-1377.1,50.4-1375,49.6z M-1468.8,52.4
			c1.9-0.4,3.8-0.5,5.7-0.5c0.7,0,1.7,0.2,1.7,1.1c0,0.7-0.6,1.3-1,1.9c-0.1,0.2-0.4,0.2-0.6,0.3c-3.3,1-6.6,1-10.2,0.1
			C-1471.8,53.9-1470.5,52.8-1468.8,52.4z M-1459.2,95.3c-0.3,1.1-0.7,2.1-1.2,3.1c-0.2,0.4-0.7,0.6-1.1,0.8
			c-0.1-0.4-0.5-0.8-0.4-1.2c0.5-2.1,1.2-4.2,1.8-6.3c0.1-0.3,0.5-0.6,0.8-0.5c0.2,0,0.5,0.4,0.7,0.6
			C-1458.8,93-1458.9,94.2-1459.2,95.3z M-1422.5,61.5c-0.2,2.5-0.4,5-0.7,7.5c0,0.4,0,0.9,0,1.3c-0.2,1.9-1.4,3-3.4,3.3
			c-1.5,0.2-2.5-0.4-3-1.8c-1.5-4-0.3-8.7,3.3-10.7c0.9-0.5,2.1-0.6,3.2-0.7C-1422.9,60.4-1422.5,61.1-1422.5,61.5z"/>
	</g>
	<path fill="#EBE8DC" d="M-1392.5,51.8c0,0-1.2,11.3-1.5,12.6s-1.6-0.6-1.6-0.6l1-8.8L-1392.5,51.8z"/>
</g>
<rect x="-1021.7" y="-171.7" fill="#EE5A2B" width="77.1" height="74"/>
<rect x="-892.7" y="386.2" fill="#EBE8DC" width="270" height="162"/>
<rect x="-756.6" y="429.9" fill="none" width="170.1" height="22.3"/>
<text transform="matrix(1 0 0 1 -756.5966 441.7812)" fill="#EE5A2B" font-family="'Oswald'" font-size="13.5742">ADRIANA GRANIERI    </text>
<circle fill="#414143" cx="-822.6" cy="466.3" r="36.7"/>
<text transform="matrix(1 0 0 1 -756.5966 454.6083)" fill="#414143" stroke="#414143" stroke-width="0.2" stroke-miterlimit="10" font-family="'Oswald-Light'" font-size="8.3533">GRAPHIC DESIGNER</text>
<g>
	<text transform="matrix(1 0 0 1 -756.5966 478.6689)"><tspan x="0" y="0" fill="#414143" stroke="#414143" stroke-width="0.1" stroke-miterlimit="10" font-family="'Oswald-Light'" font-size="8.3533">a.granie</tspan><tspan x="23.2" y="0" fill="#414143" stroke="#414143" stroke-width="0.1" stroke-miterlimit="10" font-family="'Oswald-Light'" font-size="8.3533">ri@</tspan><tspan x="33.3" y="0" fill="#414143" stroke="#414143" stroke-width="0.1" stroke-miterlimit="10" font-family="'Oswald-Light'" font-size="8.3533">h</tspan><tspan x="36.9" y="0" fill="#414143" stroke="#414143" stroke-width="0.1" stroke-miterlimit="10" font-family="'Oswald-Light'" font-size="8.3533">otmail.com</tspan></text>
</g>
<g>
	
		<text transform="matrix(1 0 0 1 -756.5966 490.6767)" fill="#414143" stroke="#414143" stroke-width="0.1" stroke-miterlimit="10" font-family="'Oswald-Light'" font-size="8.3533">cell: 613.513.3722</text>
</g>
<g>
	<text transform="matrix(1 0 0 1 -756.5966 501.9882)"><tspan x="0" y="0" fill="#414143" stroke="#414143" stroke-width="0.1" stroke-miterlimit="10" font-family="'Oswald-Light'" font-size="8.3533">behance.ne</tspan><tspan x="33" y="0" fill="#414143" stroke="#414143" stroke-width="0.1" stroke-miterlimit="10" font-family="'Oswald-Light'" font-size="8.3533">t</tspan><tspan x="35.6" y="0" fill="#414143" stroke="#414143" stroke-width="0.1" stroke-miterlimit="10" font-family="'Oswald-Light'" font-size="8.3533">/</tspan><tspan x="38.2" y="0" fill="#414143" stroke="#414143" stroke-width="0.1" stroke-miterlimit="10" font-family="'Oswald-Light'" font-size="8.3533">agranieri</tspan></text>
</g>
<g>
	<path fill="none" d="M-803.7,450.8c-0.5-0.1-1.2,0.2-1.7,0.5c-0.5,0.3-0.8,0.8-1.1,1.4c-0.9,1.8-1.7,3.7-2.6,5.5
		c-1.1,2.4-0.9,2.8,1.8,2.7c0.5,0,1.1-0.6,1.4-1.1c0.4-0.7,0.6-1.5,0.8-2.3c0.7-1.7,1.3-3.5,2.1-5.4
		C-803.2,451.7-803.3,450.9-803.7,450.8z"/>
	<path fill="#EBE8DC" d="M-790.6,489.2l-1.8-2.2c0,0-3.4,3.5-7.5-0.4c-0.2-0.3-0.4-0.6-0.6-0.9c-2-4.2-2.4-8.6-1.7-13.1
		c0.2-1.2,0.7-1.9,2.1-2.2c3.2-0.7,6.8-4.8,7.1-7.9c0.1-1.4-0.4-2-1.8-2c-0.8,0-1.6,0.1-2.4,0.1c-1.2,0-1.5-0.6-1.1-1.7
		c0.5-1.4,1-2.8,1.6-4.2c1.3-3.2,2.7-6.3,4-9.5c1.3-3.1,0-6.7-2.7-7.4c-3.3-0.9-6.6-0.8-9.6,0.8c-5.7,3-9.6,7.8-12.2,13.5
		c-2.1,4.5-3.5,9.4-5.5,14c-2.1,4.9-4.3,9.7-6.9,14.4c-1.1,2.1-2.9,4.1-4.9,5.3c-4.4,2.8-9.2,2.9-14.2,1.4c-4.9-1.5-8.6-4.2-12-7.8
		c-1.7-1.8-3.5-3.4-5.5-5c-1.8-1.4-3.9-0.6-4.2,1.7c-0.3,2-0.5,4-0.3,5.9c0.3,2.1,0.6,4.5,1.8,6.2c1.5,2.1,3.9,3.7,6,5.2
		c4.9,3.5,10.4,5.2,16.3,5.8c2,0.2,4.2,0.5,6.1,0.1c1.7-0.4,3.3-0.9,4.9-1.6l0,0c0,0,9.7-2.3,19.1-21.7l0,0c0.5-1.1,1-2.2,1.5-3.3
		c1.2-3.1,1.3-3.1,4.7-2.4c0.2,0,0.3,0.1,0.5,0.1c1,0.1,1.2,0.6,1.1,1.5c-0.2,2-0.4,4.1-0.5,6.1c-0.4,5,0.2,9.5,4.4,13
		c3,2.4,6.1,4.2,10,2.6c1.2-0.5,2.3-1.1,3.4-1.8l-0.6-1.8L-790.6,489.2z M-805,457.6c-0.3,0.8-0.4,1.6-0.8,2.3
		c-0.3,0.5-0.9,1.1-1.4,1.1c-2.7,0.2-2.9-0.3-1.8-2.7c0.9-1.8,1.7-3.7,2.6-5.5c0.2-0.5,0.6-1,1.1-1.4c0.5-0.3,1.2-0.6,1.7-0.5
		c0.3,0.1,0.5,0.9,0.8,1.4C-803.6,454.1-804.3,455.8-805,457.6z"/>
</g>
<path fill="#EBE8DC" d="M-799.3,487.1c0,0-1.3-1.2-2.3-4.3l-1.1-0.2c0,0,0.1,3.1,0.2,3.2c0,0.1,1.2,2.7,1.4,2.9
	c0.2,0.1,1.7-0.2,1.7-0.2L-799.3,487.1z"/>
<g>
	<path fill="none" d="M-740.6,16.7c-0.9,0-1.9,0.2-2.7,0.7c-0.8,0.4-1.4,0.9-2,1.4c-2.4,2.3-3,5.6-2.7,9.1c0.1,0.4,0.1,0.7,0.2,1.1
		c0.4,1.7,1.2,2.6,2.9,2.5c1.4-0.1,2.8-0.8,4.2-1.3c0.9-0.4,1-1.2,1-2.2c-0.1-2.1-0.2-4.2-0.1-6.4c0-1.1,0.3-2.3,0.4-3.4
		C-739.2,17-739.4,16.6-740.6,16.7z"/>
	<path fill="none" d="M-797.5,31.9c-0.3,1.7-0.3,3.3,0.2,4.9c0.5,1.6,2.6,2.3,4.6,1.8c1.5-0.4,1.7-0.5,1.8-2.1
		c0.1-1.1,0.1-2.2,0.1-3.2c0.1-2.6,0.2-5.1,0.2-8c-1,0.4-2,0.5-2.6,1C-795.2,27.7-796.9,29.3-797.5,31.9z"/>
	<path fill="none" d="M-812.9,15.8c-0.4,0-0.8,0.2-1.1,0.5c-0.3,0.3-0.5,0.7-0.6,1c-0.4,1.3-0.8,2.7-1.3,4c-0.6,1.7-0.4,2,1.5,1.7
		c0.3-0.1,0.7-0.5,0.9-0.9c0.2-0.5,0.3-1.1,0.4-1.6c0.3-1.3,0.6-2.5,0.9-3.9C-812.5,16.4-812.7,15.8-812.9,15.8z"/>
	<path fill="none" d="M-697.3,9.8c-1.5-0.4-3.4,0.1-4.3,1.4c-1.8,2.4-2.6,5.2-2.2,9.1c0.1,2.2,3.2,4.3,6.7,2c0.7-0.4,0.9-1,0.9-1.9
		c-0.1-3.2-0.2-6.3-0.2-9.5C-696.5,10.2-696.7,10-697.3,9.8z"/>
	<path fill="#EBE8DC" d="M-682.2,17.7c-0.4-0.4-0.8-0.8-1.2-1.2c-0.7-0.1-1.1,0.4-1.1,0.4c-0.6,1.2-1.2,2.3-2.2,3.1
		c-0.7,0.4-1.6,0.3-2.3,0c-1-0.4-1.2-1.4-1.2-2.3c-0.1-1.9-0.1-3.7,0.6-5.5c0.5-1.3,1-2.7,1.4-4c0.4-1.4,0.5-2.8-0.6-3.9
		c-0.6-0.6-1.4-0.9-2-1.3c-1.3-0.8-2.8-0.5-3.5,0.8c-3.2-0.6-6.3-0.1-9.2,1.4c-2.3,1.2-4.2,2.8-5.2,5.3c-1.1,2.8-1.1,5.6-0.6,8.5
		c0.3,1.5-0.3,3-1.6,3.5c-0.8,0.3-1.5,0.3-2-0.7c-0.7-1.5-0.4-3-0.1-4.4c0.7-2.6,1.5-5.1,2.3-7.6c0.5-1.7,0.3-3.3-1.2-4.4
		c-0.8-0.6-1.6-1-2.4-1.6c-0.8-0.5-1.1-0.1-1.4,0.6c-0.8,2-1.7,3.9-2.5,5.8c-1.4,3.2-3.3,6.1-4.2,9.5c-0.4,1.7-1.3,3.2-2,4.8
		c-0.1,0-0.1,0-0.2,0c0-0.2-0.1-0.4,0-0.6c0.5-2.3,1-4.6,1.5-6.9c0.3-1.2,0.8-2.3,1-3.4c0.6-3-0.8-5.4-3.7-6.2
		c-0.6-0.2-1-0.2-1.2,0.5c-1.4,5.1-2.8,10.3-3,15.6c-0.1,1.8,0,3.8-1.4,5.3c-0.3,0.3-0.9,0.8-1.1,0.7c-0.4-0.2-0.8-0.7-1-1.2
		c-0.2-0.4-0.1-0.9-0.1-1.3c0.1-3.9,1.3-7.6,2.3-11.4c0.3-1.2,0.5-2.5-0.4-3.4c-1-1.1-2.3-1.9-3.6-2.8c-0.9-0.6-1.4-0.1-1.9,0.7
		c-0.2,0.3-0.5,0.6-0.9,0.7c-1.5,0.3-3.1,0.3-4.6,0.6c-3.6,0.8-6.4,2.8-8.1,6.2c-1.5,3.2-1.5,6.5-1.4,9.9c0.1,2.1-1,4.1-2.9,5
		c-1,0.5-1.6,0.3-1.8-0.8c-0.2-0.9-0.3-1.9-0.3-2.9c0.2-2.9,1-5.6,2-8.4c0.3-1,0.7-2,0.6-3c-0.2-2.5-0.9-3.4-4.4-4.3
		c-0.8-0.2-1.2,0-1.4,0.8c-0.6,3.5-1.3,7.1-1.9,10.6c-0.3,2.3-0.4,4.7-0.6,7c-0.1,0.9-1.1,1.8-1.9,1.8c-0.8,0-1.6-0.8-1.5-1.8
		c0-1.3,0-2.7,0.4-4c0.6-2.2,1.6-4.4,2.3-6.6c0.4-1.2,0.6-2.5,0.7-3.7c0.1-2-1.6-4-3.5-4.4c-1.2-0.2-1.5,0-1.4,1.2
		c0.1,1.8-0.7,3-2.3,3.5c-1,0.3-2.1,0.3-3.2,0.5c-0.9,0.1-1.3-0.2-0.9-1.2c0.4-0.8,0-1.3-0.8-1.2c-1.4,0.1-2.8,0.2-4.2,0.5
		c-1.3,0.2-1.9,1.1-1.6,2.4c0.2,1,0.6,2,0.9,3c0.3,0.8,0.8,1.7,0.8,2.5c0,1.9-0.2,3.7-0.5,5.6c-0.4,2.4-1.6,4.4-3.2,6.2
		c-0.8,0.8-1.4,0.7-1.7-0.4c-0.3-1-0.6-2.1-0.5-3.1c0.3-3.4,0.7-6.8,1.1-10.3c0.4-3.2,1.5-6.1,3-8.8c1.2-2.2,1.6-4,0-5.7
		c-0.7-0.7-1.7-1.2-2.6-1.7c-1.8-1-2.6-0.6-2.9,1.4c0,0.1,0,0.3-0.1,0.4c-0.7,3.4-1.5,6.7-2.2,10.1c-0.2,1.2-0.9,1.7-2.1,1.7
		c-3.2,0-5.6,1.6-7.5,3.9c-3.4,4.2-4.8,9-3.1,14.4c0.2,0.6-0.1,1.5-0.5,2c-1.3,1.7-4.4,1.6-5.6-0.3c-1.8-2.7-2.4-5.7-2.3-8.9
		c0-0.9,0.3-1.4,1.3-1.7c2.2-0.8,4.2-3.9,4.2-6.1c0-1-0.4-1.4-1.4-1.2c-0.6,0.1-1.1,0.2-1.7,0.3c-0.8,0.1-1.1-0.3-0.9-1.1
		c0.2-1,0.4-2.1,0.7-3.1c0.6-2.3,1.3-4.6,1.9-6.9c0.6-2.3-0.6-4.6-2.6-4.9c-2.3-0.3-4.6,0.1-6.5,1.4c-3.7,2.6-5.9,6.2-7.2,10.4
		c-1,3.3-1.6,6.8-2.5,10.1c-0.9,3-1.8,6-2.9,9c-0.6,1.6-1.9,4.3-3.8,5.9c-2.7,2.1-5.9,2.6-9.4,2c-3.5-0.6-6.3-2.1-9-4.3
		c-1.3-1.1-2.8-2.1-4.2-2.9c-1.3-0.8-2.7-0.1-2.7,1.5c0,1.4,0,2.8,0.3,4.1c0.4,1.4,0.8,3.1,1.8,4.1c1.3,1.3,3,2.2,4.6,3.1
		c2.5,1.4,5.2,2.1,8,2.4l0,0l1.6,0.2c1.9,0.2,3.6,0.1,5.1-0.2c0.2,0,0.5-0.1,0.7-0.1c0.1,0,0.3-0.1,0.4-0.1c0.1,0,0.1,0,0.2-0.1
		c0,0,0,0,0,0c1.9-0.6,3.2-1.4,4-1.9l0,0c0,0,2.7-1.8,4.2-4.2l0,0c3.2-4.3,5.3-9.6,5.3-9.6l0,0c0.7-1.6,1.2-3.2,1.7-4.9
		c0.5-2.2,0.6-2.2,3-2.1c0.1,0,0.2,0,0.3,0c0.7,0,0.9,0.3,0.9,1c0,1.4,0.1,2.8,0.2,4.3c0.2,3.4,1,6.6,4.2,8.6
		c2.3,1.4,4.6,2.4,7.1,0.9c1-0.5,1.9-1.2,2.7-2c0.6-0.6,1.1-0.6,1.9-0.4c1.8,0.4,3.6,0.8,5.4,0.9c1.2,0,2.6-0.4,3.4-1.1
		c1.3-1.1,2.5-1.3,4.1-1.1c2,0.2,3.8-0.4,5.1-2.2c2.4-3.3,3.6-7.1,4.5-10.9c1-4.1,0.4-3.3,4.3-3.7c0.1,0,0.1,0,0.3,0.1
		c0,0.3,0,0.7-0.1,1c-0.6,2.4-0.4,4.9,0.3,7.2c0.5,1.7,1,3.5,2.8,4.2c2.1,0.9,4.4,1,6.4-0.2c1.1-0.6,1.9-0.5,2.9,0
		c2.2,1.1,4.3,0.7,6.2-0.7c0.8-0.6,1.6-1.1,2.3-1.8c0.6-0.5,1-0.6,1.7-0.2c2.9,1.5,5.9,1.8,8.8,0.1c1.3-0.8,2.5-0.8,3.9-0.2
		c2.3,1,4.4,0.7,6.3-1c0.7-0.6,1.3-0.7,2.2-0.2c1.4,0.8,2.9,0.6,3.8-0.3c1.3-1.3,2-2.9,2.5-4.7c0.6-2.3,1.4-4.5,2.1-6.8
		c0-0.1,0.2-0.2,0.4-0.4c0.5,1.5,0.8,2.8,1.3,4.1c1.4,3.4,4.8,4.3,7.6,2.1c0.8-0.7,1.6-1.4,2.3-2.1c1.1,0.8,2,1.7,3.1,2.1
		c3,1.1,5.9,1,8.7-0.7c0.4-0.3,1.1-0.5,1.5-0.3c0.1,0.1,0.2,0.1,0.3,0.2c0,0,5,1.6,8.8,0.9c1.9-0.5,2.8-1.2,2.9-1.4c0,0,0,0,0,0
		C-679.7,21.4-682,17.9-682.2,17.7z M-813.2,20.6c-0.1,0.5-0.2,1.1-0.4,1.6c-0.2,0.4-0.5,0.8-0.9,0.9c-1.8,0.4-2.1,0.1-1.5-1.7
		c0.4-1.3,0.8-2.7,1.3-4c0.1-0.4,0.3-0.8,0.6-1c0.3-0.3,0.8-0.5,1.1-0.5c0.2,0,0.4,0.6,0.7,0.9C-812.6,18.1-812.9,19.3-813.2,20.6z
		 M-790.8,33.2c0,1.1,0,2.2-0.1,3.2c-0.1,1.6-0.2,1.7-1.8,2.1c-2,0.5-4.1-0.2-4.6-1.8c-0.5-1.6-0.5-3.2-0.2-4.9
		c0.5-2.6,2.3-4.2,4.2-5.7c0.7-0.5,1.6-0.6,2.6-1C-790.7,28.1-790.8,30.6-790.8,33.2z M-739.3,18.2c-0.1,1.1-0.4,2.3-0.4,3.4
		c0,2.1,0,4.3,0.1,6.4c0.1,1-0.1,1.8-1,2.2c-1.4,0.6-2.8,1.2-4.2,1.3c-1.7,0.1-2.5-0.8-2.9-2.5c-0.1-0.4-0.1-0.7-0.2-1.1
		c-0.3-3.5,0.3-6.8,2.7-9.1c0.6-0.5,1.2-1,2-1.4c0.8-0.4,1.8-0.6,2.7-0.7C-739.4,16.6-739.2,17-739.3,18.2z M-697.2,22.3
		c-3.5,2.3-6.6,0.2-6.7-2c-0.4-3.9,0.4-6.6,2.2-9.1c1-1.3,2.8-1.8,4.3-1.4c0.6,0.2,0.8,0.3,0.8,1.1c0,3.2,0.1,6.3,0.2,9.5
		C-696.2,21.3-696.5,21.9-697.2,22.3z"/>
	<path fill="#EBE8DC" d="M-759.1,11.7c3.3,0.9,5.6-1.4,5.7-4.6c0-1-0.5-1.3-1.5-1.2c-1.2,0.3-2.4,0.7-3.5,1
		c-1.5,0.4-2.3,1.8-1.9,3.2C-760.2,10.8-759.7,11.5-759.1,11.7z"/>
</g>
<rect x="-586.5" y="398.6" fill="#414143" width="270" height="24.7"/>
<rect x="-892.7" y="191.6" fill="#EBE8DC" width="270" height="162"/>
<rect x="-756.6" y="235.2" fill="none" width="170.1" height="22.3"/>
<text transform="matrix(1 0 0 1 -756.5965 247.1145)" fill="#EE5A2B" font-family="'Oswald'" font-size="13.5742">ADRIANA GRANIERI    </text>
<circle fill="#EE5A2B" cx="-822.6" cy="271.6" r="36.7"/>
<text transform="matrix(1 0 0 1 -756.5965 259.9417)" fill="#414143" stroke="#414143" stroke-width="0.2" stroke-miterlimit="10" font-family="'Oswald-Light'" font-size="8.3533">GRAPHIC DESIGNER</text>
<g>
	<text transform="matrix(1 0 0 1 -756.5965 284.0022)"><tspan x="0" y="0" fill="#414143" stroke="#414143" stroke-width="0.1" stroke-miterlimit="10" font-family="'Oswald-Light'" font-size="8.3533">a.granie</tspan><tspan x="23.2" y="0" fill="#414143" stroke="#414143" stroke-width="0.1" stroke-miterlimit="10" font-family="'Oswald-Light'" font-size="8.3533">ri@</tspan><tspan x="33.3" y="0" fill="#414143" stroke="#414143" stroke-width="0.1" stroke-miterlimit="10" font-family="'Oswald-Light'" font-size="8.3533">h</tspan><tspan x="36.9" y="0" fill="#414143" stroke="#414143" stroke-width="0.1" stroke-miterlimit="10" font-family="'Oswald-Light'" font-size="8.3533">otmail.com</tspan></text>
</g>
<g>
	
		<text transform="matrix(1 0 0 1 -756.5965 296.01)" fill="#414143" stroke="#414143" stroke-width="0.1" stroke-miterlimit="10" font-family="'Oswald-Light'" font-size="8.3533">cell: 613.513.3722</text>
</g>
<g>
	<text transform="matrix(1 0 0 1 -756.5965 307.3215)"><tspan x="0" y="0" fill="#414143" stroke="#414143" stroke-width="0.1" stroke-miterlimit="10" font-family="'Oswald-Light'" font-size="8.3533">behance.ne</tspan><tspan x="33" y="0" fill="#414143" stroke="#414143" stroke-width="0.1" stroke-miterlimit="10" font-family="'Oswald-Light'" font-size="8.3533">t</tspan><tspan x="35.6" y="0" fill="#414143" stroke="#414143" stroke-width="0.1" stroke-miterlimit="10" font-family="'Oswald-Light'" font-size="8.3533">/</tspan><tspan x="38.2" y="0" fill="#414143" stroke="#414143" stroke-width="0.1" stroke-miterlimit="10" font-family="'Oswald-Light'" font-size="8.3533">agranieri</tspan></text>
</g>
<g>
	<path fill="none" d="M-803.7,256.1c-0.5-0.1-1.2,0.2-1.7,0.5c-0.5,0.3-0.8,0.8-1.1,1.4c-0.9,1.8-1.7,3.7-2.6,5.5
		c-1.1,2.4-0.9,2.8,1.8,2.7c0.5,0,1.1-0.6,1.4-1.1c0.4-0.7,0.6-1.5,0.8-2.3c0.7-1.7,1.3-3.5,2.1-5.4
		C-803.2,257-803.3,256.2-803.7,256.1z"/>
	<path fill="#EBE8DC" d="M-790.6,294.5l-1.8-2.2c0,0-3.4,3.5-7.5-0.4c-0.2-0.3-0.4-0.6-0.6-0.9c-2-4.2-2.4-8.6-1.7-13.1
		c0.2-1.2,0.7-1.9,2.1-2.2c3.2-0.7,6.8-4.8,7.1-7.9c0.1-1.4-0.4-2-1.8-2c-0.8,0-1.6,0.1-2.4,0.1c-1.2,0-1.5-0.6-1.1-1.7
		c0.5-1.4,1-2.8,1.6-4.2c1.3-3.2,2.7-6.3,4-9.5c1.3-3.1,0-6.7-2.7-7.4c-3.3-0.9-6.6-0.8-9.6,0.8c-5.7,3-9.6,7.8-12.2,13.5
		c-2.1,4.5-3.5,9.4-5.5,14c-2.1,4.9-4.3,9.7-6.9,14.4c-1.1,2.1-2.9,4.1-4.9,5.3c-4.4,2.8-9.2,2.9-14.2,1.4c-4.9-1.5-8.6-4.2-12-7.8
		c-1.7-1.8-3.5-3.4-5.5-5c-1.8-1.4-3.9-0.6-4.2,1.7c-0.3,2-0.5,4-0.3,5.9c0.3,2.1,0.6,4.5,1.8,6.2c1.5,2.1,3.9,3.7,6,5.2
		c4.9,3.5,10.4,5.2,16.3,5.8c2,0.2,4.2,0.5,6.1,0.1c1.7-0.4,3.3-0.9,4.9-1.6l0,0c0,0,9.7-2.3,19.1-21.7l0,0c0.5-1.1,1-2.2,1.5-3.3
		c1.2-3.1,1.3-3.1,4.7-2.4c0.2,0,0.3,0.1,0.5,0.1c1,0.1,1.2,0.6,1.1,1.5c-0.2,2-0.4,4.1-0.5,6.1c-0.4,5,0.2,9.5,4.4,13
		c3,2.4,6.1,4.2,10,2.6c1.2-0.5,2.3-1.1,3.4-1.8l-0.6-1.8L-790.6,294.5z M-805,262.9c-0.3,0.8-0.4,1.6-0.8,2.3
		c-0.3,0.5-0.9,1.1-1.4,1.1c-2.7,0.2-2.9-0.3-1.8-2.7c0.9-1.8,1.7-3.7,2.6-5.5c0.2-0.5,0.6-1,1.1-1.4c0.5-0.3,1.2-0.6,1.7-0.5
		c0.3,0.1,0.5,0.9,0.8,1.4C-803.6,259.4-804.3,261.1-805,262.9z"/>
</g>
<path fill="#EBE8DC" d="M-799.3,292.5c0,0-1.3-1.2-2.3-4.3l-1.1-0.2c0,0,0.1,3.1,0.2,3.2c0,0.1,1.2,2.7,1.4,2.9
	c0.2,0.1,1.7-0.2,1.7-0.2L-799.3,292.5z"/>
<path fill="#EBE8DC" d="M230.9,112.4c6.3,1.8,10.7-2.7,10.8-8.7c0-1.8-1-2.5-2.9-2.3c-2.2,0.7-4.5,1.3-6.7,2
	c-2.8,0.9-4.4,3.4-3.6,6.1C228.8,110.6,229.9,112.1,230.9,112.4z"/>
<path fill="#EBE8DC" d="M317.7,95.7c6.3,1.8,10.7-2.7,10.8-8.7c0-1.8-1-2.5-2.9-2.3c-2.2,0.7-4.5,1.3-6.7,2
	c-2.8,0.9-4.4,3.4-3.6,6.1C315.7,93.9,316.7,95.4,317.7,95.7z"/>
<path fill="#EBE8DC" d="M343.6,135.2c-0.9-4.8-4-8-7.4-11.1h0c-1.3-0.2-2.1,0.8-2.1,0.8c-1.5,3.2-3.4,6-6.6,7.7
	c-2.4,1.3-4.3,0.3-4.6-2.5c-0.2-1.8-0.3-3.7,0-5.4c0.7-4.5,1.6-9,2.6-13.5c1.3-6.1,0.2-7.2-4-10.1c-1.3-0.9-2.8-1.4-4.2-2
	c-1.9-0.8-2.2-0.5-2.6,1.6c-0.5,3.2-1.2,6.4-1.6,9.6c-0.7,4.8-1.2,9.6-1.7,14.5c-0.1,0.7-0.1,1.4,0.1,2c1,3.2-0.1,5.9-1.8,8.4
	c-0.9,1.3-2.7,1.3-3.4-0.1c-0.8-1.8-1.5-3.8-1.5-5.8c0-5.7,2.3-10.9,4.1-16.2c1.3-3.8,3.2-7.7,0-11.3c-1.9-2.2-4.4-4-6.6-5.8
	c-0.5-0.4-1.3-0.2-1.7-0.3c-0.8,3-1.4,5.7-2.3,8.4c-0.2,0.7-1,1.4-1.6,1.6c-2.6,0.7-5.2,1.1-8.4,1.8c0.5-1.5,0.8-2.5,1.1-3.7
	c-0.5-0.2-1-0.4-1.5-0.5c-3.7-0.4-7.3,0.4-10.6,2c-2,1-2.7,2.4-1.7,4.2c1.4,2.5,3.1,4.9,4.6,7.4c0.3,0.5,0.6,1.1,0.9,1.7
	c-2,14.5-11.3,25.5-11.3,25.5c-5.6,4.6-11.5,0.9-14.9-2.1c-0.4-0.4-1.5-1.9-1.3-5.9l0,0c1.3-0.1,2.5-0.2,3.8-0.3
	c10.5-0.5,16.3-5.9,17.4-16.2c0.7-6.6-5-12.3-11.6-11.6c-5.5,0.6-10,3.2-13.4,7.3c-6.6,8-8.8,16.9-4.7,26.9c0.2,0.6,0.5,1.4,0.3,1.9
	c-0.9,2.4-2.4,4.5-4.8,5.6c-3.8,1.9-6.2,0.4-5.6-3.8c0.7-5.2,2-10.4,3.1-15.5c0.4-2.2,1.3-4.3,1.3-6.5c0.1-4.2-4.6-8.3-8.8-8.1
	c-0.6,0-1.4,0.7-1.6,1.2c-0.6,2.1-0.9,4.3-1.5,6.4c0,0-2.2,21.6-2.8,24c0,0,0,0,0,0.1c-0.2,1.1-0.5,2.1-0.8,3.2
	c-0.5,1.7-1.8,2.8-3.5,2.5c-1.1-0.3-2.3-1.4-2.8-2.5c-1.9-3.6-0.7-7.4,0.3-10.9c1.1-4,3-7.8,4.4-11.8c2.4-7.2,1.9-9.8-3.4-13.4
	c-0.4-0.3-0.9-0.5-1.4-0.8c-1.6-1-2.3-0.9-3.1,1c-0.5,1.2-0.7,2.5-1.4,3.5c-1.6,2.7-3.7,5.1-4.9,7.9c-2.6,6.4-4.8,13.1-7.2,19.6
	c-0.8,2.1-1.6,4.1-2.5,6.1c-0.2-0.1-0.3-0.1-0.5-0.2c0-0.3,0-0.5,0-0.8c1.4-5.6,2.8-11.1,4.4-16.7c0.7-2.4,1.1-4.6,0.1-7.1
	c-1.5-4-5.1-5.1-8.3-6.8c-1.1-0.6-1.5,0.4-1.5,1.2c0.1,3.9-1.3,7.4-2.5,11c-2.5,7.6-3.1,15.3-3,23.3c0,2.4-0.9,4.8-1.8,7.1
	c-0.3,0.8-2,1.9-2.6,1.7c-0.9-0.4-1.8-1.7-2-2.8c-1.2-6.8,0.3-13.2,3-19.3c3.3-7.3,0.2-13-6.8-16.1c-0.8-0.4-1.8-0.8-2.3,0.7
	c-0.1,0.4-1,0.7-1.6,0.8c-2.6,0.2-5.3-0.1-7.9,0.4c-7.5,1.5-13.1,5.6-15.7,13.1c-0.5,1.4-0.6,2.9-1,4.3c-1.5,4.3-1.4,8.8-1.2,13.2
	c0.1,1.9-0.3,4-0.9,5.8c-0.4,1.4-1.7,2.9-3.3,2.4c-1.1-0.4-2.3-1.8-2.6-3c-1-3.8-0.3-7.5,0.7-11.2c1.4-4.6,2.9-9.2,4.2-13.8
	c1-3.6,0.2-6.9-3-9c-1.9-1.3-4.2-2.1-6.5-2.9c-1.9-0.7-2.2-0.2-2.1,1.8c0.1,1.7,0.5,3.6,0,5.2c-0.8,2.7-4.5,3.9-7.9,2.9
	c0.8-2.1,0.6-2.6-1.5-3.4c-0.7-0.3-1.5-0.5-2.2-0.4c-3.2,0.5-6.4,1-9.6,1.7c-2,2.4,0.2,5.3,0.2,5.3c3,5.4,2.3,7.2,2.3,7.2
	c0,2.3-3.6,11.7-3.6,11.7c-0.9,2.2-1.2,1.9-1.2,1.9c-1.2,0.2-1.5-1.7-1.5-1.8c-0.4-1.5-0.8-3.1-0.8-4.7c0-2.3,0.4-4.6,0.7-6.9
	c0.2-1.6-0.4-2.3-2.1-1.9c-3.4,0.9-6.8,1.8-10.2,2.8c-3.3,1-3.9,1.6-3.6,5.1c0.3,4-0.5,7.7-1.7,11.4c-2.7,8.8-7.9,15.3-17.5,16.9
	c-7.4,1.3-12.6-0.6-15-7.4c-0.9-2.4-1.4-5.2-1.1-7.7c0.8-8.3,4.1-15.8,7.8-23.2c2.3-4.7,1.4-4.6,6.9-3.3c0.5,0.1,1.1,0.2,1.6,0.3
	c7.9,2.1,15.6,1.9,23.2-1.6c7.9-3.6,12.6-9.4,12.3-18.5c-0.1-4.4-3.1-9.7-7.8-11c-6.4-1.7-12.8-0.7-19.1,0.4c-5.8,1-10.7,3.7-14.7,8
	c-2.3,2.5-4.4,5.3-6.8,7.8c-0.7,0.8-1.9,1.4-3,1.6c-5.2,0.8-10.5,1.1-15.7,2c-6,1.1-11.9,2.8-16.9,6.4c-2.1,1.5-4.5,3-5.8,5.1
	c-3,4.8-3.2,10.2-1.6,15.6c0.3,0.8,0.9,1.7,1.6,2.1c0.3,0.2,1.4-0.7,1.9-1.2c2.4-2.6,4.4-5.7,7.2-7.9c4.9-3.9,10.1-7.4,16.2-9.2
	c2.7-0.8,5.3-2.2,8.4-1.5c-0.2,0.7-0.4,1.3-0.5,1.8c-0.9,2.8-2,5.6-2.7,8.5c-1.8,8.5-3.7,16.9-3.6,25.8c0.1,6.9,2.3,12.4,8,16.3
	c5,3.3,10.7,3.9,16.4,3.1c10-1.2,17.5-6.7,23.6-14.4c1.4-1.8,2.7-3.6,4-5.5c0.2,0.1,0.5,0.1,0.7,0.2c-0.2,1.6,0.1,3.4-0.5,4.7
	c-1.2,2.5-2.9,4.9-4.6,7.2c-4.6,6.3-8.9,12.8-11.6,20.2c-1.3,3.5-2.2,7.2-0.9,11c1,3.1,2.3,6.1,5.5,7.4c4,1.7,8.2,1.3,12-0.8
	c5.5-3.1,9.1-8.2,12.2-13.6c0.6-1.1,1.1-2.4,1.3-3.6c1.8-8.7,2-17.4,0.5-26.1c-0.2-1.3,0.2-3,0.8-4.2c3-6.8,6.9-13.2,8.3-20.7
	c0.4-1.9,1.1-3.8,1.9-5.6c0.2-0.5,0.8-1.2,1.3-1.3c1.7-0.4,3.5-0.5,5.2-0.7c0,0.5,0.1,0.8,0,1.1c-0.2,4.3-0.6,8.7-0.6,13
	c-0.1,7.5,6.7,13.6,13.8,11.9c2.3-0.6,4.4-1.3,5.9-3.2c1-1.2,1.9-1.4,3.4-0.4c1.8,1.2,4,2,6.2,2.3c4.3,0.6,8.1-1.3,11.8-3.1
	c1.6-0.8,2.5-0.7,3.7,0.4c2.2,1.9,4.9,2.6,7.6,1.3c2.5-1.2,4.7-2.8,7.1-4.1c0.6-0.3,1.7-0.6,2.2-0.2c3.5,2.4,7.3,1.7,8.9-2.2
	c1.7-4.2,3-8.6,4.5-12.9c0.9-2.6,1.6-5.3,2.4-7.9c0.3,0,0.5,0.1,0.8,0.1c0.3,2.3,0.3,4.7,1,6.9c1.6,5.2,8,9.6,13.9,7.1
	c1.7-0.7,3.3-1.6,4.7-2.7c1.3-1,2.2-1.1,3.6-0.3c2.3,1.4,4.8,2.4,7.7,2c3.9-0.5,6.9-2.3,9.4-5.2c1.8-2,3.3-2.4,5.5-0.7
	c1,0.7,2.2,1.2,3.4,1.5c0,0,11.4,4.2,18.9-4.2c5.2-5.4,8.8-11.7,10.6-19.1c0.8-3.2,1.5-6.5,2.3-9.7c0.5-2.2,2.5-1.9,4-1.8
	c0.7,0,1.7,1.4,1.9,2.3c0.3,1.5,0.2,3.1,0,4.6c-0.5,5.1,0.1,10,2.6,14.5c1.3,2.3,3,4.2,5.8,4.7c3.1,0.5,6-0.2,8.5-1.8
	c1.8-1.2,3.4-2.6,5.2-4c4.1,4.2,9.2,3.4,14.3,3.5c-0.2,0.8-0.3,1.5-0.6,2.1c-2.5,5.4-5.7,10.1-10.5,14c-5.1,4.1-10.6,7.4-16.5,10.1
	c-4.9,2.3-10.1,3-15.3,3.9c-4.8,0.8-9.7,1.8-14.5,1.9c-9.1,0.2-18.3-0.2-27.4-0.4c-9.3-0.2-18.5-0.9-27.8,0.4
	c-9.5,1.3-19.1,2.3-28.6,3.8c-6.7,1.1-13.4,2.9-20.1,4.2c-10.2,2-20.4,4.5-29.9,8.9c-5.1,2.4-9.9,5.3-13.8,9.5
	c-1.9,2-3.5,4.3-5.3,6.4c-3.1,3.5-6.2,6.9-9.3,10.5c-0.5,0.5-1.2,1.6-1,1.9c0.7,0.9,1.6,1.9,2.5,2c2.4,0.3,4.9,0.4,7.3,0.1
	c5.7-0.7,10.4-3.8,14.6-7.5c2-1.7,3.5-4,5.6-5.6c6.5-4.6,13.6-8.3,21.1-11.2c5.6-2.2,11.4-4,17.1-5.8c4.7-1.4,9.3-3,14.1-3.7
	c8.9-1.3,17.8-2.2,26.7-3.1c2.3-0.3,4.6-0.5,6.9-0.4c13.8,0.7,27.6,1.4,41.3,2.1c9.1,0.5,18.2,0.1,27-2.5c7.9-2.4,15.6-5.4,22.8-9.4
	c6-3.4,12.1-6.7,16.2-12.5c2.7-3.9,5.5-7.8,7.5-12C343.7,145.6,344.7,140.5,343.6,135.2z M260.4,119.3c0.8-0.3,1.8-0.1,2.6-0.1
	c-0.1,0.8,0.1,1.8-0.3,2.5c-1.9,3.5-4.5,6.2-9.1,6.5C254.8,124,256.5,120.8,260.4,119.3z M82.2,124.5c3.5-0.8,7.2-0.9,10.9-1
	c1.4-0.1,3.3,0.3,3.3,2c0,1.2-1.2,2.5-1.9,3.7c-0.2,0.3-0.7,0.5-1.1,0.6c-6.3,1.8-12.6,1.8-19.4,0.2C76.5,127.4,79,125.2,82.2,124.5
	z M100.4,206c-0.5,2-1.4,4-2.3,5.9c-0.3,0.7-1.3,1.1-2,1.6c-0.3-0.7-0.9-1.6-0.7-2.2c1-4,2.2-8.1,3.4-12.1c0.1-0.5,1-1.1,1.5-1
	c0.5,0,0.9,0.8,1.2,1.2C101.2,201.7,101,203.9,100.4,206z M168.9,156.1c-0.1,0.8,0.1,1.7,0,2.6c-0.4,3.6-2.7,5.8-6.4,6.2
	c-2.8,0.3-4.7-0.8-5.7-3.4c-2.9-7.5-0.5-16.5,6.2-20.3c1.7-1,4-1.1,6-1.3c0.3,0,1.3,1.3,1.2,1.9
	C169.9,146.5,169.4,151.3,168.9,156.1z"/>
<g>
	<path fill="none" d="M227,41.3c-1.7,0.1-3.6,0.4-5.1,1.3c-1.4,0.8-2.7,1.7-3.7,2.7c-4.6,4.4-5.8,10.6-5.2,17.4
		c0.1,0.7,0.2,1.4,0.4,2.1c0.8,3.2,2.3,5,5.6,4.7c2.7-0.2,5.4-1.4,7.9-2.5c1.7-0.7,2-2.3,1.9-4.1c-0.2-4-0.3-8.1-0.2-12.1
		c0-2.2,0.6-4.4,0.8-6.5C229.8,41.9,229.3,41.2,227,41.3z"/>
	<path fill="none" d="M119,70.3c-0.6,3.2-0.6,6.3,0.3,9.2c0.9,3,4.9,4.3,8.7,3.4c2.9-0.7,3.2-1,3.4-4c0.1-2.1,0.1-4.1,0.2-6.2
		c0.1-4.9,0.3-9.7,0.5-15.1c-1.9,0.7-3.7,0.9-5,1.9C123.3,62.3,120,65.4,119,70.3z"/>
	<path fill="none" d="M89.6,39.7c-0.7-0.1-1.5,0.5-2.1,1c-0.5,0.5-1,1.2-1.2,2c-0.8,2.5-1.6,5.1-2.4,7.7c-1.1,3.3-0.7,3.9,2.8,3.2
		c0.7-0.1,1.4-1,1.7-1.7c0.4-0.9,0.5-2.1,0.7-3.1c0.6-2.4,1.1-4.8,1.8-7.4C90.4,40.8,90,39.8,89.6,39.7z"/>
	<path fill="none" d="M309.4,28.4c-2.9-0.8-6.4,0.2-8.3,2.6c-3.5,4.6-4.9,9.8-4.2,17.2c0.1,4.2,6,8.1,12.7,3.8
		c1.3-0.8,1.8-2,1.7-3.6c-0.3-6-0.5-12-0.4-18C310.9,29.1,310.4,28.7,309.4,28.4z"/>
	<path fill="#EBE8DC" d="M338.1,43.3c-0.7-0.8-1.5-1.5-2.3-2.3c-1.3-0.2-2.1,0.8-2.1,0.8c-1.1,2.2-2.3,4.3-4.1,5.9
		c-1.4,0.8-3,0.5-4.4,0c-1.9-0.7-2.3-2.7-2.4-4.5c-0.2-3.6-0.2-7.1,1.2-10.5c1-2.5,1.8-5.1,2.6-7.6c0.8-2.6,0.9-5.3-1.2-7.4
		c-1.1-1.1-2.6-1.7-3.9-2.5c-2.5-1.6-5.4-0.9-6.7,1.6c-6.1-1.1-11.9-0.1-17.4,2.7c-4.4,2.2-8,5.3-9.9,10.1
		c-2.1,5.3-2.1,10.7-1.1,16.2c0.5,2.8-0.6,5.7-3,6.6c-1.5,0.6-2.9,0.5-3.7-1.3c-1.3-2.8-0.9-5.6-0.1-8.3c1.3-4.9,2.9-9.6,4.4-14.5
		c1-3.3,0.6-6.2-2.4-8.4c-1.5-1.1-3.1-2-4.6-3c-1.5-1-2.1-0.2-2.7,1.1c-1.6,3.7-3.2,7.4-4.8,11.1c-2.7,6-6.3,11.6-7.9,18.1
		c-0.8,3.2-2.5,6.1-3.9,9.1c-0.1,0-0.3-0.1-0.4-0.1c0-0.4-0.1-0.7,0-1c0.9-4.4,1.8-8.7,2.9-13.1c0.5-2.2,1.5-4.3,1.9-6.5
		c1.2-5.8-1.6-10.3-7-11.9c-1.1-0.3-2-0.3-2.3,1c-2.7,9.8-5.3,19.5-5.8,29.7c-0.2,3.5,0,7.2-2.7,10.1c-0.6,0.6-1.7,1.5-2.1,1.3
		c-0.8-0.4-1.5-1.3-1.9-2.2c-0.3-0.7-0.2-1.7-0.2-2.5c0.1-7.5,2.5-14.5,4.4-21.6c0.6-2.3,1-4.7-0.7-6.5c-2-2.1-4.4-3.6-6.8-5.3
		c-1.7-1.1-2.7-0.1-3.6,1.4c-0.3,0.6-1,1.2-1.6,1.3c-2.9,0.5-5.9,0.6-8.8,1.2c-6.9,1.5-12.2,5.3-15.3,11.8c-2.9,6-2.9,12.4-2.6,18.8
		c0.2,4-1.8,7.8-5.5,9.5c-1.9,0.9-3,0.5-3.4-1.6c-0.4-1.8-0.7-3.7-0.6-5.5c0.3-5.5,1.9-10.7,3.8-15.9c0.7-1.8,1.2-3.9,1.1-5.8
		c-0.5-4.7-1.8-6.5-8.3-8.1c-1.6-0.4-2.3,0.1-2.6,1.5c-1.2,6.7-2.5,13.4-3.5,20.2c-0.7,4.4-0.8,8.9-1.2,13.4c-0.2,1.7-2,3.4-3.6,3.4
		c-1.5-0.1-3-1.5-2.9-3.5c0-2.5,0-5.2,0.7-7.6c1.2-4.2,3-8.3,4.3-12.5c0.7-2.3,1.2-4.7,1.4-7.1c0.2-3.7-3.1-7.6-6.6-8.4
		c-2.3-0.5-2.8,0-2.7,2.3c0.2,3.3-1.3,5.7-4.4,6.7c-1.9,0.6-4,0.7-6.1,0.9c-1.6,0.2-2.5-0.3-1.7-2.2c0.7-1.5,0.1-2.4-1.6-2.3
		c-2.7,0.2-5.4,0.4-8,0.9c-2.4,0.4-3.5,2.1-3.1,4.5c0.3,1.9,1.1,3.8,1.7,5.7c0.5,1.6,1.5,3.2,1.5,4.8c0,3.5-0.4,7.1-1,10.6
		c-0.8,4.5-3.1,8.4-6.1,11.8c-1.4,1.6-2.6,1.4-3.1-0.7c-0.5-1.9-1.1-4-0.9-6c0.5-6.5,1.3-13,2.1-19.5c0.7-6,2.8-11.5,5.7-16.8
		c2.3-4.1,3.1-7.6,0.1-10.9c-1.3-1.4-3.2-2.4-4.9-3.3c-3.4-1.9-4.9-1.1-5.6,2.8c-0.1,0.3-0.1,0.6-0.1,0.8
		c-1.4,6.4-2.8,12.8-4.1,19.2c-0.5,2.2-1.7,3.2-4,3.2c-6,0-10.7,3.1-14.2,7.5c-6.5,8-9.1,17.1-5.9,27.4c0.3,1.1-0.1,2.9-0.9,3.9
		c-2.6,3.3-8.4,3-10.7-0.6c-3.3-5.1-4.6-10.8-4.4-16.9c0-1.6,0.6-2.7,2.4-3.3c4.1-1.5,8-7.5,7.9-11.5c0-1.9-0.9-2.6-2.7-2.3
		c-1.1,0.2-2.1,0.4-3.1,0.6c-1.6,0.2-2.1-0.5-1.8-2c0.4-1.9,0.8-3.9,1.4-5.8c1.2-4.4,2.5-8.8,3.6-13.2c1.1-4.3-1.2-8.7-4.9-9.3
		c-4.5-0.7-8.7,0.1-12.4,2.7c-7,4.9-11.3,11.8-13.7,19.8c-1.9,6.3-3,12.9-4.8,19.2c-1.6,5.7-3.4,11.4-5.5,17
		c-1.2,3-3.6,8.1-7.2,11.2c-5.1,4-11.2,4.9-17.8,3.8c-6.6-1.1-12-4.1-17.1-8.2c-2.5-2-5.2-3.9-8-5.6c-2.6-1.6-5.2-0.1-5.2,2.9
		c0,2.6,0,5.3,0.6,7.8c0.7,2.7,1.6,5.8,3.4,7.8c2.4,2.5,5.7,4.2,8.8,5.8c4.8,2.6,10,4,15.3,4.6l0,0l3.1,0.3c3.7,0.4,6.9,0.2,9.6-0.3
		c0.4-0.1,0.9-0.2,1.3-0.3c0.3-0.1,0.5-0.1,0.8-0.2c0.1,0,0.2-0.1,0.4-0.1c0,0,0,0,0.1,0c3.6-1.1,6.2-2.6,7.6-3.7l0,0
		c0,0,5.2-3.4,8-7.9l0,0c6.2-8.1,10-18.3,10-18.3l0,0c1.3-3,2.4-6.1,3.2-9.3c1-4.2,1.2-4.3,5.7-3.9c0.2,0,0.4,0,0.6,0
		c1.3,0,1.7,0.6,1.7,1.8c0.1,2.7,0.2,5.4,0.4,8.1c0.4,6.5,1.9,12.5,8,16.3c4.3,2.7,8.7,4.5,13.6,1.8c1.8-1,3.6-2.3,5.1-3.8
		c1.2-1.2,2.1-1.1,3.5-0.8c3.4,0.8,6.8,1.6,10.2,1.6c2.2,0,4.9-0.7,6.5-2.1c2.5-2.1,4.8-2.5,7.8-2.2c3.8,0.3,7.2-0.8,9.7-4.2
		c4.6-6.2,6.8-13.4,8.6-20.7c1.9-7.7,0.8-6.2,8.2-7.1c0.1,0,0.3,0.1,0.5,0.1c0,0.6,0,1.3-0.1,1.9c-1.1,4.6-0.7,9.2,0.5,13.7
		c0.9,3.3,2,6.7,5.4,8.1c4,1.6,8.3,2,12.2-0.3c2.1-1.2,3.6-1,5.5-0.1c4.2,2.1,8.2,1.3,11.8-1.4c1.5-1.1,3-2.2,4.4-3.4
		c1.1-1,1.9-1,3.2-0.4c5.5,2.9,11.2,3.3,16.7,0.2c2.6-1.5,4.8-1.5,7.4-0.4c4.3,1.9,8.4,1.4,11.9-1.9c1.3-1.2,2.5-1.4,4.2-0.4
		c2.6,1.5,5.4,1.2,7.1-0.5c2.5-2.5,3.8-5.5,4.7-8.9c1.2-4.4,2.7-8.6,4-13c0.1-0.3,0.4-0.5,0.8-0.8c0.9,2.8,1.6,5.4,2.6,7.9
		c2.6,6.4,9,8.1,14.5,3.9c1.6-1.2,3-2.7,4.3-4c2.1,1.5,3.8,3.3,5.9,4.1c5.6,2.2,11.3,2,16.6-1.3c0.8-0.5,2.1-1,2.8-0.7
		c0.2,0.1,0.4,0.2,0.6,0.3c0,0,9.6,3,16.8,1.6c3.5-0.9,5.3-2.3,5.6-2.6c0,0,0.1-0.1,0.1-0.1C342.7,50.4,338.4,43.7,338.1,43.3z
		 M89,48.8c-0.2,1-0.3,2.1-0.7,3.1c-0.3,0.7-1,1.5-1.7,1.7c-3.5,0.7-3.9,0.1-2.8-3.2c0.8-2.6,1.5-5.1,2.4-7.7c0.2-0.7,0.6-1.5,1.2-2
		c0.6-0.5,1.4-1,2.1-1c0.5,0,0.8,1.1,1.3,1.7C90.2,44,89.6,46.4,89,48.8z M131.6,72.8c-0.1,2.1-0.1,4.1-0.2,6.2
		c-0.1,3-0.5,3.3-3.4,4c-3.9,0.9-7.8-0.4-8.7-3.4c-0.9-3-0.9-6.1-0.3-9.2c1-4.9,4.4-8,8.1-10.8c1.3-1,3.1-1.2,5-1.9
		C131.9,63,131.7,67.9,131.6,72.8z M229.5,44.2c-0.2,2.2-0.8,4.4-0.8,6.5c-0.1,4,0,8.1,0.2,12.1c0.1,1.8-0.2,3.4-1.9,4.1
		c-2.6,1.1-5.2,2.3-7.9,2.5c-3.2,0.2-4.8-1.5-5.6-4.7c-0.2-0.7-0.3-1.4-0.4-2.1c-0.6-6.7,0.6-13,5.2-17.4c1.1-1,2.3-1.9,3.7-2.7
		c1.5-0.8,3.3-1.2,5.1-1.3C229.3,41.2,229.8,41.9,229.5,44.2z M309.6,52.1c-6.7,4.3-12.5,0.4-12.7-3.8c-0.7-7.4,0.7-12.6,4.2-17.2
		c1.8-2.4,5.4-3.4,8.3-2.6c1.1,0.3,1.5,0.7,1.5,2c0,6,0.2,12,0.4,18C311.4,50.1,310.9,51.2,309.6,52.1z"/>
	<path fill="#EBE8DC" d="M191.8,31.9c6.3,1.8,10.7-2.7,10.8-8.7c0-1.8-1-2.5-2.9-2.3c-2.2,0.7-4.5,1.3-6.7,2
		c-2.8,0.9-4.4,3.4-3.6,6.1C189.8,30.1,190.8,31.6,191.8,31.9z"/>
</g>
</svg>
