<?xml version="1.0" encoding="utf-8"?>
<!-- Generator: Adobe Illustrator 18.0.0, SVG Export Plug-In . SVG Version: 6.00 Build 0)  -->
<!DOCTYPE svg PUBLIC "-//W3C//DTD SVG 1.1//EN" "http://www.w3.org/Graphics/SVG/1.1/DTD/svg11.dtd">
<svg version="1.1" id="Layer_1" xmlns="http://www.w3.org/2000/svg" xmlns:xlink="http://www.w3.org/1999/xlink" x="0px" y="0px"
	 viewBox="195 75 803 677.1" enable-background="new 195 75 803 677.1" xml:space="preserve">
<path fill="#EBE8DC" d="M259,458h-18c-6.6,0-12-5.4-12-12V321c0-6.6,5.4-12,12-12h18c6.6,0,12,5.4,12,12v125
	C271,452.6,265.6,458,259,458z"/>
<path fill="#EBE8DC" d="M756.3,627.5h-18c-6.6,0-12-5.4-12-12V181.2c0-6.6,5.4-12,12-12h18c6.6,0,12,5.4,12,12v434.3
	C768.3,622.1,762.9,627.5,756.3,627.5z"/>
<g>
	<polygon fill="#EBE8DC" points="284,437.6 707.3,583 707.3,337 284,383.5 	"/>
	<polygon fill="#EBE8DC" points="284,340.6 284,369 707.3,266 707.3,207 	"/>
</g>
<path fill="#EBE8DC" d="M940.3,256l-117.7,46.2c-6.1,2.4-13.1-0.6-15.6-6.8v0c-2.4-6.1,0.6-13.1,6.8-15.6l117.7-46.2
	c6.1-2.4,13.1,0.6,15.6,6.8v0C949.5,246.6,946.4,253.6,940.3,256z"/>
<path fill="#EBE8DC" d="M814.3,512.4L924.8,569c5.9,3,13.1,0.7,16.2-5.2l0,0c3-5.9,0.7-13.1-5.2-16.2L825.2,491
	c-5.9-3-13.1-0.7-16.2,5.2v0C806.1,502.1,808.4,509.4,814.3,512.4z"/>
<path fill="#EBE8DC" d="M948.2,416.8L823,416.4c-6.6,0-12-5.4-12-12v0c0-6.6,5.4-12,12-12l125.3,0.4c6.6,0,12,5.4,12,12v0
	C960.3,411.5,954.8,416.8,948.2,416.8z"/>
</svg>
