<?xml version="1.0" encoding="utf-8"?>
<!-- Generator: Adobe Illustrator 22.0.1, SVG Export Plug-In . SVG Version: 6.00 Build 0)  -->
<!DOCTYPE svg PUBLIC "-//W3C//DTD SVG 1.1//EN" "http://www.w3.org/Graphics/SVG/1.1/DTD/svg11.dtd">
<svg version="1.1" id="Layer_1" xmlns="http://www.w3.org/2000/svg" xmlns:xlink="http://www.w3.org/1999/xlink" x="0px" y="0px"
	 viewBox="0 0 932.5 252.6" style="enable-background:new 0 0 932.5 252.6;" xml:space="preserve">
<style type="text/css">
	.st0{fill:#414143;}
	.st1{fill:#FFFFFF;}
	.st2{fill:#4F4F4F;}
</style>
<path class="st0" d="M155.3,180.7"/>
<path class="st0" d="M190.3,187.4"/>
<path class="st1" d="M245.1,193.4"/>
<path class="st1" d="M291.4,259"/>
<path class="st0" d="M281.4,243.7"/>
<path class="st1" d="M131.3,127.3"/>
<g>
	<path class="st2" d="M299.2,123.9c7.6,3.5,14.1-1.2,15.3-8.7c0.4-2.3-0.8-3.3-3.2-3.5c-3,0.4-5.9,0.7-8.9,1.1
		c-3.7,0.5-6.3,3.3-5.8,6.9C296.9,121.3,297.9,123.4,299.2,123.9z"/>
	<path class="st2" d="M481.9,168.3c-0.3-0.9-0.8-1.8-1.2-2.5c-0.3-0.5-1.2-1.9-2.7-2.2c-0.2-0.1-0.5-0.1-0.7-0.1c-1.2,0.1-2,0.9-2,1
		c-0.3,0.3-0.7,0.8-1,1.4l0,0c0,0,0,0.1-0.1,0.1l0,0c-2.4,4.1-6.1,6.8-6.1,6.8c-3.9,2.2-5.8,1.3-6.8,0l0,0c0-0.1-0.1-0.1-0.1-0.2
		c-0.6-0.8-0.7-1.7-0.7-1.7c-0.3-1,0.1-2.1,0.2-3.2c1.6-9.3,6-17.5,9.9-26c1.2-2.7,2.2-5.7,0.4-8.2c-2.1-2.9-4.9-5.4-7.6-7.9
		c-1.9-1.7-3.4-0.7-4.8,1c-0.5,0.6-1.5,1.2-2.3,1.2c-3.8,0-7.6-0.4-11.4-0.2c-9,0.5-16.4,4.1-21.7,11.5c-4.9,6.9-6.1,14.8-7,22.9
		c-0.5,4.1-2.7,7.6-6.2,9.6c-0.2,0.1-0.4,0.1-0.6,0.2c-2.1,0.4-3.8,0.1-4.5-2.3c-1.1-3.7,0-7.2,1.5-10.4c2.6-5.8,5.6-11.4,8.5-17.1
		c1.9-3.9,2-7.6-1.3-10.9c-1.7-1.6-3.5-3-5.3-4.6c-1.7-1.5-2.6-0.7-3.6,0.8c-2.7,4.3-5.5,8.5-8.3,12.8c-3.4,5.2-7.5,10-10.7,15.3
		c-0.2,0.4-0.4,0.8-0.6,1.1l0,0l-8.6,14.4c0,0-0.7,0.2-0.8-0.6c0-0.1,0-0.2,0.1-0.3c2-5.2,4-10.5,6.2-15.7c1.1-2.6,2.7-5.1,3.7-7.7
		c2.7-6.9,0.1-13.1-6.5-16.1c-1.3-0.6-2.4-0.8-3.1,0.8c-5.3,11.6-10.6,23.1-13.1,35.7c-0.9,4.3-1.5,8.9-5.4,11.9
		c-0.2,0.2-0.4,0.3-0.7,0.5c-1.7,0.9-2.8,0.1-3.1-0.1c-0.5-0.7-0.9-1.5-1.1-2.3c-0.3-1,0.1-2.1,0.2-3.2c1.6-9.3,6-17.5,9.9-26
		c1.2-2.7,2.2-5.7,0.4-8.2c-2.1-2.9-4.9-5.4-7.6-7.9c-1.9-1.7-3.4-0.7-4.8,1c-0.5,0.6-1.5,1.2-2.3,1.2c-3.8,0-7.6-0.4-11.4-0.2
		c-9,0.5-16.4,4.1-21.7,11.5c-4.9,6.9-6.1,14.8-7,22.9c-0.6,5.1-3.8,9.3-8.8,10.7c-2.5,0.8-3.9,0-4-2.7c-0.1-2.3-0.1-4.7,0.4-6.9
		c1.5-6.8,4.6-12.9,8-18.9c1.2-2.1,2.3-4.6,2.5-7c0.3-6-1-8.4-8.9-11.8c-2-0.8-2.9-0.4-3.6,1.4c-2.8,8.1-5.8,16.1-8.4,24.3
		c-1.7,5.4-2.7,10.9-4.2,16.4c0,0.2-0.1,0.3-0.2,0.5l0,0c0,0,0,0.1,0,0.1c0,0.1-0.1,0.2-0.1,0.3c-1.4,2.6-3.9,3-5,3.1
		c-0.1,0-0.1,0-0.2,0c-0.3,0-0.4,0-0.4,0v0c-0.3,0-0.6-0.1-0.9-0.3c-1.3-0.7-2.5-2.7-2.7-4.2c-0.5-4.9,1.1-9.4,3.1-13.8
		c2.6-5.4,5.5-10.8,8-16.3c2-4.2,1.6-8.5-2-11.8c-2.2-2-4.9-3.4-7.6-4.8c-2.3-1.2-2.8-0.7-3,1.8c-0.2,2.2-0.1,4.6-1,6.5
		c-1.5,3.2-6.4,3.9-10.6,2c0.3-0.5,0.5-1,0.7-1.4c0.2-0.7,0.1-1.3-0.1-1.6c-1.5-2.1-5.1-2.5-6.5-2.6c-3,0-5.9,0-8.9,0.1
		c-2.7,0.2-3.1,2.5-3.2,3.2c0,0,0,0,0,0c0,0,0,0.1,0,0.1c-0.1,1.8,0.8,3.4,0.8,3.4c2.7,7.3,1.5,9.4,1.5,9.4c-0.2,1.5-2,5.1-3.7,8.2
		l0,0c0,0,0,0,0,0.1c-1.1,2.1-2.2,4-2.7,4.9c-0.9,1.6-1.8,3.1-2.3,4c0,0-6.8,10.4-11.9,6.2l0,0c0,0,0-0.1,0-0.1
		c-1.5-1.9-0.1-5.9-0.1-5.9c0-0.3,0.1-0.6,0.2-0.9c1.9-8,4.3-15.9,6.5-23.8c2.1-7.3,5.7-13.7,10.5-19.7c3.7-4.6,5.4-8.8,2.3-13.5
		c-1.4-2-3.6-3.6-5.6-5.1c-3.9-3-6-2.3-7.6,2.3c-0.1,0.3-0.2,0.7-0.3,1c-3,7.7-6,15.3-9,23c-1,2.7-2.7,3.7-5.6,3.2
		c-7.6-1.3-14.1,1.6-19.5,6.4c-8.4,7.5-13.4,16.6-13.2,27.6c0,0,0,0,0,0s-0.3,3-1.2,4.8c-1.5,2.3-4.2,5.4-8.3,5.1
		c0,0-1.2-0.1-2.7-1.1c-0.5-0.4-1-0.9-1.5-1.3c-0.2-0.2-0.4-0.5-0.6-0.8c-1.5-2.1-2.4-5-2.7-6.2c-1.1-5-1.1-10.1-0.1-15.3
		c0.4-2,1.3-3.2,3.7-3.6c5.5-1.1,11.6-7.7,12.3-12.7c0.3-2.3-0.6-3.4-3-3.4c-1.4,0-2.7,0.1-4.1,0.1c-2,0-2.6-1.1-1.8-2.8
		c0.9-2.3,1.8-4.7,2.9-7c2.4-5.2,4.9-10.4,7.2-15.6c2.3-5.2,0.2-11.1-4.3-12.5c-5.5-1.7-11.1-1.6-16.2,0.9c-2.2,1-4.2,2.3-6.2,3.6
		c-1.8,1.4-11.6,9.8-22.9,38.3c0,0-3.7,8.9-8.5,17.6l0,0c-7.8,15.9-16.6,19.6-16.6,19.6s-0.5,0.1-0.5-0.4c0,0,3.6-8.1-2.1-19.4
		c-0.1-0.2-0.2-0.3-0.2-0.3c-5.4-6.5-12.1-7.3-17.1-6.6c-1.4,0.2-11.8,2.2-16.1,14.4c0,0-3.9,13.5,5,21.7l0.6,0.5
		c0,0,0.3,0.5-0.2,0.8c0,0-1.3,0.2-2.8,0.4c-1.5,0.3-3,0.4-4.6,0.5c-0.3,0-0.5,0-0.7,0l0,0c-3,0-6-0.3-9-1c-3-0.7-6-1.1-9.1-1.4
		c-2.8-0.2-4.4,2-3.2,4.5c1.1,2.2,2.2,4.4,3.8,6.2c1.7,2,3.8,4.2,6.1,5c3,1.1,6.5,1.1,9.8,1.2c7.4,0.3,14.3-1.8,20.8-5.1
		c1-0.5,2-1,3-1.6l0,0.1c13.9,0.5,25.6-7.1,28.2-8.9c6.3-4.9,11-10.6,14-15.2l0,0c3.8-5.1,8.4-15,8.4-15s0,0,0,0
		c0.5-1.1,1.1-2.2,1.5-3.3c2.1-5,2.4-5,8-3.8c0.2,0,0.3,0.1,0.5,0.1l0,0c1.6,0.4,1.1,3.1,1.1,3.1l-1.3,12c-0.6,4.7,0,8.8,1,11.9
		c0.7,2.2,3.9,10.2,13.8,13c2.2,0.5,3.8,0.5,3.8,0.5l0,0c2,0.2,3.3-0.1,3.3-0.1l0,0c1-0.1,2.1-0.4,3.2-0.7c1-0.4,2-0.8,3-1.3l0,0
		c0,0,5.4-3,10.3-1.4c0.4,0.1,0.7,0.3,1.1,0.4c0,0,0.1,0,0.1,0l0,0c4.7,1.7,8.2,2.3,10.5,2.5c4.4,0.3,9.2-2.1,9.2-2.1l0,0
		c3-1.4,5.8-1.3,9.1-0.5c0,0,10.9,3.9,19.2-5.9l0,0c1.5-1.6,3.2-3.9,5-6.9L252,156l0,0c0.5-0.8,1-1.7,1.5-2.5c0.4-0.6,1.3-1.3,2-1.3
		c2.2-0.1,4.5,0.1,6.8,0.1c-0.1,0.6-0.1,1-0.2,1.4c-1.1,5.3-2.5,10.6-3.4,16c-1.6,9.3,5.8,18.2,15.1,17.5c0.3,0,0.5-0.1,0.8-0.1l0,0
		c0,0,0.9,0,2.2-0.3c0.1,0,0.3-0.1,0.4-0.1c1.4-0.3,3.2-0.8,5.2-1.7c0.2-0.1,0.4-0.1,0.6-0.2c0.6-0.2,1.7-0.4,2.9-0.2
		c1.1,0.2,2.1,0.7,3.2,1.5c4.9,3.4,10,3.3,15.2,0.6c2.1-1.1,4.2-2.1,6.2-3.4c1.6-1,2.6-0.9,4.1,0.2c6.4,4.8,13.5,6.4,21.1,3.6
		c3.5-1.3,6.4-0.9,9.5,1c5.1,3.2,10.3,3.4,15.4,0.1c1.9-1.2,3.5-1.2,5.3,0.3c3,2.4,6.6,2.6,9.1,0.8c3.6-2.6,5.9-6.1,7.8-10.1
		c2.3-5.2,5.1-10.2,7.6-15.3c0,0,0.8-0.9,1.3-0.1c0.5,3.3,0.9,6.5,1.6,9.5c1.9,8.2,9.4,11.7,16.9,8c0.6-0.2,1.3-0.5,1.9-0.9
		c2.1-1.1,4.2-2.1,6.2-3.4c1.6-1,2.6-0.9,4.1,0.2c6.4,4.8,13.5,6.4,21.1,3.6c3.5-1.3,6.4-0.9,9.5,1c0.7,0.4,1.4,0.8,2.1,1.1l0,0
		c0,0,10.3,5.1,20.6,1.1c0.6-0.2,1-0.4,1.5-0.6c0,0,0.1,0,0.1-0.1l0,0c0.2-0.1,0.4-0.2,0.6-0.3c0.1,0,0.1-0.1,0.2-0.1
		c0.3-0.2,0.6-0.4,0.8-0.5c1.4-1.1,2.2-2.6,2.6-3.3C483.5,175.2,482.9,171,481.9,168.3z M94.1,171.5c-1,7-5.1,9.1-5.1,9.1l-1.2-0.2
		c-3.3-1-4.8-3.9-5.3-5.4c-0.1-0.2-0.2-0.5-0.3-0.7c0-0.1,0-0.2,0-0.2l0,0c-0.8-3.2,0.5-6.5,0.5-6.5c3.1-6.9,7.1-5.3,7.1-5.3
		c2.5,0.5,3.6,2.2,4.1,3.9l0,0c0,0,0.7,2,0.2,5.1c0,0,0,0,0,0C94.2,171.3,94.2,171.4,94.1,171.5L94.1,171.5z M163.5,116.9
		c-1.3,3.1-2.5,5.9-3.7,8.8c-0.5,1.2-0.8,2.6-1.5,3.7c-0.5,0.8-1.6,1.7-2.4,1.7c-4.5,0.1-5-0.7-2.9-4.6c1.6-3,3-6.1,4.5-9.1
		c0.4-0.8,1.1-1.7,1.9-2.2c0.7-0.5,1.7-0.9,2.5-0.8l0,0C161.9,114.5,164.7,114.2,163.5,116.9z M208.8,164c-0.5,2.5-0.9,5.1-1.5,7.6
		c-0.8,3.6-1.2,4-5.1,4.3c-5.1,0.4-9.8-2.1-10.4-5.9c-0.6-3.9,0-7.7,1.4-11.5c0.8-2.2,2-4,3.5-5.6c6.3-6.2,13.2-7.1,15-7.3
		c0.1,0,0.5,0,0.4,0.6C211,152.5,209.9,158.2,208.8,164z M343.6,151.7c0,0-3.1,12.7-4.2,22.5c0,0-0.1,0.9-0.6,1.9
		c-3.6,4.7-12.6,3.5-12.6,3.5c-2.6-0.5-4.3-2.2-5.5-4c-1.8-3.1-1.7-6.6-1.7-7.2c0.9-7.5,3.7-14.1,9.7-18.3c1.5-1,3.3-1.9,5.2-2.6
		c2-0.7,4.5-0.8,6.6-0.6c1,0.1,1.7,0.3,2.2,0.6l0,0c0,0,0,0,0,0c0,0,0,0,0,0C343.3,147.9,344.6,149.2,343.6,151.7z M451.4,145.5
		c0,0-3.1,12.7-4.2,22.5c0,0-0.1,0.9-0.6,1.9c-3.6,4.7-12.6,3.5-12.6,3.5c-2.6-0.5-4.3-2.2-5.5-4c-1.8-3.1-1.7-6.6-1.7-7.2
		c0.9-7.5,3.7-14.1,9.7-18.3c1.5-1,3.3-1.9,5.2-2.6c2-0.7,4.5-0.8,6.6-0.6c1,0.1,1.7,0.3,2.2,0.6l0,0c0,0,0,0,0,0c0,0,0,0,0,0
		C451,141.7,452.4,143,451.4,145.5z"/>
</g>
<path class="st0" d="M140.7,345"/>
<path class="st0" d="M162.7,349.5"/>
<path class="st1" d="M197.9,344"/>
<path class="st1" d="M225.1,391.3"/>
<path class="st0" d="M218.8,381.6"/>
<g>
	<path class="st0" d="M281.9,428.7"/>
	<path class="st0" d="M287.7,417.2c0,0-2.6,10-6.3,11.7l2.3,0.1c0,0,2.7-3,2.8-3.1c0.1-0.1,2.4-9,2.4-9L287.7,417.2z"/>
	<path class="st0" d="M295.3,410.2"/>
	<g>
		<path class="st1" d="M385.3,341.1c4.7,1.3,8-2,8-6.3c0-1.3-0.7-1.8-2.1-1.7c-1.7,0.5-3.3,1-5,1.5c-2.1,0.6-3.3,2.5-2.7,4.5
			C383.8,339.8,384.6,340.9,385.3,341.1z"/>
		<path class="st1" d="M452.8,331.2c4.7,1.3,8-2,8-6.3c0-1.3-0.7-1.8-2.1-1.7c-1.7,0.5-3.3,1-5,1.5c-2.1,0.6-3.3,2.5-2.7,4.5
			C451.3,329.9,452.1,330.9,452.8,331.2z"/>
		<path class="st1" d="M470.9,362.8c-0.5-2.7-2-4.7-3.8-6.6c-2.5-2.1-3.9,0.5-3.9,0.5l0,0c-1,1.7-2.3,3.3-4.2,4.3
			c-1.5,0.8-2.8,0.3-3.3-1.1c-0.2-1-0.3-2-0.2-3c0.2-4,1.4-7.8,2.8-11.6c0.5-1.3,0.9-2.8,0.8-4.2c-0.3-3.4-1.3-4.7-6.2-5.9
			c-1.2-0.3-1.7,0.1-1.9,1.1c-0.9,4.9-1.9,9.8-2.6,14.7c-0.5,3.2-0.6,6.5-0.9,9.8c0,0.1,0,0.2-0.1,0.3l0,0c0,0,0,0,0,0.1
			c0,0.1,0,0.1-0.1,0.2c-0.6,1.6-1.9,2.1-2.6,2.2c0,0-0.1,0-0.1,0c-0.1,0-0.2,0-0.2,0l0,0c-0.2,0-0.3,0-0.5-0.1
			c-0.8-0.3-1.7-1.3-1.9-2.2c-0.7-2.7-0.3-5.5,0.6-8.2c1-3.4,2.2-6.7,3.1-10c0.7-2.6,0.2-5-2.2-6.6c-1.4-0.9-3.1-1.5-4.8-2.1
			c-1.4-0.5-1.6-0.2-1.5,1.3c0.1,1.3,0.4,2.6,0,3.8c-0.6,2-3.3,2.8-5.9,2.1c0.1-0.3,0.2-0.6,0.3-0.8c0-0.4-0.1-0.7-0.2-0.9
			c-1-1.1-3.2-1-4-0.9c-1.7,0.3-3.4,0.5-5.1,0.9c-1.5,0.4-1.6,1.7-1.5,2.1c0,0,0,0,0,0c0,0,0,0,0,0.1c0.1,1,0.7,1.9,0.7,1.9
			c2.2,3.9,1.7,5.3,1.7,5.3c0,0.9-0.7,3.1-1.4,5l0,0c0,0,0,0,0,0c-0.5,1.3-0.9,2.5-1.1,3.1c-0.1,0.2-0.1,0.3-0.2,0.5
			c-0.9,2.8-2.2,4.8-3.4,6.2l0,0c-2.2,2.9-4.8,3-4.8,3l0,0c-0.2,0-0.4,0-0.6,0.1c-3.2,0.3-5.4-1.4-6.6-2.6c0-0.1-1.4-1.8-1.5-4.5
			c0-0.1,0.1-0.2,0.2-0.3c0.9-0.1,1.7-0.1,2.6-0.2c7.8-0.4,12.1-4.3,12.9-11.8c0.5-4.8-3.7-9-8.6-8.4c-4,0.4-7.4,2.4-9.9,5.4
			c-4.9,5.8-6.5,12.3-3.5,19.6c0.2,0.4,0.4,1,0.2,1.4c-0.7,1.7-1.8,3.3-3.5,4.1c-2.8,1.4-4.6,0.3-4.2-2.8c0.5-3.8,1.5-7.6,2.3-11.3
			c0.3-1.6,0.9-3.2,1-4.8c0-3-3.4-6-6.6-5.9c-0.4,0-1.1,0.5-1.2,0.9c-0.4,1.5-0.6,3.1-1.1,4.7c0,0-1.3,12.7-1.9,16.5l0,0
			c0,0,0,0.2-0.1,0.6c0,0.1,0,0.2-0.1,0.3l0,0c-0.3,1-0.9,2.8-2.4,3.7c-2.7,1.3-3.7-0.7-3.9-1.4c-0.5-1.7-0.2-3.5,0.2-5.2
			c0.9-3.6,2.2-7,3.3-10.5c0.8-2.4,0.4-4.5-1.7-6.1c-1.1-0.8-2.3-1.4-3.4-2.2c-1.1-0.7-1.6-0.2-2,0.8c-1.2,2.7-2.4,5.4-3.6,8.1
			c-1.5,3.3-3.4,6.4-4.7,9.7c-0.1,0.2-0.2,0.5-0.3,0.7l0,0l-3.6,9c0,0-0.4,0.2-0.5-0.3c0-0.1,0-0.1,0-0.2c0.7-3.2,1.4-6.4,2.1-9.5
			c0.4-1.6,1.1-3.1,1.4-4.8c0.9-4.2-1.2-7.5-5.2-8.7c-0.8-0.2-1.5-0.2-1.7,0.7c-2,7.1-4,14.2-4.3,21.7c-0.1,2.6,0,5.3-2,7.3
			c-0.4,0.5-1.2,1.1-1.6,1c-0.6-0.3-1.1-1-1.4-1.6c-0.2-0.5-0.2-1.2-0.2-1.8c0.1-5.5,1.9-10.6,3.3-15.8c0.5-1.7,0.7-3.5-0.5-4.7
			c-1.5-1.5-3.3-2.7-5.1-3.8c-1.2-0.8-2-0.1-2.6,1c-0.2,0.4-0.8,0.8-1.2,0.9c-2.2,0.4-4.4,0.4-6.5,0.9c-5.1,1.1-9,3.8-11.4,8.6
			c-2.2,4.4-2.2,9-1.9,13.7c0.1,2.9-1.4,5.7-4.1,7c-1.1,0.5-1.8,0.4-2.2-0.3c0,0,0-0.1,0-0.1c-0.7-2.7-0.3-5.5,0.6-8.2
			c1-3.4,2.2-6.7,3.1-10c0.7-2.6,0.2-5-2.2-6.6c-1.4-0.9-3.1-1.5-4.8-2.1c-1.4-0.5-1.6-0.2-1.5,1.3c0.1,1.3,0.4,2.6,0,3.8
			c-0.6,2-3.3,2.8-5.9,2.1c0.1-0.3,0.2-0.6,0.3-0.8c0-0.4-0.1-0.7-0.2-0.9c-1-1.1-3.2-1-4-0.9c-1.7,0.3-3.4,0.5-5.1,0.9
			c-1.5,0.4-1.6,1.7-1.5,2.1c0,0,0,0,0,0c0,0,0,0,0,0.1c0.1,1,0.7,1.9,0.7,1.9c2.2,3.9,1.7,5.3,1.7,5.3c0,1.7-2.7,8.5-2.7,8.5
			c-0.6,1.6-0.9,1.4-0.9,1.4c-0.9,0.1-1.1-1.3-1.1-1.3c-0.3-1.1-0.6-2.3-0.6-3.4c0-1.7,0.3-3.3,0.5-5c0.1-1.2-0.3-1.7-1.5-1.4
			c-2.5,0.7-5.1,1.3-7.6,2c-2.5,0.7-2.9,1.2-2.7,3.7c0.2,2.9-0.4,5.6-1.3,8.3c-2,6.4-5.9,11.2-13,12.3c-5.5,0.9-9.3-0.4-11.1-5.4
			c-0.6-1.8-1-3.8-0.8-5.6c0.6-6,3.1-11.5,5.8-16.9c1.7-3.4,1-3.4,5.1-2.4c0.4,0.1,0.8,0.1,1.2,0.2c5.9,1.5,11.6,1.4,17.2-1.1
			c5.9-2.7,9.3-6.8,9.2-13.5c-0.1-3.2-2.3-7.1-5.8-8c-4.8-1.2-9.5-0.5-14.2,0.3c-4.3,0.7-8,2.7-10.9,5.8c-1.7,1.8-3.3,3.8-5,5.7
			c-0.6,0.6-1.4,1.1-2.2,1.2c-3.9,0.6-7.8,0.8-11.6,1.5c-4.4,0.8-8.8,2-12.6,4.7c-1.6,1.1-3.4,2.2-4.3,3.7
			c-2.2,3.5-2.4,7.4-1.2,11.4c0.2,0.6,0.7,1.2,1.2,1.5c0.2,0.1,1-0.5,1.4-0.9c1.8-1.9,3.3-4.1,5.3-5.7c3.6-2.8,7.5-5.4,12-6.7
			c2-0.6,3.9-1.6,6.3-1.1c-0.2,0.5-0.3,0.9-0.4,1.3c-0.5,1.6-1.2,3.3-1.6,4.9l0,0c0,0-6.1,18-1.8,26.9l0,0c0,0,1.7,4.7,8.3,6.7
			c0,0,0.1,0,0.1,0c0.1,0,0.2,0,0.2,0.1c1,0.3,2,0.5,3.1,0.6c0,0,0,0,0,0l0,0c1.7,0.2,3.4,0.1,5.2-0.1c7.4-0.9,13-4.9,17.5-10.5
			c1-1.3,2-2.6,3-4c0,0,0.2-0.2,0.5-0.1c0,0,0.2,0,0.2,0.5c0,0,0.1,1,0,1.8c0,0-0.1,0.9-0.6,1.7c-0.1,0.1-0.2,0.2-0.3,0.4
			c0,0,0,0,0,0h0c-2.5,3.5-12.5,17.9-12.9,24.4c0,0.9,0.1,1.8,0.4,2.8c0.7,2.2,1.7,4.4,4.1,5.4c1.5,0.6,3.1,0.9,4.6,0.7l0.1,0
			c0.6-0.1,1.2-0.2,1.8-0.4l0,0c0,0,0,0,0,0c1.7-0.5,3.1-1.3,4.4-2.2c4.3-2.8,6.3-6.7,7-8.3v0l0,0c0.2-0.5,0.3-0.8,0.3-0.8s0,0,0,0
			c0.7-1.7,1-3.5,1.2-5c1.1-6.1,0.4-10.5,0.4-10.5l0,0c-0.1-1.9-0.3-3.8-0.7-5.7c-0.2-1,1-3.9,1-3.9l7.2-17.9
			c0.5-1.4,1.9-1.6,1.9-1.6l0,0c1-0.1,2-0.2,3-0.4c0,0.3,0,0.6,0,0.8c-0.2,3.2-0.4,6.3-0.5,9.5c0,3.7,2.2,6.8,5.2,8.2
			c0,0,4.5,1,9.2-2.6c0,0,1.4-1.2,2.1-1.9c0,0,1.2-1.5,3.1-0.9l0,0c3.9,1.9,8,2.1,11.9-0.1c1.9-1.1,3.6-1.1,5.5-0.3
			c3.2,1.4,6.2,1,8.8-1.4c1-0.9,1.9-1,3.1-0.3c1.9,1.1,4,0.9,5.3-0.4c1.8-1.8,2.8-4,3.5-6.5c0.9-3.2,2-6.3,3-9.4
			c0,0,0.4-0.6,0.7-0.2c0.6,1.9,1.1,3.6,1.8,5.3c1.9,4.5,6.5,5.8,10.4,3.1c0.3-0.2,0.7-0.4,1-0.7c0.8-0.6,1.6-1.2,2.4-1.8
			c0.3-0.2,0.6-0.4,0.8-0.6c0.9-0.7,1.6-0.8,2.7-0.2c1.7,1,3.5,1.7,5.7,1.4c2.9-0.4,5.1-1.7,7-3.8c1.1-1.2,2-1.6,3.3-1l0,0
			c0,0,0,0,0.1,0.1c0.1,0,0.1,0.1,0.2,0.1c0.8,0.4,2.9,1.5,5.1,2c11.4,2.6,15.6-8.1,15.6-8.1v0c0.4-0.7,0.7-1.5,1.1-2.4l3.8-9.5l0,0
			c0.2-0.5,0.4-1.1,0.6-1.6c0.2-0.4,0.6-0.8,1-0.9c1.3-0.3,2.6-0.4,3.9-0.5c0,0.3,0,0.6,0,0.8c-0.2,3.2-0.4,6.3-0.5,9.5
			c-0.1,5.5,5,9.9,10.2,8.7c0.2,0,0.3-0.1,0.5-0.1v0c0,0,0.5-0.1,1.2-0.4c0.1,0,0.2-0.1,0.2-0.1c0.8-0.3,1.8-0.8,2.8-1.5
			c0.1-0.1,0.2-0.1,0.3-0.2c0.3-0.1,1-0.4,1.6-0.4c0.5,0,1,0.1,1.5,0.3c0.9,0.6,1.9,0.9,2.9,1.1c0.2,0,2.3,0.3,5.1-0.3
			c0.1,0,0.2-0.1,0.3-0.1c0.3-0.1,2-0.8,2.7-1.5c0,0-1.9,8.5-11,15.2c0,0-5.5,5-16.8,8.5c0,0-12.9,3.2-25,2l-11.4-0.5
			c-0.2,0-0.4,0-0.6,0c-6.9-0.1-13.7-0.6-20.6,0.3c-7.1,0.9-14.2,1.7-21.3,2.8c-2.3,0.4-4.5,0.8-6.7,1.3
			c-18.6,4.4-30.1,9.7-36.5,13.5c-0.2,0.1-5.8,4.2-9.7,8.1c-0.9,1-1.8,2-2.7,3c-0.4,0.5-2,2.5-2,3.7c0.1,0.6,0.3,1.2,0.9,1.6
			c0.2,0.1,1.4,0.7,4.4,0.5c0.2,0,0.5,0,0.7-0.1c4.2-0.5,7.7-2.8,10.8-5.5c1.5-1.3,2.6-2.9,4.2-4c4.8-3.4,10.1-6.1,15.6-8.2
			c4.2-1.6,8.4-2.9,12.7-4.2c3.5-1,6.9-2.2,10.5-2.7c6.6-1,13.2-1.6,19.8-2.3c1.7-0.2,3.4-0.3,5.1-0.3c10.2,0.5,20.4,1,30.7,1.5
			c6.8,0.4,13.5,0.1,20.1-1.8c1.5-0.4,3-0.9,4.4-1.4l0,0c19.8-6.9,28.1-19.8,28.2-20c0.7-1.1,1.3-2.2,1.9-3.4
			C471,370.4,471.7,366.7,470.9,362.8z M404,353.5c0.9-2.8,2.1-5,4.9-6.1c0.3-0.1,0.6-0.1,0.9-0.1c0.4,0,0.9,0.2,1,1
			c0,0.1,0,0.7-0.2,1c-1.3,2.4-3.2,4.2-6.3,4.6C403.9,353.9,403.9,353.6,404,353.5z M270.4,357.1L270.4,357.1
			C270.4,357.1,270.5,357.1,270.4,357.1c0.1,0,0.1,0,0.1,0c1-0.3,8-2.6,10.7-0.6c0.2,0.1,0.3,0.2,0.4,0.4c0,0,0,0,0,0l0,0
			c0.1,0.2,0.2,0.4,0.2,0.7c0,0.3-0.1,0.6-0.2,0.9c-1,1.7-2.8,2.4-3.8,2.7c-4.1,0.8-8.2,0.7-12.5-0.3
			C266.9,359.2,268.5,357.8,270.4,357.1z M286.3,414.5L286.3,414.5c-0.2,0.6-0.5,1.2-0.8,1.9l0,0c-1.6,4.2-2.8,5-2.8,5l0,0
			c-1.6,2-2.9,1.1-2.9,1.1c0,0-1-0.3-0.4-2.4c0-0.1,0-0.1,0.1-0.2c0-0.1,0-0.2,0.1-0.2c0-0.1,0.1-0.2,0.1-0.3c0-0.1,0.1-0.2,0.1-0.3
			c0-0.1,0.1-0.2,0.1-0.4c0,0,0-0.1,0.1-0.1l0,0c1.2-2.8,3.7-6.8,3.7-6.8s1.7-2.8,2.6-3.8c0,0,1.1-0.9,1.3,0.7
			C287.6,408.4,287.4,411.8,286.3,414.5z M339.4,366.5c0,0-0.6,7.6-0.4,13.2c0,0,0,0.5-0.2,1.1c-1.6,3-6.9,3.1-6.9,3.1
			c-1.5-0.1-2.7-0.9-3.5-1.8c-1.3-1.6-1.6-3.6-1.6-4c-0.2-4.4,0.8-8.4,3.9-11.3c0.8-0.7,1.7-1.4,2.8-2c1.1-0.6,2.5-0.9,3.8-0.9
			c0.6,0,1,0,1.3,0.2l0,0c0,0,0,0,0,0c0,0,0,0,0,0C338.9,364.4,339.8,365,339.4,366.5z"/>
	</g>
</g>
<g>
	<path class="st0" d="M574.7,228.3"/>
	<path class="st0" d="M587.6,212c0,0-7.3,14.9-13.6,16.5l3.7,0.9c0,0,5.3-3.9,5.4-4.1c0.1-0.2,6.6-13.5,6.6-13.5L587.6,212z"/>
	<path class="st0" d="M601.8,203.2"/>
	<g>
		<path class="st2" d="M766.1,122.5c6.9,3.5,13.2-0.6,14.7-7.5c0.4-2.1-0.6-3.1-2.8-3.3c-2.8,0.2-5.5,0.5-8.3,0.7
			c-3.5,0.3-6,2.8-5.7,6.2C764.1,120,764.9,122,766.1,122.5z"/>
		<path class="st2" d="M875.9,128.2c6.9,3.5,13.2-0.6,14.7-7.5c0.4-2.1-0.6-3.1-2.8-3.3c-2.8,0.2-5.5,0.5-8.3,0.7
			c-3.5,0.3-6,2.8-5.7,6.2C874,125.7,874.8,127.6,875.9,128.2z"/>
		<path class="st2" d="M894.5,184c0-4.4-1.7-8.1-4-11.6c-3.2-4.2-6.3-0.5-6.3-0.5l0,0c-2.2,2.4-4.7,4.5-8,5.4
			c-2.7,0.8-4.5-0.3-4.8-2.7c0-1.7,0.2-3.3,0.6-4.9c1.6-6.3,4.8-11.9,8.2-17.4c1.2-1.9,2.3-4.2,2.6-6.4c0.5-5.6-0.6-7.9-7.9-11.3
			c-1.8-0.9-2.7-0.5-3.4,1.2c-3,7.5-6.1,14.9-8.8,22.4c-1.8,4.9-3,10.1-4.5,15.1c0,0.1-0.1,0.3-0.2,0.4l0,0c0,0,0,0.1,0,0.1
			c0,0.1-0.1,0.2-0.1,0.3c-1.4,2.4-3.7,2.7-4.8,2.7c-0.1,0-0.1,0-0.2,0c-0.2,0-0.4,0-0.4,0l0,0c-0.3,0-0.5-0.1-0.8-0.3
			c-1.2-0.7-2.3-2.6-2.4-4c-0.3-4.6,1.3-8.8,3.5-12.7c2.7-5,5.5-9.9,8.1-14.9c2-3.9,1.9-7.9-1.4-11.1c-2-1.9-4.5-3.4-6.9-4.8
			c-2.1-1.2-2.6-0.8-2.9,1.6c-0.3,2-0.3,4.3-1.2,6c-1.5,3-6.2,3.4-9.9,1.5c0.3-0.5,0.5-0.9,0.7-1.2c0.2-0.7,0.1-1.2,0-1.5
			c-1.3-2-4.7-2.6-6-2.7c-2.8-0.1-5.5-0.2-8.3-0.2c-2.5,0.1-3,2.2-3.1,2.9c0,0,0,0,0,0c0,0,0,0.1,0,0.1c-0.1,1.7,0.6,3.2,0.6,3.2
			c2.3,6.9,1,8.9,1,8.9c-0.3,1.4-2.1,4.7-3.8,7.5v0c0,0,0,0,0,0.1c-1.1,1.9-2.2,3.7-2.8,4.5c-0.1,0.2-0.3,0.5-0.4,0.7
			c-2.4,4.2-5,6.9-7.3,8.7l0,0c-4.5,3.8-8.6,3.2-8.6,3.2l0,0c-0.3,0-0.6-0.1-0.9-0.1c-5.2-0.6-8.2-3.9-9.6-6.2
			c-0.1-0.1-1.7-3.3-0.9-7.6c0.1-0.1,0.2-0.3,0.5-0.4c1.4,0.2,2.8,0.3,4.1,0.5c12.5,1.9,20.4-2.9,24.1-14.5
			c2.4-7.4-3-15.3-10.9-16.1c-6.5-0.6-12.5,1.4-17.4,5.3c-9.5,7.6-14.3,17.4-11.8,29.8c0.1,0.7,0.2,1.7-0.1,2.2
			c-1.7,2.5-3.8,4.6-6.9,5.4c-4.8,1.3-7.4-1-5.7-5.7c2-5.8,4.8-11.5,7.2-17.2c1-2.4,2.5-4.7,3-7.2c1-4.8-3.4-10.6-8.5-11.4
			c-0.7-0.1-1.8,0.5-2.2,1c-1.2,2.3-2,4.8-3.2,7.1c0,0-6.1,19.6-8.2,25.5l0,0c0,0-0.1,0.4-0.3,0.9c-0.1,0.2-0.1,0.4-0.2,0.5l0,0
			c-0.7,1.6-2.3,4.1-5,5.2c-4.7,1.2-5.6-2.2-5.7-3.4c-0.3-2.9,0.8-5.6,2-8.2c2.6-5.3,5.7-10.4,8.5-15.6c2-3.6,2.1-7-0.8-10.2
			c-1.5-1.6-3.2-3-4.8-4.5c-1.5-1.5-2.4-0.7-3.4,0.6c-2.7,3.9-5.5,7.8-8.2,11.6c-3.4,4.7-7.4,9-10.6,13.9c-0.2,0.3-0.4,0.7-0.6,1
			l0,0l-8.5,13.1c0,0-0.7,0.2-0.7-0.6c0-0.1,0-0.2,0.1-0.3c2.1-4.8,4.2-9.6,6.4-14.4c1.1-2.4,2.7-4.6,3.8-7.1
			c2.8-6.4,0.6-12.3-5.4-15.3c-1.2-0.6-2.2-0.9-3,0.6c-5.4,10.6-10.8,21.2-13.6,32.9c-1,4-1.7,8.3-5.5,11c-0.8,0.6-2.3,1.4-2.8,1
			c-0.9-0.6-1.5-1.9-1.8-3c-0.2-0.9,0.1-2,0.3-3c1.9-8.6,6.3-16.1,10.2-23.9c1.3-2.5,2.2-5.2,0.7-7.6c-1.8-2.8-4.4-5.2-6.8-7.7
			c-1.7-1.7-3.2-0.8-4.5,0.8c-0.5,0.6-1.5,1.1-2.2,1.1c-3.5-0.1-7.1-0.7-10.6-0.6c-8.4,0.1-15.5,3.2-20.7,9.9
			c-4.8,6.2-6.3,13.6-7.4,21.1c-0.7,4.7-3.9,8.5-8.6,9.7c-1.8,0.5-3,0.1-3.4-1.1c0-0.1,0-0.1,0-0.2c-0.3-4.6,1.3-8.8,3.5-12.7
			c2.7-5,5.5-9.9,8.1-14.9c2-3.9,1.9-7.9-1.4-11.1c-2-1.9-4.5-3.4-6.9-4.8c-2.1-1.2-2.6-0.8-2.9,1.6c-0.3,2-0.3,4.3-1.2,6
			c-1.5,3-6.2,3.4-9.9,1.5c0.3-0.5,0.5-0.9,0.7-1.2c0.2-0.7,0.1-1.2,0-1.5c-1.3-2-4.7-2.6-6-2.7c-2.8-0.1-5.5-0.2-8.3-0.2
			c-2.5,0.1-3,2.2-3.1,2.9c0,0,0,0,0,0c0,0,0,0.1,0,0.1c-0.1,1.7,0.6,3.2,0.6,3.2c2.3,6.9,1,8.9,1,8.9c-0.5,2.6-6.9,12.6-6.9,12.6
			c-1.5,2.3-1.9,1.9-1.9,1.9c-1.5-0.1-1.4-2.4-1.4-2.4c-0.1-1.9-0.2-3.8,0.2-5.6c0.6-2.6,1.6-5.2,2.4-7.8c0.6-1.8,0.1-2.8-2-2.6
			c-4.2,0.3-8.4,0.5-12.6,0.8c-4.1,0.3-5,0.9-5.5,5c-0.5,4.7-2.4,8.7-4.6,12.7c-5.3,9.5-12.9,15.8-24.4,15.4
			c-9-0.3-14.6-3.6-15.9-12c-0.5-3-0.4-6.3,0.5-9.2c2.9-9.3,8.5-17.3,14.5-24.9c3.8-4.8,2.7-5,8.8-2.2c0.6,0.3,1.2,0.5,1.8,0.7
			c8.8,4.3,17.9,5.9,27.5,3.7c10.1-2.3,16.9-7.8,18.7-18.4c0.9-5.1-1.4-12-6.6-14.5c-7.2-3.4-14.8-3.8-22.5-4
			c-7.1-0.2-13.4,1.7-19.1,5.7c-3.3,2.3-6.4,5-9.8,7.4c-1.1,0.7-2.6,1.2-3.9,1.1c-6.3-0.3-12.6-1.2-18.9-1.3
			c-7.3-0.2-14.6,0.4-21.3,3.4c-2.8,1.2-6,2.4-8,4.5c-4.6,4.8-6.2,11-5.4,17.6c0.1,1,0.6,2.1,1.4,2.8c0.3,0.3,1.7-0.4,2.5-1
			c3.4-2.4,6.5-5.5,10.2-7.4c6.6-3.4,13.5-6.1,21.1-6.8c3.3-0.3,6.7-1.3,10.3,0.2c-0.4,0.7-0.7,1.4-1.1,2c-1.4,2.4-2.9,4.8-4.2,7.2
			l0,0c0,0-15.4,26.6-11.4,41.9l0,0c0,0,1.1,8,10.9,13.2c0.1,0,0.1,0.1,0.2,0.1c0.1,0.1,0.2,0.1,0.4,0.2c1.5,0.8,3.1,1.4,4.7,1.9
			c0,0,0,0,0.1,0l0,0c2.6,0.8,5.4,1.3,8.2,1.5c12,0.9,22.1-3.7,31-11.1c2.1-1.7,4-3.6,6-5.3c0,0,0.3-0.2,0.8,0c0,0,0.4,0,0.2,0.8
			c0,0-0.2,1.5-0.5,2.9c0,0-0.4,1.5-1.5,2.6c-0.1,0.1-0.3,0.3-0.5,0.5c0,0,0,0,0,0l0,0c-5.1,4.8-25.4,24.3-28.2,34.5
			c-0.3,1.5-0.4,3-0.2,4.5c0.5,3.8,1.3,7.6,4.8,9.8c2.2,1.5,4.6,2.3,7,2.6l0.1,0.1c1,0.1,2,0.1,3,0l0,0c0,0,0,0,0.1,0
			c2.8-0.2,5.4-1,7.7-2c7.7-3.1,12.1-8.6,13.7-11l0,0l0,0c0.5-0.7,0.7-1.2,0.7-1.2s0,0,0,0c1.6-2.5,2.8-5.3,3.6-7.5
			c3.7-9.2,4-16.5,4-16.5l0,0c0.4-3,0.7-6.1,0.8-9.2c0.1-1.7,2.8-5.8,2.8-5.8l17-26c1.3-2,3.6-1.9,3.6-1.9l0,0
			c1.6,0.1,3.2,0.2,4.8,0.4c-0.1,0.5-0.1,0.9-0.2,1.3c-1.3,4.9-2.7,9.8-3.8,14.8c-1.2,5.8,1.3,11.5,5.7,14.6c0,0,6.8,3,15.3-1.1
			c0,0,2.7-1.5,3.9-2.4c0,0,2.4-1.9,5.2-0.4l0,0c5.6,4.3,11.9,5.8,18.8,3.6c3.3-1.1,6-0.6,8.8,1.3c4.6,3.2,9.5,3.5,14.4,0.6
			c1.8-1.1,3.3-1,5,0.5c2.7,2.4,6.1,2.7,8.5,1.1c3.5-2.3,5.8-5.5,7.6-9.1c2.4-4.8,5.1-9.3,7.7-14c0,0,0.8-0.8,1.2,0
			c0.4,3.1,0.6,6.1,1.1,8.9c1.5,7.8,8.4,11.3,15.5,8.2c0.6-0.2,1.2-0.5,1.8-0.7c1.5-0.7,2.9-1.3,4.3-2.1c0.5-0.2,1-0.4,1.5-0.7
			c1.7-0.8,2.8-0.8,4.3,0.5c2.4,2.2,5,3.9,8.6,4.1c4.7,0.3,8.6-1,12.2-3.7c2.1-1.6,3.7-1.9,5.5-0.6l0,0c0,0,0.1,0,0.1,0.1
			c0.1,0.1,0.2,0.2,0.3,0.2c1.1,0.9,4.1,3.2,7.4,4.8c17.2,7.6,27.2-7.8,27.2-7.8l0,0c0.8-1,1.6-2.1,2.4-3.4l9.1-13.8l0,0
			c0.5-0.8,1-1.5,1.5-2.3c0.4-0.6,1.2-1.1,1.9-1.2c2.1,0,4.2,0.2,6.3,0.4c-0.1,0.5-0.1,0.9-0.2,1.3c-1.3,4.9-2.7,9.8-3.8,14.8
			c-1.8,8.7,4.7,17.2,13.4,16.9c0.3,0,0.5,0,0.8,0l0,0c0,0,0.8,0,2.1-0.2c0.1,0,0.3,0,0.4-0.1c1.3-0.2,3-0.6,4.9-1.4
			c0.2-0.1,0.4-0.1,0.5-0.2c0.6-0.1,1.6-0.3,2.7-0.1c0.8,0.2,1.5,0.5,2.2,1c1.3,1.2,2.7,2.1,4.2,2.7c0.3,0.1,3.6,1.2,8.2,1.1
			c0.2,0,0.4,0,0.6,0c0.5-0.1,3.4-0.6,4.8-1.6c0,0-5.8,12.7-22.2,20.6c0,0-10.3,6.2-29.3,8.1c0,0-21.4,0.9-40.1-4.7l-17.8-4.3
			c-0.3-0.1-0.6-0.1-0.9-0.2c-10.8-2.4-21.5-5.4-32.7-6.1c-11.5-0.8-23-1.8-34.5-2.3c-3.7-0.2-7.4-0.1-11.1-0.1
			c-30.8,1-50.6,5.8-62,9.8c-0.3,0.2-10.4,4.7-18,9.8c-1.8,1.3-3.5,2.6-5.3,3.9c-0.8,0.6-4,3.3-4.3,5.2c-0.1,0.9,0.1,1.9,1,2.8
			c0.2,0.2,2,1.5,6.8,2.1c0.4,0,0.8,0.1,1.1,0.1c6.9,0.5,13-2,18.8-5.3c2.7-1.5,5.1-3.8,7.9-5.1c8.7-3.8,17.9-6.4,27.3-7.9
			c7.1-1.2,14.3-2,21.4-2.7c5.8-0.6,11.6-1.2,17.4-0.9c10.7,0.5,21.4,1.7,32,2.7c2.7,0.2,5.5,0.5,8.2,1.2c16,4,32,8.1,48,12.2
			c10.6,2.7,21.3,4.4,32.3,3.5c2.5-0.2,5-0.5,7.5-0.8l0,0c33.5-4.7,50.8-22.4,50.9-22.6c1.4-1.5,2.8-3.1,4.1-4.8
			C892.2,196,894.5,190.3,894.5,184z M791.6,148.1c2.3-4.2,4.9-7.3,9.6-8c0.4-0.1,0.9,0,1.4,0.1c0.6,0.2,1.4,0.6,1.3,1.8
			c0,0.2-0.2,1-0.6,1.5c-2.9,3.4-6.3,5.6-11.3,5.2C791.4,148.6,791.5,148.2,791.6,148.1z M579.4,111.4L579.4,111.4c0,0,0.1,0,0.2,0
			c0,0,0,0,0.1,0c1.7-0.2,13.5-1.6,17.1,2.5c0.2,0.2,0.4,0.5,0.5,0.8c0,0,0,0,0,0l0,0c0.1,0.3,0.2,0.7,0.1,1.2
			c-0.1,0.5-0.3,0.9-0.7,1.3c-2.1,2.4-5.1,2.9-6.9,3.1c-6.7,0-13.1-1.4-19.7-4.4C573.1,113.6,576.1,111.8,579.4,111.4z M586.3,207.1
			L586.3,207.1c-0.5,0.9-1.2,1.8-1.8,2.7l0,0c-3.9,6.1-5.9,7-5.9,7l0,0c-3.2,2.6-5,0.8-5,0.8c0,0-1.4-0.8,0.2-4
			c0-0.1,0.1-0.2,0.1-0.3c0.1-0.1,0.1-0.2,0.2-0.3c0.1-0.2,0.2-0.3,0.3-0.5c0.1-0.1,0.2-0.3,0.3-0.4c0.1-0.2,0.2-0.3,0.3-0.5
			c0-0.1,0.1-0.1,0.1-0.2l0,0c2.8-4,8.1-9.6,8.1-9.6s3.6-3.9,5.3-5.1c0,0,2-1,1.8,1.4C590.3,198,588.8,203.3,586.3,207.1z
			 M685.4,148.2c0,0-3.4,11.8-4.8,20.8c0,0-0.1,0.8-0.6,1.7c-3.6,4.3-11.9,2.8-11.9,2.8c-2.4-0.6-4-2.3-5-4c-1.6-3-1.4-6.2-1.3-6.8
			c1.1-7,4-13.1,9.8-16.7c1.5-0.9,3.1-1.7,5-2.3c1.9-0.6,4.2-0.6,6.2-0.3c1,0.1,1.6,0.4,2,0.7l0,0c0,0,0,0,0,0c0,0,0,0,0,0
			C685.3,144.6,686.5,145.8,685.4,148.2z"/>
	</g>
</g>
<path class="st1" d="M120.6,314.2"/>
<g>
	<path class="st1" d="M215.3,308.4c4.7,1.3,8.1-2,8.2-6.5c0-1.4-0.8-1.9-2.2-1.7c-1.7,0.5-3.4,1-5.1,1.5c-2.1,0.6-3.4,2.5-2.7,4.5
		C213.7,307.1,214.5,308.2,215.3,308.4z"/>
	<path class="st1" d="M326.1,317.4c-0.3-0.5-0.6-1-0.9-1.4c-0.2-0.3-0.9-1-1.8-1.1c-0.1,0-0.3,0-0.4,0c-0.7,0.1-1.1,0.7-1.1,0.8
		c-0.1,0.2-0.3,0.5-0.5,0.9l0,0c0,0,0,0,0,0.1l0,0c-1,2.6-2.9,4.5-2.9,4.5c-2.1,1.7-3.3,1.3-4,0.7l0,0c0,0-0.1-0.1-0.1-0.1
		c-0.4-0.4-0.6-0.9-0.6-0.9c-0.3-0.5-0.2-1.2-0.2-1.9c0.1-5.6,1.9-10.8,3.4-16.1c0.5-1.7,0.7-3.5-0.5-4.8c-1.5-1.5-3.4-2.7-5.2-3.9
		c-1.3-0.8-2.1-0.1-2.7,1c-0.2,0.4-0.8,0.9-1.2,0.9c-2.2,0.4-4.5,0.4-6.7,0.9c-5.2,1.1-9.2,3.9-11.6,8.7c-2.2,4.5-2.2,9.2-2,14
		c0.1,2.4-0.9,4.7-2.7,6.2c-0.1,0.1-0.2,0.1-0.3,0.2c-1.2,0.4-2.2,0.4-2.8-0.9c-1-2.1-0.6-4.2-0.1-6.2c1-3.6,2.2-7.2,3.4-10.7
		c0.8-2.5,0.4-4.6-1.8-6.2c-1.1-0.8-2.3-1.5-3.5-2.2c-1.1-0.7-1.6-0.2-2,0.8c-1.2,2.8-2.4,5.5-3.7,8.2c-1.5,3.3-3.4,6.5-4.8,9.9
		c-0.1,0.2-0.2,0.5-0.3,0.7l0,0l-3.7,9.2c0,0-0.4,0.2-0.5-0.3c0-0.1,0-0.1,0-0.2c0.7-3.2,1.4-6.5,2.2-9.7c0.4-1.6,1.1-3.2,1.5-4.9
		c0.9-4.3-1.2-7.7-5.3-8.8c-0.8-0.2-1.5-0.2-1.8,0.7c-2,7.2-4,14.5-4.4,22.1c-0.1,2.6,0,5.4-2,7.5c-0.1,0.1-0.2,0.2-0.4,0.3
		c-0.9,0.7-1.6,0.3-1.8,0.2c-0.4-0.3-0.7-0.8-0.9-1.2c-0.3-0.5-0.2-1.2-0.2-1.9c0.1-5.6,1.9-10.8,3.4-16.1c0.5-1.7,0.7-3.5-0.5-4.8
		c-1.5-1.5-3.4-2.7-5.2-3.9c-1.3-0.8-2.1-0.1-2.7,1c-0.2,0.4-0.8,0.9-1.2,0.9c-2.2,0.4-4.5,0.4-6.7,0.9c-5.2,1.1-9.2,3.9-11.6,8.7
		c-2.2,4.5-2.2,9.2-2,14c0.1,3-1.4,5.8-4.1,7.1c-1.4,0.7-2.3,0.4-2.6-1.2c-0.3-1.3-0.5-2.7-0.4-4.1c0.2-4.1,1.5-8,2.9-11.8
		c0.5-1.4,0.9-2.9,0.8-4.3c-0.4-3.5-1.3-4.8-6.3-6c-1.2-0.3-1.8,0.1-2,1.1c-0.9,5-1.9,10-2.7,15c-0.5,3.3-0.6,6.6-0.9,9.9
		c0,0.1,0,0.2-0.1,0.3l0,0c0,0,0,0,0,0.1c0,0.1,0,0.1-0.1,0.2c-0.6,1.6-2,2.1-2.6,2.3c0,0-0.1,0-0.1,0c-0.2,0-0.2,0-0.2,0l0,0
		c-0.2,0-0.4,0-0.5-0.1c-0.8-0.3-1.7-1.3-2-2.2c-0.8-2.8-0.3-5.6,0.6-8.3c1-3.4,2.2-6.8,3.2-10.2c0.7-2.7,0.2-5.1-2.3-6.7
		c-1.5-0.9-3.2-1.6-4.9-2.1c-1.4-0.5-1.7-0.2-1.6,1.3c0.1,1.3,0.4,2.7,0,3.9c-0.6,2-3.4,2.9-6,2.1c0.1-0.3,0.2-0.6,0.3-0.9
		c0-0.4-0.1-0.7-0.2-0.9c-1.1-1.1-3.2-1-4-0.9c-1.7,0.3-3.5,0.5-5.2,0.9c-1.5,0.4-1.6,1.8-1.6,2.2c0,0,0,0,0,0c0,0,0,0,0,0.1
		c0.1,1.1,0.8,1.9,0.8,1.9c2.3,4,1.7,5.4,1.7,5.4c0,0.9-0.7,3.1-1.4,5.1l0,0c0,0,0,0,0,0c-0.5,1.3-0.9,2.5-1.1,3.1
		c-0.4,1-0.7,2-0.9,2.5c0,0-3,6.7-6.4,4.7l0,0c0,0,0,0,0,0c-1-1-0.6-3.5-0.6-3.5c0-0.2,0-0.4,0-0.5c0.4-4.8,1-9.7,1.6-14.5
		c0.5-4.5,2.1-8.5,4.3-12.5c1.7-3,2.4-5.6,0.1-8.1c-1-1.1-2.4-1.7-3.7-2.4c-2.6-1.4-3.7-0.8-4.2,2c0,0.2-0.1,0.4-0.1,0.6
		c-1,4.8-2.1,9.5-3.1,14.3c-0.4,1.7-1.3,2.4-3,2.4c-4.6,0-8.1,2.3-10.8,5.5c-4.2,5.2-6.3,10.9-5.2,17.3c0,0,0,0,0,0s0.1,1.8-0.3,2.9
		c-0.6,1.5-1.9,3.5-4.4,3.7c0,0-0.7,0.1-1.7-0.4c-0.4-0.2-0.7-0.4-1-0.6c-0.1-0.1-0.3-0.3-0.4-0.4c-1.1-1.1-1.9-2.7-2.2-3.4
		c-1.1-2.8-1.6-5.8-1.5-8.9c0-1.2,0.5-2,1.8-2.5c3.1-1.1,6.1-5.5,6-8.6c0-1.4-0.6-1.9-2-1.7c-0.8,0.1-1.6,0.3-2.4,0.4
		c-1.2,0.2-1.6-0.4-1.3-1.5c0.3-1.4,0.6-2.9,1-4.3c0.9-3.3,1.9-6.5,2.8-9.8c0.9-3.2-0.9-6.5-3.7-6.9c-3.4-0.5-6.6,0.1-9.4,2
		c-1.2,0.8-2.3,1.7-3.3,2.7c-0.9,1-5.8,6.8-9.8,24.5c0,0-1.4,5.6-3.3,11.1l0,0c-3.1,10-7.9,12.9-7.9,12.9s-0.3,0.1-0.3-0.2
		c0,0,1.4-5-3-11.1c-0.1-0.1-0.1-0.2-0.1-0.2c-3.7-3.3-7.7-3.1-10.6-2.3c-0.8,0.3-6.7,2.4-8.1,9.9c0,0-1,8.2,4.9,12.2l0.4,0.3
		c0,0,0.2,0.3,0,0.5c0,0-0.7,0.2-1.6,0.5c-0.9,0.3-1.7,0.5-2.6,0.7c-0.2,0-0.3,0.1-0.4,0.1l0,0c-1.7,0.3-3.5,0.4-5.4,0.2
		c-1.8-0.1-3.6-0.1-5.4,0c-1.7,0.1-2.4,1.6-1.4,2.9c0.8,1.2,1.7,2.4,2.8,3.3c1.2,1,2.6,2.1,4,2.4c1.9,0.4,3.9,0.1,5.9-0.2
		c4.3-0.5,8.2-2.3,11.7-4.9c0.5-0.4,1.1-0.8,1.6-1.2v0.1c8.2-1,14.3-6.5,15.6-7.8c3.2-3.4,5.4-7.2,6.8-10.2v0
		c1.7-3.3,3.5-9.6,3.5-9.6s0,0,0,0c0.2-0.7,0.4-1.4,0.6-2.1c0.8-3.1,0.9-3.2,4.3-2.9c0.1,0,0.2,0,0.3,0l0,0c1,0.1,0.9,1.7,0.9,1.7
		l0.3,7.1c0.1,2.8,0.8,5.1,1.7,6.8c0.6,1.2,3.2,5.6,9.3,6.3c1.4,0.1,2.2-0.1,2.2-0.1l0,0c1.2-0.1,1.9-0.4,1.9-0.4l0,0
		c0.6-0.2,1.2-0.4,1.8-0.7c0.6-0.3,1.1-0.7,1.6-1l0,0c0,0,2.9-2.2,5.9-1.8c0.2,0.1,0.5,0.1,0.7,0.1c0,0,0,0,0,0l0,0
		c2.9,0.6,5,0.6,6.4,0.5c2.6-0.2,5.2-2.1,5.2-2.1l0,0c1.6-1.1,3.2-1.3,5.2-1.1c0,0,6.7,1.3,10.7-5.2l0,0c0.7-1.1,1.5-2.5,2.3-4.5
		l3.9-9.7l0,0c0.2-0.5,0.4-1.1,0.6-1.6c0.2-0.4,0.6-0.9,1-0.9c1.3-0.3,2.6-0.4,4-0.5c0,0.3,0,0.6,0,0.8c-0.2,3.2-0.5,6.4-0.5,9.6
		c-0.1,5.6,5,10.1,10.4,8.8c0.2,0,0.3-0.1,0.5-0.1v0c0,0,0.5-0.1,1.3-0.4c0.1,0,0.2-0.1,0.2-0.1c0.8-0.3,1.8-0.8,2.9-1.5
		c0.1-0.1,0.2-0.1,0.3-0.2c0.3-0.1,1-0.4,1.7-0.4c0.7,0,1.3,0.2,2,0.6c3.2,1.5,6.2,1,8.9-1c1.1-0.8,2.3-1.6,3.3-2.6
		c0.8-0.8,1.4-0.8,2.4-0.3c4.2,2.2,8.5,2.5,12.6,0.1c1.9-1.1,3.6-1.1,5.6-0.3c3.2,1.4,6.3,1,9-1.4c1-0.9,1.9-1,3.2-0.3
		c2,1.1,4.1,0.9,5.4-0.4c1.9-1.8,2.9-4.1,3.6-6.6c0.9-3.2,2-6.4,3-9.6c0,0,0.4-0.6,0.7-0.2c0.6,1.9,1.1,3.7,1.8,5.4
		c1.9,4.6,6.6,5.9,10.6,3.1c0.4-0.2,0.7-0.4,1-0.7c1.1-0.8,2.3-1.6,3.3-2.6c0.8-0.8,1.4-0.8,2.4-0.3c4.2,2.2,8.5,2.5,12.6,0.1
		c1.9-1.1,3.6-1.1,5.6-0.3c0.4,0.2,0.9,0.3,1.3,0.5l0,0c0,0,6.5,2,12.2-1.2c0.3-0.2,0.6-0.3,0.8-0.5c0,0,0.1,0,0.1,0l0,0
		c0.1-0.1,0.2-0.2,0.3-0.2c0,0,0.1,0,0.1-0.1c0.2-0.1,0.3-0.3,0.4-0.4c0.7-0.7,1.1-1.7,1.2-2.2C327.6,321.3,326.8,318.9,326.1,317.4
		z M100,355.1c0,4.2-2.1,5.8-2.1,5.8h-0.7c-2-0.3-3.1-1.8-3.6-2.6c-0.1-0.1-0.2-0.3-0.2-0.4c0-0.1,0-0.1,0-0.1l0,0
		c-0.8-1.8-0.3-3.9-0.3-3.9c1.2-4.3,3.6-3.8,3.6-3.8c1.5,0.1,2.3,0.9,2.8,1.9l0,0c0,0,0.6,1.1,0.6,2.9c0,0,0,0,0,0
		C100,355,100,355.1,100,355.1L100,355.1z M135.5,316.9c-0.5,1.9-0.9,3.7-1.3,5.5c-0.2,0.8-0.2,1.6-0.5,2.3
		c-0.2,0.5-0.8,1.1-1.3,1.2c-2.6,0.5-3,0.1-2.1-2.4c0.6-1.9,1.2-3.8,1.8-5.7c0.2-0.5,0.5-1.1,0.9-1.5c0.4-0.3,0.9-0.7,1.4-0.7l0,0
		C134.3,315.6,135.9,315.2,135.5,316.9z M166.3,340.2c0,1.5-0.1,3.1-0.1,4.6c-0.1,2.2-0.3,2.4-2.6,3c-2.9,0.7-5.9-0.3-6.6-2.5
		c-0.7-2.2-0.7-4.5-0.2-6.9c0.3-1.4,0.8-2.5,1.5-3.6c3.1-4.2,7-5.4,8.1-5.6c0.1,0,0.3,0,0.3,0.3
		C166.5,333.3,166.4,336.7,166.3,340.2z M243.8,320.5c0,0-0.7,7.7-0.4,13.5c0,0,0,0.5-0.2,1.1c-1.7,3.1-7,3.2-7,3.2
		c-1.6-0.1-2.7-0.9-3.6-1.8c-1.3-1.7-1.6-3.7-1.7-4c-0.2-4.5,0.8-8.6,4-11.6c0.8-0.8,1.7-1.4,2.8-2c1.1-0.6,2.5-0.9,3.8-0.9
		c0.6,0,1,0,1.4,0.2l0,0c0,0,0,0,0,0c0,0,0,0,0,0C243.2,318.3,244.1,319,243.8,320.5z M306.1,306.9c0,0-0.7,7.7-0.4,13.5
		c0,0,0,0.5-0.2,1.1c-1.7,3.1-7,3.2-7,3.2c-1.6-0.1-2.7-0.9-3.6-1.8c-1.3-1.7-1.6-3.7-1.7-4c-0.2-4.5,0.8-8.6,4-11.6
		c0.8-0.8,1.7-1.4,2.8-2c1.1-0.6,2.5-0.9,3.8-0.9c0.6,0,1,0,1.4,0.2l0,0c0,0,0,0,0,0c0,0,0,0,0,0
		C305.6,304.7,306.5,305.4,306.1,306.9z"/>
</g>
</svg>
