<?xml version="1.0" encoding="utf-8"?>
<!-- Generator: Adobe Illustrator 18.0.0, SVG Export Plug-In . SVG Version: 6.00 Build 0)  -->
<!DOCTYPE svg PUBLIC "-//W3C//DTD SVG 1.1//EN" "http://www.w3.org/Graphics/SVG/1.1/DTD/svg11.dtd">
<svg version="1.1" id="Layer_1" xmlns="http://www.w3.org/2000/svg" xmlns:xlink="http://www.w3.org/1999/xlink" x="0px" y="0px"
	 viewBox="0 0 1000 706" enable-background="new 0 0 1000 706" xml:space="preserve">
<path fill="#EBE8DC" d="M304.6,863.3"/>
<g>
	<circle fill="none" stroke="#ED5A2A" stroke-width="19" stroke-miterlimit="10" cx="493.3" cy="345.3" r="261"/>
	<line fill="none" stroke="#ED5A2A" stroke-width="19" stroke-miterlimit="10" x1="311.3" y1="158.2" x2="664.5" y2="542.4"/>
	<line fill="none" stroke="#ED5A2A" stroke-width="19" stroke-miterlimit="10" x1="681" y1="167.6" x2="296.8" y2="520.8"/>
	<circle fill="#EE5A2B" cx="495" cy="348" r="302.5"/>
	<path fill="none" d="M597.3,236.5c-4.2,3.6-8.4,7.8-10.8,12.7c-9,18.1-17.5,36.8-25.9,54.8c-6,13.3-2.4,17.5,12.7,17.5
		c9,1.2,16.3-3.6,19.3-12.1c8.4-20.5,16.3-41.6,23.5-62.7c0-0.6,0.6-1.8,0-3C613,227.4,599.7,235.3,597.3,236.5z"/>
	<path fill="none" d="M597.3,236.5c-4.2,3.6-8.4,7.8-10.8,12.7c-9,18.1-17.5,36.8-25.9,54.8c-6,13.3-2.4,17.5,12.7,17.5
		c9,1.2,16.3-3.6,19.3-12.1c8.4-20.5,16.3-41.6,23.5-62.7c0-0.6,0.6-1.8,0-3C613,227.4,599.7,235.3,597.3,236.5z"/>
	<path fill="#EBE8DC" d="M718.4,551.5l-5.4,3c-32.5,25.3-68.1,7.8-78.9-25.3s-13.9-66.3-9-100.6c1.8-12.7,8.4-18.7,20.5-22.9
		c32.5-12.1,54.2-35,61.5-69.9c2.4-11.4-3-17.5-14.5-18.1c-7.8,0-15.1,1.2-22.9,1.2c-10.2,0-13.9-4.8-10.2-14.5
		c4.8-13.9,9.6-27.1,15.1-40.4c11.4-28.3,24.1-55.4,35-83.8c13.3-34.3-4.2-63.9-40.4-68.7c-10.2-1.2-21.1-1.8-31.3-0.6
		c-40.4,4.2-69.9,27.7-97,54.8c-34.3,34.3-53.6,77.1-69.3,121.1c-25.3,71.1-54.8,140.4-91.6,206.7c-22.3,41-55.4,63.9-97.6,69.3
		c13.3,12.1,49.4,42.8,91,62.1c6-4.8,12.1-9.6,17.5-15.1c53-50,88.6-111.5,116.9-178.4c13.9-32.5,13.3-32.5,47.6-25.3
		c7.8,1.8,10.2,6,9.6,12.7c-1.2,18.1-3,36.2-4.8,54.2c-4.8,53,7.2,98.8,55.4,129.6c7.2,4.8,13.9,8.4,20.5,10.8h0.6
		c0,0,17.5-9.6,27.7-16.9c0,0,21.1-14.5,29.5-22.9c0,0,10.2-9,13.9-12.7l0,0C711.8,558.9,715.4,555.3,718.4,551.5z M616,247.3
		c-7.2,21.1-15.1,42.2-23.5,62.7c-3.6,8.4-10.2,12.7-19.3,12.1c-15.1,0-18.7-4.2-12.7-17.5c8.4-18.7,16.3-36.8,25.9-54.8
		c2.4-4.8,6.6-9,10.8-12.7c1.8-1.2,15.1-9,18.7,7.8C616.6,245.5,616.6,246.1,616,247.3z"/>
	<path fill="#EBE8DC" d="M366,621.4c0,0-25.9-11.4-41.6-23.5c0,0-22.9-16.3-26.5-20.5c0,0-10.8-10.2-15.1-13.9l-0.6-0.6l7.2,2.4
		l13.3,4.2l32.5,23.5L366,621.4L366,621.4z"/>
	<path fill="#EBE8DC" d="M373.1,625.2c0,0-56-21.1-91-62.1l102.4-21.7L373.1,625.2z"/>
	<path fill="#EBE8DC" d="M637.1,614.2c0,0,42.2-16.9,81.4-62.7l-41,33.1l-27.1,3L637.1,614.2z"/>
</g>
</svg>
