<?xml version="1.0" encoding="utf-8"?>
<!-- Generator: Adobe Illustrator 18.0.0, SVG Export Plug-In . SVG Version: 6.00 Build 0)  -->
<!DOCTYPE svg PUBLIC "-//W3C//DTD SVG 1.1//EN" "http://www.w3.org/Graphics/SVG/1.1/DTD/svg11.dtd">
<svg version="1.1" id="Layer_1" xmlns="http://www.w3.org/2000/svg" xmlns:xlink="http://www.w3.org/1999/xlink" x="0px" y="0px"
	 viewBox="0 0 612 720.6" enable-background="new 0 0 612 720.6" xml:space="preserve">
<circle fill="none" stroke="#ED5A2A" stroke-width="19" stroke-miterlimit="10" cx="309.5" cy="219.3" r="174.4"/>
<line fill="none" stroke="#ED5A2A" stroke-width="19" stroke-miterlimit="10" x1="187.9" y1="94.3" x2="423.9" y2="351"/>
<line fill="none" stroke="#ED5A2A" stroke-width="19" stroke-miterlimit="10" x1="434.9" y1="100.6" x2="178.2" y2="336.6"/>
<circle fill="#EE5A2B" cx="310.6" cy="221.1" r="202.1"/>
<path fill="none" d="M379,146.6c-2.8,2.4-5.6,5.2-7.2,8.5c-6,12.1-11.7,24.6-17.3,36.6c-4,8.9-1.6,11.7,8.5,11.7
	c6,0.8,10.9-2.4,12.9-8.1c5.6-13.7,10.9-27.8,15.7-41.9c0-0.4,0.4-1.2,0-2C389.5,140.5,380.6,145.8,379,146.6z"/>
<path fill="none" d="M379,146.6c-2.8,2.4-5.6,5.2-7.2,8.5c-6,12.1-11.7,24.6-17.3,36.6c-4,8.9-1.6,11.7,8.5,11.7
	c6,0.8,10.9-2.4,12.9-8.1c5.6-13.7,10.9-27.8,15.7-41.9c0-0.4,0.4-1.2,0-2C389.5,140.5,380.6,145.8,379,146.6z"/>
<path fill="#EBE8DC" d="M459.9,357.1l-3.6,2c-21.7,16.9-45.5,5.2-52.7-16.9c-7.2-22.1-9.3-44.3-6-67.2c1.2-8.5,5.6-12.5,13.7-15.3
	c21.7-8.1,36.2-23.4,41.1-46.7c1.6-7.6-2-11.7-9.7-12.1c-5.2,0-10.1,0.8-15.3,0.8c-6.8,0-9.3-3.2-6.8-9.7c3.2-9.3,6.4-18.1,10.1-27
	c7.6-18.9,16.1-37,23.4-56c8.9-22.9-2.8-42.7-27-45.9c-6.8-0.8-14.1-1.2-20.9-0.4c-27,2.8-46.7,18.5-64.8,36.6
	c-22.9,22.9-35.8,51.5-46.3,80.9c-16.9,47.5-36.6,93.8-61.2,138.1c-14.9,27.4-37,42.7-65.2,46.3c8.9,8.1,33,28.6,60.8,41.5
	c4-3.2,8.1-6.4,11.7-10.1c35.4-33.4,59.2-74.5,78.1-119.2c9.3-21.7,8.9-21.7,31.8-16.9c5.2,1.2,6.8,4,6.4,8.5
	c-0.8,12.1-2,24.2-3.2,36.2c-3.2,35.4,4.8,66,37,86.6c4.8,3.2,9.3,5.6,13.7,7.2h0.4c0,0,11.7-6.4,18.5-11.3c0,0,14.1-9.7,19.7-15.3
	c0,0,6.8-6,9.3-8.5l0,0C455.5,362,457.9,359.6,459.9,357.1z M391.5,153.8c-4.8,14.1-10.1,28.2-15.7,41.9c-2.4,5.6-6.8,8.5-12.9,8.1
	c-10.1,0-12.5-2.8-8.5-11.7c5.6-12.5,10.9-24.6,17.3-36.6c1.6-3.2,4.4-6,7.2-8.5c1.2-0.8,10.1-6,12.5,5.2
	C391.9,152.6,391.9,153,391.5,153.8z"/>
<path fill="#EBE8DC" d="M165.2,540.9"/>
<path fill="#EBE8DC" d="M224.4,403.8c0,0-17.3-7.6-27.8-15.7c0,0-15.3-10.9-17.7-13.7c0,0-7.2-6.8-10.1-9.3l-0.4-0.4l4.8,1.6
	l8.9,2.8l21.7,15.7L224.4,403.8L224.4,403.8z"/>
<path fill="#EBE8DC" d="M229.2,406.3c0,0-37.4-14.1-60.8-41.5l68.4-14.5L229.2,406.3z"/>
<path fill="#EBE8DC" d="M405.6,399c0,0,28.2-11.3,54.4-41.9l-27.4,22.1l-18.1,2L405.6,399z"/>
</svg>
